<?xml version="1.0" encoding="UTF-8" standalone="no"?><!DOCTYPE svg PUBLIC "-//W3C//DTD SVG 1.1//EN" "http://www.w3.org/Graphics/SVG/1.1/DTD/svg11.dtd"><svg width="100%" height="100%" viewBox="0 0 3362 3362" version="1.1" xmlns="http://www.w3.org/2000/svg" xmlns:xlink="http://www.w3.org/1999/xlink" xml:space="preserve" xmlns:serif="http://www.serif.com/" style="fill-rule:evenodd;clip-rule:evenodd;stroke-miterlimit:2;"><path d="M2070.97,2656.33c555.416,-110.282 831,-636.442 615.542,-1175.21c-215.499,-538.771 -840.458,-886.124 -1395.92,-775.842c-555.416,110.283 -831,636.442 -615.499,1175.21c215.499,538.771 840.458,886.126 1395.87,775.842Z" style="fill:none;stroke:#7be152;stroke-width:4.9px;"/><path d="M1920.77,2705.36c583.333,-22.038 948.791,-498.613 816.29,-1064.46c-132.542,-565.844 -712.874,-1006.69 -1296.21,-984.653c-583.374,22.037 -948.834,498.612 -816.292,1064.46c132.542,565.845 712.876,1006.69 1296.21,984.654Z" style="fill:none;stroke:#7be152;stroke-width:4.9px;"/><path d="M1759.89,2730.29c597.543,69.493 1046.54,-344.045 1002.83,-923.657c-43.666,-579.614 -563.501,-1105.81 -1161.04,-1175.31c-597.542,-69.487 -1046.5,344.045 -1002.83,923.659c43.709,579.612 563.501,1105.81 1161.04,1175.3Z" style="fill:none;stroke:#7be152;stroke-width:4.9px;"/><path d="M1592.1,2729.74c597.208,162.107 1121.08,-176.097 1170.08,-755.41c48.959,-579.311 -395.459,-1180.35 -992.667,-1342.46c-597.25,-162.107 -1121.12,176.101 -1170.08,755.41c-49.001,579.311 395.416,1180.35 992.666,1342.46Z" style="fill:none;stroke:#7be152;stroke-width:4.9px;"/><path d="M1421.31,2702.95c582.001,253.542 1169.96,1.45 1313.25,-563.066c143.29,-564.518 -212.293,-1227.68 -794.293,-1481.22c-581.958,-253.543 -1169.92,-1.451 -1313.21,563.065c-143.333,564.518 212.292,1227.68 794.25,1481.22Z" style="fill:none;stroke:#7be152;stroke-width:4.9px;"/><path d="M1251.73,2649.78c551.709,341.461 1191.04,184.444 1428,-350.7c236.959,-535.146 -18.166,-1245.78 -569.875,-1587.24c-551.709,-341.463 -1191.04,-184.446 -1428,350.7c-236.957,535.144 18.209,1245.78 569.875,1587.24Z" style="fill:none;stroke:#7be152;stroke-width:4.9px;"/><path d="M1087.64,2570.72c506.708,423.562 1183,368.496 1510.58,-122.992c327.583,-491.492 182.415,-1233.28 -324.292,-1656.85c-506.668,-423.562 -1183,-368.496 -1510.58,122.992c-327.584,491.492 -182.375,1233.29 324.292,1656.85Z" style="fill:none;stroke:#7be152;stroke-width:4.9px;"/><path d="M933.309,2466.98c447.625,497.611 1145.17,549.019 1557.96,114.829c412.833,-434.192 384.625,-1189.57 -63.001,-1687.18c-447.583,-497.612 -1145.12,-549.02 -1557.96,-114.828c-412.832,434.19 -384.625,1189.57 63.001,1687.17Z" style="fill:none;stroke:#7be152;stroke-width:4.9px;"/><path d="M792.893,2340.37c375.541,561.505 1077.5,721.401 1567.87,357.133c490.377,-364.266 583.46,-1114.75 207.918,-1676.26c-375.5,-561.509 -1077.46,-721.405 -1567.83,-357.137c-490.375,364.266 -583.5,1114.75 -207.957,1676.26Z" style="fill:none;stroke:#7be152;stroke-width:4.9px;"/><path d="M670.351,2193.35c291.791,613.34 980.792,881.079 1538.83,598.008c558.083,-283.071 773.918,-1009.75 482.085,-1623.1c-291.834,-613.338 -980.793,-881.075 -1538.88,-598.01c-558.042,283.071 -773.875,1009.76 -482.041,1623.1Z" style="fill:none;stroke:#7be152;stroke-width:4.9px;"/><path d="M569.226,2028.97c198.25,651.44 856.624,1023.66 1470.5,831.378c613.876,-192.287 950.875,-876.257 752.625,-1527.7c-198.25,-651.44 -856.584,-1023.66 -1470.5,-831.374c-613.875,192.283 -950.832,876.257 -752.624,1527.7Z" style="fill:none;stroke:#7be152;stroke-width:4.9px;"/><path d="M492.81,1850.8c96.791,674.43 707.124,1145.06 1363.25,1051.18c656.084,-93.884 1109.5,-716.726 1012.71,-1391.15c-96.792,-674.43 -707.125,-1145.06 -1363.21,-1051.18c-656.124,93.884 -1109.5,716.726 -1012.75,1391.15Z" style="fill:none;stroke:#7be152;stroke-width:4.9px;"/><path d="M443.768,1662.86c-10.25,681.272 535.333,1241.58 1218.54,1251.49c683.21,9.91 1245.33,-534.332 1255.54,-1215.6c10.209,-681.266 -535.333,-1241.58 -1218.54,-1251.49c-683.207,-9.91 -1245.33,534.332 -1255.54,1215.6Z" style="fill:none;stroke:#7be152;stroke-width:4.9px;"/><path d="M424.1,1469.57c-120.292,671.283 344.875,1310.04 1038.92,1426.7c694.084,116.663 1354.21,-332.94 1474.5,-1004.22c120.249,-671.285 -344.875,-1310.04 -1038.96,-1426.7c-694.043,-116.663 -1354.21,332.945 -1474.46,1004.23Z" style="fill:none;stroke:#7be152;stroke-width:4.9px;"/><path d="M435.225,1275.58c-230.709,644.204 139.917,1347.86 827.791,1571.66c687.917,223.805 1432.63,-116.994 1663.34,-761.2c230.749,-644.204 -139.875,-1347.86 -827.792,-1571.66c-687.917,-223.803 -1432.58,116.997 -1663.33,761.2Z" style="fill:none;stroke:#7be152;stroke-width:4.9px;"/><path d="M477.893,1085.72c-338.835,600.179 -74.96,1353.15 589.416,1681.81c664.333,328.658 1477.58,108.551 1816.42,-491.63c338.832,-600.175 74.916,-1353.15 -589.417,-1681.81c-664.376,-328.658 -1477.62,-108.549 -1816.42,491.63Z" style="fill:none;stroke:#7be152;stroke-width:4.9px;"/><path d="M551.892,904.862c-441.791,539.789 -294.499,1324.77 328.959,1753.31c623.458,428.542 1487.04,338.359 1928.83,-201.424c441.791,-539.787 294.541,-1324.77 -328.959,-1753.31c-623.458,-428.542 -1487,-338.359 -1928.83,201.424Z" style="fill:none;stroke:#7be152;stroke-width:4.9px;"/><path d="M656.475,737.821c-536.916,464.024 -513.541,1262.38 52.167,1783.18c565.709,520.797 1459.58,566.817 1996.5,102.787c536.873,-464.024 513.541,-1262.38 -52.21,-1783.18c-565.708,-520.796 -1459.58,-566.817 -1996.46,-102.787Z" style="fill:none;stroke:#7be152;stroke-width:4.9px;"/><path d="M789.849,589.188c-621.498,374.325 -726.499,1166.51 -234.415,1769.39c492.041,602.887 1394.75,788.171 2016.29,413.847c621.541,-374.327 726.5,-1166.51 234.458,-1769.39c-492.043,-602.883 -1394.79,-788.171 -2016.34,-413.845Z" style="fill:none;stroke:#7be152;stroke-width:4.9px;"/><path d="M949.684,463.254c-693.249,272.488 -927.875,1038.5 -524.084,1710.93c403.792,672.432 1293.08,996.657 1986.33,724.17c693.25,-272.488 927.875,-1038.5 524.082,-1710.93c-403.79,-672.432 -1293.12,-996.657 -1986.33,-724.17Z" style="fill:none;stroke:#7be152;stroke-width:4.9px;"/><path d="M1132.68,363.871c-749.833,160.687 -1112.25,880.562 -809.542,1607.88c302.708,727.325 1155.96,1186.67 1905.75,1025.99c749.833,-160.687 1112.29,-880.562 809.584,-1607.88c-302.71,-727.324 -1155.96,-1186.67 -1905.79,-1025.99Z" style="fill:none;stroke:#7be152;stroke-width:4.9px;"/><path d="M1335.06,294.342c-789.374,41.412 -1274.54,695.725 -1083.62,1461.45c190.959,765.724 985.667,1352.89 1775.08,1311.48c789.417,-41.413 1274.54,-695.722 1083.62,-1461.45c-190.916,-765.724 -985.667,-1352.89 -1775.08,-1311.48Z" style="fill:none;stroke:#7be152;stroke-width:4.9px;"/><path d="M1552.39,257.33c-810.5,-82.589 -1410.04,487.771 -1339.08,1273.94c70.917,786.163 785.417,1490.43 1595.92,1573.02c810.457,82.587 1410,-487.772 1339.08,-1273.94c-70.917,-786.163 -785.459,-1490.43 -1595.92,-1573.02Z" style="fill:none;stroke:#7be152;stroke-width:4.9px;"/><path d="M1779.6,254.766c-811.957,-208.361 -1514.37,261.192 -1568.96,1048.77c-54.541,787.583 559.416,1594.95 1371.33,1803.31c811.959,208.358 1514.42,-261.196 1568.96,-1048.78c54.584,-787.584 -559.375,-1594.95 -1371.33,-1803.31Z" style="fill:none;stroke:#7be152;stroke-width:4.9px;"/><path d="M2011.39,287.778c-793.168,-332.808 -1584.12,21.076 -1766.71,790.426c-182.582,769.346 312.376,1662.82 1105.54,1995.63c793.126,332.812 1584.12,-21.076 1766.67,-790.426c182.583,-769.346 -312.376,-1662.82 -1105.5,-1995.63Z" style="fill:none;stroke:#7be152;stroke-width:4.9px;"/><path d="M2242.06,356.642c-753.916,-452.783 -1616.42,-226.992 -1926.38,504.32c-310,731.317 49.916,1691.22 803.833,2144.01c753.959,452.775 1616.42,226.992 1926.42,-504.319c309.957,-731.317 -49.917,-1691.22 -803.876,-2144.01Z" style="fill:none;stroke:#7be152;stroke-width:4.9px;"/><path d="M2465.85,460.75c-694.667,-565.155 -1609.25,-477.063 -2042.83,196.759c-433.584,673.816 -221.918,1678.2 472.707,2243.36c694.668,565.172 1609.29,477.059 2042.88,-196.759c433.584,-673.82 221.918,-1678.21 -472.75,-2243.36Z" style="fill:none;stroke:#7be152;stroke-width:4.9px;"/><path d="M2676.93,598.58c-616.168,-666.862 -1561.67,-722.933 -2111.83,-125.239c-550.167,597.701 -496.625,1622.83 119.541,2289.69c616.209,666.88 1561.71,722.92 2111.84,125.238c550.167,-597.699 496.625,-1622.83 -119.542,-2289.69Z" style="fill:none;stroke:#7be152;stroke-width:4.9px;"/><path d="M2869.64,767.732c-519.875,-755.045 -1473.58,-958.333 -2130.17,-454.056c-656.584,504.274 -767.375,1525.16 -247.499,2280.2c519.875,755.045 1473.54,958.325 2130.12,454.057c656.584,-504.275 767.418,-1525.16 247.543,-2280.2Z" style="fill:none;stroke:#7be152;stroke-width:4.9px;"/><path d="M3038.56,964.949c-407.585,-827.075 -1345.88,-1177.05 -2095.75,-781.695c-749.876,395.355 -1027.38,1386.33 -619.792,2213.41c407.583,827.075 1345.92,1177.04 2095.79,781.696c749.875,-395.356 1027.33,-1386.34 619.751,-2213.41Z" style="fill:none;stroke:#7be152;stroke-width:4.9px;"/><path d="M3178.77,1186.17c-281.627,-880.654 -1180.59,-1373.11 -2007.92,-1099.92c-827.293,273.183 -1269.67,1208.55 -988.043,2089.21c281.667,880.65 1180.62,1373.09 2007.92,1099.92c827.332,-273.183 1269.67,-1208.55 988.042,-2089.2Z" style="fill:none;stroke:#7be152;stroke-width:4.9px;"/><path d="M3285.85,1426.59c-144.749,-913.866 -980.666,-1540.89 -1867.12,-1400.49c-886.458,140.404 -1487.75,995.054 -1343,1908.93c144.749,913.865 980.709,1540.89 1867.17,1400.49c886.416,-140.399 1487.71,-995.054 1342.96,-1908.92Z" style="fill:none;stroke:#7be152;stroke-width:4.9px;"/><path d="M3356.14,1680.81c-0,-925.262 -750.084,-1675.33 -1675.33,-1675.33c-925.291,0 -1675.33,750.072 -1675.33,1675.33c0,925.258 750.043,1675.33 1675.33,1675.33c925.25,-0 1675.33,-750.072 1675.33,-1675.33Z" style="fill:none;stroke:#7be152;stroke-width:4.9px;"/></svg>