<?xml version="1.0" encoding="UTF-8" standalone="no"?><!DOCTYPE svg PUBLIC "-//W3C//DTD SVG 1.1//EN" "http://www.w3.org/Graphics/SVG/1.1/DTD/svg11.dtd"><svg width="100%" height="100%" viewBox="0 0 4363 4363" version="1.1" xmlns="http://www.w3.org/2000/svg" xmlns:xlink="http://www.w3.org/1999/xlink" xml:space="preserve" xmlns:serif="http://www.serif.com/" style="fill-rule:evenodd;clip-rule:evenodd;stroke-miterlimit:2;"><path d="M2302.27,2155.14l-81.416,-97c-5.583,-6.667 -14.25,-9.834 -22.792,-8.334l-124.75,22c-8.542,1.5 -15.625,7.458 -18.583,15.625l-43.334,119c-2.958,8.166 -1.375,17.292 4.209,23.916l81.417,97.042c5.583,6.626 14.291,9.792 22.833,8.292l124.708,-22c8.542,-1.5 15.625,-7.458 18.625,-15.584l43.291,-119.041c2.959,-8.167 1.376,-17.25 -4.208,-23.916Z" style="fill:none;stroke:#C0E85A;stroke-width:4.9px;"/><path d="M2304.97,2125.22l-105.458,-88.5c-7.208,-6.083 -17.125,-7.832 -26,-4.582l-129.333,47.082c-8.875,3.209 -15.334,10.917 -17,20.209l-23.875,135.583c-1.667,9.292 1.792,18.75 9,24.792l105.458,88.5c7.25,6.041 17.167,7.792 26,4.584l129.375,-47.084c8.875,-3.208 15.334,-10.917 16.959,-20.209l23.916,-135.583c1.625,-9.292 -1.792,-18.75 -9.042,-24.792Z" style="fill:none;stroke:#C0E85A;stroke-width:4.9px;"/><path d="M2302.22,2092.64l-129.584,-74.834c-8.875,-5.084 -19.792,-5.084 -28.667,-0l-129.625,74.834c-8.875,5.125 -14.333,14.583 -14.333,24.833l0,149.666c0,10.25 5.458,19.709 14.333,24.833l129.625,74.834c8.875,5.125 19.792,5.125 28.667,-0l129.584,-74.834c8.875,-5.124 14.375,-14.583 14.375,-24.833l-0,-149.666c-0,-10.25 -5.5,-19.708 -14.375,-24.833Z" style="fill:none;stroke:#C0E85A;stroke-width:4.9px;"/><path d="M2293.14,2058.31l-152.833,-55.626c-10.458,-3.791 -22.167,-1.75 -30.709,5.417l-124.583,104.541c-8.541,7.167 -12.625,18.334 -10.666,29.292l28.25,160.208c1.916,10.959 9.583,20.084 20.041,23.876l152.834,55.624c10.458,3.833 22.166,1.75 30.708,-5.417l124.583,-104.541c8.542,-7.166 12.626,-18.334 10.667,-29.291l-28.25,-160.209c-1.917,-10.958 -9.542,-20.041 -20.042,-23.874Z" style="fill:none;stroke:#C0E85A;stroke-width:4.9px;"/><path d="M2276.97,2023.27l-174.126,-30.708c-11.916,-2.083 -24.083,2.333 -31.833,11.584l-113.666,135.457c-7.792,9.293 -10.042,22 -5.875,33.375l60.458,166.126c4.167,11.375 14.042,19.708 25.958,21.791l174.125,30.709c11.917,2.083 24.042,-2.333 31.834,-11.583l113.666,-135.459c7.751,-9.25 10,-22 5.875,-33.375l-60.458,-166.125c-4.167,-11.375 -14.042,-19.667 -25.958,-21.792Z" style="fill:none;stroke:#C0E85A;stroke-width:4.9px;"/><path d="M2253.02,1988.81l-192.208,-0c-13.125,-0 -25.292,7.041 -31.875,18.417l-96.083,166.458c-6.584,11.375 -6.584,25.416 -0,36.833l96.083,166.417c6.583,11.375 18.75,18.417 31.875,18.417l192.208,-0c13.125,-0 25.292,-7.042 31.875,-18.417l96.083,-166.417c6.584,-11.417 6.584,-25.458 0,-36.833l-96.083,-166.458c-6.583,-11.376 -18.75,-18.417 -31.875,-18.417Z" style="fill:none;stroke:#C0E85A;stroke-width:4.9px;"/><path d="M2220.85,1956.47l-205.709,36.25c-14.083,2.501 -25.792,12.293 -30.666,25.751l-71.459,196.291c-4.875,13.417 -2.25,28.459 6.958,39.417l134.292,160c9.167,10.958 23.501,16.208 37.625,13.709l205.708,-36.25c14.084,-2.501 25.751,-12.293 30.668,-25.751l71.416,-196.291c4.917,-13.458 2.25,-28.459 -6.958,-39.416l-134.25,-160.043c-9.209,-10.958 -23.542,-16.166 -37.625,-13.667Z" style="fill:none;stroke:#C0E85A;stroke-width:4.9px;"/><path d="M2180.35,1927.89l-213.376,77.666c-14.625,5.292 -25.291,18 -27.958,33.333l-39.458,223.584c-2.667,15.333 3,30.917 14.917,40.916l173.916,145.917c11.917,10 28.25,12.875 42.875,7.583l213.334,-77.667c14.625,-5.332 25.291,-18.041 27.958,-33.333l39.458,-223.583c2.709,-15.333 -2.999,-30.916 -14.917,-40.917l-173.916,-145.958c-11.917,-9.958 -28.25,-12.875 -42.833,-7.541Z" style="fill:none;stroke:#C0E85A;stroke-width:4.9px;"/><path d="M2131.56,1904.98l-213.708,123.374c-14.667,8.459 -23.667,24.084 -23.667,40.959l-0,246.792c-0,16.917 9,32.542 23.667,41l213.708,123.374c14.625,8.459 32.667,8.459 47.291,0l213.751,-123.374c14.625,-8.458 23.666,-24.083 23.666,-41l0,-246.792c0,-16.875 -9.041,-32.5 -23.666,-40.959l-213.751,-123.374c-14.624,-8.458 -32.666,-8.458 -47.291,-0Z" style="fill:none;stroke:#C0E85A;stroke-width:4.9px;"/><path d="M2075.02,1889.6l-205.458,172.459c-14.084,11.792 -20.792,30.208 -17.625,48.292l46.583,264.208c3.209,18.084 15.792,33.083 33.084,39.375l252.041,91.75c17.292,6.292 36.584,2.875 50.667,-8.916l205.5,-172.459c14.041,-11.792 20.75,-30.208 17.583,-48.291l-46.583,-264.209c-3.209,-18.083 -15.792,-33.083 -33.083,-39.375l-252.042,-91.75c-17.292,-6.292 -36.583,-2.875 -50.667,8.916Z" style="fill:none;stroke:#C0E85A;stroke-width:4.9px;"/><path d="M2011.64,1883.85l-187.458,223.375c-12.833,15.291 -16.5,36.292 -9.708,55.042l99.75,274c6.833,18.75 23.125,32.458 42.791,35.916l287.167,50.625c19.666,3.458 39.667,-3.834 52.5,-19.125l187.458,-223.334c12.834,-15.291 16.5,-36.291 9.709,-55.041l-99.75,-274c-6.834,-18.75 -23.125,-32.459 -42.792,-35.916l-287.167,-50.668c-19.667,-3.457 -39.666,3.834 -52.5,19.126Z" style="fill:none;stroke:#C0E85A;stroke-width:4.9px;"/><path d="M1942.64,1889.68l-158.458,274.458c-10.833,18.792 -10.833,41.959 -0,60.751l158.458,274.458c10.875,18.791 30.917,30.375 52.625,30.375l316.958,-0c21.667,-0 41.751,-11.584 52.584,-30.375l158.458,-274.458c10.875,-18.792 10.875,-41.959 0,-60.751l-158.458,-274.458c-10.833,-18.792 -30.917,-30.375 -52.584,-30.375l-316.958,0c-21.708,0 -41.75,11.583 -52.625,30.375Z" style="fill:none;stroke:#C0E85A;stroke-width:4.9px;"/><path d="M1869.93,1908.89l-117.833,323.708c-8.042,22.209 -3.667,46.959 11.458,65.043l221.458,263.916c15.167,18.042 38.834,26.667 62.042,22.584l339.25,-59.834c23.25,-4.083 42.541,-20.291 50.583,-42.458l117.834,-323.708c8.083,-22.167 3.708,-46.959 -11.459,-65.042l-221.458,-263.876c-15.125,-18.082 -38.792,-26.666 -62.042,-22.583l-339.25,59.834c-23.25,4.083 -42.5,20.249 -50.583,42.416Z" style="fill:none;stroke:#C0E85A;stroke-width:4.9px;"/><path d="M1795.73,1943.23l-65.042,368.75c-4.459,25.25 4.916,50.958 24.542,67.458l286.875,240.666c19.624,16.5 46.583,21.251 70.666,12.459l351.875,-128.042c24.083,-8.791 41.667,-29.749 46.125,-55l65.042,-368.75c4.458,-25.25 -4.917,-50.958 -24.542,-67.458l-286.875,-240.666c-19.625,-16.5 -46.583,-21.251 -70.666,-12.459l-351.876,128.042c-24.083,8.791 -41.666,29.749 -46.124,55Z" style="fill:none;stroke:#C0E85A;stroke-width:4.9px;"/><path d="M1722.77,1993.97l0,407.001c0,27.875 14.876,53.625 39,67.542l352.459,203.541c24.166,13.917 53.875,13.917 78.041,-0l352.459,-203.541c24.167,-13.917 39,-39.667 39,-67.542l-0,-407.001c-0,-27.874 -14.833,-53.624 -39,-67.583l-352.459,-203.499c-24.166,-13.917 -53.875,-13.917 -78.041,-0l-352.459,203.499c-24.124,13.959 -39,39.709 -39,67.583Z" style="fill:none;stroke:#C0E85A;stroke-width:4.9px;"/><path d="M1654.23,2062.06l76.833,435.667c5.25,29.833 26.042,54.583 54.5,64.958l415.708,151.333c28.459,10.334 60.292,4.75 83.5,-14.75l338.917,-284.375c23.208,-19.458 34.25,-49.833 29,-79.666l-76.833,-435.667c-5.251,-29.875 -26.042,-54.625 -54.5,-65l-415.709,-151.291c-28.458,-10.375 -60.291,-4.751 -83.5,14.707l-338.916,284.375c-23.209,19.501 -34.25,49.876 -29,79.709Z" style="fill:none;stroke:#C0E85A;stroke-width:4.9px;"/><path d="M1593.73,2147.85l164.458,451.875c11.25,30.958 38.167,53.541 70.625,59.25l473.541,83.5c32.417,5.749 65.459,-6.292 86.626,-31.5l309.083,-368.375c21.167,-25.25 27.292,-59.834 16,-90.792l-164.458,-451.875c-11.25,-30.917 -38.167,-53.5 -70.584,-59.25l-473.583,-83.5c-32.417,-5.708 -65.458,6.334 -86.625,31.541l-309.083,368.376c-21.167,25.208 -27.292,59.833 -16,90.75Z" style="fill:none;stroke:#C0E85A;stroke-width:4.9px;"/><path d="M1545.14,2251.14l261.333,452.667c17.917,31 51,50.084 86.792,50.084l522.667,-0c35.792,-0 68.875,-19.084 86.792,-50.084l261.333,-452.667c17.875,-31 17.875,-69.166 0,-100.166l-261.333,-452.667c-17.917,-31 -51,-50.084 -86.792,-50.084l-522.667,0c-35.792,0 -68.875,19.084 -86.792,50.084l-261.333,452.667c-17.875,31 -17.875,69.166 0,100.166Z" style="fill:none;stroke:#C0E85A;stroke-width:4.9px;"/><path d="M1512.64,2370.89l365.207,435.209c25,29.791 64,43.999 102.334,37.25l559.5,-98.667c38.292,-6.75 70.125,-33.416 83.416,-70l194.334,-533.875c13.292,-36.542 6.083,-77.416 -18.917,-107.25l-365.208,-435.208c-25,-29.792 -64,-44.001 -102.334,-37.25l-559.499,98.666c-38.334,6.751 -70.126,33.417 -83.417,70l-194.333,533.875c-13.292,36.542 -6.083,77.417 18.917,107.25Z" style="fill:none;stroke:#C0E85A;stroke-width:4.9px;"/><path d="M1500.48,2505.18l473.041,396.957c32.417,27.167 76.834,35.001 116.584,20.542l580.291,-211.209c39.75,-14.458 68.75,-49.041 76.084,-90.665l107.25,-608.168c7.333,-41.667 -8.084,-84.041 -40.501,-111.25l-473.041,-396.917c-32.417,-27.208 -76.833,-35.041 -116.583,-20.583l-580.292,211.208c-39.75,14.459 -68.75,49.042 -76.083,90.709l-107.25,608.125c-7.334,41.666 8.083,84.084 40.5,111.251Z" style="fill:none;stroke:#C0E85A;stroke-width:4.9px;"/><path d="M1512.77,2651.22l581.292,335.626c39.833,23 88.875,23 128.667,-0l581.333,-335.626c39.792,-22.958 64.334,-65.458 64.334,-111.416l-0,-671.25c-0,-45.958 -24.542,-88.416 -64.334,-111.416l-581.333,-335.625c-39.792,-22.959 -88.834,-22.959 -128.667,-0l-581.292,335.625c-39.833,23 -64.333,65.458 -64.333,111.416l0,671.25c0,45.958 24.5,88.458 64.333,111.416Z" style="fill:none;stroke:#C0E85A;stroke-width:4.9px;"/><path d="M1553.52,2805.27l685.584,249.542c46.958,17.083 99.458,7.833 137.749,-24.292l558.875,-469c38.288,-32.083 56.542,-82.208 47.834,-131.416l-126.667,-718.501c-8.667,-49.207 -42.958,-90.041 -89.917,-107.125l-685.582,-249.541c-46.959,-17.083 -99.459,-7.834 -137.751,24.25l-558.916,469c-38.25,32.125 -56.5,82.208 -47.834,131.417l126.709,718.541c8.666,49.209 42.958,90.042 89.916,107.125Z" style="fill:none;stroke:#C0E85A;stroke-width:4.9px;"/><path d="M1626.18,2962.43l781,137.708c53.5,9.458 107.917,-10.375 142.833,-51.958l509.792,-607.542c34.875,-41.583 44.958,-98.667 26.375,-149.708l-271.25,-745.208c-18.583,-51.042 -62.958,-88.292 -116.417,-97.709l-781.042,-137.708c-53.458,-9.416 -107.916,10.375 -142.832,52l-509.751,607.5c-34.917,41.584 -44.958,98.667 -26.416,149.709l271.25,745.207c18.583,51.042 62.958,88.293 116.458,97.709Z" style="fill:none;stroke:#C0E85A;stroke-width:4.9px;"/><path d="M1733.64,3116.97l862,0c59.042,0 113.584,-31.5 143.125,-82.583l431,-746.541c29.5,-51.126 29.5,-114.125 -0,-165.25l-431,-746.501c-29.541,-51.124 -84.083,-82.624 -143.125,-82.624l-862,-0c-59.041,-0 -113.583,31.5 -143.083,82.624l-431,746.501c-29.542,51.125 -29.542,114.124 -0,165.25l431,746.541c29.5,51.083 84.042,82.583 143.083,82.583Z" style="fill:none;stroke:#C0E85A;stroke-width:4.9px;"/><path d="M1877.85,3262.14l922.751,-162.709c63.166,-11.166 115.625,-55.167 137.583,-115.458l320.458,-880.459c21.917,-60.291 10.041,-127.708 -31.208,-176.875l-602.25,-717.75c-41.25,-49.166 -105.583,-72.583 -168.791,-61.416l-922.751,162.708c-63.166,11.125 -115.625,55.125 -137.542,115.417l-320.499,880.458c-21.917,60.292 -10.042,127.708 31.208,176.875l602.291,717.75c41.209,49.167 105.542,72.583 168.75,61.459Z" style="fill:none;stroke:#C0E85A;stroke-width:4.9px;"/><path d="M2059.6,3390.27l957.038,-348.334c65.546,-23.833 113.38,-80.833 125.463,-149.541l176.874,-1002.96c12.084,-68.708 -13.333,-138.625 -66.791,-183.458l-780.166,-654.626c-53.417,-44.833 -126.709,-57.749 -192.251,-33.916l-957.041,348.333c-65.5,23.875 -113.334,80.876 -125.459,149.542l-176.833,1003c-12.125,68.667 13.333,138.583 66.75,183.417l780.167,654.666c53.416,44.833 126.708,57.75 192.249,33.876Z" style="fill:none;stroke:#C0E85A;stroke-width:4.9px;"/><path d="M2278.35,3493.14l958.709,-553.5c65.667,-37.916 106.083,-107.958 106.083,-183.749l0,-1107.04c0,-75.792 -40.416,-145.833 -106.083,-183.75l-958.709,-553.501c-65.666,-37.916 -146.541,-37.916 -212.166,0l-958.709,553.501c-65.666,37.917 -106.083,107.958 -106.083,183.75l0,1107.04c0,75.791 40.417,145.833 106.083,183.749l958.709,553.5c65.625,37.917 146.5,37.917 212.166,0Z" style="fill:none;stroke:#C0E85A;stroke-width:4.9px;"/><path d="M2531.93,3561.97l921.75,-773.458c63.125,-52.959 93.208,-135.584 78.875,-216.709l-208.916,-1185c-14.335,-81.167 -70.834,-148.5 -148.251,-176.666l-1130.71,-411.584c-77.458,-28.167 -164.042,-12.875 -227.167,40.083l-921.75,773.417c-63.125,53 -93.166,135.584 -78.875,216.75l208.959,1185c14.291,81.125 70.791,148.5 148.25,176.667l1130.71,411.542c77.417,28.207 164,12.916 227.125,-40.042Z" style="fill:none;stroke:#C0E85A;stroke-width:4.9px;"/><path d="M2816.35,3587.77l840.709,-1001.88c57.583,-68.625 74.166,-162.75 43.542,-246.916l-447.334,-1229c-30.624,-84.167 -103.833,-145.625 -192.041,-161.167l-1288.04,-227.125c-88.208,-15.541 -178,17.166 -235.583,85.75l-840.709,1001.92c-57.542,68.625 -74.166,162.708 -43.5,246.875l447.333,1229.04c30.626,84.166 103.834,145.583 192.042,161.166l1288,227.083c88.208,15.584 178.042,-17.125 235.583,-85.75Z" style="fill:none;stroke:#C0E85A;stroke-width:4.9px;"/><path d="M3125.68,3561.72l710.833,-1231.17c48.667,-84.292 48.667,-188.166 -0,-272.5l-710.833,-1231.17c-48.671,-84.292 -138.625,-136.251 -235.958,-136.251l-1421.67,-0c-97.333,-0 -187.292,51.959 -235.958,136.251l-710.834,1231.17c-48.667,84.334 -48.667,188.208 0,272.5l710.834,1231.17c48.666,84.334 138.625,136.25 235.958,136.25l1421.67,0c97.333,0 187.287,-51.916 235.958,-136.25Z" style="fill:none;stroke:#C0E85A;stroke-width:4.9px;"/><path d="M3451.89,3475.43l528.541,-1452.04c36.166,-99.457 16.583,-210.625 -51.458,-291.708l-993.251,-1183.71c-68.041,-81.083 -174.124,-119.708 -278.333,-101.332l-1521.79,268.333c-104.207,18.374 -190.708,90.958 -226.874,190.416l-528.5,1452.04c-36.209,99.458 -16.625,210.625 51.416,291.708l993.25,1183.71c68.042,81.083 174.125,119.708 278.334,101.333l1521.79,-268.334c104.208,-18.374 190.708,-90.957 226.876,-190.416Z" style="fill:none;stroke:#C0E85A;stroke-width:4.9px;"/><path d="M3784.81,3321.52l291.667,-1654.08c19.958,-113.291 -22.001,-228.625 -110.125,-302.542l-1286.67,-1079.62c-88.083,-73.959 -208.958,-95.251 -317.041,-55.918l-1578.33,574.459c-108.084,39.333 -186.958,133.334 -206.917,246.625l-291.667,1654.12c-19.999,113.25 22.001,228.584 110.084,302.5l1286.67,1079.67c88.125,73.917 209.001,95.251 317.084,55.876l1578.33,-574.459c108.083,-39.333 186.957,-133.333 206.916,-246.624Z" style="fill:none;stroke:#C0E85A;stroke-width:4.9px;"/><path d="M4112.1,3093.93l-0,-1825.71c-0,-125 -66.667,-240.542 -174.958,-303.042l-1581.08,-912.834c-108.25,-62.5 -241.667,-62.5 -349.917,0l-1581.08,912.834c-108.292,62.5 -175,178.042 -175,303.042l0,1825.71c0,125 66.708,240.541 175,303.041l1581.08,912.834c108.25,62.542 241.667,62.542 349.917,-0l1581.08,-912.834c108.291,-62.5 174.958,-178.041 174.958,-303.041Z" style="fill:none;stroke:#C0E85A;stroke-width:4.9px;"/><path d="M2196.52,2336.1l97.041,-81.417c6.666,-5.584 9.833,-14.291 8.291,-22.833l-21.958,-124.708c-1.542,-8.542 -7.458,-15.667 -15.625,-18.625l-119,-43.334c-8.166,-2.958 -17.291,-1.334 -23.916,4.25l-97.042,81.417c-6.625,5.542 -9.792,14.249 -8.292,22.791l22,124.75c1.5,8.542 7.459,15.625 15.584,18.583l119.041,43.334c8.125,2.958 17.25,1.334 23.876,-4.208Z" style="fill:none;stroke:#C0E85A;stroke-width:4.9px;"/><path d="M2225.97,2338.85l88.458,-105.458c6.083,-7.25 7.833,-17.125 4.583,-26l-47.083,-129.374c-3.208,-8.834 -10.917,-15.334 -20.208,-16.959l-135.584,-23.916c-9.291,-1.626 -18.75,1.833 -24.792,9.041l-88.5,105.458c-6.041,7.209 -7.791,17.125 -4.583,26l47.084,129.376c3.25,8.832 10.958,15.291 20.208,16.957l135.583,23.918c9.292,1.624 18.75,-1.834 24.834,-9.043Z" style="fill:none;stroke:#C0E85A;stroke-width:4.9px;"/><path d="M2257.97,2336.27l74.833,-129.626c5.125,-8.874 5.125,-19.791 0,-28.666l-74.833,-129.584c-5.126,-8.874 -14.583,-14.374 -24.834,-14.374l-149.666,-0c-10.251,-0 -19.709,5.5 -24.834,14.374l-74.833,129.584c-5.125,8.875 -5.125,19.792 -0,28.666l74.833,129.626c5.125,8.874 14.583,14.333 24.834,14.333l149.666,-0c10.251,-0 19.708,-5.459 24.834,-14.333Z" style="fill:none;stroke:#C0E85A;stroke-width:4.9px;"/><path d="M2291.77,2327.43l55.625,-152.833c3.792,-10.5 1.75,-22.209 -5.417,-30.709l-104.583,-124.625c-7.125,-8.542 -18.291,-12.583 -29.292,-10.667l-160.166,28.251c-10.958,1.958 -20.084,9.583 -23.875,20.041l-55.625,152.834c-3.833,10.5 -1.75,22.208 5.375,30.708l104.583,124.625c7.167,8.542 18.334,12.583 29.292,10.667l160.167,-28.25c10.999,-1.958 20.083,-9.584 23.916,-20.042Z" style="fill:none;stroke:#C0E85A;stroke-width:4.9px;"/><path d="M2326.22,2311.6l30.709,-174.083c2.125,-11.958 -2.292,-24.083 -11.583,-31.875l-135.417,-113.625c-9.292,-7.791 -22,-10.041 -33.375,-5.874l-166.167,60.458c-11.375,4.125 -19.666,14.041 -21.791,25.958l-30.667,174.125c-2.125,11.916 2.292,24.042 11.583,31.833l135.417,113.625c9.292,7.792 22,10.042 33.375,5.917l166.166,-60.5c11.375,-4.125 19.667,-14.042 21.75,-25.959Z" style="fill:none;stroke:#C0E85A;stroke-width:4.9px;"/><path d="M2360.18,2288.18l-0,-192.209c-0,-13.124 -7.042,-25.291 -18.417,-31.874l-166.416,-96.084c-11.417,-6.582 -25.459,-6.582 -36.834,0l-166.458,96.084c-11.375,6.583 -18.417,18.75 -18.417,31.874l0,192.209c0,13.125 7.042,25.292 18.417,31.875l166.458,96.083c11.375,6.584 25.417,6.584 36.834,0l166.416,-96.083c11.375,-6.583 18.417,-18.75 18.417,-31.875Z" style="fill:none;stroke:#C0E85A;stroke-width:4.9px;"/><path d="M2392.1,2256.68l-36.292,-205.708c-2.5,-14.125 -12.292,-25.792 -25.75,-30.709l-196.292,-71.416c-13.416,-4.917 -28.458,-2.25 -39.416,6.958l-160,134.25c-10.959,9.208 -16.209,23.541 -13.709,37.625l36.292,205.708c2.458,14.084 12.292,25.792 25.708,30.667l196.292,71.458c13.458,4.876 28.5,2.25 39.459,-6.958l159.999,-134.25c10.958,-9.208 16.167,-23.541 13.709,-37.625Z" style="fill:none;stroke:#C0E85A;stroke-width:4.9px;"/><path d="M2420.27,2216.93l-77.625,-213.375c-5.333,-14.583 -18.041,-25.25 -33.333,-27.958l-223.625,-39.417c-15.292,-2.709 -30.875,2.958 -40.875,14.875l-145.958,173.917c-10.001,11.916 -12.875,28.249 -7.542,42.874l77.625,213.334c5.333,14.626 18.042,25.291 33.375,28l223.583,39.417c15.292,2.708 30.917,-2.958 40.875,-14.875l145.958,-173.917c10.001,-11.916 12.876,-28.25 7.542,-42.875Z" style="fill:none;stroke:#C0E85A;stroke-width:4.9px;"/><path d="M2442.97,2169.06l-123.374,-213.709c-8.459,-14.666 -24.084,-23.666 -41,-23.666l-246.792,-0c-16.875,-0 -32.5,9 -40.959,23.666l-123.375,213.709c-8.457,14.625 -8.457,32.667 0,47.334l123.375,213.708c8.459,14.625 24.084,23.666 40.959,23.666l246.792,0c16.916,0 32.541,-9.041 41,-23.666l123.374,-213.708c8.459,-14.667 8.459,-32.709 0,-47.334Z" style="fill:none;stroke:#C0E85A;stroke-width:4.9px;"/><path d="M2458.22,2113.56l-172.417,-205.5c-11.833,-14.084 -30.25,-20.791 -48.333,-17.583l-264.167,46.583c-18.083,3.167 -33.125,15.792 -39.375,33.041l-91.75,252.084c-6.292,17.25 -2.875,36.542 8.917,50.625l172.416,205.5c11.834,14.084 30.25,20.791 48.334,17.583l264.166,-46.583c18.084,-3.167 33.125,-15.792 39.375,-33.042l91.75,-252.083c6.292,-17.25 2.917,-36.542 -8.916,-50.625Z" style="fill:none;stroke:#C0E85A;stroke-width:4.9px;"/><path d="M2464.1,2051.22l-223.375,-187.416c-15.292,-12.833 -36.292,-16.542 -55.042,-9.708l-274,99.75c-18.75,6.833 -32.458,23.125 -35.917,42.792l-50.624,287.166c-3.501,19.667 3.791,39.667 19.083,52.5l223.375,187.417c15.291,12.833 36.291,16.542 55.041,9.708l274,-99.708c18.75,-6.833 32.459,-23.167 35.917,-42.834l50.625,-287.125c3.5,-19.666 -3.792,-39.708 -19.083,-52.542Z" style="fill:none;stroke:#C0E85A;stroke-width:4.9px;"/><path d="M2458.6,1983.43l-274.5,-158.458c-18.791,-10.875 -41.958,-10.875 -60.749,0l-274.459,158.458c-18.791,10.875 -30.375,30.917 -30.375,52.625l0,316.917c0,21.708 11.584,41.75 30.375,52.625l274.459,158.458c18.791,10.834 41.958,10.834 60.749,0l274.5,-158.458c18.792,-10.875 30.376,-30.917 30.376,-52.625l-0,-316.917c-0,-21.708 -11.584,-41.75 -30.376,-52.625Z" style="fill:none;stroke:#C0E85A;stroke-width:4.9px;"/><path d="M2439.89,1911.89l-323.708,-117.833c-22.167,-8.042 -46.958,-3.666 -65.042,11.5l-263.875,221.417c-18.083,15.166 -26.708,38.833 -22.583,62.041l59.833,339.25c4.084,23.25 20.25,42.543 42.417,50.584l323.708,117.833c22.167,8.083 46.959,3.708 65.042,-11.458l263.917,-221.417c18.042,-15.166 26.666,-38.833 22.583,-62.083l-59.833,-339.25c-4.083,-23.208 -20.292,-42.501 -42.459,-50.584Z" style="fill:none;stroke:#C0E85A;stroke-width:4.9px;"/><path d="M2406.39,1838.85l-368.75,-65.041c-25.251,-4.458 -50.959,4.917 -67.459,24.542l-240.667,286.875c-16.5,19.625 -21.25,46.583 -12.458,70.667l128.041,351.874c8.792,24.084 29.751,41.667 55.001,46.126l368.75,65.041c25.25,4.458 50.958,-4.917 67.458,-24.542l240.667,-286.875c16.499,-19.625 21.249,-46.583 12.458,-70.666l-128.042,-351.875c-8.791,-24.084 -29.75,-41.667 -54.999,-46.126Z" style="fill:none;stroke:#C0E85A;stroke-width:4.9px;"/><path d="M2356.77,1766.97l-407.042,0c-27.874,0 -53.625,14.876 -67.541,39.001l-203.5,352.499c-13.958,24.125 -13.958,53.876 0,78l203.5,352.459c13.916,24.167 39.667,39.042 67.541,39.042l407.042,0c27.875,0 53.625,-14.875 67.542,-39.042l203.5,-352.459c13.958,-24.124 13.958,-53.875 -0,-78l-203.5,-352.499c-13.917,-24.125 -39.667,-39.001 -67.542,-39.001Z" style="fill:none;stroke:#C0E85A;stroke-width:4.9px;"/><path d="M2290.06,1699.39l-435.709,76.833c-29.833,5.25 -54.583,26.042 -64.958,54.501l-151.291,415.708c-10.375,28.5 -4.75,60.333 14.708,83.542l284.375,338.874c19.458,23.209 49.833,34.292 79.666,29.001l435.709,-76.792c29.833,-5.292 54.583,-26.042 64.958,-54.541l151.292,-415.709c10.375,-28.458 4.75,-60.291 -14.708,-83.5l-284.375,-338.917c-19.459,-23.207 -49.834,-34.25 -79.667,-29Z" style="fill:none;stroke:#C0E85A;stroke-width:4.9px;"/><path d="M2205.89,1639.68l-451.876,164.459c-30.958,11.25 -53.541,38.166 -59.25,70.583l-83.5,473.583c-5.75,32.417 6.292,65.458 31.5,86.625l368.375,309.083c25.25,21.167 59.834,27.292 90.792,16l451.875,-164.458c30.917,-11.25 53.5,-38.167 59.208,-70.625l83.542,-473.542c5.708,-32.458 -6.333,-65.458 -31.542,-86.625l-368.375,-309.083c-25.208,-21.167 -59.833,-27.292 -90.749,-16Z" style="fill:none;stroke:#C0E85A;stroke-width:4.9px;"/><path d="M2104.52,1591.6l-452.667,261.333c-30.999,17.916 -50.083,51 -50.083,86.791l0,522.668c0,35.791 19.084,68.874 50.083,86.791l452.667,261.333c31,17.875 69.167,17.875 100.167,-0l452.667,-261.333c31,-17.917 50.083,-51 50.083,-86.791l0,-522.668c0,-35.791 -19.083,-68.875 -50.083,-86.791l-452.667,-261.333c-31,-17.875 -69.167,-17.875 -100.167,0Z" style="fill:none;stroke:#C0E85A;stroke-width:4.9px;"/><path d="M1986.93,1559.31l-435.25,365.167c-29.792,25.041 -44,64.042 -37.208,102.333l98.625,559.542c6.75,38.292 33.458,70.083 69.999,83.417l533.875,194.291c36.584,13.333 77.459,6.125 107.25,-18.917l435.209,-365.166c29.833,-25 44,-64.042 37.25,-102.334l-98.625,-559.5c-6.792,-38.333 -33.458,-70.125 -70,-83.458l-533.875,-194.291c-36.584,-13.293 -77.458,-6.084 -107.25,18.916Z" style="fill:none;stroke:#C0E85A;stroke-width:4.9px;"/><path d="M1854.97,1546.89l-396.958,473.083c-27.208,32.375 -35.041,76.834 -20.583,116.584l211.25,580.291c14.458,39.709 49,68.75 90.666,76.084l608.167,107.208c41.625,7.375 84.042,-8.083 111.209,-40.458l396.958,-473.084c27.167,-32.375 35,-76.833 20.541,-116.541l-211.208,-580.334c-14.458,-39.708 -49.041,-68.708 -90.666,-76.083l-608.167,-107.208c-41.625,-7.375 -84.042,8.084 -111.209,40.458Z" style="fill:none;stroke:#C0E85A;stroke-width:4.9px;"/><path d="M1711.35,1558.56l-335.626,581.291c-22.957,39.834 -22.957,88.876 0,128.668l335.626,581.333c23,39.791 65.458,64.333 111.416,64.333l671.25,0c45.959,0 88.458,-24.542 111.417,-64.333l335.625,-581.333c23,-39.792 23,-88.834 -0,-128.668l-335.625,-581.291c-22.959,-39.833 -65.458,-64.333 -111.417,-64.333l-671.25,-0c-45.958,-0 -88.416,24.5 -111.416,64.333Z" style="fill:none;stroke:#C0E85A;stroke-width:4.9px;"/><path d="M1559.85,1598.1l-249.542,685.626c-17.083,46.958 -7.833,99.458 24.291,137.708l468.959,558.916c32.125,38.293 82.208,56.501 131.417,47.834l718.541,-126.667c49.209,-8.708 90.042,-42.958 107.125,-89.917l249.542,-685.582c17.083,-46.959 7.833,-99.459 -24.292,-137.75l-468.958,-558.918c-32.125,-38.249 -82.25,-56.499 -131.417,-47.833l-718.542,126.709c-49.208,8.666 -90.041,42.958 -107.124,89.874Z" style="fill:none;stroke:#C0E85A;stroke-width:4.9px;"/><path d="M1405.1,1669.06l-137.709,781c-9.416,53.5 10.417,107.959 52,142.875l607.542,509.75c41.583,34.916 98.667,44.959 149.667,26.417l745.25,-271.25c51.041,-18.583 88.291,-62.959 97.708,-116.458l137.704,-781c9.416,-53.501 -10.375,-107.959 -52,-142.834l-607.496,-509.792c-41.625,-34.916 -98.666,-44.958 -149.708,-26.375l-745.209,271.25c-51.041,18.542 -88.291,62.959 -97.749,116.417Z" style="fill:none;stroke:#C0E85A;stroke-width:4.9px;"/><path d="M1252.89,1774.22l0,862.001c0,59.041 31.5,113.583 82.625,143.124l746.5,431.001c51.125,29.499 114.125,29.499 165.25,0l746.538,-431.001c51.083,-29.541 82.587,-84.083 82.587,-143.124l0,-862.001c0,-59.041 -31.504,-113.583 -82.587,-143.082l-746.538,-431.001c-51.125,-29.541 -114.125,-29.541 -165.25,0l-746.5,431.001c-51.125,29.499 -82.625,84.041 -82.625,143.082Z" style="fill:none;stroke:#C0E85A;stroke-width:4.9px;"/><path d="M1109.81,1915.52l162.667,922.75c11.166,63.166 55.166,115.625 115.458,137.583l880.459,320.458c60.291,21.917 127.707,10.041 176.874,-31.208l717.75,-602.25c49.167,-41.25 72.583,-105.583 61.459,-168.792l-162.709,-922.708c-11.166,-63.208 -55.166,-115.667 -115.458,-137.584l-880.459,-320.458c-60.291,-21.958 -127.708,-10.084 -176.874,31.167l-717.75,602.292c-49.167,41.208 -72.584,105.541 -61.417,168.75Z" style="fill:none;stroke:#C0E85A;stroke-width:4.9px;"/><path d="M983.266,2093.77l348.334,957.042c23.874,65.542 80.875,113.375 149.541,125.458l1003,176.875c68.667,12.126 138.584,-13.333 183.417,-66.791l654.667,-780.167c44.833,-53.416 57.75,-126.709 33.875,-192.25l-348.334,-957c-23.833,-65.541 -80.833,-113.375 -149.541,-125.5l-1002.96,-176.833c-68.708,-12.125 -138.625,13.333 -183.458,66.75l-654.625,780.166c-44.833,53.417 -57.75,126.708 -33.917,192.25Z" style="fill:none;stroke:#C0E85A;stroke-width:4.9px;"/><path d="M881.474,2308.47l553.501,958.709c37.916,65.625 107.958,106.083 183.791,106.083l1107,0c75.792,0 145.875,-40.458 183.751,-106.083l553.499,-958.709c37.917,-65.666 37.917,-146.541 0,-212.208l-553.499,-958.667c-37.876,-65.666 -107.959,-106.125 -183.751,-106.125l-1107,0c-75.833,0 -145.875,40.459 -183.791,106.125l-553.501,958.667c-37.874,65.667 -37.874,146.542 0,212.208Z" style="fill:none;stroke:#C0E85A;stroke-width:4.9px;"/><path d="M813.058,2557.52l773.458,921.75c52.959,63.126 135.583,93.167 216.709,78.876l1185,-208.959c81.166,-14.292 148.499,-70.792 176.666,-148.25l411.584,-1130.71c28.166,-77.417 12.875,-164 -40.084,-227.125l-773.416,-921.75c-53,-63.125 -135.584,-93.209 -216.75,-78.875l-1185,208.916c-81.124,14.333 -148.5,70.834 -176.666,148.251l-411.542,1130.71c-28.208,77.459 -12.917,164.042 40.042,227.167Z" style="fill:none;stroke:#C0E85A;stroke-width:4.9px;"/><path d="M786.808,2836.97l1001.92,840.708c68.626,57.584 162.709,74.167 246.875,43.542l1229.04,-447.333c84.167,-30.626 145.584,-103.834 161.167,-192.042l227.084,-1288.04c15.583,-88.208 -17.126,-178 -85.751,-235.583l-1001.87,-840.708c-68.626,-57.542 -162.751,-74.167 -246.917,-43.501l-1229,447.334c-84.166,30.625 -145.624,103.833 -161.166,192.042l-227.125,1288c-15.542,88.208 17.167,178.042 85.75,235.584Z" style="fill:none;stroke:#C0E85A;stroke-width:4.9px;"/><path d="M811.475,3141.1l1231.17,710.833c84.334,48.667 188.209,48.667 272.5,0l1231.17,-710.833c84.333,-48.667 136.25,-138.625 136.25,-235.958l-0,-1421.67c-0,-97.332 -51.917,-187.291 -136.25,-235.958l-1231.17,-710.833c-84.291,-48.667 -188.166,-48.667 -272.5,-0l-1231.17,710.833c-84.292,48.667 -136.251,138.626 -136.251,235.958l0,1421.67c0,97.333 51.959,187.291 136.251,235.958Z" style="fill:none;stroke:#C0E85A;stroke-width:4.9px;"/><path d="M895.266,3462.02l1452.08,528.501c99.416,36.208 210.625,16.583 291.666,-51.417l1183.75,-993.291c81.041,-68.001 119.666,-174.126 101.291,-278.334l-268.333,-1521.75c-18.375,-104.208 -90.959,-190.708 -190.375,-226.917l-1452.08,-528.5c-99.417,-36.208 -210.625,-16.583 -291.667,51.416l-1183.75,993.292c-81.042,68.001 -119.667,174.126 -101.292,278.334l268.333,1521.79c18.375,104.208 90.959,190.666 190.375,226.874Z" style="fill:none;stroke:#C0E85A;stroke-width:4.9px;"/><path d="M1045.56,3789.68l1654.08,291.666c113.291,20 228.625,-21.999 302.537,-110.083l1079.63,-1286.67c73.958,-88.124 95.25,-208.999 55.916,-317.082l-574.457,-1578.33c-39.334,-108.083 -133.334,-186.959 -246.626,-206.916l-1654.12,-291.667c-113.25,-19.958 -228.583,21.999 -302.5,110.125l-1079.67,1286.67c-73.917,88.083 -95.251,208.958 -55.875,317.041l574.458,1578.33c39.333,108.083 133.333,186.959 246.625,206.917Z" style="fill:none;stroke:#C0E85A;stroke-width:4.9px;"/><path d="M1268.27,4112.1l1825.67,-0c125.041,-0 240.541,-66.667 303.041,-174.958l912.876,-1581.08c62.5,-108.291 62.5,-241.666 -0,-349.958l-912.876,-1581.08c-62.5,-108.25 -178,-174.958 -303.041,-174.958l-1825.67,-0c-125.041,-0 -240.541,66.708 -303.083,174.958l-912.834,1581.08c-62.5,108.292 -62.5,241.667 0,349.958l912.834,1581.08c62.542,108.291 178.042,174.958 303.083,174.958Z" style="fill:none;stroke:#C0E85A;stroke-width:4.9px;"/></svg>