<?xml version="1.0" encoding="UTF-8" standalone="no"?><!DOCTYPE svg PUBLIC "-//W3C//DTD SVG 1.1//EN" "http://www.w3.org/Graphics/SVG/1.1/DTD/svg11.dtd"><svg width="100%" height="100%" viewBox="0 0 5001 4992" version="1.1" xmlns="http://www.w3.org/2000/svg" xmlns:xlink="http://www.w3.org/1999/xlink" xml:space="preserve" xmlns:serif="http://www.serif.com/" style="fill-rule:evenodd;clip-rule:evenodd;stroke-miterlimit:2;"><path d="M1698.85,1452.22c323.293,-257.542 944.043,0.958 1386.54,577.374c442.458,576.417 539.125,1252.5 215.834,1510.04c-323.25,257.542 -944.043,-0.958 -1386.5,-577.375c-442.498,-576.417 -539.123,-1252.5 -215.875,-1510.04Z" style="fill:none;stroke:#7be152;stroke-width:4.9px;"/><path d="M1403.02,3252.63c-234.375,-354.625 66.793,-980.917 672.668,-1398.83c605.874,-417.875 1287.04,-469.208 1521.41,-114.542c234.375,354.625 -66.79,980.875 -672.666,1398.79c-605.916,417.917 -1287.08,469.208 -1521.42,114.583Z" style="fill:none;stroke:#7be152;stroke-width:4.9px;"/><path d="M3178.39,3690.88c-370.125,217.792 -973.875,-140.666 -1348.5,-800.625c-374.626,-659.958 -378.292,-1371.5 -8.167,-1589.29c370.125,-217.75 973.832,140.709 1348.46,800.667c374.626,659.959 378.292,1371.5 8.209,1589.25Z" style="fill:none;stroke:#7be152;stroke-width:4.9px;"/><path d="M3739.43,1877.88c191.417,400.417 -208.292,1001.75 -892.791,1343.08c-684.459,341.333 -1394.54,293.416 -1585.96,-107.001c-191.417,-400.416 208.29,-1001.71 892.749,-1343.04c684.501,-341.333 1394.54,-293.458 1586,106.958Z" style="fill:none;stroke:#7be152;stroke-width:4.9px;"/><path d="M1969.97,1163.17c412.791,-169.833 984.75,289.209 1277.5,1025.29c292.749,736.042 195.457,1470.42 -217.334,1640.25c-412.834,169.791 -984.792,-289.209 -1277.54,-1025.29c-292.751,-736.083 -195.419,-1470.46 217.374,-1640.25Z" style="fill:none;stroke:#7be152;stroke-width:4.9px;"/><path d="M1133.56,2949.93c-140.625,-441.292 357.208,-1002.29 1111.88,-1253c754.708,-250.75 1480.5,-96.251 1621.12,345.042c140.585,441.291 -357.208,1002.29 -1111.92,1253c-754.708,250.708 -1480.5,96.25 -1621.08,-345.042Z" style="fill:none;stroke:#7be152;stroke-width:4.9px;"/><path d="M2857.6,3948.88c-450.04,114.042 -974.916,-444 -1172.42,-1246.46c-197.459,-802.459 7.292,-1545.42 457.333,-1659.46c450,-114.042 974.916,444 1172.38,1246.46c197.459,802.458 -7.292,1545.42 -457.292,1659.46Z" style="fill:none;stroke:#7be152;stroke-width:4.9px;"/><path d="M3974.39,2229.97c82.375,475.916 -510.917,980.791 -1325.21,1127.71c-814.25,146.875 -1541.13,-119.875 -1623.5,-595.792c-82.375,-475.916 510.958,-980.792 1325.21,-1127.67c814.249,-146.916 1541.12,119.834 1623.5,595.751Z" style="fill:none;stroke:#7be152;stroke-width:4.9px;"/><path d="M2337.56,944.55c480.542,-51 942.791,602.208 1032.54,1459c89.71,856.791 -227.083,1592.75 -707.582,1643.75c-480.501,51.041 -942.792,-602.208 -1032.5,-1459c-89.748,-856.792 227.042,-1592.71 707.542,-1643.75Z" style="fill:none;stroke:#7be152;stroke-width:4.9px;"/><path d="M941.099,2552.05c-17.375,-503.042 666.499,-935.916 1527.5,-966.917c860.958,-30.958 1573,351.667 1590.38,854.709c17.374,503 -666.5,935.916 -1527.46,966.874c-861,31.001 -1573.04,-351.666 -1590.42,-854.666Z" style="fill:none;stroke:#7be152;stroke-width:4.9px;"/><path d="M2447.26,4119.93c-502.999,-18.5 -887.125,-760.584 -857.999,-1657.5c29.166,-896.875 460.54,-1609 963.582,-1590.5c503.001,18.5 887.126,760.583 857.959,1657.5c-29.124,896.917 -460.541,1609 -963.542,1590.5Z" style="fill:none;stroke:#7be152;stroke-width:4.9px;"/><path d="M4116.43,2668.8c-53.542,521.333 -820.626,866.583 -1713.33,771.125c-892.708,-95.5 -1572.96,-595.5 -1519.41,-1116.83c53.54,-521.375 820.624,-866.584 1713.29,-771.126c892.709,95.459 1572.96,595.459 1519.46,1116.83Z" style="fill:none;stroke:#7be152;stroke-width:4.9px;"/><path d="M2785.22,828.883c516.335,93.501 807.251,915.667 649.752,1836.38c-157.501,920.709 -703.793,1591.25 -1220.13,1497.75c-516.333,-93.541 -807.208,-915.708 -649.709,-1836.42c157.5,-920.667 703.75,-1591.25 1220.08,-1497.71Z" style="fill:none;stroke:#7be152;stroke-width:4.9px;"/><path d="M856.933,2078.47c129.332,-529.75 969.792,-772.291 1877.25,-541.708c907.459,230.542 1538.25,846.917 1408.96,1376.67c-129.293,529.75 -969.751,772.25 -1877.21,541.708c-907.459,-230.583 -1538.29,-846.917 -1409,-1376.67Z" style="fill:none;stroke:#7be152;stroke-width:4.9px;"/><path d="M1968.97,4173.01c-519.458,-172.875 -702.748,-1063.83 -409.458,-1990.08c293.333,-926.208 952.167,-1536.92 1471.62,-1364.04c519.417,172.834 702.75,1063.83 409.417,1990.04c-293.292,926.208 -952.166,1536.92 -1471.58,1364.08Z" style="fill:none;stroke:#7be152;stroke-width:4.9px;"/><path d="M4135.97,3169.63c-208.667,527.208 -1110.25,652.959 -2013.75,280.875c-903.502,-372.083 -1466.79,-1101.08 -1258.13,-1628.29c208.707,-527.208 1110.29,-652.957 2013.79,-280.875c903.499,372.084 1466.75,1101.13 1258.08,1628.29Z" style="fill:none;stroke:#7be152;stroke-width:4.9px;"/><path d="M3286.22,844.967c511.375,255.125 573.916,1201.12 139.707,2112.96c-434.208,911.791 -1200.71,1444.12 -1712.08,1189c-511.374,-255.167 -573.915,-1201.17 -139.707,-2112.96c434.208,-911.834 1200.75,-1444.17 1712.08,-1189Z" style="fill:none;stroke:#7be152;stroke-width:4.9px;"/><path d="M907.932,1559.01c290.167,-512.833 1238.25,-509.083 2117.54,8.375c879.333,517.458 1356.87,1352.62 1066.71,1865.46c-290.21,512.833 -1238.29,509.083 -2117.58,-8.334c-879.291,-517.458 -1356.88,-1352.67 -1066.67,-1865.5Z" style="fill:none;stroke:#7be152;stroke-width:4.9px;"/><path d="M1454.35,4082.26c-491.333,-338.791 -421.458,-1323.67 156.041,-2199.79c577.543,-876.125 1444,-1311.71 1935.38,-972.875c491.333,338.792 421.458,1323.71 -156.083,2199.83c-577.501,876.083 -1444,1311.67 -1935.33,972.833Z" style="fill:none;stroke:#7be152;stroke-width:4.9px;"/><path d="M4009.6,3697.8c-372.292,485.958 -1349.92,341.792 -2183.58,-322c-833.708,-663.792 -1207.75,-1595.79 -835.5,-2081.75c372.251,-485.959 1349.88,-341.792 2183.58,322c833.667,663.792 1207.75,1595.83 835.5,2081.75Z" style="fill:none;stroke:#7be152;stroke-width:4.9px;"/><path d="M3804.31,1014.68c458.793,422.125 246.791,1427.54 -473.542,2245.62c-720.332,818.042 -1676.16,1139.04 -2135,716.917c-458.791,-422.167 -246.751,-1427.54 473.541,-2245.63c720.333,-818.083 1676.21,-1139.04 2135,-716.916Z" style="fill:none;stroke:#7be152;stroke-width:4.9px;"/><path d="M1113.35,1033.01c453.125,-446.083 1441.29,-152.708 2207.13,655.25c765.832,807.958 1019.37,1824.54 566.249,2270.58c-453.125,446.083 -1441.29,152.708 -2207.12,-655.209c-765.835,-807.958 -1019.33,-1824.54 -566.252,-2270.62Z" style="fill:none;stroke:#7be152;stroke-width:4.9px;"/><path d="M943.973,3830.55c-413.415,-503.25 -51.833,-1508.75 807.585,-2245.83c859.416,-737.126 1891.21,-926.667 2304.58,-423.417c413.375,503.25 51.792,1508.75 -807.624,2245.88c-859.375,737.083 -1891.17,926.667 -2304.54,423.375Z" style="fill:none;stroke:#7be152;stroke-width:4.9px;"/><path d="M3722.89,4209.88c-530.874,393 -1508.71,-55.792 -2184.04,-1002.38c-675.374,-946.625 -792.498,-2032.54 -261.625,-2425.54c530.833,-392.957 1508.67,55.792 2184.04,1002.42c675.333,946.584 792.5,2032.54 261.625,2425.5Z" style="fill:none;stroke:#7be152;stroke-width:4.9px;"/><path d="M4295.14,1349.8c354.999,580.167 -160.917,1563.67 -1152.33,2196.67c-991.376,633 -2082.83,675.791 -2437.83,95.624c-355.001,-580.208 160.874,-1563.71 1152.29,-2196.71c991.416,-633 2082.88,-675.792 2437.88,-95.583Z" style="fill:none;stroke:#7be152;stroke-width:4.9px;"/><path d="M1481.89,547.342c603.583,-326.751 1548.67,280.791 2110.96,1357c562.293,1076.17 528.876,2213.46 -74.666,2540.21c-603.542,326.708 -1548.67,-280.833 -2110.96,-1357.04c-562.292,-1076.17 -528.876,-2213.46 74.666,-2540.17Z" style="fill:none;stroke:#7be152;stroke-width:4.9px;"/><path d="M485.182,3412.3c-283.834,-650.875 388.168,-1588.83 1500.96,-2094.92c1112.79,-506.125 2244.96,-388.749 2528.79,262.167c283.832,650.917 -388.167,1588.83 -1500.96,2094.96c-1112.79,506.083 -2245,388.709 -2528.79,-262.208Z" style="fill:none;stroke:#7be152;stroke-width:4.9px;"/><path d="M3273.64,4656.26c-669.125,247.625 -1557.88,-518.833 -1985.13,-1711.92c-427.25,-1193.12 -231.167,-2361.08 437.917,-2608.71c669.124,-247.666 1557.92,518.792 1985.17,1711.92c427.25,1193.08 231.167,2361.04 -437.957,2608.71Z" style="fill:none;stroke:#7be152;stroke-width:4.9px;"/><path d="M4709.06,1849.05c200.375,713.291 -626.208,1581.12 -1846.21,1938.42c-1220,357.25 -2371.46,68.667 -2571.84,-644.624c-200.333,-713.292 626.251,-1581.17 1846.25,-1938.42c1220,-357.292 2371.42,-68.666 2571.79,644.625Z" style="fill:none;stroke:#7be152;stroke-width:4.9px;"/><path d="M2008.81,153.467c725.541,-156.375 1533.62,765.625 1804.92,2059.33c271.291,1293.71 -96.917,2469.21 -822.459,2625.58c-725.541,156.375 -1533.62,-765.625 -1804.92,-2059.29c-271.291,-1293.71 96.958,-2469.25 822.459,-2625.62Z" style="fill:none;stroke:#7be152;stroke-width:4.9px;"/><path d="M129.016,2836.18c-105.375,-765.292 870.75,-1538 2180.21,-1725.92c1309.5,-187.916 2456.46,280.167 2561.83,1045.46c105.375,765.25 -870.707,1537.96 -2180.21,1725.87c-1309.46,187.917 -2456.46,-280.125 -2561.83,-1045.42Z" style="fill:none;stroke:#7be152;stroke-width:4.9px;"/><path d="M2674.06,4984.47c-770.75,53.874 -1473.5,-1016.58 -1569.62,-2390.96c-96.084,-1374.33 450.832,-2532.21 1221.58,-2586.08c770.792,-53.916 1473.54,1016.54 1569.62,2390.92c96.126,1374.38 -450.832,2532.21 -1221.58,2586.13Z" style="fill:none;stroke:#7be152;stroke-width:4.9px;"/><path d="M4994.64,2495.93c-0,804.833 -1116.87,1457.29 -2494.58,1457.29c-1377.75,-0 -2494.58,-652.459 -2494.58,-1457.29c0,-804.833 1116.83,-1457.29 2494.58,-1457.29c1377.71,0 2494.58,652.459 2494.58,1457.29Z" style="fill:none;stroke:#7be152;stroke-width:4.9px;"/></svg>