<?xml version="1.0" encoding="UTF-8" standalone="no"?><!DOCTYPE svg PUBLIC "-//W3C//DTD SVG 1.1//EN" "http://www.w3.org/Graphics/SVG/1.1/DTD/svg11.dtd"><svg width="100%" height="100%" viewBox="0 0 2173 2508" version="1.1" xmlns="http://www.w3.org/2000/svg" xmlns:xlink="http://www.w3.org/1999/xlink" xml:space="preserve" xmlns:serif="http://www.serif.com/" style="fill-rule:evenodd;clip-rule:evenodd;stroke-linejoin:round;stroke-miterlimit:2;"><path d="M1783.05,1746.41l-76.279,44.042l-0,84.5l74.196,-42.833l77.324,-44.667c0.646,-0.375 1.442,-0.375 2.088,-0l77.317,44.667c0.645,0.333 1.041,1.041 1.041,1.791c0,0.75 -0.396,1.417 -1.041,1.792l-386.642,223.208l-386.608,223.209c-0.646,0.375 -1.438,0.375 -2.084,-0c-0.645,-0.334 -1.041,-1.042 -1.041,-1.792l-0,-89.292c-0,-0.75 0.396,-1.416 1.041,-1.791l77.321,-44.625l74.196,-42.875l-73.154,-42.209l-76.279,44.042l-76.275,44.042l-0,176.166l75.233,43.417l848.492,-489.875l-0,-86.875l-152.563,-88.083l-76.283,44.041Z" style="fill:none;fill-rule:nonzero;stroke:#7be152;stroke-width:2.92px;"/><path d="M389.108,760.656l76.279,-44.041l0,-84.459l-74.195,42.834l-77.321,44.625c-0.642,0.375 -1.438,0.375 -2.084,-0l-77.32,-44.625c-0.646,-0.375 -1.042,-1.042 -1.042,-1.792c-0,-0.75 0.396,-1.458 1.042,-1.833l386.641,-223.209l386.604,-223.208c0.646,-0.375 1.442,-0.375 2.088,0c0.642,0.375 1.037,1.083 1.037,1.792l0,89.291c0,0.75 -0.395,1.459 -1.037,1.834l-77.321,44.625l-74.2,42.833l73.158,42.25l152.563,-88.083l0,-176.167l-75.242,-43.458l-848.491,489.875l-0,86.875l152.579,88.083l76.262,-44.042Z" style="fill:none;fill-rule:nonzero;stroke:#7be152;stroke-width:2.92px;"/><path d="M1861.41,984.448l73.155,42.25l-0,-174.958c-0,-0.375 0.112,-0.667 0.266,-0.959c0.021,-0.041 0.046,-0.083 0.071,-0.125c0.171,-0.291 0.4,-0.5 0.679,-0.666c0.013,-0 0.017,-0.042 0.025,-0.042l0.08,-0.042c0.066,-0.041 0.12,-0.083 0.191,-0.125l77.054,-44.458c0.642,-0.375 1.438,-0.375 2.084,-0c0.641,0.375 1.037,1.042 1.037,1.792l0,892.875c0,0.708 -0.396,1.416 -1.042,1.791c-0.641,0.375 -1.437,0.375 -2.079,0l-77.325,-44.666c-0.646,-0.375 -1.041,-1.042 -1.041,-1.792l-0,-174.958l-73.155,42.25l0.005,176.166l152.558,88.084l75.233,-43.459l0,-979.75l-75.25,-43.416l-152.546,88.041l0,176.167Z" style="fill:none;fill-rule:nonzero;stroke:#7be152;stroke-width:2.92px;"/><path d="M310.746,1522.62l-73.159,-42.25l0,174.958c0,0.75 -0.395,1.417 -1.037,1.792l-77.321,44.666c-0.646,0.375 -1.437,0.375 -2.083,0c-0.646,-0.375 -1.042,-1.083 -1.042,-1.791l0,-892.875c0,-0.75 0.396,-1.417 1.038,-1.792c0.645,-0.375 1.441,-0.375 2.087,-0l77.05,44.458c0.067,0.042 0.125,0.084 0.188,0.125l0.083,0.042c0.008,0 0.013,0.042 0.021,0.042c0.283,0.166 0.512,0.375 0.683,0.666c0.025,0.042 0.046,0.084 0.067,0.125c0.158,0.292 0.271,0.584 0.271,0.959c-0,-0 -0.005,-0 -0.005,0.041l0,174.917l73.159,-42.25l-0,-176.125l-152.546,-88.083l-75.254,43.416l-0,979.75l75.237,43.459l152.563,-88.084l-0,-176.166Z" style="fill:none;fill-rule:nonzero;stroke:#7be152;stroke-width:2.92px;"/><path d="M931.437,2059.53l-73.158,42.209l74.2,42.875l77.321,44.625c0.642,0.375 1.037,1.041 1.037,1.791l0,89.292c0,0.75 -0.395,1.458 -1.041,1.792c-0.642,0.375 -1.438,0.375 -2.084,-0l-386.599,-223.209l-386.646,-223.208c-0.646,-0.375 -1.042,-1.042 -1.042,-1.792c-0.004,-0.75 0.396,-1.416 1.037,-1.791l77.325,-44.667c0.646,-0.375 1.442,-0.375 2.084,-0l77.321,44.667l74.195,42.833l0,-84.5l-76.279,-44.042l-76.279,-44.041l-152.562,88.083l-0,86.875l848.487,489.875l75.246,-43.417l0,-176.166l-152.563,-88.084Z" style="fill:none;fill-rule:nonzero;stroke:#7be152;stroke-width:2.92px;"/><path d="M1007.75,492.823l77.288,-44.625c0.025,-0 0.058,-0 0.087,-0.042c0.096,-0.041 0.196,-0.083 0.304,-0.125c0.088,0 0.171,-0.041 0.263,-0.041c0.075,-0 0.15,-0.042 0.225,-0.042c0.058,-0 0.104,-0.042 0.162,-0.042c0.05,0 0.096,0.042 0.146,0.042c0.088,-0 0.163,0.042 0.246,0.042c0.083,-0 0.163,0.041 0.246,0.041c0.108,0.042 0.208,0.084 0.308,0.125c0.029,0.042 0.063,0.042 0.092,0.042l77.283,44.625c0.646,0.375 1.042,1.042 1.042,1.792l-0,88.083l76.279,44.042l154.683,89.291l154.642,89.334l76.283,44.041l76.275,-44.041c0.646,-0.375 1.438,-0.375 2.084,-0l77.321,44.583c0.037,0.042 0.054,0.083 0.091,0.083c0.217,0.167 0.4,0.334 0.554,0.584c0.059,0.083 0.109,0.166 0.154,0.25c0.121,0.25 0.192,0.5 0.209,0.791c0.004,0.042 0.033,0.042 0.033,0.084l0,89.25c0,0.75 -0.4,1.458 -1.041,1.833l-76.275,44.042l-0,533.375l76.275,44c0.641,0.375 1.041,1.041 1.041,1.791l0,89.25c0,0.042 -0.029,0.084 -0.033,0.125l-0.004,0.042c-0.005,0.083 -0.021,0.167 -0.038,0.25c-0.016,0.083 -0.037,0.167 -0.066,0.25c-0.026,0.083 -0.046,0.167 -0.084,0.25c-0.021,0.042 -0.033,0.083 -0.058,0.125c-0.004,-0 -0.004,-0 -0.009,0.042c-0.02,0.041 -0.062,0.041 -0.087,0.083c-0.046,0.083 -0.092,0.125 -0.146,0.208c-0.071,0.084 -0.141,0.125 -0.225,0.209c-0.05,0.041 -0.091,0.083 -0.146,0.125c-0.012,-0 -0.016,0.041 -0.029,0.041l-0.012,0c-0.025,0.042 -0.05,0.042 -0.071,0.042c-0.021,-0 -0.029,0.042 -0.046,0.042l-77.304,44.625c-0.646,0.375 -1.442,0.375 -2.088,-0l-76.275,-44.042l-76.283,44.042l-154.642,89.291l-154.679,89.292l-76.283,44.042l-0,88.083c-0,0.75 -0.396,1.417 -1.042,1.792l-77.279,44.625c-0.037,0.041 -0.083,0.041 -0.117,0.041c-0.258,0.125 -0.537,0.209 -0.837,0.25l-0.179,0c-0.304,-0.041 -0.584,-0.125 -0.838,-0.25c-0.037,0 -0.079,0 -0.117,-0.041l-77.287,-44.625c-0.642,-0.375 -1.038,-1.042 -1.038,-1.792l0,-88.083l-76.283,-44.042l-154.679,-89.292l-154.642,-89.291l-76.283,-44.042l-76.275,44.042c-0.642,0.375 -1.438,0.375 -2.083,-0l-77.309,-44.625c-0.025,-0 -0.033,-0.042 -0.054,-0.042c-0.021,-0.042 -0.041,-0.042 -0.062,-0.042l-0.013,0c-0.012,0 -0.017,-0.041 -0.033,-0.041c-0.054,-0.042 -0.1,-0.084 -0.15,-0.125c-0.038,-0.042 -0.088,-0.042 -0.121,-0.084c-0.037,-0.041 -0.046,-0.083 -0.079,-0.125c-0.063,-0.083 -0.117,-0.125 -0.171,-0.208c-0.021,-0.042 -0.058,-0.083 -0.079,-0.083c-0.009,-0.042 -0.009,-0.042 -0.013,-0.042c-0.025,-0.042 -0.037,-0.083 -0.062,-0.167c-0.029,-0.041 -0.05,-0.125 -0.071,-0.166c-0.033,-0.125 -0.058,-0.209 -0.075,-0.292c-0.017,-0.083 -0.029,-0.167 -0.037,-0.25c-0.005,-0.083 -0.034,-0.083 -0.034,-0.167l0,-89.25c0,-0.75 0.396,-1.416 1.042,-1.791l76.279,-44.042l-0,-533.333l-76.283,-44.042c-0.642,-0.375 -1.038,-1.083 -1.038,-1.833l0,-89.25c0,-0.042 0.029,-0.084 0.034,-0.125c0.008,-0.125 0.049,-0.25 0.083,-0.375c0.033,-0.125 0.062,-0.25 0.121,-0.375c0.062,-0.125 0.137,-0.209 0.216,-0.334c0.092,-0.125 0.184,-0.208 0.3,-0.333c0.059,-0.042 0.113,-0.083 0.18,-0.125c0.041,-0.042 0.062,-0.083 0.108,-0.125l77.321,-44.583c0.645,-0.375 1.441,-0.375 2.083,-0l76.275,44.041l76.283,-44.041l154.642,-89.334l154.679,-89.291l76.283,-44.042l0,-88.083c0,-0.75 0.396,-1.417 1.042,-1.792Zm-75.254,48.25l-77.321,44.667c-0.312,0.166 -0.641,0.208 -0.975,0.25c-0.05,-0 -0.096,-0.042 -0.146,-0.042c-0.308,-0 -0.604,-0.083 -0.879,-0.208c-0.021,-0.042 -0.05,-0 -0.071,-0.042l-0.166,-0.083c-0.025,-0.042 -0.05,-0.042 -0.075,-0.042l-77.117,-44.5c-0.646,-0.375 -1.042,-1.083 -1.042,-1.833l0,-89.25c0,-0.75 0.396,-1.459 1.042,-1.834c0.642,-0.375 1.437,-0.375 2.083,0l77.325,44.667c0.642,0.375 1.038,1.042 1.038,1.792l0.037,85.666l73.142,-42.208l-0.017,-86.875l-76.283,-44.083c-0.646,-0.375 -1.042,-1.042 -1.042,-1.792c0,-0.75 0.396,-1.417 1.042,-1.792l77.321,-44.666l76.279,-44.042l-0,-84.458l-383.483,221.416l-383.517,221.417l73.154,42.25l76.279,-44.083l77.321,-44.625c0.646,-0.375 1.442,-0.375 2.088,-0c0.641,0.375 1.037,1.041 1.037,1.791l0,88.084l75.267,43.458l73.15,-42.208l-74.221,-42.875c-0.642,-0.375 -1.042,-1.042 -1.042,-1.792l0,-89.292c0,-0.75 0.4,-1.416 1.042,-1.791c0.646,-0.375 1.438,-0.375 2.083,-0l77.321,44.625c0.646,0.375 1.042,1.041 1.042,1.791l0.037,89.334c0,0.041 -0.033,0.083 -0.037,0.166c-0.004,0.084 -0.025,0.125 -0.038,0.209c-0.012,0.083 -0.012,0.125 -0.029,0.208c-0.025,0.083 -0.067,0.167 -0.108,0.25c-0.05,0.125 -0.1,0.208 -0.175,0.333c-0.029,0.042 -0.05,0.084 -0.083,0.125c-0.063,0.084 -0.151,0.125 -0.23,0.209c-0.066,0.041 -0.125,0.125 -0.2,0.166c-0.033,0.042 -0.05,0.084 -0.087,0.125l-0.071,0l-77.312,44.625c-0.646,0.375 -1.442,0.375 -2.084,0l-76.304,-44.041l-76.283,44.041l-76.28,44.042l0,176.125l76.326,44.042c0.645,0.375 1.041,1.083 1.041,1.833l0.004,89.292c0,0.333 -0.12,0.666 -0.283,0.958c-0.017,0.042 -0.037,0.083 -0.058,0.083c-0.171,0.292 -0.396,0.5 -0.671,0.667c-0.017,0.042 -0.025,0.042 -0.046,0.042l-0.138,0.083c-0.037,0.042 -0.062,0.042 -0.1,0.083l-77.116,44.5c-0.642,0.375 -1.438,0.375 -2.084,0l-77.325,-44.666c-0.641,-0.375 -1.041,-1.042 -1.037,-1.792c-0,-0.75 0.396,-1.417 1.042,-1.792l77.32,-44.666c0.646,-0.334 1.438,-0.334 2.084,-0l74.246,42.875l-0,-84.459l-75.296,-43.458l-76.275,44.042c-0.642,0.333 -1.434,0.333 -2.079,-0c-0.646,-0.375 -1.042,-1.084 -1.042,-1.834l-0.004,-177.333l-73.154,-42.208l-0,885.625l73.158,-42.25l-0,-177.375c-0,-0.709 0.396,-1.417 1.037,-1.792c0.646,-0.375 1.442,-0.375 2.088,-0l76.283,44.042l75.284,-43.417l-0,-84.5l-74.246,42.833c-0.642,0.375 -1.438,0.375 -2.084,0l-77.325,-44.625c-0.641,-0.375 -1.041,-1.083 -1.037,-1.791c-0,-0.75 0.396,-1.459 1.042,-1.834l77.32,-44.625c0.646,-0.375 1.438,-0.375 2.084,0l77.354,44.625c0.05,0.042 0.067,0.084 0.113,0.125c0.22,0.125 0.408,0.334 0.558,0.542c0.037,0.083 0.083,0.125 0.112,0.167c0.159,0.291 0.271,0.625 0.271,1l0,89.291c0,0.709 -0.396,1.417 -1.041,1.792l-76.326,44.042l0,176.166l76.28,44.042l76.27,44.042l76.317,-44.084c0.642,-0.375 1.438,-0.375 2.084,0l77.32,44.625l0.013,0c-0,0 0.004,0.042 0.008,0.042c0.288,0.167 0.5,0.375 0.671,0.667c0.058,0.083 0.087,0.166 0.133,0.25c0.092,0.208 0.15,0.416 0.171,0.666c0.008,0.042 0.054,0.125 0.054,0.209l-0.037,89.291c-0,0.75 -0.396,1.459 -1.038,1.834l-77.325,44.625c-0.641,0.375 -1.437,0.375 -2.083,-0c-0.642,-0.375 -1.042,-1.042 -1.042,-1.792l0,-89.292c0,-0.75 0.396,-1.416 1.042,-1.791l74.242,-42.875l-73.171,-42.25l-75.267,43.458l0,88.083c0,0.75 -0.396,1.459 -1.042,1.834c-0.645,0.333 -1.437,0.333 -2.079,-0l-77.325,-44.667l-76.279,-44.042l-73.154,42.25l383.521,221.417l383.479,221.417l-0,-84.5l-76.279,-44.042l-77.325,-44.625c-0.642,-0.375 -1.042,-1.083 -1.038,-1.833c0,-0.709 0.396,-1.417 1.042,-1.792l76.283,-44.042l0.017,-86.916l-73.142,-42.209l-0.037,85.709c-0,0.708 -0.396,1.416 -1.038,1.791l-77.325,44.625c-0.646,0.375 -1.437,0.375 -2.083,0c-0.646,-0.375 -1.042,-1.041 -1.042,-1.791l0,-89.292c0,-0.75 0.396,-1.417 1.042,-1.792l77.346,-44.666l0.004,-0c0.012,-0 0.033,-0 0.05,-0.042c0.038,-0 0.079,-0.042 0.121,-0.042c0.087,-0.041 0.175,-0.083 0.262,-0.083c0.067,-0.042 0.134,-0.042 0.2,-0.042c0.063,-0.041 0.125,-0.041 0.188,-0.041c0.029,-0 0.054,-0.042 0.079,-0.042l0.1,-0c0.067,-0 0.129,0.042 0.196,0.042c0.083,-0 0.158,-0 0.242,0.041l0.191,0c0.021,0.042 0.046,0 0.067,0.042l0.058,-0c0.029,0.042 0.059,0.042 0.088,0.042c0.033,-0 0.058,0.041 0.087,0.041c0.033,0.042 0.071,0 0.104,0.042c0.021,-0 0.025,-0 0.042,0.042l0.017,-0l77.308,44.625c0.642,0.375 1.042,1.083 1.042,1.833l-0.017,88.083l152.554,88.084l76.279,-44.042l76.275,-44.042l-0.016,-88.083c-0,-0.75 0.4,-1.458 1.041,-1.833l77.225,-44.584c0.013,0 0.017,-0.041 0.025,-0.041l0.071,-0c0.029,-0.042 0.067,-0.042 0.096,-0.042c0.05,-0 0.092,-0.042 0.146,-0.083c0.05,-0 0.104,-0.042 0.158,-0.042c0.042,-0 0.071,-0.042 0.113,-0.042l0.025,0c0.041,-0.041 0.083,0 0.129,-0.041l0.158,-0c0.058,-0 0.113,-0.042 0.171,-0.042c0.067,-0 0.129,0.042 0.192,0.042l0.141,-0c0.059,-0 0.109,0.041 0.167,0.041c0.046,0 0.092,0 0.138,0.042c0.095,-0 0.187,0.042 0.279,0.083l0.045,0l0.017,0.042l0.046,-0c0.021,0.042 0.042,-0 0.067,0.042l0.029,-0l77.312,44.666c0.642,0.375 1.042,1.042 1.042,1.792l0,89.292c0,0.75 -0.4,1.416 -1.042,1.791c-0.645,0.375 -1.441,0.375 -2.083,0l-77.325,-44.625c-0.642,-0.375 -1.042,-1.083 -1.042,-1.791l-0.033,-85.709l-73.137,42.209l0.016,86.916l76.279,44.042c0.646,0.375 1.042,1.083 1.042,1.792c-0,0.75 -0.396,1.458 -1.042,1.833l-77.32,44.625l-76.28,44.042l0,84.5l383.484,-221.417l383.516,-221.417l-73.154,-42.25l-76.283,44.042l-77.321,44.667c-0.642,0.333 -1.438,0.333 -2.083,-0c-0.642,-0.375 -1.042,-1.084 -1.042,-1.834l-0,-88.083l-75.262,-43.458l-73.167,42.25l74.237,42.875c0.642,0.333 1.038,1.041 1.038,1.791l-0,89.292c-0,0.75 -0.396,1.417 -1.042,1.792c-0.646,0.375 -1.437,0.375 -2.083,-0l-77.317,-44.625c-0.646,-0.375 -1.042,-1.084 -1.042,-1.834l-0.037,-89.291c-0,-0.084 0.05,-0.167 0.054,-0.209c0.021,-0.25 0.079,-0.458 0.175,-0.666c0.042,-0.084 0.075,-0.167 0.129,-0.25c0.175,-0.292 0.392,-0.542 0.692,-0.709l77.325,-44.625c0.642,-0.375 1.438,-0.375 2.083,0l76.309,44.084l76.271,-44.042l76.287,-44.042l-0,-176.166l-76.329,-44.042c-0.646,-0.375 -1.042,-1.083 -1.042,-1.792l0,-89.291c0,-0.375 0.113,-0.667 0.263,-0.959c0.041,-0.083 0.087,-0.125 0.133,-0.208c0.146,-0.208 0.321,-0.375 0.533,-0.542c0.05,-0.041 0.071,-0.083 0.121,-0.125l77.363,-44.625c0.641,-0.375 1.437,-0.375 2.083,0l77.317,44.625c0.645,0.375 1.041,1.084 1.041,1.834c0,0.708 -0.396,1.416 -1.041,1.791l-77.317,44.625c-0.646,0.375 -1.442,0.375 -2.083,0l-74.246,-42.833l-0,84.5l75.275,43.417l76.287,-44.042c0.646,-0.375 1.438,-0.375 2.084,-0c0.645,0.375 1.041,1.083 1.041,1.792l0,177.375l73.154,42.25l0,-885.625l-73.154,42.208l0,177.333c0,0.75 -0.396,1.459 -1.041,1.834c-0.646,0.333 -1.438,0.333 -2.084,-0l-76.275,-44.042l-75.287,43.458l-0,84.459l74.246,-42.875c0.641,-0.334 1.437,-0.334 2.083,-0l77.317,44.666c0.645,0.375 1.041,1.042 1.041,1.792c0,0.75 -0.396,1.417 -1.041,1.792l-77.317,44.666c-0.646,0.375 -1.442,0.375 -2.083,0l-77.129,-44.5c-0.021,-0.041 -0.038,-0.041 -0.059,-0.041l-0.175,-0.125c-0.021,-0 -0.029,-0.042 -0.054,-0.042c-0.263,-0.167 -0.479,-0.375 -0.646,-0.625c-0.025,-0.042 -0.054,-0.083 -0.075,-0.125c-0.158,-0.292 -0.275,-0.625 -0.275,-0.958l0,-89.292c0,-0.75 0.396,-1.458 1.042,-1.833l76.329,-44.042l-0,-176.125l-76.283,-44.042l-76.288,-44.041l-76.296,44.041c-0.645,0.375 -1.441,0.375 -2.083,0l-77.233,-44.583l-0.042,-0c-0.017,-0 -0.021,-0.042 -0.038,-0.042l-0.008,0c-0.037,0 -0.058,-0.041 -0.091,-0.083c-0.08,-0.042 -0.151,-0.083 -0.221,-0.167c-0.038,-0.041 -0.084,-0.041 -0.121,-0.083l-0.004,0c-0.034,-0.042 -0.046,-0.083 -0.075,-0.125c-0.055,-0.042 -0.109,-0.125 -0.15,-0.167c-0.054,-0.083 -0.092,-0.125 -0.134,-0.208c-0.004,-0.042 -0.008,-0.042 -0.012,-0.042c-0.042,-0.083 -0.084,-0.166 -0.113,-0.291c-0.025,-0.084 -0.041,-0.167 -0.062,-0.25c-0.017,-0.084 -0.029,-0.167 -0.034,-0.25c-0.004,-0.042 -0.037,-0.084 -0.037,-0.125l0.037,-89.334c0,-0.75 0.396,-1.416 1.042,-1.791l77.317,-44.625c0.646,-0.375 1.441,-0.375 2.087,-0c0.642,0.375 1.038,1.041 1.038,1.791l-0,89.292c-0,0.75 -0.396,1.417 -1.038,1.792l-74.22,42.875l73.15,42.208l75.262,-43.458l-0,-88.084c-0,-0.75 0.4,-1.416 1.042,-1.791c0.645,-0.375 1.441,-0.375 2.083,-0l77.321,44.625l76.283,44.083l73.154,-42.25l-383.516,-221.417l-383.484,-221.416l0,84.458l76.284,44.042l77.316,44.666c0.646,0.375 1.042,1.042 1.042,1.792c-0,0.75 -0.396,1.417 -1.042,1.792l-76.283,44.083l-0.012,86.875l73.137,42.208l0.033,-85.666c0,-0.75 0.396,-1.417 1.042,-1.792l77.325,-44.667c0.642,-0.375 1.438,-0.375 2.083,0c0.642,0.375 1.042,1.084 1.042,1.834l0,89.25c0,0.75 -0.4,1.458 -1.042,1.833l-77.116,44.5c-0.025,-0 -0.05,-0 -0.075,0.042l-0.171,0.083c-0.021,0.042 -0.046,-0 -0.067,0.042c-0.275,0.125 -0.566,0.208 -0.875,0.208c-0.054,-0 -0.104,0.042 -0.158,-0c-0.329,-0 -0.659,-0.042 -0.963,-0.208l-77.325,-44.667c-0.641,-0.375 -1.041,-1.042 -1.041,-1.792l0.016,-88.125l-76.275,-44.041l-76.279,-44.042l-152.554,88.125l0.017,88.083c-0,0.75 -0.4,1.417 -1.042,1.792Z" style="fill:none;fill-rule:nonzero;stroke:#7be152;stroke-width:2.92px;"/><path d="M1164.44,403.531l76.279,44.042l73.154,-42.25l-74.196,-42.833l-77.321,-44.625c-0.645,-0.375 -1.041,-1.084 -1.041,-1.834l-0,-89.291c-0,-0.709 0.396,-1.417 1.041,-1.792c0.642,-0.375 1.438,-0.375 2.084,0l386.608,223.208l386.642,223.209c0.645,0.375 1.041,1.083 1.041,1.833c0,0.75 -0.396,1.417 -1.041,1.792l-77.317,44.625c-0.646,0.375 -1.442,0.375 -2.083,-0l-77.329,-44.625l-74.196,-42.834l-0,84.459l76.283,44.041l76.262,44.042l152.58,-88.083l-0,-86.875l-848.492,-489.875l-75.233,43.458l-0,176.167l76.275,44.041Z" style="fill:none;fill-rule:nonzero;stroke:#7be152;stroke-width:2.92px;"/><path d="M5.625,1792.87l0,84.458l73.154,42.25l0,-84.458l-73.154,-42.25Z" style="fill:none;fill-rule:nonzero;stroke:#7be152;stroke-width:2.92px;"/><path d="M78.779,1744.62l0,-982.125c0,-0.75 0.396,-1.459 1.042,-1.834l76.283,-44.041l0,-88.084c0,-0.75 0.396,-1.416 1.042,-1.791l850.571,-491.084c0.641,-0.375 1.437,-0.375 2.083,0l76.279,44.042l76.279,-44.042c0.642,-0.375 1.438,-0.375 2.084,0l850.57,491.084c0.646,0.375 1.042,1.041 1.042,1.791l0,88.084l76.279,44.041c0.646,0.375 1.042,1.084 1.042,1.834l0,982.125c0,0.75 -0.396,1.416 -1.042,1.791l-76.279,44.042l0,88.083c0,0.75 -0.396,1.459 -1.042,1.834l-850.57,491.041c-0.646,0.375 -1.442,0.375 -2.084,0l-76.275,-44.041l-76.283,44.041c-0.646,0.375 -1.442,0.375 -2.083,0l-850.571,-491.041c-0.646,-0.375 -1.042,-1.084 -1.042,-1.834l-0.004,-88.083l-76.279,-44.042c-0.646,-0.375 -1.042,-1.041 -1.042,-1.791Zm4.167,89.291l-0,88.084l462.925,267.25l462.883,267.25l76.283,-44.042c0.646,-0.375 1.442,-0.375 2.088,-0l76.275,44.042l462.921,-267.25l462.887,-267.25l0,-88.084c0,-0.75 0.396,-1.416 1.042,-1.791l76.283,-44.042l0,-1069.04l-76.283,-44.041c-0.642,-0.375 -1.042,-1.042 -1.042,-1.792l0,-88.083l-462.883,-267.25l-462.925,-267.292l-76.275,44.042c-0.646,0.375 -1.442,0.375 -2.083,-0l-76.284,-44.042l-462.887,267.292l-462.925,267.25l-0,88.083c-0,0.75 -0.4,1.417 -1.042,1.792l-76.279,44.041l0,1069.04l76.279,44.042c0.642,0.333 1.042,1.041 1.042,1.791Z" style="fill:none;fill-rule:nonzero;stroke:#7be152;stroke-width:2.92px;"/><path d="M1159.2,1923.16l-73.117,-42.208l-73.121,42.208l73.121,42.25l73.117,-42.25Z" style="fill:none;fill-rule:nonzero;stroke:#7be152;stroke-width:2.92px;"/><path d="M1320.09,580.281l73.191,-42.208l0,-84.5l-73.158,42.25l-0.033,84.458Z" style="fill:none;fill-rule:nonzero;stroke:#7be152;stroke-width:2.92px;"/><path d="M469.592,897.615l-0,84.416l73.154,-42.208l-0,-84.417l-73.154,42.209Z" style="fill:none;fill-rule:nonzero;stroke:#7be152;stroke-width:2.92px;"/><path d="M1012.96,583.906l73.121,42.209l73.121,-42.209l-73.121,-42.208l-73.121,42.208Z" style="fill:none;fill-rule:nonzero;stroke:#7be152;stroke-width:2.92px;"/><path d="M1625.28,1919.57l0,-84.458l-73.191,-42.292l0.037,84.5l73.154,42.25Z" style="fill:none;fill-rule:nonzero;stroke:#7be152;stroke-width:2.92px;"/><path d="M1932.48,1119.57l-73.15,-42.25l-73.195,42.25l73.191,42.25l73.154,-42.25Z" style="fill:none;fill-rule:nonzero;stroke:#7be152;stroke-width:2.92px;"/><path d="M1859.33,1429.7l73.154,-42.208l-73.154,-42.25l-73.191,42.25l73.191,42.208Z" style="fill:none;fill-rule:nonzero;stroke:#7be152;stroke-width:2.92px;"/><path d="M1625.28,587.49l-73.154,42.25l-0.037,84.5l73.191,-42.25l0,-84.5Z" style="fill:none;fill-rule:nonzero;stroke:#7be152;stroke-width:2.92px;"/><path d="M394.363,1655.32l73.145,42.208l73.1,-42.208l-73.137,-42.25l-73.108,42.25Z" style="fill:none;fill-rule:nonzero;stroke:#7be152;stroke-width:2.92px;"/><path d="M540.6,851.74l-73.092,-42.167l-73.158,42.208l73.125,42.209l73.125,-42.25Z" style="fill:none;fill-rule:nonzero;stroke:#7be152;stroke-width:2.92px;"/><path d="M465.392,1525.03l-73.125,42.209l-0,84.458l73.12,-42.208l0.005,-84.459Z" style="fill:none;fill-rule:nonzero;stroke:#7be152;stroke-width:2.92px;"/><path d="M392.267,855.365l-0,84.458l73.125,42.208l-0.005,-84.458l-73.12,-42.208Z" style="fill:none;fill-rule:nonzero;stroke:#7be152;stroke-width:2.92px;"/><path d="M469.592,1609.45l73.154,42.25l-0,-84.417l-73.154,-42.25l-0,84.417Z" style="fill:none;fill-rule:nonzero;stroke:#7be152;stroke-width:2.92px;"/><path d="M312.829,1161.82l73.188,-42.25l-73.188,-42.25l-73.158,42.25l73.158,42.25Z" style="fill:none;fill-rule:nonzero;stroke:#7be152;stroke-width:2.92px;"/><path d="M1393.28,2053.49l0,-84.459l-73.191,-42.25l0.033,84.5l73.158,42.209Z" style="fill:none;fill-rule:nonzero;stroke:#7be152;stroke-width:2.92px;"/><path d="M78.779,587.49l-73.154,42.25l0,84.5l73.154,-42.25l0,-84.5Z" style="fill:none;fill-rule:nonzero;stroke:#7be152;stroke-width:2.92px;"/><path d="M2166.53,714.24l0,-84.5l-73.158,-42.25l0,84.5l73.158,42.25Z" style="fill:none;fill-rule:nonzero;stroke:#7be152;stroke-width:2.92px;"/><path d="M778.875,453.573l-0,84.5l73.192,42.208l-0.034,-84.458l-73.158,-42.25Z" style="fill:none;fill-rule:nonzero;stroke:#7be152;stroke-width:2.92px;"/><path d="M2093.38,1919.57l73.158,-42.25l0,-84.458l-73.158,42.25l0,84.458Z" style="fill:none;fill-rule:nonzero;stroke:#7be152;stroke-width:2.92px;"/><path d="M1012.93,2458.91l73.154,42.25l73.154,-42.25l-73.15,-42.25l-73.158,42.25Z" style="fill:none;fill-rule:nonzero;stroke:#7be152;stroke-width:2.92px;"/><path d="M1159.24,48.198l-73.155,-42.25l-73.162,42.25l73.158,42.25l73.159,-42.25Z" style="fill:none;fill-rule:nonzero;stroke:#7be152;stroke-width:2.92px;"/><path d="M546.875,587.49l0,84.5l73.192,42.291l-0.034,-84.541l-73.158,-42.25Z" style="fill:none;fill-rule:nonzero;stroke:#7be152;stroke-width:2.92px;"/><path d="M620.067,1792.82l-73.192,42.292l0,84.458l73.158,-42.25l0.034,-84.5Z" style="fill:none;fill-rule:nonzero;stroke:#7be152;stroke-width:2.92px;"/><path d="M778.875,2053.49l73.158,-42.209l0.034,-84.5l-73.192,42.25l-0,84.459Z" style="fill:none;fill-rule:nonzero;stroke:#7be152;stroke-width:2.92px;"/><path d="M386.021,1387.49l-73.192,-42.25l-73.158,42.25l73.158,42.208l73.192,-42.208Z" style="fill:none;fill-rule:nonzero;stroke:#7be152;stroke-width:2.92px;"/><path d="M1088.17,2053.49l73.112,-42.25l0,-84.417l-73.112,42.208l-0,84.459Z" style="fill:none;fill-rule:nonzero;stroke:#7be152;stroke-width:2.92px;"/><path d="M1779.89,1651.7l-0,-84.458l-73.121,-42.209l-0,84.459l73.121,42.208Z" style="fill:none;fill-rule:nonzero;stroke:#7be152;stroke-width:2.92px;"/><path d="M1474.78,1566.07c0,0.708 -0.396,1.417 -1.041,1.792l-154.642,89.291l-154.642,89.25c-0.645,0.375 -1.437,0.375 -2.083,0c-0.646,-0.375 -1.042,-1.041 -1.042,-1.791l0,-89.292c0,-0.75 0.396,-1.417 1.042,-1.792l115.979,-66.958l115.983,-66.958c0.642,-0.375 1.438,-0.375 2.08,-0l77.325,44.625c0.645,0.375 1.041,1.083 1.041,1.833Zm-79.4,-131.542l-307.221,177.375l0,88.084l0.005,88.083l75.233,43.417l192.279,-111l192.246,-111l-0,-86.875l-76.283,-44.042l-76.259,-44.042Z" style="fill:none;fill-rule:nonzero;stroke:#7be152;stroke-width:2.92px;"/><path d="M776.783,1523.82l-73.158,42.25l151.521,87.458l151.512,87.459l0,-84.459l-114.937,-66.375l-114.938,-66.333Z" style="fill:none;fill-rule:nonzero;stroke:#7be152;stroke-width:2.92px;"/><path d="M1551.08,1073.16c0.642,0.375 1.042,1.084 1.042,1.834l-0,357.125c-0,0.708 -0.4,1.416 -1.042,1.791c-0.646,0.375 -1.442,0.375 -2.083,0l-77.321,-44.625c-0.646,-0.375 -1.042,-1.083 -1.042,-1.833l0,-267.833c0,-0.75 0.396,-1.417 1.042,-1.792l77.321,-44.667c0.641,-0.375 1.437,-0.375 2.083,0Zm-153.175,2.792l-0.421,0.25l0,354.708l76.246,44.042l76.296,44.042l75.254,-43.417l0,-444.042l-75.233,-43.458l-76.283,44.042l-75.859,43.833Z" style="fill:none;fill-rule:nonzero;stroke:#7be152;stroke-width:2.92px;"/><path d="M1547.95,1428.49l0,-349.917l-73.158,42.25l-0,265.417l73.158,42.25Z" style="fill:none;fill-rule:nonzero;stroke:#7be152;stroke-width:2.92px;"/><path d="M1165.5,1656.53l0,84.459l151.517,-87.459l151.521,-87.458l-73.163,-42.25l-114.938,66.333l-114.937,66.375Z" style="fill:none;fill-rule:nonzero;stroke:#7be152;stroke-width:2.92px;"/><path d="M1010.83,1744.62c-0,0.75 -0.4,1.416 -1.042,1.791c-0.646,0.375 -1.441,0.375 -2.083,0l-154.637,-89.25l-154.646,-89.291c-0.642,-0.375 -1.042,-1.084 -1.042,-1.792c-0,-0.75 0.4,-1.458 1.042,-1.833l77.325,-44.625c0.641,-0.375 1.437,-0.375 2.083,-0l115.979,66.958l115.979,66.958c0.642,0.375 1.042,1.042 1.042,1.792l-0,89.292Zm73.175,-132.709l-153.604,-88.708l-153.621,-88.667l-76.262,44.042l-76.28,44.042l0,86.875l192.246,111l192.279,111l75.242,-43.417l0,-176.167Z" style="fill:none;fill-rule:nonzero;stroke:#7be152;stroke-width:2.92px;"/><path d="M1165.5,766.073l0,84.458l114.937,66.375l114.938,66.334l73.163,-42.209l-151.521,-87.5l-151.517,-87.458Z" style="fill:none;fill-rule:nonzero;stroke:#7be152;stroke-width:2.92px;"/><path d="M1164.44,671.365l193.325,111.583l193.283,111.625c0.646,0.375 1.042,1.042 1.042,1.792l-0,88.083l76.316,44.083c0.642,0.375 1.038,1.042 1.038,1.792l-0,446.417c-0,0.75 -0.396,1.458 -1.038,1.833l-76.316,44.042l-0,88.083c-0,0.75 -0.396,1.417 -1.042,1.792l-193.287,111.625l-193.321,111.583c-0.646,0.375 -1.442,0.375 -2.084,-0l-76.279,-44.042l-76.279,44.042c-0.646,0.375 -1.442,0.375 -2.083,-0l-193.321,-111.583l-193.288,-111.625c-0.641,-0.375 -1.037,-1.042 -1.037,-1.792l-0,-88.083l-76.321,-44.042c-0.642,-0.375 -1.042,-1.083 -1.042,-1.833l0,-446.417c0,-0.75 0.4,-1.417 1.042,-1.792l76.321,-44.083l-0,-88.083c-0,-0.75 0.391,-1.417 1.037,-1.792l193.288,-111.625l193.321,-111.583c0.641,-0.375 1.437,-0.375 2.079,-0l76.283,44.041l76.279,-44.041c0.642,-0.375 1.438,-0.375 2.084,-0Zm-79.4,-41.042l-76.246,-44l-76.283,44.042l-154.68,89.25l-154.641,89.333l-76.279,44.042l-0,88c-0,0.375 -0.125,0.708 -0.296,1.041c-0.034,0.042 -0.071,0.084 -0.109,0.125c-0.07,0.125 -0.116,0.25 -0.208,0.334c-0.058,0.041 -0.142,0.083 -0.208,0.125c-0.03,0.041 -0.067,0.041 -0.1,0.083c-0.063,0.042 -0.092,0.125 -0.159,0.167l-76.241,44l-0,533.333l76.029,43.917l0.021,-0l0.191,0.125l-0.008,-0c0.167,0.125 0.337,0.208 0.479,0.333c0.392,0.375 0.609,0.917 0.609,1.458l-0,88.042l76.283,44.042l154.637,89.291l154.68,89.292l76.279,44.042l76.25,-44c0.641,-0.375 1.433,-0.375 2.079,-0l76.242,44l76.283,-44.042l154.679,-89.292l154.642,-89.291l76.316,-44.042l0,-88.042c0,-0.75 0.392,-1.416 1.038,-1.791l76.25,-44.042l-0,-533.333l-76.246,-44c-0.075,-0.042 -0.104,-0.125 -0.171,-0.167c-0.171,-0.167 -0.312,-0.292 -0.437,-0.458c-0.071,-0.084 -0.138,-0.167 -0.192,-0.292c-0.133,-0.25 -0.221,-0.542 -0.229,-0.833c-0,-0.042 -0.013,-0.042 -0.013,-0.084l0,-88l-76.316,-44.083l-154.642,-89.333l-154.679,-89.25l-76.283,-44.042l-76.242,44c-0.642,0.375 -1.438,0.375 -2.079,-0Z" style="fill:none;fill-rule:nonzero;stroke:#7be152;stroke-width:2.92px;"/><path d="M1161.28,580.24l0,-84.417l-73.112,-42.208l-0,84.416l73.112,42.209Z" style="fill:none;fill-rule:nonzero;stroke:#7be152;stroke-width:2.92px;"/><path d="M703.625,941.031l73.158,42.209l114.938,-66.334l114.937,-66.375l0,-84.458l-151.516,87.458l-151.517,87.5Z" style="fill:none;fill-rule:nonzero;stroke:#7be152;stroke-width:2.92px;"/><path d="M1161.33,762.448c0,-0.75 0.396,-1.417 1.042,-1.792c0.642,-0.375 1.438,-0.375 2.083,0l154.642,89.292l154.642,89.25c0.645,0.375 1.041,1.083 1.041,1.833c0,0.75 -0.396,1.417 -1.041,1.792l-77.325,44.625c-0.642,0.375 -1.438,0.375 -2.08,0l-115.983,-66.958l-115.979,-66.959c-0.646,-0.375 -1.042,-1.041 -1.042,-1.791l0,-89.292Zm-73.171,132.708l307.205,177.375l75.475,-43.583l0.8,-0.458l0.004,-0l76.279,-44.042l-0,-86.875l-192.242,-111l-192.283,-111l-75.238,43.417l0,176.166Z" style="fill:none;fill-rule:nonzero;stroke:#7be152;stroke-width:2.92px;"/><path d="M698.417,939.198l154.641,-89.25l154.642,-89.292c0.642,-0.375 1.437,-0.375 2.083,0c0.642,0.375 1.042,1.042 1.042,1.792l-0,89.292c-0,0.75 -0.4,1.416 -1.042,1.791l-115.979,66.959l-115.979,66.958c-0.646,0.375 -1.442,0.375 -2.083,0l-77.325,-44.625c-0.642,-0.375 -1.042,-1.042 -1.042,-1.792c-0,-0.75 0.4,-1.458 1.042,-1.833Zm2.096,89.292l0.437,0.25l75.842,43.791l153.604,-88.666l153.604,-88.709l0,-176.166l-75.242,-43.417l-192.279,111l-192.246,111l0,86.875l76.28,44.042Z" style="fill:none;fill-rule:nonzero;stroke:#7be152;stroke-width:2.92px;"/><path d="M1706.77,982.031l73.121,-42.208l-0,-84.458l-73.121,42.208l-0,84.458Z" style="fill:none;fill-rule:nonzero;stroke:#7be152;stroke-width:2.92px;"/><path d="M621.083,1433.91c-0.645,-0.375 -1.041,-1.083 -1.041,-1.791l-0,-357.125c-0,-0.75 0.396,-1.459 1.037,-1.834c0.646,-0.375 1.442,-0.375 2.083,0l77.326,44.667c0.645,0.375 1.041,1.042 1.041,1.792l0,267.833c0,0.75 -0.396,1.458 -1.041,1.833l-77.326,44.625c-0.641,0.375 -1.433,0.375 -2.079,0Zm153.592,-3l-0,-354.75l-76.283,-44.041l-76.28,-44l-75.237,43.416l0,444.042l75.258,43.417l76.296,-44.042l76.246,-44.042Z" style="fill:none;fill-rule:nonzero;stroke:#7be152;stroke-width:2.92px;"/><path d="M1629.45,855.406l-0,84.417l73.125,42.208l-0,-84.416l-73.125,-42.209Z" style="fill:none;fill-rule:nonzero;stroke:#7be152;stroke-width:2.92px;"/><path d="M1777.81,851.74l-73.154,-42.167l-73.091,42.208l73.12,42.209l73.125,-42.25Z" style="fill:none;fill-rule:nonzero;stroke:#7be152;stroke-width:2.92px;"/><path d="M1084,453.615l-73.125,42.208l-0,84.417l73.125,-42.209l0,-84.416Z" style="fill:none;fill-rule:nonzero;stroke:#7be152;stroke-width:2.92px;"/><path d="M1631.55,1655.32l73.096,42.208l73.142,-42.208l-73.104,-42.25l-73.134,42.25Z" style="fill:none;fill-rule:nonzero;stroke:#7be152;stroke-width:2.92px;"/><path d="M1702.57,1524.99l-73.125,42.25l0.004,84.458l73.121,-42.25l-0,-84.458Z" style="fill:none;fill-rule:nonzero;stroke:#7be152;stroke-width:2.92px;"/><path d="M624.204,1078.57l0,349.917l73.163,-42.25l-0,-265.417l-73.163,-42.25Z" style="fill:none;fill-rule:nonzero;stroke:#7be152;stroke-width:2.92px;"/><path d="M1088.17,1517.78l112.87,-65.166l114.921,-66.334l0,-263.041l-227.791,131.5l-0,263.041Z" style="fill:none;fill-rule:nonzero;stroke:#7be152;stroke-width:2.92px;"/><path d="M852.092,1119.24c0.016,-0.125 0.046,-0.209 0.075,-0.292c0.029,-0.083 0.062,-0.167 0.1,-0.25c0.02,-0.042 0.02,-0.083 0.045,-0.125c0.017,-0.042 0.059,-0.042 0.08,-0.083c0.05,-0.084 0.108,-0.167 0.17,-0.25c0.063,-0.042 0.126,-0.125 0.196,-0.167c0.075,-0.083 0.142,-0.125 0.221,-0.167c0.033,-0.041 0.054,-0.083 0.092,-0.083l115.967,-66.958l116.004,-67c0.641,-0.334 1.433,-0.334 2.079,-0l116,67l115.962,66.958c0.038,-0 0.059,0.042 0.088,0.083c0.079,0.042 0.154,0.084 0.225,0.167c0.075,0.042 0.137,0.125 0.204,0.208c0.058,0.042 0.112,0.125 0.163,0.209c0.02,0.041 0.062,0.041 0.083,0.083c0.021,0.042 0.021,0.083 0.042,0.125c0.041,0.083 0.07,0.167 0.104,0.25c0.029,0.083 0.054,0.167 0.071,0.292c0.02,0.083 0.033,0.166 0.037,0.25c0.004,0.041 0.025,0.083 0.025,0.125l-0,267.875c-0,0.708 -0.396,1.416 -1.042,1.791l-115.962,66.959l-116,66.958l0.004,-0c-0.042,0.042 -0.083,0.042 -0.121,0.042c-0.087,0.041 -0.171,0.083 -0.262,0.125c-0.088,0.041 -0.171,0.041 -0.263,0.041c-0.091,0.042 -0.179,0.042 -0.275,0.042c-0.042,-0 -0.079,0.042 -0.121,0.042c-0.05,-0 -0.087,-0.042 -0.133,-0.042c-0.088,-0 -0.171,-0 -0.258,-0.042c-0.096,0 -0.188,0 -0.28,-0.041c-0.091,-0.042 -0.174,-0.084 -0.258,-0.125c-0.037,-0 -0.079,-0 -0.112,-0.042l-116.009,-66.958l-115.962,-66.959c-0.642,-0.375 -1.038,-1.083 -1.038,-1.791l0,-267.875c0,-0.042 0.021,-0.084 0.025,-0.125c0,-0.084 0.013,-0.167 0.034,-0.25Zm80.387,400.375l153.6,88.666l307.242,-177.375l-0,-354.75l-307.242,-177.375l-153.6,88.667l-153.637,88.708l-0,354.75l153.637,88.709Z" style="fill:none;fill-rule:nonzero;stroke:#7be152;stroke-width:2.92px;"/><path d="M1313.88,1119.62l-112.838,-65.167l-114.954,-66.375l-114.962,66.375l-112.842,65.167l227.8,131.541l227.796,-131.541Z" style="fill:none;fill-rule:nonzero;stroke:#7be152;stroke-width:2.92px;"/><path d="M856.196,1123.24l-0,263.041l114.921,66.334l112.883,65.166l0,-263.041l-227.804,-131.5Z" style="fill:none;fill-rule:nonzero;stroke:#7be152;stroke-width:2.92px;"/><path d="M1010.88,1926.82l-0,84.417l73.125,42.25l0,-84.459l-73.125,-42.208Z" style="fill:none;fill-rule:nonzero;stroke:#7be152;stroke-width:2.92px;"/><path d="M855.142,853.531l151.516,-87.458l0,84.458l-114.937,66.375l-114.938,66.334l-73.158,-42.209l151.517,-87.5Zm-77.317,133.917l115.979,-66.958l115.979,-66.959c0.642,-0.375 1.042,-1.041 1.042,-1.791l-0,-89.292c-0,-0.75 -0.4,-1.417 -1.042,-1.792c-0.646,-0.375 -1.441,-0.375 -2.083,0l-154.642,89.292l-154.641,89.25c-0.642,0.375 -1.042,1.083 -1.042,1.833c-0,0.75 0.4,1.417 1.042,1.792l77.325,44.625c0.641,0.375 1.437,0.375 2.083,0Z" style="fill:none;fill-rule:nonzero;stroke:#7be152;stroke-width:2.92px;"/><path d="M624.204,1428.49l0,-349.917l73.163,42.25l-0,265.417l-73.163,42.25Zm76.284,-39.209c0.645,-0.375 1.041,-1.083 1.041,-1.833l0,-267.833c0,-0.75 -0.396,-1.417 -1.041,-1.792l-77.326,-44.667c-0.641,-0.375 -1.437,-0.375 -2.083,0c-0.641,0.375 -1.037,1.084 -1.037,1.834l-0,357.125c-0,0.708 0.396,1.416 1.041,1.791c0.646,0.375 1.438,0.375 2.079,0l77.326,-44.625Z" style="fill:none;fill-rule:nonzero;stroke:#7be152;stroke-width:2.92px;"/><path d="M1547.95,1428.49l-73.158,-42.25l-0,-265.417l73.158,-42.25l0,349.917Zm1.042,-355.334l-77.321,44.667c-0.646,0.375 -1.042,1.042 -1.042,1.792l0,267.833c0,0.75 0.396,1.458 1.042,1.833l77.321,44.625c0.641,0.375 1.437,0.375 2.083,0c0.642,-0.375 1.042,-1.083 1.042,-1.791l-0,-357.125c-0,-0.75 -0.4,-1.459 -1.042,-1.834c-0.646,-0.375 -1.442,-0.375 -2.083,0Z" style="fill:none;fill-rule:nonzero;stroke:#7be152;stroke-width:2.92px;"/><path d="M1006.66,1740.99l-151.512,-87.459l-151.521,-87.458l73.158,-42.25l114.938,66.333l114.937,66.375l0,84.459Zm3.125,-87.459l-115.979,-66.958l-115.979,-66.958c-0.646,-0.375 -1.442,-0.375 -2.083,-0l-77.325,44.625c-0.642,0.375 -1.042,1.083 -1.042,1.833c-0,0.708 0.4,1.417 1.042,1.792l154.646,89.291l154.637,89.25c0.642,0.375 1.437,0.375 2.083,0c0.642,-0.375 1.042,-1.041 1.042,-1.791l-0,-89.292c-0,-0.75 -0.4,-1.417 -1.042,-1.792Z" style="fill:none;fill-rule:nonzero;stroke:#7be152;stroke-width:2.92px;"/><path d="M1779.89,939.823l-73.121,42.208l-0,-84.458l73.121,-42.208l-0,84.458Zm-0,711.875l-73.121,-42.208l-0,-84.459l73.121,42.209l-0,84.458Zm-75.238,45.833l-73.096,-42.208l73.134,-42.25l73.104,42.25l-73.142,42.208Zm-155.683,0.584l-154.642,89.291l-154.679,89.292l-76.283,44.042l-76.242,-44c-0.646,-0.375 -1.438,-0.375 -2.079,-0l-76.25,44l-76.279,-44.042l-154.68,-89.292l-154.637,-89.291l-76.283,-44.042l-0,-88.042c-0,-0.541 -0.217,-1.083 -0.609,-1.458c-0.142,-0.125 -0.312,-0.208 -0.479,-0.333l0.008,-0l-0.191,-0.125l-0.021,-0l-76.029,-43.917l-0,-533.333l76.241,-44c0.067,-0.042 0.096,-0.125 0.159,-0.167c0.033,-0.042 0.07,-0.042 0.1,-0.083c0.066,-0.042 0.15,-0.084 0.208,-0.125c0.092,-0.084 0.138,-0.209 0.208,-0.334c0.038,-0.041 0.075,-0.083 0.109,-0.125c0.171,-0.333 0.296,-0.666 0.296,-1.041l-0,-88l76.279,-44.042l154.641,-89.333l154.68,-89.25l76.283,-44.042l76.246,44c0.641,0.375 1.437,0.375 2.079,-0l76.242,-44l76.283,44.042l154.679,89.25l154.642,89.333l76.316,44.083l0,88c0,0.042 0.013,0.042 0.013,0.084c0.008,0.291 0.1,0.583 0.229,0.833c0.054,0.125 0.125,0.208 0.192,0.292c0.12,0.166 0.266,0.291 0.437,0.458c0.067,0.042 0.096,0.125 0.171,0.167l76.246,44l-0,533.333l-76.25,44.042c-0.646,0.375 -1.038,1.041 -1.038,1.791l0,88.042l-76.316,44.042Zm-387.688,313.125l-73.112,42.25l-0,-84.459l73.112,-42.208l0,84.417Zm-150.404,-84.417l73.125,42.208l0,84.459l-73.125,-42.25l-0,-84.417Zm75.204,38.583l-73.121,-42.25l73.121,-42.208l73.117,42.208l-73.117,42.25Zm-618.571,-267.875l-73.145,-42.208l73.108,-42.25l73.137,42.25l-73.1,42.208Zm-75.241,-130.291l73.125,-42.209l-0.005,84.459l-73.12,42.208l-0,-84.458Zm-0,-711.875l73.12,42.208l0.005,84.458l-73.125,-42.208l-0,-84.458Zm75.241,-45.792l73.092,42.167l-73.125,42.25l-73.125,-42.209l73.158,-42.208Zm2.084,172.458l-0,-84.416l73.154,-42.209l-0,84.417l-73.154,42.208Zm73.154,669.667l-73.154,-42.25l-0,-84.417l73.154,42.25l-0,84.417Zm468.129,-1155.88l73.125,-42.208l0,84.416l-73.125,42.209l-0,-84.417Zm150.404,84.417l-73.112,-42.209l-0,-84.416l73.112,42.208l0,84.417Zm-75.2,-38.542l73.121,42.208l-73.121,42.209l-73.121,-42.209l73.121,-42.208Zm543.367,398.125l-0,-84.417l73.125,42.209l-0,84.416l-73.125,-42.208Zm-0,627.417l73.125,-42.25l-0,84.458l-73.121,42.25l-0.004,-84.458Zm75.208,-757.667l73.154,42.167l-73.125,42.25l-73.12,-42.209l73.091,-42.208Zm79.4,131.417l0,-89.25c0,-0.042 -0.029,-0.042 -0.033,-0.084c-0.017,-0.291 -0.092,-0.541 -0.209,-0.791c-0.02,-0.042 -0.02,-0.084 -0.045,-0.125c-0.03,-0.084 -0.075,-0.084 -0.109,-0.125c-0.15,-0.25 -0.333,-0.417 -0.554,-0.584c-0.037,0 -0.054,-0.041 -0.091,-0.083l-77.321,-44.583c-0.646,-0.375 -1.438,-0.375 -2.084,-0l-76.275,44.041l-76.283,-44.041l-154.642,-89.334l-154.683,-89.291l-76.279,-44.042l-0,-88.083c-0,-0.75 -0.396,-1.417 -1.042,-1.792l-77.283,-44.625c-0.029,-0 -0.063,-0 -0.092,-0.042c-0.1,-0.041 -0.2,-0.083 -0.308,-0.125c-0.083,0 -0.163,-0.041 -0.246,-0.041c-0.083,-0 -0.158,-0.042 -0.246,-0.042c-0.05,-0 -0.096,-0.042 -0.146,-0.042c-0.058,0 -0.104,0.042 -0.162,0.042c-0.075,-0 -0.15,0.042 -0.225,0.042c-0.092,-0 -0.175,0.041 -0.263,0.041c-0.108,0.042 -0.208,0.084 -0.304,0.125c-0.029,0.042 -0.062,0.042 -0.087,0.042l-77.288,44.625c-0.646,0.375 -1.042,1.042 -1.042,1.792l0,88.083l-76.283,44.042l-154.679,89.291l-154.642,89.334l-76.283,44.041l-76.275,-44.041c-0.642,-0.375 -1.438,-0.375 -2.083,-0l-77.321,44.583c-0.046,0.042 -0.067,0.083 -0.108,0.125c-0.067,0.042 -0.121,0.083 -0.18,0.125c-0.116,0.125 -0.208,0.208 -0.3,0.333l-0.008,0c-0.046,0.084 -0.117,0.125 -0.154,0.209c-0.021,0.041 -0.021,0.083 -0.042,0.083c0,0.042 -0.008,0.042 -0.012,0.042c-0.059,0.125 -0.088,0.25 -0.121,0.375c-0.034,0.125 -0.075,0.25 -0.083,0.375c-0.005,0.041 -0.034,0.083 -0.034,0.125l0,89.25c0,0.75 0.396,1.458 1.038,1.833l76.283,44.042l-0,533.333l-76.279,44.042c-0.646,0.375 -1.042,1.041 -1.042,1.791l0,89.25c0,0.084 0.029,0.084 0.034,0.167c0.008,0.083 0.02,0.167 0.037,0.25c0.017,0.083 0.042,0.167 0.075,0.292c0.021,0.041 0.042,0.125 0.071,0.166c0.025,0.084 0.037,0.125 0.062,0.167c0.004,-0 0.004,-0 0.013,0.042c0.021,-0 0.058,0.041 0.079,0.083c0.054,0.083 0.108,0.125 0.171,0.208c0.033,0.042 0.042,0.084 0.079,0.125c0.033,0.042 0.083,0.042 0.121,0.084c0.05,0.041 0.096,0.083 0.15,0.125c0.016,-0 0.021,0.041 0.033,0.041l0.013,0c0.021,0 0.041,0 0.062,0.042c0.021,-0 0.029,0.042 0.054,0.042l77.309,44.625c0.645,0.375 1.441,0.375 2.083,-0l76.275,-44.042l76.283,44.042l154.642,89.291l154.679,89.292l76.283,44.042l0,88.083c0,0.75 0.396,1.417 1.038,1.792l77.287,44.625c0.038,0.041 0.08,0.041 0.117,0.041c0.263,0.125 0.546,0.209 0.838,0.25l0.179,0c0.287,-0.041 0.571,-0.125 0.837,-0.25c0.034,0 0.08,0 0.117,-0.041l77.279,-44.625c0.646,-0.375 1.042,-1.042 1.042,-1.792l-0,-88.083l76.283,-44.042l154.679,-89.292l154.642,-89.291l76.283,-44.042l76.275,44.042c0.646,0.375 1.442,0.375 2.088,-0l77.304,-44.625c0.017,-0 0.025,-0.042 0.046,-0.042c0.021,-0 0.046,-0 0.071,-0.042l0.012,0c0.013,0 0.017,-0.041 0.029,-0.041c0.055,-0.042 0.096,-0.084 0.146,-0.125c0.084,-0.084 0.154,-0.125 0.225,-0.209c0.054,-0.083 0.1,-0.125 0.146,-0.208c0.025,-0.042 0.067,-0.042 0.087,-0.083c0.005,-0.042 0.005,-0.042 0.009,-0.042c0.025,-0.042 0.037,-0.083 0.058,-0.125c0.038,-0.083 0.058,-0.167 0.084,-0.25c0.029,-0.083 0.05,-0.167 0.066,-0.25c0.017,-0.083 0.033,-0.167 0.038,-0.25l0.004,-0.042c0.004,-0.041 0.033,-0.083 0.033,-0.125l0,-89.25c0,-0.75 -0.4,-1.416 -1.041,-1.791l-76.275,-44l-0,-533.375l76.275,-44.042c0.641,-0.375 1.041,-1.083 1.041,-1.833Z" style="fill:none;fill-rule:nonzero;stroke:#7be152;stroke-width:2.92px;"/><path d="M1165.5,766.073l151.517,87.458l151.521,87.5l-73.163,42.209l-114.938,-66.334l-114.937,-66.375l0,-84.458Zm-3.125,87.458l115.979,66.959l115.983,66.958c0.642,0.375 1.438,0.375 2.08,0l77.325,-44.625c0.645,-0.375 1.041,-1.042 1.041,-1.792c0,-0.75 -0.396,-1.458 -1.041,-1.833l-154.642,-89.25l-154.642,-89.292c-0.645,-0.375 -1.441,-0.375 -2.083,0c-0.646,0.375 -1.042,1.042 -1.042,1.792l0,89.292c0,0.75 0.396,1.416 1.042,1.791Z" style="fill:none;fill-rule:nonzero;stroke:#7be152;stroke-width:2.92px;"/><path d="M1317.02,1653.53l-151.517,87.459l0,-84.459l114.937,-66.375l114.938,-66.333l73.163,42.25l-151.521,87.458Zm77.32,-133.916l-115.983,66.958l-115.979,66.958c-0.646,0.375 -1.042,1.042 -1.042,1.792l0,89.292c0,0.75 0.396,1.416 1.042,1.791c0.646,0.375 1.438,0.375 2.083,0l154.642,-89.25l154.642,-89.291c0.645,-0.375 1.041,-1.084 1.041,-1.792c0,-0.75 -0.396,-1.458 -1.041,-1.833l-77.325,-44.625c-0.642,-0.375 -1.438,-0.375 -2.08,-0Z" style="fill:none;fill-rule:nonzero;stroke:#7be152;stroke-width:2.92px;"/><path d="M2089.21,1743.41l-75.233,43.459l-152.558,-88.084l-0.005,-176.166l73.155,-42.25l-0,174.958c-0,0.75 0.395,1.417 1.041,1.792l77.325,44.666c0.642,0.375 1.438,0.375 2.079,0c0.646,-0.375 1.042,-1.083 1.042,-1.791l0,-892.875c0,-0.75 -0.396,-1.417 -1.037,-1.792c-0.646,-0.375 -1.442,-0.375 -2.084,-0l-77.054,44.458l-0.191,0.125l-0.08,0.042c-0.008,0 -0.012,0.042 -0.025,0.042c-0.283,0.166 -0.508,0.416 -0.679,0.666c-0.025,0.042 -0.05,0.084 -0.071,0.125c-0.154,0.292 -0.266,0.584 -0.266,0.959l-0,174.958l-73.155,-42.25l0,-176.167l152.546,-88.041l75.25,43.416l0,979.75Zm-77.316,133.917l-848.492,489.875l-75.233,-43.417l-0,-176.166l76.275,-44.042l76.279,-44.042l73.154,42.209l-74.196,42.875l-77.321,44.625c-0.645,0.375 -1.041,1.041 -1.041,1.791l-0,89.292c-0,0.75 0.396,1.458 1.041,1.792c0.646,0.375 1.438,0.375 2.084,-0l386.608,-223.209l386.642,-223.208c0.645,-0.375 1.041,-1.042 1.041,-1.792c0,-0.75 -0.396,-1.458 -1.041,-1.791l-77.317,-44.667c-0.646,-0.375 -1.442,-0.375 -2.088,-0l-77.324,44.667l-74.196,42.833l-0,-84.5l76.279,-44.042l76.283,-44.041l152.563,88.083l-0,86.875Zm-1003.14,489.875l-848.487,-489.875l-0,-86.875l152.562,-88.083l76.279,44.041l76.279,44.042l0,84.5l-74.195,-42.833l-77.321,-44.667c-0.642,-0.375 -1.438,-0.375 -2.084,-0l-77.325,44.667c-0.641,0.375 -1.041,1.041 -1.037,1.791c-0,0.75 0.396,1.417 1.042,1.792l386.646,223.208l386.599,223.209c0.646,0.375 1.442,0.375 2.084,-0c0.646,-0.334 1.041,-1.042 1.041,-1.792l0,-89.292c0,-0.75 -0.395,-1.416 -1.037,-1.791l-77.321,-44.625l-74.2,-42.875l73.158,-42.209l152.563,88.084l0,176.166l-75.246,43.417Zm-925.808,-623.792l-0,-979.75l75.254,-43.416l152.546,88.083l-0,176.125l-73.159,42.25l0,-174.917c0,-0.041 0.005,-0.041 0.005,-0.041c-0,-0.375 -0.113,-0.667 -0.271,-0.959c-0.017,-0.041 -0.046,-0.083 -0.067,-0.125c-0.171,-0.25 -0.396,-0.5 -0.683,-0.666c-0.008,-0 -0.013,-0.042 -0.021,-0.042l-0.083,-0.042l-0.188,-0.125l-77.05,-44.458c-0.646,-0.375 -1.442,-0.375 -2.087,-0c-0.642,0.375 -1.038,1.042 -1.038,1.792l0,892.875c0,0.708 0.396,1.416 1.042,1.791c0.646,0.375 1.437,0.375 2.083,0l77.321,-44.666c0.642,-0.375 1.037,-1.042 1.037,-1.792l0,-174.958l73.159,42.25l-0,176.166l-152.563,88.084l-75.237,-43.459Zm77.321,-1113.67l848.491,-489.875l75.242,43.458l0,176.167l-152.563,88.083l-73.158,-42.25l74.2,-42.833l77.321,-44.625c0.642,-0.375 1.037,-1.084 1.037,-1.834l0,-89.291c0,-0.709 -0.395,-1.417 -1.037,-1.792c-0.646,-0.375 -1.442,-0.375 -2.088,0l-386.604,223.208l-386.641,223.209c-0.646,0.375 -1.042,1.083 -1.042,1.833c-0,0.75 0.396,1.417 1.042,1.792l77.32,44.625c0.646,0.375 1.442,0.375 2.084,-0l77.321,-44.625l74.195,-42.834l0,84.459l-76.279,44.041l-76.262,44.042l-152.579,-88.083l-0,-86.875Zm1625.87,489.833l73.195,-42.25l73.15,42.25l-73.154,42.25l-73.191,-42.25Zm-234.046,-405.333l0.037,-84.5l73.154,-42.25l0,84.5l-73.191,42.25Zm-232,-133.959l0.033,-84.458l73.158,-42.25l0,84.5l-73.191,42.208Zm-468.025,0l-73.192,-42.208l-0,-84.5l73.158,42.25l0.034,84.458Zm-232,134l-73.192,-42.291l0,-84.5l73.158,42.25l0.034,84.541Zm-307.238,363.042l73.188,42.25l-73.188,42.25l-73.158,-42.25l73.158,-42.25Zm73.192,310.167l-73.192,42.208l-73.158,-42.208l73.158,-42.25l73.192,42.25Zm234.046,405.333l-0.034,84.5l-73.158,42.25l0,-84.458l73.192,-42.292Zm232,133.958l-0.034,84.5l-73.158,42.209l-0,-84.459l73.192,-42.25Zm541.216,42.25l0,84.459l-73.158,-42.209l-0.033,-84.5l73.191,42.25Zm158.809,-176.208l73.191,42.292l0,84.458l-73.154,-42.25l-0.037,-84.5Zm307.237,-447.583l73.154,42.25l-73.154,42.208l-73.191,-42.208l73.191,-42.25Zm76.279,-313.125c0.646,0.333 1.438,0.333 2.084,-0c0.645,-0.375 1.041,-1.084 1.041,-1.834l0,-177.333l73.154,-42.208l0,885.625l-73.154,-42.25l0,-177.375c0,-0.709 -0.396,-1.417 -1.041,-1.792c-0.646,-0.375 -1.438,-0.375 -2.084,-0l-76.287,44.042l-75.275,-43.417l-0,-84.5l74.246,42.833c0.641,0.375 1.437,0.375 2.083,0l77.317,-44.625c0.645,-0.375 1.041,-1.083 1.041,-1.791c0,-0.75 -0.396,-1.459 -1.041,-1.834l-77.317,-44.625c-0.646,-0.375 -1.442,-0.375 -2.083,0l-77.363,44.625c-0.05,0.042 -0.071,0.084 -0.121,0.125c-0.208,0.167 -0.391,0.334 -0.533,0.542c-0.046,0.083 -0.092,0.125 -0.133,0.208c-0.15,0.292 -0.263,0.584 -0.263,0.959l0,89.291c0,0.709 0.396,1.417 1.042,1.792l76.329,44.042l-0,176.166l-76.287,44.042l-76.271,44.042l-76.309,-44.084c-0.645,-0.375 -1.441,-0.375 -2.083,0l-77.325,44.625l-0.008,0c-0.292,0.167 -0.509,0.417 -0.684,0.709c-0.05,0.083 -0.087,0.166 -0.129,0.25c-0.091,0.208 -0.15,0.416 -0.175,0.666c-0.004,0.042 -0.054,0.125 -0.054,0.209l0.037,89.291c0,0.75 0.396,1.459 1.042,1.834l77.317,44.625c0.646,0.375 1.437,0.375 2.083,-0c0.646,-0.375 1.042,-1.042 1.042,-1.792l-0,-89.292c-0,-0.75 -0.396,-1.458 -1.038,-1.791l-74.237,-42.875l73.167,-42.25l75.262,43.458l-0,88.083c-0,0.75 0.4,1.459 1.042,1.834c0.645,0.333 1.441,0.333 2.083,-0l77.321,-44.667l76.283,-44.042l73.154,42.25l-383.516,221.417l-383.484,221.417l0,-84.5l76.28,-44.042l77.32,-44.625c0.646,-0.375 1.042,-1.083 1.042,-1.833c-0,-0.709 -0.396,-1.417 -1.042,-1.792l-76.279,-44.042l-0.016,-86.916l73.137,-42.209l0.033,85.709c0,0.708 0.4,1.416 1.042,1.791l77.325,44.625c0.642,0.375 1.438,0.375 2.083,0c0.642,-0.375 1.042,-1.041 1.042,-1.791l0,-89.292c0,-0.75 -0.4,-1.417 -1.042,-1.792l-77.312,-44.666l-0.029,-0c-0.025,-0.042 -0.046,-0 -0.067,-0.042l-0.046,-0l-0.017,-0.042l-0.045,0c-0.092,-0.041 -0.184,-0.083 -0.279,-0.083c-0.046,-0.042 -0.092,-0.042 -0.138,-0.042c-0.058,0 -0.108,-0.041 -0.167,-0.041l-0.141,-0c-0.046,-0 -0.092,-0.042 -0.138,-0.042l-0.054,-0c-0.058,-0 -0.113,0.042 -0.171,0.042l-0.158,-0c-0.046,0.041 -0.088,-0 -0.129,0.041l-0.025,0c-0.042,0 -0.071,0.042 -0.113,0.042c-0.054,-0 -0.108,0.042 -0.158,0.042c-0.054,0.041 -0.096,0.083 -0.146,0.083c-0.029,-0 -0.067,-0 -0.096,0.042l-0.071,-0c-0.008,-0 -0.012,0.041 -0.025,0.041l-77.225,44.584c-0.641,0.375 -1.041,1.083 -1.041,1.833l0.016,88.083l-76.275,44.042l-76.279,44.042l-152.554,-88.084l0.017,-88.083c-0,-0.75 -0.4,-1.458 -1.042,-1.833l-77.308,-44.625l-0.017,-0c-0.017,-0.042 -0.021,-0.042 -0.042,-0.042c-0.033,-0.042 -0.071,-0 -0.104,-0.042c-0.029,0 -0.054,-0.041 -0.087,-0.041c-0.029,-0 -0.059,-0 -0.088,-0.042l-0.058,-0c-0.021,-0.042 -0.046,-0 -0.067,-0.042l-0.191,0c-0.084,-0.041 -0.159,-0.041 -0.242,-0.041l-0.088,-0c-0.02,-0.042 -0.037,-0.042 -0.058,-0.042l-0.15,-0c-0.025,-0 -0.05,0.042 -0.079,0.042c-0.063,-0 -0.125,-0 -0.188,0.041c-0.066,0 -0.133,0 -0.2,0.042c-0.087,-0 -0.175,0.042 -0.262,0.083c-0.042,0 -0.083,0.042 -0.121,0.042c-0.017,0.042 -0.038,0.042 -0.05,0.042l-0.004,-0l-77.346,44.666c-0.646,0.375 -1.042,1.042 -1.042,1.792l0,89.292c0,0.75 0.396,1.416 1.042,1.791c0.646,0.375 1.437,0.375 2.083,0l77.325,-44.625c0.642,-0.375 1.038,-1.083 1.038,-1.791l0.037,-85.709l73.142,42.209l-0.017,86.916l-76.283,44.042c-0.646,0.375 -1.042,1.083 -1.042,1.792c-0.004,0.75 0.396,1.458 1.038,1.833l77.325,44.625l76.279,44.042l-0,84.5l-383.479,-221.417l-383.521,-221.417l73.154,-42.25l76.279,44.042l77.325,44.667c0.642,0.333 1.434,0.333 2.079,-0c0.646,-0.375 1.042,-1.084 1.042,-1.834l0,-88.083l75.267,-43.458l73.171,42.25l-74.242,42.875c-0.646,0.375 -1.042,1.041 -1.042,1.791l0,89.292c0,0.75 0.4,1.417 1.042,1.792c0.646,0.375 1.442,0.375 2.083,-0l77.325,-44.625c0.642,-0.375 1.038,-1.084 1.038,-1.834l0.037,-89.291c0,-0.084 -0.046,-0.167 -0.054,-0.209c-0.025,-0.25 -0.079,-0.458 -0.171,-0.666c-0.041,-0.084 -0.079,-0.167 -0.133,-0.25c-0.175,-0.292 -0.388,-0.5 -0.671,-0.667c-0.004,-0 -0.008,-0.042 -0.012,-0.042l-0.009,0l-77.32,-44.625c-0.646,-0.375 -1.442,-0.375 -2.084,0l-76.317,44.084l-76.27,-44.042l-76.28,-44.042l0,-176.166l76.326,-44.042c0.645,-0.375 1.041,-1.083 1.041,-1.792l0,-89.291c0,-0.375 -0.112,-0.709 -0.271,-1c-0.029,-0.042 -0.075,-0.084 -0.112,-0.167c-0.146,-0.208 -0.338,-0.375 -0.558,-0.542c-0.046,-0.041 -0.063,-0.083 -0.113,-0.125l-77.354,-44.625c-0.646,-0.375 -1.438,-0.375 -2.084,0l-77.32,44.625c-0.646,0.375 -1.042,1.084 -1.042,1.834c-0.004,0.708 0.396,1.416 1.037,1.791l77.325,44.625c0.646,0.375 1.442,0.375 2.084,0l74.246,-42.833l-0,84.5l-75.284,43.417l-76.283,-44.042c-0.646,-0.375 -1.442,-0.375 -2.088,-0c-0.641,0.375 -1.037,1.083 -1.037,1.792l-0,177.375l-73.158,42.25l-0,-885.625l73.154,42.208l0.004,177.333c-0,0.75 0.396,1.459 1.042,1.834c0.645,0.333 1.437,0.333 2.079,-0l76.275,-44.042l75.296,43.458l-0,84.459l-74.246,-42.875c-0.646,-0.334 -1.438,-0.334 -2.084,-0l-77.32,44.666c-0.646,0.375 -1.042,1.042 -1.042,1.792c-0.004,0.75 0.396,1.417 1.037,1.792l77.325,44.666c0.646,0.375 1.442,0.375 2.084,0l77.116,-44.5l0.1,-0.083l0.138,-0.083c0.021,-0 0.029,-0 0.046,-0.042c0.279,-0.167 0.504,-0.375 0.671,-0.667c0.021,0 0.041,-0.041 0.058,-0.083c0.163,-0.292 0.283,-0.625 0.283,-0.958l-0.004,-89.292c0,-0.75 -0.396,-1.458 -1.041,-1.833l-76.326,-44.042l0,-176.125l76.28,-44.042l76.283,-44.041l76.304,44.041c0.642,0.375 1.438,0.375 2.084,0l77.312,-44.625l0.071,0c0.037,-0.041 0.054,-0.083 0.087,-0.125c0.075,-0.041 0.134,-0.125 0.2,-0.166c0.079,-0.084 0.167,-0.125 0.23,-0.209c0.033,-0.041 0.054,-0.083 0.083,-0.125c0.004,-0.041 0.008,-0.041 0.012,-0.041c0.025,-0.042 0.059,-0.042 0.079,-0.084c0.03,-0.041 0.034,-0.125 0.055,-0.166c0.008,-0 0.021,-0.042 0.029,-0.042c0.041,-0.083 0.083,-0.167 0.108,-0.25c0.017,-0.083 0.017,-0.125 0.029,-0.208c0.013,-0.084 0.034,-0.125 0.038,-0.209c0.004,-0.083 0.037,-0.125 0.037,-0.166l-0.037,-89.334c-0,-0.75 -0.396,-1.416 -1.042,-1.791l-77.321,-44.625c-0.645,-0.375 -1.437,-0.375 -2.083,-0c-0.642,0.375 -1.042,1.041 -1.042,1.791l0,89.292c0,0.75 0.4,1.417 1.042,1.792l74.221,42.875l-73.15,42.208l-75.267,-43.458l0,-88.084c0,-0.75 -0.396,-1.416 -1.037,-1.791c-0.646,-0.375 -1.442,-0.375 -2.088,-0l-77.321,44.625l-76.279,44.083l-73.154,-42.25l383.517,-221.417l383.483,-221.416l-0,84.458l-76.279,44.042l-77.321,44.666c-0.646,0.375 -1.042,1.042 -1.042,1.792c0,0.75 0.396,1.417 1.042,1.792l76.283,44.083l0.017,86.875l-73.142,42.208l-0.037,-85.666c-0,-0.75 -0.396,-1.417 -1.038,-1.792l-77.325,-44.667c-0.646,-0.375 -1.441,-0.375 -2.083,0c-0.646,0.375 -1.042,1.084 -1.042,1.834l0,89.25c0,0.75 0.396,1.458 1.042,1.833l77.117,44.5l0.075,0.042l0.166,0.083c0.021,0.042 0.05,-0 0.071,0.042c0.275,0.125 0.575,0.208 0.879,0.208c0.05,-0 0.096,0.042 0.146,0.042c0.334,-0.042 0.663,-0.084 0.975,-0.25l77.321,-44.667c0.642,-0.375 1.042,-1.042 1.042,-1.792l-0.017,-88.083l152.554,-88.125l76.279,44.042l76.275,44.041l-0.016,88.125c-0,0.75 0.4,1.417 1.041,1.792l77.325,44.667c0.304,0.166 0.634,0.208 0.963,0.208c0.054,0.042 0.104,-0 0.158,-0c0.3,-0 0.6,-0.083 0.875,-0.208c0.021,-0.042 0.046,-0 0.067,-0.042l0.171,-0.083l0.075,-0.042l77.116,-44.5c0.642,-0.375 1.042,-1.083 1.042,-1.833l0,-89.25c0,-0.75 -0.4,-1.459 -1.042,-1.834c-0.645,-0.375 -1.441,-0.375 -2.083,0l-77.325,44.667c-0.646,0.375 -1.042,1.042 -1.042,1.792l-0.033,85.666l-73.137,-42.208l0.012,-86.875l76.283,-44.083c0.646,-0.375 1.042,-1.042 1.042,-1.792c-0,-0.75 -0.396,-1.417 -1.042,-1.792l-77.316,-44.666l-76.284,-44.042l0,-84.458l383.484,221.416l383.516,221.417l-73.154,42.25l-76.283,-44.083l-77.321,-44.625c-0.642,-0.375 -1.438,-0.375 -2.083,-0c-0.642,0.375 -1.042,1.041 -1.042,1.791l-0,88.084l-75.262,43.458l-73.15,-42.208l74.22,-42.875c0.642,-0.375 1.038,-1.042 1.038,-1.792l-0,-89.292c-0,-0.75 -0.396,-1.416 -1.038,-1.791c-0.646,-0.375 -1.441,-0.375 -2.087,-0l-77.317,44.625c-0.646,0.375 -1.042,1.041 -1.042,1.791l-0.037,89.334c-0,0.041 0.033,0.083 0.037,0.125c0.005,0.083 0.017,0.166 0.034,0.25c0.021,0.083 0.037,0.166 0.062,0.25c0.029,0.125 0.071,0.208 0.113,0.291c0.004,0 0.008,0 0.012,0.042c0.017,0 0.017,0.042 0.034,0.083c0.02,0.042 0.046,0.042 0.07,0.084c0.013,-0 0.017,0.041 0.03,0.041c0.041,0.042 0.095,0.125 0.15,0.167c0.029,0.042 0.041,0.083 0.075,0.125l0.004,0c0.037,0.042 0.083,0.042 0.121,0.083c0.07,0.084 0.141,0.125 0.221,0.167c0.033,0.042 0.054,0.083 0.091,0.083l0.008,0c0.017,0 0.021,0.042 0.038,0.042l0.042,-0l77.233,44.583c0.642,0.375 1.438,0.375 2.083,0l76.296,-44.041l76.288,44.041l76.283,44.042l-0,176.125l-76.329,44.042c-0.646,0.375 -1.042,1.083 -1.042,1.833l0,89.292c0,0.333 0.117,0.666 0.275,0.958c0.021,0.042 0.05,0.083 0.075,0.125c0.163,0.25 0.383,0.458 0.646,0.625c0.025,-0 0.033,0.042 0.054,0.042l0.234,0.166l77.129,44.5c0.641,0.375 1.437,0.375 2.083,0l77.317,-44.666c0.645,-0.375 1.041,-1.042 1.041,-1.792c0,-0.75 -0.396,-1.417 -1.041,-1.792l-77.317,-44.666c-0.646,-0.334 -1.442,-0.334 -2.083,-0l-74.246,42.875l-0,-84.459l75.287,-43.458l76.275,44.042Zm-772.208,-892.25l848.492,489.875l-0,86.875l-152.58,88.083l-76.262,-44.042l-76.283,-44.041l-0,-84.459l74.196,42.834l77.329,44.625c0.641,0.375 1.437,0.375 2.083,-0l77.317,-44.625c0.645,-0.375 1.041,-1.042 1.041,-1.792c0,-0.75 -0.396,-1.458 -1.041,-1.833l-386.642,-223.209l-386.608,-223.208c-0.646,-0.375 -1.442,-0.375 -2.084,0c-0.645,0.375 -1.041,1.083 -1.041,1.792l-0,89.291c-0,0.75 0.396,1.459 1.041,1.834l77.321,44.625l74.196,42.833l-73.154,42.25l-76.279,-44.042l-76.275,-44.041l-0,-176.167l75.233,-43.458Zm929.975,1604.75l0,-982.125c0,-0.75 -0.396,-1.459 -1.042,-1.834l-76.279,-44.041l0,-88.084c0,-0.75 -0.396,-1.416 -1.042,-1.791l-850.57,-491.084c-0.646,-0.375 -1.442,-0.375 -2.084,0l-76.279,44.042l-76.279,-44.042c-0.646,-0.375 -1.442,-0.375 -2.083,0l-850.571,491.084c-0.646,0.375 -1.042,1.041 -1.042,1.791l0,88.084l-76.283,44.041c-0.646,0.375 -1.042,1.084 -1.042,1.834l0,982.125c0,0.75 0.396,1.416 1.042,1.791l76.279,44.042l0.004,88.083c0,0.75 0.396,1.459 1.042,1.834l850.571,491.041c0.641,0.375 1.437,0.375 2.083,0l76.283,-44.041l76.275,44.041c0.642,0.375 1.438,0.375 2.084,0l850.57,-491.041c0.646,-0.375 1.042,-1.084 1.042,-1.834l0,-88.083l76.279,-44.042c0.646,-0.375 1.042,-1.041 1.042,-1.791Z" style="fill:none;fill-rule:nonzero;stroke:#7be152;stroke-width:2.92px;"/><path d="M1625.28,1475.57l-75.254,43.417l-76.296,-44.042l-76.246,-44.042l0,-354.708l0.421,-0.25l75.859,-43.833l76.283,-44.042l75.233,43.458l0,444.042Zm-77.354,133.917l-192.246,111l-192.279,111l-75.233,-43.417l-0.005,-88.083l0,-88.084l307.221,-177.375l76.259,44.042l76.283,44.042l-0,86.875Zm-539.167,222l-192.279,-111l-192.246,-111l0,-86.875l76.28,-44.042l76.262,-44.042l153.621,88.667l153.604,88.708l0,176.167l-75.242,43.417Zm-461.883,-799.959l75.237,-43.416l76.28,44l76.283,44.041l-0,354.75l-76.246,44.042l-76.296,44.042l-75.258,-43.417l0,-444.042Zm77.358,-133.958l192.246,-111l192.279,-111l75.242,43.417l0,176.166l-153.604,88.709l-153.604,88.666l-75.842,-43.791l-0.437,-0.25l-76.28,-44.042l0,-86.875Zm539.167,-222l192.283,111l192.242,111l-0,86.875l-76.275,44.042l-0.008,-0l-0.8,0.458l-75.475,43.583l-307.205,-177.375l0,-176.166l75.238,-43.417Zm-77.321,932.708l-153.6,-88.666l-153.637,-88.709l-0,-354.75l153.637,-88.708l153.6,-88.667l307.242,177.375l-0,354.75l-307.242,177.375Zm543.367,-131.541l-0,-446.417c-0,-0.75 -0.396,-1.417 -1.038,-1.792l-76.316,-44.083l-0,-88.083c-0,-0.75 -0.396,-1.417 -1.042,-1.792l-193.283,-111.625l-193.325,-111.583c-0.646,-0.375 -1.442,-0.375 -2.084,-0l-76.279,44.041l-76.283,-44.041c-0.642,-0.375 -1.438,-0.375 -2.079,-0l-193.321,111.583l-193.288,111.625c-0.646,0.375 -1.037,1.042 -1.037,1.792l-0,88.083l-76.321,44.083c-0.642,0.375 -1.042,1.042 -1.042,1.792l0,446.417c0,0.75 0.4,1.458 1.042,1.833l76.321,44.042l-0,88.083c-0,0.75 0.396,1.417 1.037,1.792l193.288,111.625l193.321,111.583c0.641,0.375 1.437,0.375 2.083,-0l76.279,-44.042l76.279,44.042c0.642,0.375 1.438,0.375 2.084,-0l193.321,-111.583l193.287,-111.625c0.646,-0.375 1.042,-1.042 1.042,-1.792l-0,-88.083l76.316,-44.042c0.642,-0.375 1.038,-1.083 1.038,-1.833Z" style="fill:none;fill-rule:nonzero;stroke:#7be152;stroke-width:2.92px;"/><path d="M1315.96,1386.28l-114.921,66.334l-112.87,65.166l-0,-263.041l227.791,-131.5l0,263.041Zm-459.762,0l-0,-263.041l227.804,131.5l0,263.041l-112.883,-65.166l-114.921,-66.334Zm114.925,-331.833l114.962,-66.375l114.954,66.375l112.838,65.167l-227.796,131.541l-227.8,-131.541l112.842,-65.167Zm348.942,64.792c-0.017,-0.125 -0.042,-0.209 -0.071,-0.292c-0.034,-0.083 -0.063,-0.167 -0.104,-0.25c-0.021,-0.042 -0.021,-0.083 -0.042,-0.125c-0.021,-0.042 -0.063,-0.042 -0.083,-0.083c-0.051,-0.084 -0.105,-0.167 -0.163,-0.209c-0.067,-0.083 -0.129,-0.166 -0.204,-0.208c-0.071,-0.083 -0.146,-0.125 -0.225,-0.167c-0.029,-0.041 -0.05,-0.083 -0.088,-0.083l-115.962,-66.958l-116,-67c-0.646,-0.334 -1.438,-0.334 -2.079,-0l-116.004,67l-115.967,66.958c-0.038,-0 -0.059,0.042 -0.092,0.083c-0.079,0.042 -0.146,0.084 -0.221,0.167c-0.07,0.042 -0.133,0.125 -0.196,0.167c-0.062,0.083 -0.12,0.166 -0.17,0.25c-0.021,0.041 -0.063,0.041 -0.08,0.083c-0.025,0.042 -0.025,0.083 -0.045,0.125c-0.038,0.083 -0.071,0.167 -0.1,0.25c-0.029,0.083 -0.059,0.167 -0.075,0.292c-0.021,0.083 -0.034,0.166 -0.034,0.25c-0.004,0.041 -0.025,0.083 -0.025,0.125l0,267.875c0,0.708 0.396,1.416 1.038,1.791l115.962,66.959l116.009,66.958c0.033,0.042 0.075,0.042 0.112,0.042c0.084,0.041 0.167,0.083 0.258,0.125c0.092,0.041 0.184,0.041 0.28,0.041c0.087,0.042 0.17,0.042 0.258,0.042c0.046,-0 0.083,0.042 0.133,0.042c0.042,-0 0.079,-0.042 0.121,-0.042c0.096,-0 0.184,-0 0.275,-0.042c0.092,0 0.175,0 0.263,-0.041c0.091,-0.042 0.175,-0.084 0.262,-0.125c0.038,-0 0.079,-0 0.121,-0.042l-0.004,-0l116,-66.958l115.962,-66.959c0.646,-0.375 1.042,-1.083 1.042,-1.791l-0,-267.875c-0,-0.042 -0.021,-0.084 -0.025,-0.125c-0.004,-0.084 -0.017,-0.167 -0.037,-0.25Z" style="fill:none;fill-rule:nonzero;stroke:#7be152;stroke-width:2.92px;"/><path d="M2166.53,1877.32l-73.158,42.25l0,-84.458l73.158,-42.25l0,84.458Zm-540.212,311.917l-462.921,267.25l-76.275,-44.042c-0.646,-0.375 -1.442,-0.375 -2.088,-0l-76.283,44.042l-462.883,-267.25l-462.925,-267.25l-0,-88.084c-0,-0.75 -0.4,-1.458 -1.042,-1.791l-76.279,-44.042l0,-1069.04l76.279,-44.041c0.642,-0.375 1.042,-1.042 1.042,-1.792l-0,-88.083l462.925,-267.25l462.887,-267.292l76.284,44.042c0.641,0.375 1.437,0.375 2.083,-0l76.275,-44.042l462.925,267.292l462.883,267.25l0,88.083c0,0.75 0.4,1.417 1.042,1.792l76.283,44.041l0,1069.04l-76.283,44.042c-0.646,0.375 -1.042,1.041 -1.042,1.791l0,88.084l-462.887,267.25Zm-540.242,311.916l-73.154,-42.25l73.158,-42.25l73.15,42.25l-73.154,42.25Zm-1080.45,-708.291l73.154,42.25l0,84.458l-73.154,-42.25l-0,-84.458Zm73.154,-1205.38l0,84.5l-73.154,42.25l-0,-84.5l73.154,-42.25Zm1007.3,-581.542l73.155,42.25l-73.159,42.25l-73.158,-42.25l73.162,-42.25Zm1080.45,708.292l-73.158,-42.25l0,-84.5l73.158,42.25l0,84.5Zm4.167,-85.709c-0,-0.75 -0.4,-1.416 -1.042,-1.791l-77.325,-44.625l-0.004,-0l-463.921,-267.875l-463.966,-267.875l-0.009,-0l-77.308,-44.625c-0.646,-0.375 -1.442,-0.375 -2.088,-0l-77.325,44.625c0,0.041 -0.004,0.041 -0.004,0.041l-463.92,267.834l-463.967,267.875l-77.321,44.625c-0.646,0.375 -1.042,1.041 -1.042,1.791l0,1250c0,0.75 0.4,1.459 1.042,1.834l77.317,44.625l0.004,-0l463.967,267.875l463.92,267.833l0.009,-0l77.325,44.667c0.641,0.333 1.437,0.333 2.083,-0l77.308,-44.667l0.009,-0l463.962,-267.833l463.921,-267.875l0.008,-0l77.325,-44.625c0.642,-0.375 1.042,-1.084 1.042,-1.834l-0,-1250Z" style="fill:none;fill-rule:nonzero;stroke:#7be152;stroke-width:2.92px;"/></svg>