<?xml version="1.0" encoding="UTF-8" standalone="no"?><!DOCTYPE svg PUBLIC "-//W3C//DTD SVG 1.1//EN" "http://www.w3.org/Graphics/SVG/1.1/DTD/svg11.dtd"><svg width="100%" height="100%" viewBox="0 0 2412 2508" version="1.1" xmlns="http://www.w3.org/2000/svg" xmlns:xlink="http://www.w3.org/1999/xlink" xml:space="preserve" xmlns:serif="http://www.serif.com/" style="fill-rule:evenodd;clip-rule:evenodd;stroke-linejoin:round;stroke-miterlimit:2;"><path d="M727.804,1669.57l0,134.083l59.088,-34.083c0.041,-0.042 0.125,-0.042 0.167,-0.042l56.541,-32.666c0.125,-0.042 0.25,-0.084 0.333,-0.125l0,-134.167l-116.129,67Z" style="fill:none;fill-rule:nonzero;stroke:#7be152;stroke-width:2.92px;"/><path d="M366.563,1603.7l-0,134.375l116.421,67.208l0.049,-134.416l-116.47,-67.167Z" style="fill:none;fill-rule:nonzero;stroke:#7be152;stroke-width:2.92px;"/><path d="M2049.22,906.698c0.042,0.042 0.042,0.042 0.042,0.083c-0,0.042 0.041,0.084 0.041,0.125c0,0.084 -0.041,0.167 -0.041,0.209l-0,135.291l116.208,-67.166c0,-0.125 -0.083,-0.209 -0.083,-0.375l-0,-138.917l0.041,-134.042l-116.208,67.084l-0,137.708Z" style="fill:none;fill-rule:nonzero;stroke:#7be152;stroke-width:2.92px;"/><path d="M1685.27,1945.07l-0,-134.167l-0.333,-0.166l-0.042,-0.042c-0.042,-0 -0.042,-0.042 -0.042,-0.042c-0.583,-0.375 -0.958,-1.041 -0.958,-1.75l-0,-0.416l-7.959,-4.584l-53.25,-30.708l-54.958,-31.708l0,134.083l0.375,0.208c0.625,0.375 1.042,1.042 1.042,1.792l-0,0.417l116.125,67.083Z" style="fill:none;fill-rule:nonzero;stroke:#7be152;stroke-width:2.92px;"/><path d="M2045.06,1596.41l0,-133.625c0,-0.166 0.084,-0.291 0.125,-0.458l-116.208,-67.042l0,134.125l116.083,67Z" style="fill:none;fill-rule:nonzero;stroke:#7be152;stroke-width:2.92px;"/><path d="M1927.39,696.198c0.041,0.042 0.083,0.042 0.125,0.083l0.083,0c0.042,0.042 0.084,0.125 0.125,0.125c0,0.042 0.042,0.042 0.042,0.042c-0,-0 0.041,-0 0.041,0.042l1.209,0.666l0.041,0l118.084,68.209l116.208,-67.042l-116.083,-67l-120.292,-69.458c-0.125,-0.084 -0.167,-0.209 -0.291,-0.292l-116.25,67.083l116.958,67.542Z" style="fill:none;fill-rule:nonzero;stroke:#7be152;stroke-width:2.92px;"/><path d="M1689.48,1813.37l0,71.541c0,0.042 -0.042,0.084 -0.042,0.125l0,0.959l0.042,61.041c0,0.167 -0.042,0.292 -0.083,0.417l116.166,67.042l0.084,-134.042l-0.375,-0.208l-115.792,-66.875Z" style="fill:none;fill-rule:nonzero;stroke:#7be152;stroke-width:2.92px;"/><path d="M1444.6,1256.16l-0.375,-0.208l-25.542,14.75l-1.874,1.083l-87.584,50.584l116.375,67.208c0.375,-0 0.75,0.083 1.083,0.292l0.334,0.208l116.208,-67.042l-60.917,-35.166l-55.291,-31.917l-0.334,0.208c-0.666,0.375 -1.458,0.375 -2.083,0Z" style="fill:none;fill-rule:nonzero;stroke:#7be152;stroke-width:2.92px;"/><path d="M1925.93,557.281l-0.041,-136.166l-0,-135.292l-116.167,67.042l0,137.708l0.083,133.667l115.792,-66.834c0.083,-0.041 0.208,-0.083 0.333,-0.125Z" style="fill:none;fill-rule:nonzero;stroke:#7be152;stroke-width:2.92px;"/><path d="M1443.52,1393.16l-116.375,-67.208l-0,132.875l0.333,0.167c0.625,0.375 1.042,1.083 1.042,1.833l-0,0.375l116.208,67.125l-0.083,-134.167l-0.375,-0.25c-0.292,-0.166 -0.542,-0.416 -0.75,-0.75Z" style="fill:none;fill-rule:nonzero;stroke:#7be152;stroke-width:2.92px;"/><path d="M366.583,1462.78l-0.004,133.625l116.121,-67l-0.004,-134.125l-6.192,3.584l-110.033,63.5c0.033,0.125 0.112,0.25 0.112,0.416Z" style="fill:none;fill-rule:nonzero;stroke:#7be152;stroke-width:2.92px;"/><path d="M438.175,947.198l46.609,26.875l116.191,-67l-116.191,-67.125l-116.176,67.083l67.784,39.125l1.783,1.042Z" style="fill:none;fill-rule:nonzero;stroke:#7be152;stroke-width:2.92px;"/><path d="M1979.89,1087.24l-1.208,0.708l-46.209,26.667l61.75,35.666c0,0 0,0.042 0.042,0.042l54,31.125c0.083,0.083 0.167,0.167 0.25,0.25l116.208,-67.083l-116.083,-67.042l-0.375,0.208l-68.375,39.459Z" style="fill:none;fill-rule:nonzero;stroke:#7be152;stroke-width:2.92px;"/><path d="M1406.52,1000.82l-78,45.042l-0,0.416c-0,0.375 -0.125,0.75 -0.292,1.042c-0.041,0.125 -0.208,0.167 -0.292,0.292c-0.125,0.166 -0.249,0.333 -0.458,0.458l-0.042,0.042l-0.291,0.166l-0,132.792l116.5,-67.25c0.167,-0.25 0.375,-0.5 0.625,-0.667l0.375,-0.208l0.083,-134.208l-38.208,22.083Z" style="fill:none;fill-rule:nonzero;stroke:#7be152;stroke-width:2.92px;"/><path d="M1445.64,1117.49l-116.458,67.208l75.541,43.625l39.5,22.792l0.333,-0.167c0.667,-0.417 1.5,-0.417 2.167,-0l0.292,0.208l116.166,-67.083l-116.166,-67.042l-0.375,0.209c-0.292,0.166 -0.667,0.25 -1,0.25Z" style="fill:none;fill-rule:nonzero;stroke:#7be152;stroke-width:2.92px;"/><path d="M482.7,977.698l-48.387,-27.917l-1.705,-1l-66.029,-38.083l0.004,133.625c0,0.083 -0.062,0.167 -0.075,0.292c-0.004,0.041 0,0.083 -0.008,0.125l42.863,24.75l73.333,42.333l0.004,-134.125Z" style="fill:none;fill-rule:nonzero;stroke:#7be152;stroke-width:2.92px;"/><path d="M121.792,770.073l-116.138,67.083l-0.029,134.125l116.171,-67.083l-0.004,-134.125Z" style="fill:none;fill-rule:nonzero;stroke:#7be152;stroke-width:2.92px;"/><path d="M723.642,1531.95l-116.467,-67.25l0,134.5l116.467,67.25l-0,-134.5Z" style="fill:none;fill-rule:nonzero;stroke:#7be152;stroke-width:2.92px;"/><path d="M1809.81,1882.87l-0.083,133.666l0,137.709l116.167,67.041l-0,-135.291l0.041,-136.167c-0.125,-0.042 -0.25,-0.083 -0.333,-0.125l-115.792,-66.833Z" style="fill:none;fill-rule:nonzero;stroke:#7be152;stroke-width:2.92px;"/><path d="M1207.93,977.865l-0,134.416l9.958,-5.75l2.166,-1.25l102.917,-59.416l0,-0.375c0,-0.75 0.375,-1.459 1.042,-1.834l0.333,-0.166l0,-16.834l0.042,-117.333l-116.167,67.083l0,0.417c0,0.375 -0.125,0.708 -0.291,1.042Z" style="fill:none;fill-rule:nonzero;stroke:#7be152;stroke-width:2.92px;"/><path d="M2052.81,1045.16l115.75,66.875l119.25,68.834l116.167,-67.084l-117.208,-67.583l-117.958,-68.125c-0.084,0.083 -0.126,0.167 -0.251,0.208l-115.75,66.875Z" style="fill:none;fill-rule:nonzero;stroke:#7be152;stroke-width:2.92px;"/><path d="M844.683,1459.28l115.792,-66.791l-114.792,-66.25l-119.166,68.833l-115.817,66.875l114.692,66.208l119.291,-68.875Z" style="fill:none;fill-rule:nonzero;stroke:#7be152;stroke-width:2.92px;"/><path d="M722.183,693.74l0,-133.75c0,-0.125 0.084,-0.209 0.084,-0.334l-116.204,-67.083l0.004,134.083l0.358,0.209l115.758,66.875Z" style="fill:none;fill-rule:nonzero;stroke:#7be152;stroke-width:2.92px;"/><path d="M1203.77,1529.24l-0,-134.417l-78.459,45.25l-1.416,0.833l-35.167,20.292l-0,0.417c-0,0.041 -0.041,0.125 -0.041,0.208l-0,0.042c-0.042,0.125 -0.042,0.25 -0.084,0.416c-0.041,0.042 -0.041,0.125 -0.083,0.209c-0.042,0.041 -0.042,0.083 -0.084,0.125c0,0.041 -0.041,0.083 -0.041,0.125c-0.084,0.083 -0.125,0.125 -0.167,0.208c-0.125,0.083 -0.208,0.167 -0.292,0.25c-0.041,0.042 -0.083,0.125 -0.125,0.125l0,0.042l-0.083,-0l-0,0.041l-0.042,0l-0.333,0.209l-0.042,83.875l0,50.291l116.167,-67.083l0,-0.417c0,-0.375 0.125,-0.708 0.292,-1.041Z" style="fill:none;fill-rule:nonzero;stroke:#7be152;stroke-width:2.92px;"/><path d="M726.392,622.198l-0,73.958l0.37,0.209c0.042,0.041 0.042,0.083 0.088,0.083c0.042,0.042 0.083,0.042 0.125,0.083c0.042,0.042 0.042,0.084 0.084,0.084c0.083,0.083 0.125,0.125 0.203,0.208c0.042,0.083 0.13,0.167 0.171,0.208c0.042,0.084 0.084,0.125 0.125,0.167c0,0.042 0.042,0.083 0.042,0.167c0.042,0.041 0.042,0.083 0.042,0.166c0.083,0.125 0.083,0.25 0.083,0.375c0.037,0.084 0.079,0.167 0.079,0.292l0,0.417l60.375,34.833l0.042,0.042l55.712,32.125l0,-134.084l-0.333,-0.208c-0.667,-0.375 -1.042,-1.042 -1.042,-1.792l0,-0.458l-116.208,-67.042l-0,60.084c-0,0.041 0.042,0.041 0.042,0.083Z" style="fill:none;fill-rule:nonzero;stroke:#7be152;stroke-width:2.92px;"/><path d="M847.142,626.99l0.041,-0c0.042,0.041 0.084,0.083 0.125,0.125c0.084,0.083 0.209,0.166 0.292,0.291c0.042,0.042 0.125,0.125 0.167,0.167c-0,0.042 0.041,0.083 0.083,0.125c0,0.042 0.042,0.125 0.042,0.167c0.042,0.041 0.042,0.125 0.083,0.208c0.042,0.125 0.084,0.292 0.084,0.417l-0,0.041c-0,0.084 0.041,0.125 0.041,0.209l-0,0.416l41.708,24.042l74.459,42.958l-0,-134.083l-0.375,-0.208c-0.625,-0.375 -1.042,-1.042 -1.042,-1.792l0,-0.417l-11.417,-6.625l-1.708,-0.958l-50.542,-29.167l-52.5,-30.333l0.042,134.125l0.333,0.208c0.042,0 0.042,0.042 0.084,0.084Z" style="fill:none;fill-rule:nonzero;stroke:#7be152;stroke-width:2.92px;"/><path d="M901.142,519.198c0.042,0.042 0.083,0.042 0.125,0.083l0.541,0.292l31.792,18.375l0.958,0.542l28.292,16.291l0,-94.916l-0.042,-38.792l0,-0.417l-116.125,-67l0,134.167c0.125,0.042 0.251,0.083 0.334,0.125l54.125,31.25Z" style="fill:none;fill-rule:nonzero;stroke:#7be152;stroke-width:2.92px;"/><path d="M962.892,281.781l-117.958,-68.083l-117.172,-67.625l0,134.083l119.255,68.875l115.791,66.834l0,-133.709c0,-0.125 0.042,-0.25 0.084,-0.375Z" style="fill:none;fill-rule:nonzero;stroke:#7be152;stroke-width:2.92px;"/><path d="M482.633,697.156l0.025,0l1.23,-0.708l0.037,-0c0.034,-0.042 0.063,-0.042 0.096,-0.083c0.058,-0.042 0.087,-0.084 0.15,-0.125l0.071,-0c0.016,-0 0.029,-0 0.05,-0.042l116.966,-67.542l-116.266,-67.083c-0.1,0.083 -0.163,0.208 -0.275,0.292l-120.309,69.458l-116.07,67l116.141,67.042l118.154,-68.209Z" style="fill:none;fill-rule:nonzero;stroke:#7be152;stroke-width:2.92px;"/><path d="M245.129,556.448l116.138,-67.042l0.029,-134.166l-116.167,67.125l0,134.083Z" style="fill:none;fill-rule:nonzero;stroke:#7be152;stroke-width:2.92px;"/><path d="M601.9,624.24l0,-133.625l-0.004,-137.75l-116.142,-67.042l0,271.458c0.117,0.042 0.242,0.084 0.35,0.125l115.796,66.834Z" style="fill:none;fill-rule:nonzero;stroke:#7be152;stroke-width:2.92px;"/><path d="M1922.39,1808.91l-116.083,-67.041l-116.125,67.083l116.125,67.083c0.041,-0.041 0.124,-0.083 0.166,-0.125c0.042,0 0.042,-0.041 0.083,-0.083c0.042,-0 0.084,-0.083 0.125,-0.083l115.709,-66.834Z" style="fill:none;fill-rule:nonzero;stroke:#7be152;stroke-width:2.92px;"/><path d="M1448.85,530.573l-0.042,24.208l37.417,-21.541l6.625,-3.875l14.75,-8.5l2.792,-1.584c0.042,-0.041 0.042,-0.041 0.083,-0.041l54.125,-31.292c0.125,-0.083 0.292,-0.083 0.417,-0.125l-0,-134.208l-116.125,67.041l-0,0.417l-0.042,109.5Z" style="fill:none;fill-rule:nonzero;stroke:#7be152;stroke-width:2.92px;"/><path d="M1689.43,621.073l0,1c0,0.042 0.042,0.083 0.042,0.125l0,71.542l115.792,-66.875l0.375,-0.209l-0.084,-134.083l-116.125,67.042c0,0.125 0.042,0.25 0.042,0.375l-0.042,61.083Z" style="fill:none;fill-rule:nonzero;stroke:#7be152;stroke-width:2.92px;"/><path d="M968.433,1808.91l0,133.709l115.75,-66.792l0.375,-0.25l0,-134.125l-10.666,6.167l-0.958,0.541l-104.584,60.417c0.042,0.125 0.083,0.208 0.083,0.333Z" style="fill:none;fill-rule:nonzero;stroke:#7be152;stroke-width:2.92px;"/><path d="M1512.48,522.906l-0.833,0.459l-59.042,34.125l-3.792,2.166l0,0.417c0,0.708 -0.374,1.375 -1,1.75c0,-0 0,0.042 -0.041,0.042l-0.333,0.208l-0,134.083l40.208,-23.208l2.333,-1.333l73.584,-42.5l-0,-0.417c-0,-0.75 0.416,-1.417 1.041,-1.792l0.375,-0.208l0.042,-134.167l-52.542,30.375Z" style="fill:none;fill-rule:nonzero;stroke:#7be152;stroke-width:2.92px;"/><path d="M1568.1,631.323l-0.375,0.208l0,134.084l55.75,-32.167l26.5,-15.292l1.167,-0.666l32.75,-18.917l-0,-0.417c-0,-0.708 0.375,-1.416 1.042,-1.791l0.333,-0.209l-0,-134.125l-116.125,67.084l-0,0.416c-0,0.75 -0.417,1.417 -1.042,1.792Z" style="fill:none;fill-rule:nonzero;stroke:#7be152;stroke-width:2.92px;"/><path d="M1448.89,415.865l115.708,-66.834l119.292,-68.875l-0,-134.083l-117.208,67.625l-117.876,68.042c0,0.166 0.084,0.291 0.084,0.416l-0,133.709Z" style="fill:none;fill-rule:nonzero;stroke:#7be152;stroke-width:2.92px;"/><path d="M1324.02,1463.41c-0.667,-0.375 -1.042,-1.041 -1.042,-1.791l0,-0.417l-73.333,-42.292l-41.708,-24.083l-0,134.417c0.166,0.333 0.291,0.666 0.291,1.041l0,0.417l116.167,67.083l-0.042,-117.333l0,-16.833l-0.333,-0.209Z" style="fill:none;fill-rule:nonzero;stroke:#7be152;stroke-width:2.92px;"/><path d="M1326.02,349.031l1.083,0.625c0.125,0.042 0.25,0.084 0.375,0.167l0.042,-0c0.041,0.042 0.125,0.083 0.167,0.125l117.041,67.583l0,-134.25c-0.167,-0.041 -0.333,-0.041 -0.458,-0.125l-120.333,-69.458l-116,-66.958l-0,134.083l118.083,68.208Z" style="fill:none;fill-rule:nonzero;stroke:#7be152;stroke-width:2.92px;"/><path d="M1083.97,349.99c0.042,-0.042 0.125,-0.084 0.167,-0.125l0.041,-0.042l0.042,-0c0.083,-0.083 0.209,-0.125 0.333,-0.167l1.001,-0.625l0.041,0l118.167,-68.208l-0,-134.083l-116.084,66.958l-120.291,69.458c-0.125,0.084 -0.292,0.084 -0.417,0.125l-0,134.25l117,-67.541Z" style="fill:none;fill-rule:nonzero;stroke:#7be152;stroke-width:2.92px;"/><path d="M1089.43,2155.41l116.417,67.25l116.375,-67.25l-116.375,-67.208l-116.417,67.208Z" style="fill:none;fill-rule:nonzero;stroke:#7be152;stroke-width:2.92px;"/><path d="M606.533,1459.53l116.109,-67.083l-116.229,-67.083c-0.096,0.083 -0.167,0.166 -0.28,0.25l-56.683,32.75l-59.054,34.125l115.737,66.791l0.4,0.25Z" style="fill:none;fill-rule:nonzero;stroke:#7be152;stroke-width:2.92px;"/><path d="M2045.06,910.698l-101.041,58.333l-15.042,8.667l0,134.125l46.417,-26.792l1.208,-0.708l68.583,-39.625c-0.041,-0.125 -0.125,-0.208 -0.125,-0.375l0,-133.625Z" style="fill:none;fill-rule:nonzero;stroke:#7be152;stroke-width:2.92px;"/><path d="M1328.56,355.323l-0.041,117.083l-0,16.959l116.125,67.041l0.041,-25.833l0,-108.333c-0.125,-0.042 -0.291,-0.042 -0.416,-0.125l-115.709,-66.792Z" style="fill:none;fill-rule:nonzero;stroke:#7be152;stroke-width:2.92px;"/><path d="M1808.39,763.99l114,-65.834l-115.709,-66.833c-0.125,-0.042 -0.208,-0.167 -0.291,-0.25l-116.208,67.083l116.125,67.042l2.083,-1.208Z" style="fill:none;fill-rule:nonzero;stroke:#7be152;stroke-width:2.92px;"/><path d="M1810.48,767.615l-2.125,1.208l0,134.125l116.125,-67.042l0.084,-134.166l-114.084,65.875Z" style="fill:none;fill-rule:nonzero;stroke:#7be152;stroke-width:2.92px;"/><path d="M1948.14,961.823l94.916,-54.75l-116.208,-67.125l-116.125,67.125l116.167,67.042l21.25,-12.292Z" style="fill:none;fill-rule:nonzero;stroke:#7be152;stroke-width:2.92px;"/><path d="M1328.56,769.615l0,137.708l-0.041,114.583l-0,19.167l75.916,-43.875l39.876,-23l2.208,-1.292l34.583,-19.958l82.459,-47.625l-0,-271.375l-68.792,39.708l-2.667,1.542l-44.292,25.583l-119.25,68.834Z" style="fill:none;fill-rule:nonzero;stroke:#7be152;stroke-width:2.92px;"/><path d="M487.15,701.74l0.05,134.166l116.142,67.042l-0,-134.083l-116.192,-67.125Z" style="fill:none;fill-rule:nonzero;stroke:#7be152;stroke-width:2.92px;"/><path d="M1329.18,72.99l116.125,67.083l116.208,-67.083l-116.208,-67.042l-116.125,67.042Z" style="fill:none;fill-rule:nonzero;stroke:#7be152;stroke-width:2.92px;"/><path d="M1087.31,406.74l0.042,82.666l116.125,67.084l0,-134.167l-116.167,-67.083l0,51.5Z" style="fill:none;fill-rule:nonzero;stroke:#7be152;stroke-width:2.92px;"/><path d="M1324.35,489.406l0,-17l0.042,-117.166l-116.167,67.083l0,134.125l116.125,-67.042Z" style="fill:none;fill-rule:nonzero;stroke:#7be152;stroke-width:2.92px;"/><path d="M603.342,1604.12l-116.142,67.083l-0.05,134.125l116.192,-67.125l-0,-134.083Z" style="fill:none;fill-rule:nonzero;stroke:#7be152;stroke-width:2.92px;"/><path d="M363.383,1459.28l115.83,-66.791l-61.725,-35.667c-0.017,0 -0.025,-0.042 -0.042,-0.042l-54.063,-31.166c-0.116,-0.084 -0.187,-0.167 -0.283,-0.25l-116.188,67.083l116.101,67.083l0.333,-0.208l0.037,-0.042Z" style="fill:none;fill-rule:nonzero;stroke:#7be152;stroke-width:2.92px;"/><path d="M1324.35,2017.7l-116.125,-67.042l0,134.125l116.167,67.084l-0.042,-117.167l0,-17Z" style="fill:none;fill-rule:nonzero;stroke:#7be152;stroke-width:2.92px;"/><path d="M2168.85,1529.03l117.917,-68.125l117.208,-67.666l-116.167,-67.042l-119.25,68.875l-115.75,66.875l115.75,66.792c0.125,0.083 0.209,0.208 0.292,0.291Z" style="fill:none;fill-rule:nonzero;stroke:#7be152;stroke-width:2.92px;"/><path d="M1992.1,1153.91l-48.167,-27.833l-15.666,-9.042l-0.375,0.209c-0.625,0.375 -1.417,0.375 -2.084,-0l-0.333,-0.209l-60.417,34.917l-0.874,0.5l-54.834,31.625l71.375,41.25l44.708,25.792l0.334,-0.167c0.666,-0.417 1.458,-0.417 2.125,-0.042l0.416,0.25l116.084,-67.083l-51.459,-29.708l-0.833,-0.459Z" style="fill:none;fill-rule:nonzero;stroke:#7be152;stroke-width:2.92px;"/><path d="M1083.14,2151.78l-0,-134.041l-116.125,-67.084l-0,96.5l-0.042,37.709c0.167,0.041 0.292,-0 0.417,0.083l115.75,66.833Z" style="fill:none;fill-rule:nonzero;stroke:#7be152;stroke-width:2.92px;"/><path d="M489.309,1808.91l115.716,66.834c0.125,0.083 0.196,0.208 0.304,0.291l116.188,-67.083l-116.138,-67.083l-116.07,67.041Z" style="fill:none;fill-rule:nonzero;stroke:#7be152;stroke-width:2.92px;"/><path d="M1994.6,1356.57l0,0.042l-62.125,35.875l115.792,66.791l0.375,0.25l116.125,-67.083l-116.25,-67.083c-0.083,0.083 -0.167,0.166 -0.25,0.25l-53.667,30.958Z" style="fill:none;fill-rule:nonzero;stroke:#7be152;stroke-width:2.92px;"/><path d="M368.6,1600.03l116.184,67.042l116.145,-67.042l-116.096,-67.041l-116.233,67.041Z" style="fill:none;fill-rule:nonzero;stroke:#7be152;stroke-width:2.92px;"/><path d="M1925.81,1256.16l-0.333,-0.208l-22.583,13l-0,0.042l-93.542,54l54.917,31.75l0.041,-0l2.876,1.666l58.249,33.667l0.334,-0.208c0.666,-0.417 1.458,-0.417 2.125,-0.042l0.375,0.25l49.708,-28.708l1.542,-0.875l12.958,-7.5l51.958,-30l-116.166,-67.042l-0.375,0.208c-0.625,0.375 -1.417,0.375 -2.084,0Z" style="fill:none;fill-rule:nonzero;stroke:#7be152;stroke-width:2.92px;"/><path d="M2050.39,489.406l116.166,67.042l0,-134.083l-116.166,-67.125l-0,134.166Z" style="fill:none;fill-rule:nonzero;stroke:#7be152;stroke-width:2.92px;"/><path d="M850.183,72.99l116.167,67.083l116.167,-67.083l-116.167,-67.042l-116.167,67.042Z" style="fill:none;fill-rule:nonzero;stroke:#7be152;stroke-width:2.92px;"/><path d="M847.017,1463.45l-119.213,68.875l0,132.458l115.796,-66.833l119.208,-68.875l0.042,-132.5l-115.833,66.875Z" style="fill:none;fill-rule:nonzero;stroke:#7be152;stroke-width:2.92px;"/><path d="M725.392,1389.24l119.291,-68.875l115.792,-66.792l-46.542,-26.875l-0.625,-0.375l-68.666,-39.625l-70.583,-40.75l-1.167,-0.667l-47.5,-27.416l-33.125,19.125l-1.292,0.708l-84.816,49l-81.763,47.208l-0.629,0.375l-0.013,0l-33.362,19.292l115.741,66.792l119.259,68.875Z" style="fill:none;fill-rule:nonzero;stroke:#7be152;stroke-width:2.92px;"/><path d="M603.104,1044.7c-0.025,-0.125 -0.096,-0.25 -0.096,-0.375l0,-133.625l-116.116,66.958l0.004,134.167l116.208,-67.125Z" style="fill:none;fill-rule:nonzero;stroke:#7be152;stroke-width:2.92px;"/><path d="M603.008,1596.41l0,-133.625c0,-0.166 0.08,-0.291 0.109,-0.416l-116.221,-67.084l-0.004,134.084l116.116,67.041Z" style="fill:none;fill-rule:nonzero;stroke:#7be152;stroke-width:2.92px;"/><path d="M1929.1,1809.87l-1.292,0.75c-0.041,0.041 -0.041,0.083 -0.083,0.125c-0.083,0.041 -0.125,-0 -0.167,0.041c-0.083,0.042 -0.083,0.084 -0.166,0.084c-0.042,0.041 -0.042,0.041 -0.084,0.083c0,-0 -0.041,-0.042 -0.041,-0l-116.875,67.458l116.292,67.084c0.083,-0.084 0.166,-0.209 0.291,-0.292l120.292,-69.458l116.083,-67l-116.208,-67.042l-118.042,68.167Z" style="fill:none;fill-rule:nonzero;stroke:#7be152;stroke-width:2.92px;"/><path d="M722.642,1114.62l-116.142,-67.042l-0.383,0.167l-115.713,66.875l58.329,33.708c0.026,-0 0.042,0.042 0.067,0.042l0.821,0.5l56.512,32.583c0.113,0.083 0.184,0.167 0.28,0.25l81.187,-46.833l1.292,-0.75l33.75,-19.5Z" style="fill:none;fill-rule:nonzero;stroke:#7be152;stroke-width:2.92px;"/><path d="M1087.68,1043.66c0.042,0.042 0.084,0.125 0.125,0.125c0.042,0.042 0.042,0.084 0.084,0.084c0.125,0.083 0.208,0.208 0.333,0.291c-0,0.042 0.042,0.084 0.083,0.084c0.042,0.041 0.042,0.083 0.042,0.125c0.042,0.041 0.083,0.125 0.125,0.208c0.042,0.083 0.084,0.167 0.125,0.292c0.042,0.125 0.042,0.25 0.084,0.416c-0,0.042 -0,0.084 0.041,0.125l-0,0.459l115.042,66.416l-0,-134.416c-0.167,-0.334 -0.292,-0.667 -0.292,-1.042l0,-0.417l-116.167,-67.083l0,52.417l0.042,81.75l0.333,0.166Z" style="fill:none;fill-rule:nonzero;stroke:#7be152;stroke-width:2.92px;"/><path d="M489.296,698.156l116.091,67.042l116.13,-67.042l-116.183,-67.083c-0.038,0.042 -0.088,0.042 -0.13,0.083l-0.02,0c-0.067,0.084 -0.101,0.125 -0.171,0.167l-115.717,66.833Z" style="fill:none;fill-rule:nonzero;stroke:#7be152;stroke-width:2.92px;"/><path d="M607.508,1604.2l0,134.042l116.134,67.041l-0,-134.166c-0.125,-0.042 -0.292,-0.042 -0.417,-0.125l-115.717,-66.792Z" style="fill:none;fill-rule:nonzero;stroke:#7be152;stroke-width:2.92px;"/><path d="M723.642,835.99l-0,-134.209l-40.459,23.334l-75.675,43.75l0,134.041l115.717,-66.833c0.125,-0.042 0.292,-0.042 0.417,-0.083Z" style="fill:none;fill-rule:nonzero;stroke:#7be152;stroke-width:2.92px;"/><path d="M1328.52,2017.74l-0,16.958l0.041,117.083l115.709,-66.833c0.125,-0.083 0.291,-0.083 0.416,-0.125l0,-108.375l-0.041,-25.792l-116.125,67.084Z" style="fill:none;fill-rule:nonzero;stroke:#7be152;stroke-width:2.92px;"/><path d="M2166.56,1950.62l-116.166,67.041l-0,134.167l116.166,-67.083l0,-134.125Z" style="fill:none;fill-rule:nonzero;stroke:#7be152;stroke-width:2.92px;"/><path d="M2049.27,1464.7l-0,135.208c-0,0.084 0.041,0.084 0.041,0.167c0,0.083 -0.041,0.125 -0.083,0.25c-0,0.042 0.042,0.083 -0,0.125l-0,137.625l116.208,67.042l-0.041,-133.959l-0,-138.916c-0,-0.167 0.083,-0.292 0.125,-0.459l-116.25,-67.083Z" style="fill:none;fill-rule:nonzero;stroke:#7be152;stroke-width:2.92px;"/><path d="M2406.02,1669.95l0.041,-134.167l-116.166,67.125l-0,134.084l116.125,-67.042Z" style="fill:none;fill-rule:nonzero;stroke:#7be152;stroke-width:2.92px;"/><path d="M2289.89,770.073l-0,134.125l116.166,67.083l-0.041,-134.125l-116.125,-67.083Z" style="fill:none;fill-rule:nonzero;stroke:#7be152;stroke-width:2.92px;"/><path d="M1083.14,1737.45l-0,-271.375l-76.25,44l-0.834,0.5l-38.708,22.375l-35.625,20.542l-0.958,0.541l-82.667,47.75l-0,271.375l115.792,-66.833l106.958,-61.75l12.292,-7.125Z" style="fill:none;fill-rule:nonzero;stroke:#7be152;stroke-width:2.92px;"/><path d="M1082.52,2434.07l-116.167,-67.042l-116.167,67.042l116.167,67.083l116.167,-67.083Z" style="fill:none;fill-rule:nonzero;stroke:#7be152;stroke-width:2.92px;"/><path d="M361.267,2017.7l-116.138,-67.083l0,134.125l116.167,67.083l-0.029,-134.125Z" style="fill:none;fill-rule:nonzero;stroke:#7be152;stroke-width:2.92px;"/><path d="M1561.52,2434.07l-116.208,-67.042l-116.125,67.042l116.125,67.083l116.208,-67.083Z" style="fill:none;fill-rule:nonzero;stroke:#7be152;stroke-width:2.92px;"/><path d="M1203.43,1669.24l0.042,-133.75l-114.75,66.291l-0,271.375l114.708,-66.25l0,-137.666Z" style="fill:none;fill-rule:nonzero;stroke:#7be152;stroke-width:2.92px;"/><path d="M930.184,1966.32l1.708,-1l30.958,-17.875l0,-0.417c0,-0.75 0.417,-1.416 1.042,-1.791l0.375,-0.209l-0,-134.083l-116.167,67l-0,0.5c-0,0.083 -0.041,0.125 -0.041,0.167c-0,0.125 -0.042,0.25 -0.084,0.416c-0.041,0.084 -0.083,0.167 -0.125,0.292c0,0.042 -0.042,0.083 -0.083,0.167c-0.042,0.041 -0.042,0.083 -0.084,0.125c-0.041,0.041 -0.041,0.041 -0.083,0.083c-0.083,0.125 -0.208,0.208 -0.333,0.292c-0.042,0.041 -0.084,0.125 -0.167,0.166l-0.042,0l-0.083,0.084l-0.041,-0l-0.042,0.041l-0.167,0.084l-0.042,134.125l52.5,-30.292l31.001,-17.875Z" style="fill:none;fill-rule:nonzero;stroke:#7be152;stroke-width:2.92px;"/><path d="M1804.52,907.906l-116.458,-67.25l-0,134.5l116.458,67.25l-0,-134.5Z" style="fill:none;fill-rule:nonzero;stroke:#7be152;stroke-width:2.92px;"/><path d="M1205.81,562.281l-116.417,67.25l116.417,67.209l116.499,-67.209l-116.499,-67.25Z" style="fill:none;fill-rule:nonzero;stroke:#7be152;stroke-width:2.92px;"/><path d="M1087.31,2102.45l0,49.417l116.167,-67.084l0,-134.166l-116.125,67.083l-0.042,84.75Z" style="fill:none;fill-rule:nonzero;stroke:#7be152;stroke-width:2.92px;"/><path d="M1804.52,1599.2l-0,-134.5l-116.458,67.25l-0,134.5l116.458,-67.25Z" style="fill:none;fill-rule:nonzero;stroke:#7be152;stroke-width:2.92px;"/><path d="M723.642,840.656l-116.467,67.25l0,134.5l116.467,-67.25l-0,-134.5Z" style="fill:none;fill-rule:nonzero;stroke:#7be152;stroke-width:2.92px;"/><path d="M965.017,1250.91c0.667,-0.375 1.458,-0.375 2.125,0.042l0.333,0.167l83.167,-48.042l31.833,-18.375l-116.417,-67.208c-0.333,-0 -0.666,-0.084 -1,-0.25l-0.416,-0.209l-116.125,67.042l67.5,39l0.625,0.375l48,27.708l0.375,-0.25Z" style="fill:none;fill-rule:nonzero;stroke:#7be152;stroke-width:2.92px;"/><path d="M848.1,633.948l-0,271.375l35.417,20.458l1.041,0.584l82.792,47.791l83.417,48.209l0.875,0.5l31.5,18.166l-0,-271.375l-60.875,-35.166l-1.084,-0.625l-57.291,-33.084l-76.167,-44l-39.625,-22.833Z" style="fill:none;fill-rule:nonzero;stroke:#7be152;stroke-width:2.92px;"/><path d="M1025.22,731.406l59.333,34.25l0,-134.125l-0.375,-0.25l-115.75,-66.791l0,133.708c0,0.125 -0.041,0.208 -0.083,0.333l56,32.334l0.875,0.541Z" style="fill:none;fill-rule:nonzero;stroke:#7be152;stroke-width:2.92px;"/><path d="M362.396,1600.49c-0.004,-0 0.004,-0.042 -0,-0.084l-0,-0.25c-0,-0.041 -0.029,-0.083 -0.029,-0.125c-0,-0.041 0.029,-0.041 0.029,-0.083l-0,-135.25l-116.258,67.083c0.033,0.167 0.116,0.292 0.116,0.459l0,272.875l116.142,-67.042l-0,-137.583Z" style="fill:none;fill-rule:nonzero;stroke:#7be152;stroke-width:2.92px;"/><path d="M1088.72,1323.57l-0,132.792l33.083,-19.084l81.959,-47.291l-0,-132.834l-115.042,66.417Z" style="fill:none;fill-rule:nonzero;stroke:#7be152;stroke-width:2.92px;"/><path d="M962.808,2091.24l-115.791,66.791l-119.255,68.834l0,134.125l117.172,-67.667l117.958,-68.042c-0.042,-0.125 -0.084,-0.25 -0.084,-0.375l0,-133.666Z" style="fill:none;fill-rule:nonzero;stroke:#7be152;stroke-width:2.92px;"/><path d="M1443.27,564.49l-115.75,66.791l-0.375,0.25l-0,134.084l116.208,-67.084c-0.041,-0.125 -0.083,-0.208 -0.083,-0.333l-0,-133.708Z" style="fill:none;fill-rule:nonzero;stroke:#7be152;stroke-width:2.92px;"/><path d="M1003.98,1506.95l79.167,-45.75l-0,-0.375c-0,-0.75 0.416,-1.458 1.083,-1.833l0.333,-0.209l0,-132.833l-116.416,67.208c-0.167,0.334 -0.417,0.584 -0.709,0.75l-0.416,0.25l-0.042,134.167l36,-20.792l1,-0.583Z" style="fill:none;fill-rule:nonzero;stroke:#7be152;stroke-width:2.92px;"/><path d="M1205.81,1944.82l116.499,-67.25l-116.499,-67.208l-116.417,67.208l116.417,67.25Z" style="fill:none;fill-rule:nonzero;stroke:#7be152;stroke-width:2.92px;"/><path d="M2045.06,903.406l0,-134.416l-116.333,-67.209l-0.083,134.417l116.416,67.208Z" style="fill:none;fill-rule:nonzero;stroke:#7be152;stroke-width:2.92px;"/><path d="M1567.73,770.365l0,134.166l116.167,-67l-0,-134.125l-6.5,3.75l-51.833,29.917l-0.042,-0l-57.417,33.167c-0.125,0.083 -0.25,0.083 -0.375,0.125Z" style="fill:none;fill-rule:nonzero;stroke:#7be152;stroke-width:2.92px;"/><path d="M1322.27,351.656l-116.417,-67.208l-116.458,67.208l116.458,67.25l116.417,-67.25Z" style="fill:none;fill-rule:nonzero;stroke:#7be152;stroke-width:2.92px;"/><path d="M962.85,2048.78l0,-96.5l-60.917,35.167l-0.666,0.375c-0,-0 -0.042,-0 -0.083,0.042l-1.042,0.583l-53.125,30.708c-0.083,0.042 -0.209,0.084 -0.334,0.125l0,134.125l116.125,-66.958l0,-0.458l0.042,-37.209Z" style="fill:none;fill-rule:nonzero;stroke:#7be152;stroke-width:2.92px;"/><path d="M967.017,458.323l-0,98.083l116.125,-67.041l-0,-134.084l-115.75,66.834c-0.125,0.083 -0.25,0.083 -0.417,0.125l0.042,36.083Z" style="fill:none;fill-rule:nonzero;stroke:#7be152;stroke-width:2.92px;"/><path d="M727.804,703.406l0,134.125l116.129,67l0,-134.166c-0.083,-0.042 -0.208,-0.084 -0.333,-0.125l-57.504,-33.167l-37.162,-21.458l-1.751,-1l-19.379,-11.209Z" style="fill:none;fill-rule:nonzero;stroke:#7be152;stroke-width:2.92px;"/><path d="M844.683,1047.74l-119.291,-68.792l-114.692,66.208l115.775,66.875l119.25,68.834l114.75,-66.25l-115.792,-66.875Z" style="fill:none;fill-rule:nonzero;stroke:#7be152;stroke-width:2.92px;"/><path d="M1085.35,1879.95l-116.25,67.083l91.834,53.042l0.916,0.5l23.417,13.542l116.083,-67.084l-115.75,-66.791c-0.125,-0.084 -0.166,-0.209 -0.25,-0.292Z" style="fill:none;fill-rule:nonzero;stroke:#7be152;stroke-width:2.92px;"/><path d="M1567.02,1459.28l119.291,68.875l114.667,-66.208l-115.792,-66.875l-119.208,-68.833l-114.791,66.25l115.833,66.791Z" style="fill:none;fill-rule:nonzero;stroke:#7be152;stroke-width:2.92px;"/><path d="M722.183,1947.03l0,-131.666l0,0.041l0,-2.041l-115.758,66.875l0.008,-0l-0.179,0.083l-0.016,-0l-0.038,0.042l-0.041,-0l-0.096,0.083l-0,134.083l116.204,-67.083c-0,-0.125 -0.084,-0.25 -0.084,-0.417Z" style="fill:none;fill-rule:nonzero;stroke:#7be152;stroke-width:2.92px;"/><path d="M485.754,1949.82l0,271.458l116.146,-67.041l0,-271.375l-115.796,66.833c-0.108,0.042 -0.233,0.083 -0.35,0.125Z" style="fill:none;fill-rule:nonzero;stroke:#7be152;stroke-width:2.92px;"/><path d="M417.783,1150.12c0.034,-0 0.051,-0.042 0.084,-0.084l61.333,-35.416l-71.917,-41.542l-43.87,-25.292l-0.367,-0.208l-116.087,67.083l116.141,67.042c0.096,-0.083 0.171,-0.167 0.283,-0.25l54.4,-31.333Z" style="fill:none;fill-rule:nonzero;stroke:#7be152;stroke-width:2.92px;"/><path d="M485.825,1250.91l0.392,0.25l34.758,-20.083l0.704,-0.417l80.596,-46.583l-55.629,-32.125l-53.271,-30.792l-4.558,-2.625l-0.004,0l-2.596,-1.5l-0.358,0.209c-0.646,0.375 -1.442,0.375 -2.088,-0l-0.367,-0.209l-63.425,36.625l-0.004,0l-0.521,0.292l-52.183,30.167l116.1,67.041l0.342,-0.208c0.65,-0.417 1.454,-0.417 2.112,-0.042Z" style="fill:none;fill-rule:nonzero;stroke:#7be152;stroke-width:2.92px;"/><path d="M242.817,978.073l-117.908,68.125l-117.184,67.583l116.142,67.084l119.262,-68.834l115.746,-66.875l-115.8,-66.875c-0.104,-0.041 -0.171,-0.166 -0.258,-0.208Z" style="fill:none;fill-rule:nonzero;stroke:#7be152;stroke-width:2.92px;"/><path d="M1203.77,1117.12l-115.042,-66.417l-0,132.833l115.042,66.417l-0,-132.833Z" style="fill:none;fill-rule:nonzero;stroke:#7be152;stroke-width:2.92px;"/><path d="M482.984,701.781l-116.422,67.209l0,134.416l116.471,-67.25l-0.049,-134.375Z" style="fill:none;fill-rule:nonzero;stroke:#7be152;stroke-width:2.92px;"/><path d="M362.396,907.448c-0.017,-0.042 0.008,-0.125 -0,-0.208l-0,-0.084c-0,-0.041 -0.029,-0.083 -0.029,-0.125c-0,0 0.029,-0.041 0.029,-0.083l-0,-137.958l-116.142,-67.084l0,272.959c0,0.125 -0.075,0.25 -0.104,0.375l116.246,67.166l-0,-134.958Z" style="fill:none;fill-rule:nonzero;stroke:#7be152;stroke-width:2.92px;"/><path d="M843.6,1875.78l0.333,-0.208l0,-134.083l-54.916,31.708l-61.213,35.292l0,0.416c0,0.084 -0.042,0.125 -0.042,0.167c0,0.042 0,0.083 -0.037,0.083c0,0.167 0,0.292 -0.083,0.417c-0,0.125 -0.042,0.208 -0.084,0.292c-0.041,0.041 -0.041,0.083 -0.041,0.083c-0.042,0.042 -0.084,0.083 -0.084,0.125c-0.041,0.083 -0.129,0.125 -0.171,0.208c-0.078,0.084 -0.203,0.167 -0.329,0.292c-0.041,0.042 -0.083,0.083 -0.171,0.125l0,0.042l-0.37,0.166l-0,74l-0.042,0.042l-0,60.125l116.208,-67.042l0,-0.458c0,-0.75 0.375,-1.417 1.042,-1.792Z" style="fill:none;fill-rule:nonzero;stroke:#7be152;stroke-width:2.92px;"/><path d="M1688.06,1671.12l-0,134.166l116.125,-67.041l-0,-134.042l-115.751,66.792c-0.125,0.083 -0.25,0.083 -0.374,0.125Z" style="fill:none;fill-rule:nonzero;stroke:#7be152;stroke-width:2.92px;"/><path d="M1808.68,1596.41l116.084,-67.041l-0,-134.084l-116.209,67.042c0.042,0.167 0.125,0.292 0.125,0.458l0,133.625Z" style="fill:none;fill-rule:nonzero;stroke:#7be152;stroke-width:2.92px;"/><path d="M448.942,1370.16l3.083,1.792l0.004,0l0.625,0.375l30.734,17.708l0.321,-0.166c0.645,-0.417 1.458,-0.417 2.116,-0.042l0.392,0.25l59.716,-34.5l1.421,-0.833l0.079,-0l54.888,-31.75l-116.104,-67.042l-0.363,0.208c-0.641,0.375 -1.437,0.375 -2.079,0l-0.367,-0.208l-116.212,67.042l52.396,30.25l29.35,16.916Z" style="fill:none;fill-rule:nonzero;stroke:#7be152;stroke-width:2.92px;"/><path d="M1564.68,1463.45l-115.876,-66.875l0.084,132.5l119.208,68.875l115.792,66.833l-0,-132.458l-119.208,-68.875Z" style="fill:none;fill-rule:nonzero;stroke:#7be152;stroke-width:2.92px;"/><path d="M1210.31,1947.03l116.125,67.084l25.959,-15l1,-0.584l89.166,-51.541l-116.208,-67.042c-0.083,0.083 -0.166,0.208 -0.25,0.292l-115.792,66.791Z" style="fill:none;fill-rule:nonzero;stroke:#7be152;stroke-width:2.92px;"/><path d="M484.35,1810.91l-0.083,0c-0.029,-0.041 -0.042,-0.041 -0.067,-0.083c-0.029,-0 -0.05,-0.042 -0.075,-0.042c-0.038,0 -0.079,0 -0.117,-0.041c-0.045,-0 -0.066,-0.084 -0.112,-0.125l-0.021,-0c-0.054,-0.042 -0.121,-0.042 -0.175,-0.084l-0.004,0l-1.096,-0.666l-118.121,-68.167l-116.141,67.042l116.075,67l120.304,69.458c0.129,0.083 0.2,0.208 0.308,0.292l116.258,-67.084l-116.933,-67.5Z" style="fill:none;fill-rule:nonzero;stroke:#7be152;stroke-width:2.92px;"/><path d="M1086.68,1319.95l115.001,-66.417l-115.042,-66.416l-33.917,19.583l-81.083,46.875l115.041,66.375Z" style="fill:none;fill-rule:nonzero;stroke:#7be152;stroke-width:2.92px;"/><path d="M1208.23,1806.91l114.75,66.25l0,-271.375l-114.75,-66.291l0,271.416Z" style="fill:none;fill-rule:nonzero;stroke:#7be152;stroke-width:2.92px;"/><path d="M358.871,1461.95l-115.742,-66.875l-119.262,-68.875l-116.142,67.042l117.184,67.666l117.87,68.125c0.1,-0.083 0.179,-0.208 0.3,-0.291l115.792,-66.792Z" style="fill:none;fill-rule:nonzero;stroke:#7be152;stroke-width:2.92px;"/><path d="M847.017,1043.66l115.833,66.875l-0.042,-132.5l-119.208,-68.875l-115.796,-66.833l0,132.458l119.213,68.875Z" style="fill:none;fill-rule:nonzero;stroke:#7be152;stroke-width:2.92px;"/><path d="M1325.02,1187.12l-115,66.416l115,66.417l87.583,-50.542l2.084,-1.208l0.041,-0l25.333,-14.667l-37.416,-21.583l-2.834,-1.667l-74.791,-43.166Z" style="fill:none;fill-rule:nonzero;stroke:#7be152;stroke-width:2.92px;"/><path d="M1203.43,837.823l0,-137.667l-114.708,-66.208l-0,271.375l114.75,66.292l-0.042,-133.792Z" style="fill:none;fill-rule:nonzero;stroke:#7be152;stroke-width:2.92px;"/><path d="M967.017,1112.95l0.416,0.208c0.251,0.167 0.459,0.417 0.625,0.667l116.5,67.25l0,-132.792l-0.375,-0.208c-0.625,-0.375 -1.041,-1.042 -1.041,-1.792l-0,-0.416l-34.459,-19.917l-1,-0.583l-80.708,-46.584l0.042,134.167Z" style="fill:none;fill-rule:nonzero;stroke:#7be152;stroke-width:2.92px;"/><path d="M1563.56,1601.78l-119.25,-68.875l-115.792,-66.875l-0,14.417l0.041,119.375l0,137.625l119.25,68.875l95.959,55.417l0.042,-0l1.625,0.958l18.125,10.458l-0,-271.375Z" style="fill:none;fill-rule:nonzero;stroke:#7be152;stroke-width:2.92px;"/><path d="M5.654,1669.95l116.138,67.042l0.004,-134.084l-116.171,-67.125l0.029,134.167Z" style="fill:none;fill-rule:nonzero;stroke:#7be152;stroke-width:2.92px;"/><path d="M1928.73,1805.28l116.333,-67.208l0,-134.375l-116.416,67.167l0.083,134.416Z" style="fill:none;fill-rule:nonzero;stroke:#7be152;stroke-width:2.92px;"/><path d="M1327.64,2157.12c-0.042,0.041 -0.084,0.125 -0.125,0.125c-0.042,0.041 -0.084,0.041 -0.125,0.041c-0.042,0.042 -0.125,0.084 -0.167,0.084l-1.25,0.666l-118.041,68.25l-0,134.084l116,-67.042l120.333,-69.458c0.125,-0.084 0.291,-0.084 0.458,-0.125l0,-134.209l-117.083,67.584Z" style="fill:none;fill-rule:nonzero;stroke:#7be152;stroke-width:2.92px;"/><path d="M1201.35,560.031l-116.083,-67.041l-21.834,12.583l-0.874,0.542l-0.042,-0l-93.417,53.958l116.25,67.083c0.084,-0.083 0.125,-0.208 0.25,-0.291l115.75,-66.834Z" style="fill:none;fill-rule:nonzero;stroke:#7be152;stroke-width:2.92px;"/><path d="M1327.14,1875.57l0.375,0.25l115.75,66.792l-0,-133.709c-0,-0.125 0.042,-0.208 0.083,-0.333l-116.208,-67.083l-0,134.083Z" style="fill:none;fill-rule:nonzero;stroke:#7be152;stroke-width:2.92px;"/><path d="M965.017,1389.82c0.333,-0.167 0.708,-0.25 1.041,-0.25l116.417,-67.208l-115.042,-66.417l-0.333,0.208c-0.667,0.375 -1.458,0.375 -2.083,0l-0.375,-0.208l-116.208,67.083l116.166,67.042l0.417,-0.25Z" style="fill:none;fill-rule:nonzero;stroke:#7be152;stroke-width:2.92px;"/><path d="M1810.77,1600.03l116.083,67.042l116.208,-67l-116.208,-67.083l-116.083,67.041Z" style="fill:none;fill-rule:nonzero;stroke:#7be152;stroke-width:2.92px;"/><path d="M1924.56,1805.32l-0.084,-134.125l-116.125,-67.083l0,134.083l116.209,67.125Z" style="fill:none;fill-rule:nonzero;stroke:#7be152;stroke-width:2.92px;"/><path d="M1207.93,1249.95l115.041,-66.417l0,-132.833l-100.833,58.208l-14.208,8.209l-0,132.833Z" style="fill:none;fill-rule:nonzero;stroke:#7be152;stroke-width:2.92px;"/><path d="M1563.56,1878.37l-0,-0.417l-21.834,-12.625l-2,-1.125l-92.291,-53.25l-0,134.083l0.333,0.209c0.667,0.375 1.041,1.041 1.041,1.791l0,0.417l55.542,32.083l8.125,4.667l52.542,30.333l-0.042,-134.166l-0.375,-0.167c-0.625,-0.375 -1.041,-1.083 -1.041,-1.833Z" style="fill:none;fill-rule:nonzero;stroke:#7be152;stroke-width:2.92px;"/><path d="M1448.81,2225.28l117.876,68.042l117.208,67.667l-0,-134.125l-119.292,-68.834l-115.708,-66.791l-0,133.666c-0,0.125 -0.084,0.25 -0.084,0.375Z" style="fill:none;fill-rule:nonzero;stroke:#7be152;stroke-width:2.92px;"/><path d="M1511.77,1988.62l-1.375,-0.792l-3.209,-1.875l-58.375,-33.667l0.042,24.125l0,4.417l0.042,105.167l-0,0.458l116.125,67l-0,-134.167c-0.125,-0.041 -0.292,-0.041 -0.417,-0.125l-52.833,-30.541Z" style="fill:none;fill-rule:nonzero;stroke:#7be152;stroke-width:2.92px;"/><path d="M1683.89,1803.7l-0,-134.125l-116.167,-67l0,134.167c0.125,0.041 0.25,0.041 0.375,0.125l56.542,32.666c0.041,0 0.083,0 0.125,0.042l59.125,34.125Z" style="fill:none;fill-rule:nonzero;stroke:#7be152;stroke-width:2.92px;"/><path d="M1085.64,2158.03l-1.292,-0.708c-0.042,-0.042 -0.125,-0.042 -0.167,-0.042c-0.041,-0.041 -0.083,-0.125 -0.125,-0.125l-117.083,-67.625l-0,134.25c0.125,0.042 0.292,0 0.417,0.084l120.291,69.458l116.084,67.042l-0,-134.084l-118.125,-68.25Z" style="fill:none;fill-rule:nonzero;stroke:#7be152;stroke-width:2.92px;"/><path d="M1322.98,1323.57l-115.041,-66.417l-0,132.834l43.791,25.291l71.25,41.125l0,-132.833Z" style="fill:none;fill-rule:nonzero;stroke:#7be152;stroke-width:2.92px;"/><path d="M1567.02,1047.74l-115.833,66.875l114.791,66.25l119.208,-68.834l115.792,-66.875l-114.667,-66.208l-119.291,68.792Z" style="fill:none;fill-rule:nonzero;stroke:#7be152;stroke-width:2.92px;"/><path d="M1706.56,1382.32l-17.541,10.125l116.125,67.083l0.333,-0.208l0.042,-0.042l115.791,-66.791l-6.958,-4.042l-2.916,-1.667l-49.209,-28.416l-56.708,-32.75c-0.125,-0.084 -0.167,-0.167 -0.292,-0.25l-98.667,56.958Z" style="fill:none;fill-rule:nonzero;stroke:#7be152;stroke-width:2.92px;"/><path d="M1808.6,1044.7l116.167,67.125l-0,-134.125l-116.084,-67l0,133.625c0,0.167 -0.083,0.25 -0.083,0.375Z" style="fill:none;fill-rule:nonzero;stroke:#7be152;stroke-width:2.92px;"/><path d="M1619.81,1156.24l-1.376,0.791l-51.416,29.667l-115.833,66.833l46.666,26.959l6.542,3.75l62.625,36.125l67.583,39.041l0.042,0l2.166,1.292l49.459,28.542l18.208,-10.5l101.042,-58.375l93.291,-53.834l2,-1.166l20.5,-11.834l-42.666,-24.625l-73.125,-42.208l-77.625,-44.833l-0.042,-0l-41.542,-24l-66.499,38.375Z" style="fill:none;fill-rule:nonzero;stroke:#7be152;stroke-width:2.92px;"/><path d="M1804.18,902.906l-0,-134.041l-58.917,-34.042l-1.167,-0.667l-56.041,-32.375l-0,134.209c0.124,0.041 0.249,0.041 0.374,0.083l115.751,66.833Z" style="fill:none;fill-rule:nonzero;stroke:#7be152;stroke-width:2.92px;"/><path d="M1208.23,971.615l114.75,-66.292l0,-271.375l-114.75,66.208l0,271.459Z" style="fill:none;fill-rule:nonzero;stroke:#7be152;stroke-width:2.92px;"/><path d="M1326.35,627.156l116.25,-67.083l-116.167,-67.083l-116.125,67.041l115.792,66.834c0.084,0.083 0.167,0.208 0.25,0.291Z" style="fill:none;fill-rule:nonzero;stroke:#7be152;stroke-width:2.92px;"/><path d="M1805.52,1181.45l57.333,-33.042c0.042,-0.041 0.042,-0.083 0.083,-0.083l58.334,-33.708l-115.75,-66.834l-0.333,-0.208l-116.125,67.083l40.874,23.584l75.292,43.458c0.084,-0.083 0.167,-0.167 0.292,-0.25Z" style="fill:none;fill-rule:nonzero;stroke:#7be152;stroke-width:2.92px;"/><path d="M1564.68,1043.66l119.208,-68.875l-0,-132.458l-115.792,66.833l-119.208,68.875l-0.084,132.5l115.876,-66.875Z" style="fill:none;fill-rule:nonzero;stroke:#7be152;stroke-width:2.92px;"/><path d="M1926.98,1945.2c-0.125,0.083 -0.208,0.208 -0.291,0.292l-116.292,-67.084l116.875,-67.458c-0,-0.042 0.041,-0 0.041,-0c0.042,-0.042 0.042,-0.042 0.084,-0.083c0.083,-0 0.083,-0.042 0.166,-0.084c0.042,-0.041 0.084,0 0.167,-0.041c0.042,-0.042 0.042,-0.084 0.083,-0.125l1.292,-0.75l118.042,-68.167l116.208,67.042l-116.083,67l-120.292,69.458Zm-1.083,140.792l-0,135.291l-116.167,-67.041l0,-137.709l0.083,-133.666l115.792,66.833c0.083,0.042 0.208,0.083 0.333,0.125l-0.041,136.167Zm-236.5,-138.542c0.041,-0.125 0.083,-0.25 0.083,-0.417l-0.042,-61.041l0,-0.959c0,-0.041 0.042,-0.083 0.042,-0.125l0,-71.541l115.792,66.875l0.375,0.208l-0.084,134.042l-116.166,-67.042Zm-120.25,-69.458l-0,-0.417c-0,-0.75 -0.417,-1.417 -1.042,-1.792l-0.375,-0.208l0,-134.083l54.958,31.708l53.25,30.708l7.959,4.584l-0,0.416c-0,0.709 0.375,1.375 0.958,1.75c0,0 0,0.042 0.042,0.042l0.042,0.042l0.333,0.166l-0,134.167l-116.125,-67.083Zm114.75,348.875l-0,134.125l-117.208,-67.667l-117.876,-68.042c0,-0.125 0.084,-0.25 0.084,-0.375l-0,-133.666l115.708,66.791l119.292,68.834Zm-359.958,66.458l-116,67.042l-0,-134.084l118.041,-68.25l1.25,-0.666c0.042,-0 0.125,-0.042 0.167,-0.084c0.041,0 0.083,0 0.125,-0.041c0.041,-0 0.083,-0.084 0.125,-0.125l117.083,-67.584l0,134.209c-0.167,0.041 -0.333,0.041 -0.458,0.125l-120.333,69.458Zm-356.542,-69.458c-0.125,-0.084 -0.292,-0.042 -0.417,-0.084l-0,-134.25l117.083,67.625c0.042,0 0.084,0.084 0.125,0.125c0.042,0 0.125,0 0.167,0.042l1.292,0.708l118.125,68.25l-0,134.084l-116.084,-67.042l-120.291,-69.458Zm-122.458,69.458l-117.172,67.667l0,-134.125l119.255,-68.834l115.791,-66.791l0,133.666c0,0.125 0.042,0.25 0.084,0.375l-117.958,68.042Zm-118.584,-348.25l-0,-60.125l0.042,-0.042l-0,-74l0.37,-0.166l0,-0.042c0.088,-0.042 0.13,-0.083 0.171,-0.125c0.126,-0.125 0.251,-0.208 0.329,-0.292c0.042,-0.083 0.13,-0.125 0.171,-0.208c0,-0.042 0.042,-0.083 0.084,-0.125c-0,-0 -0,-0.042 0.041,-0.083c0.042,-0.084 0.084,-0.167 0.084,-0.292c0.083,-0.125 0.083,-0.25 0.083,-0.417c0.037,0 0.037,-0.041 0.037,-0.083c0,-0.042 0.042,-0.083 0.042,-0.167l0,-0.416l61.213,-35.292l54.916,-31.708l0,134.083l-0.333,0.208c-0.667,0.375 -1.042,1.042 -1.042,1.792l0,0.458l-116.208,67.042Zm-120.287,69.458l-0,-134.083l0.096,-0.083l0.041,-0l0.038,-0.042l0.016,-0l0.179,-0.083l-0.008,-0l115.758,-66.875l0,2.041l0,-0.041l0,131.666c0,0.167 0.084,0.292 0.084,0.417l-116.204,67.083Zm-4.163,-131.666l0,271.375l-116.146,67.041l0,-271.458c0.117,-0.042 0.242,-0.083 0.35,-0.125l115.796,-66.833Zm-237.487,-7.125l-116.075,-67l116.141,-67.042l118.121,68.167l1.096,0.666l0.004,0c0.054,0.042 0.121,0.042 0.175,0.084l0.021,-0l-0,0.041c0.046,0 0.067,0.084 0.112,0.084c0.038,0.041 0.079,0.041 0.117,0.041c0.025,0 0.046,0.042 0.075,0.042c0.025,0.042 0.038,0.042 0.067,0.083l0.083,0l116.933,67.5l-116.258,67.084c-0.108,-0.084 -0.179,-0.209 -0.308,-0.292l-120.304,-69.458Zm-356.688,-482.5l116.142,-67.042l119.262,68.875l115.742,66.875l-115.792,66.792c-0.121,0.083 -0.2,0.208 -0.3,0.291l-117.87,-68.125l-117.184,-67.666Zm355.375,-67.875c0.096,0.083 0.167,0.166 0.283,0.25l54.063,31.166l0.008,0c0.013,0.042 0.021,0.042 0.034,0.042l61.725,35.667l-115.83,66.791l-0.037,0.042l-0.333,0.208l-116.101,-67.083l116.188,-67.083Zm120.308,-69.417l0.367,0.208c0.642,0.375 1.438,0.375 2.079,0l0.363,-0.208l116.104,67.042l-54.888,31.75l-0.079,-0l-1.421,0.833l-59.716,34.5l-0.392,-0.25c-0.658,-0.375 -1.471,-0.375 -2.116,0.042l-0.321,0.166l-30.734,-17.708l-0.625,-0.375l-0.004,0l-3.083,-1.792l-29.35,-16.916l-52.396,-30.25l116.212,-67.042Zm-116.137,-71.833l52.183,-30.167l0.521,-0.292l0.004,0l63.425,-36.625l0.367,0.209c0.646,0.375 1.442,0.375 2.088,-0l0.358,-0.209l2.596,1.5l0.004,0l4.558,2.625l53.271,30.792l55.629,32.125l-77.571,44.833l-3.021,1.75l-0.004,0l-0.704,0.417l-34.758,20.083l-0.392,-0.25c-0.658,-0.375 -1.462,-0.375 -2.112,0.042l-0.342,0.208l-116.1,-67.041Zm-4.225,-136.542l0.367,0.208l43.87,25.292l71.917,41.542l-61.333,35.416c-0.033,0.042 -0.05,0.084 -0.084,0.084l-0.004,-0l-0.183,0.125l-54.213,31.208c-0.112,0.083 -0.187,0.167 -0.283,0.25l-116.141,-67.042l116.087,-67.083Zm-239.179,133.292l-116.142,-67.084l117.184,-67.583l117.908,-68.125c0.087,0.042 0.154,0.167 0.258,0.208l115.8,66.875l-115.746,66.875l-119.262,68.834Zm240.541,-549.542l120.309,-69.458c0.112,-0.084 0.175,-0.209 0.275,-0.292l116.266,67.083l-116.966,67.542l-0.008,-0c-0.005,-0 -0.005,-0 -0.005,0.042l-0.108,-0c-0.063,0.041 -0.092,0.083 -0.15,0.125c-0.033,0.041 -0.062,0.041 -0.096,0.083l-0.037,-0l-1.23,0.708l-0.025,0l-118.154,68.209l-116.141,-67.042l116.07,-67Zm121.346,-74.042l0,-271.458l116.142,67.042l0.004,137.75l0,133.625l-115.796,-66.834c-0.108,-0.041 -0.233,-0.083 -0.35,-0.125Zm236.513,2.375c-0,0.125 -0.084,0.209 -0.084,0.334l0,133.75l-115.758,-66.875l-0.358,-0.209l-0.004,-134.083l116.204,67.083Zm120.291,69.417l0,0.458c0,0.75 0.375,1.417 1.042,1.792l0.333,0.208l0,134.084l-55.712,-32.125l-0.042,-0.042l-60.375,-34.833l0,-0.417c0,-0.125 -0.042,-0.208 -0.079,-0.292c0,-0.125 0,-0.25 -0.083,-0.375c-0,-0.083 -0,-0.125 -0.042,-0.166c0,-0.084 -0.042,-0.125 -0.042,-0.167c-0.041,-0.042 -0.083,-0.083 -0.125,-0.167c-0.041,-0.041 -0.129,-0.125 -0.171,-0.208c-0.078,-0.083 -0.12,-0.125 -0.203,-0.208c-0.042,-0 -0.042,-0.042 -0.084,-0.084c-0.042,-0.041 -0.083,-0.041 -0.125,-0.083c-0.046,-0 -0.046,-0.042 -0.088,-0.083l-0.37,-0.209l-0,-73.958c-0,-0.042 -0.042,-0.042 -0.042,-0.083l-0,-60.084l116.208,67.042Zm-114.796,-348.917l0,-134.083l117.172,67.625l117.958,68.083c-0.042,0.125 -0.084,0.25 -0.084,0.375l0,133.709l-115.791,-66.834l-119.255,-68.875Zm359.921,-66.458l116.084,-66.958l-0,134.083l-118.167,68.208l-0.041,0l-1.001,0.625c-0.124,0.042 -0.25,0.084 -0.333,0.167l-0.042,-0l-0.041,0.042c-0.042,0.041 -0.125,0.083 -0.167,0.125l-117,67.541l-0,-134.25c0.125,-0.041 0.292,-0.041 0.417,-0.125l120.291,-69.458Zm356.584,69.458c0.125,0.084 0.291,0.084 0.458,0.125l0,134.25l-117.041,-67.583c-0.042,-0.042 -0.126,-0.083 -0.167,-0.125l-0.042,-0c-0.125,-0.083 -0.25,-0.125 -0.375,-0.167l-1.083,-0.625l-118.083,-68.208l-0,-134.083l116,66.958l120.333,69.458Zm122.417,-69.458l117.208,-67.625l-0,134.083l-119.292,68.875l-115.708,66.834l-0,-133.709c-0,-0.125 -0.084,-0.25 -0.084,-0.416l117.876,-68.042Zm118.583,348.333l-0,134.125l-0.333,0.209c-0.667,0.375 -1.042,1.083 -1.042,1.791l-0,0.417l-32.75,18.917l-0.042,-0l-1.125,0.666l-26.5,15.292l-55.75,32.167l0,-134.084l0.375,-0.208c0.625,-0.375 1.042,-1.042 1.042,-1.792l-0,-0.416l116.125,-67.084Zm120.291,-69.458l0.084,134.083l-0.375,0.209l-115.792,66.875l0,-71.542c0,-0.042 -0.042,-0.083 -0.042,-0.125l0,-1l0.042,-61.083c0,-0.125 -0.042,-0.25 -0.042,-0.375l116.125,-67.042Zm4.167,-139.708l116.167,-67.042l-0,135.292l0.041,136.166c-0.125,0.042 -0.25,0.084 -0.333,0.125l-115.792,66.834l-0.083,-133.667l0,-137.708Zm237.542,278.458l116.083,67l-116.208,67.042l-118.084,-68.209l-0.041,0l-1.209,-0.666c0,-0.042 -0.041,-0.042 -0.041,-0.042c-0,-0 -0.042,-0 -0.042,-0.042c-0.041,0 -0.083,-0.083 -0.125,-0.125l-0.083,0c-0.042,-0.041 -0.084,-0.041 -0.125,-0.083l-116.958,-67.542l116.25,-67.083c0.124,0.083 0.166,0.208 0.291,0.292l120.292,69.458Zm356.708,482.458l-116.167,67.084l-119.25,-68.834l-115.75,-66.875l115.75,-66.875c0.125,-0.041 0.167,-0.125 0.251,-0.208l117.958,68.125l117.208,67.583Zm-355.458,67.917c-0.083,-0.083 -0.167,-0.167 -0.25,-0.25l-54,-31.125l-0.042,0l0,-0.042l-61.75,-35.666l44.417,-25.625l1.792,-1.042l1.208,-0.708l68.375,-39.459l0.375,-0.208l116.083,67.042l-116.208,67.083Zm-120.209,69.458l-0.416,-0.25c-0.667,-0.375 -1.459,-0.375 -2.125,0.042l-0.334,0.167l-44.708,-25.792l-71.375,-41.25l54.834,-31.625l0.874,-0.5l60.417,-34.917l0.333,0.209c0.667,0.375 1.459,0.375 2.084,-0l0.375,-0.209l15.666,9.042l48.167,27.833l0.833,0.459l51.459,29.708l-116.084,67.083Zm116.125,71.834l-51.958,30l-10.875,6.291l-2.083,1.209l-1.542,0.875l-49.708,28.708l-0.375,-0.25c-0.667,-0.375 -1.459,-0.375 -2.125,0.042l-0.334,0.208l-58.249,-33.667l-2.876,-1.666l-0.041,-0l-54.917,-31.75l93.542,-54l-0,-0.042l22.583,-13l0.333,0.208c0.667,0.375 1.459,0.375 2.084,0l0.375,-0.208l116.166,67.042Zm4.209,136.541l-0.375,-0.25l-115.792,-66.791l62.125,-35.875l0,-0.042l53.667,-30.958c0.083,-0.084 0.167,-0.167 0.25,-0.25l116.25,67.083l-116.125,67.083Zm239.166,-133.333l116.167,67.042l-117.208,67.666l-117.917,68.125c-0.083,-0.083 -0.167,-0.208 -0.292,-0.291l-115.75,-66.792l115.75,-66.875l119.25,-68.875Zm-238.583,274.25c0.042,-0.042 -0,-0.083 -0,-0.125c0.042,-0.125 0.083,-0.167 0.083,-0.25c0,-0.083 -0.041,-0.083 -0.041,-0.167l-0,-135.208l116.25,67.083c-0.042,0.167 -0.125,0.292 -0.125,0.459l-0,138.916l0.041,133.959l-116.208,-67.042l-0,-137.625Zm-120.5,204.833l-0.083,-134.416l116.416,-67.167l0,134.375l-116.333,67.208Zm-361,-68.541l0,-134.167l116.167,67l-0,134.125l-59.125,-34.125c-0.042,-0.042 -0.084,-0.042 -0.125,-0.042l-56.542,-32.666c-0.125,-0.084 -0.25,-0.084 -0.375,-0.125Zm-55.25,247.458l-1.167,-0.667l-6.958,-4l-0,-0.041l-0.917,-0.5l-54.625,-31.542l0,-0.417c0,-0.75 -0.374,-1.416 -1.041,-1.791l-0.333,-0.209l-0,-134.083l92.291,53.25l2,1.125l21.834,12.625l-0,0.417c-0,0.75 0.416,1.458 1.041,1.833l0.375,0.167l0.042,134.166l-52.542,-30.333Zm-665.792,169.208l0,-134.125c0.125,-0.041 0.251,-0.083 0.334,-0.125l53.125,-30.708l1.042,-0.583l0.041,-0.042l0.042,-0l0.666,-0.375l60.917,-35.167l0,96.5l-0.042,37.209l0,0.458l-116.125,66.958Zm0.042,-273.041l0.167,-0.084l0.042,0l-0,-0.041l0.041,-0l0.083,-0.084l0.042,0c0.083,-0.041 0.125,-0.125 0.167,-0.166c0.125,-0.084 0.25,-0.167 0.333,-0.292c0.042,-0.042 0.042,-0.042 0.083,-0.083c0.042,-0.042 0.042,-0.084 0.084,-0.125c0.041,-0.084 0.083,-0.125 0.083,-0.167c0.042,-0.125 0.084,-0.208 0.125,-0.292c0.042,-0.125 0.084,-0.291 0.084,-0.416c-0,-0.042 0.041,-0.084 0.041,-0.167l-0,-0.5l116.167,-67l-0,134.083l-0.375,0.209c-0.625,0.375 -1.042,1.041 -1.042,1.791l0,0.417l-30.958,17.875l-1.708,1l-31.001,17.875l-52.5,30.292l0.042,-134.125Zm-59.666,-110.834c-0.042,0 -0.126,0 -0.167,0.042l-59.088,34.083l0,-134.083l116.129,-67l0,134.167c-0.083,0.041 -0.208,0.083 -0.333,0.125l-56.541,32.666Zm-181.73,106.5c-0.108,-0.083 -0.179,-0.208 -0.304,-0.291l-115.716,-66.834l116.07,-67.041l116.138,67.083l-116.188,67.083Zm-238.767,-272.333l116.471,67.167l-0.049,134.416l-116.422,-67.208l0,-134.375Zm239.571,-278.083c0.113,-0.084 0.184,-0.167 0.28,-0.25l116.229,67.083l-116.109,67.083l-0.4,-0.25l-115.737,-66.791l59.054,-34.125l56.683,-32.75Zm-123.149,-623.834l0.049,134.375l-116.471,67.25l0,-134.416l116.422,-67.209Zm360.949,202.75l-116.129,-67l0,-134.125l19.379,11.209l1.751,1l37.162,21.458l57.504,33.167c0.125,0.041 0.25,0.083 0.333,0.125l0,134.166Zm55.25,-381.625l50.542,29.167l1.708,0.958l11.417,6.625l0,0.417c0,0.75 0.417,1.417 1.042,1.792l0.375,0.208l-0,134.083l-74.459,-42.958l-41.708,-24.042l-0,-0.416c-0,-0.084 -0.041,-0.125 -0.041,-0.209l-0,-0.041c-0,-0.125 -0.042,-0.292 -0.084,-0.417c-0.041,-0.083 -0.041,-0.167 -0.083,-0.208c-0,-0.042 -0.042,-0.125 -0.042,-0.167c-0.042,-0.042 -0.083,-0.083 -0.083,-0.125c-0.042,-0.042 -0.125,-0.125 -0.167,-0.167c-0.083,-0.125 -0.208,-0.208 -0.292,-0.291c-0.041,-0.042 -0.083,-0.084 -0.125,-0.125l-0.041,-0c-0.042,-0.042 -0.042,-0.084 -0.084,-0.084l-0.333,-0.208l-0.042,-134.125l52.5,30.333Zm665.834,-35.083c-0.125,0.042 -0.292,0.042 -0.417,0.125l-54.125,31.292c-0.041,-0 -0.041,-0 -0.083,0.041l-2.792,1.584l-14.75,8.5l-6.625,3.875l-37.417,21.541l0.042,-24.208l0.042,-109.5l-0,-0.417l116.125,-67.041l-0,134.208Zm-0.042,138.875l-0.375,0.208c-0.625,0.375 -1.041,1.042 -1.041,1.792l-0,0.417l-73.584,42.5l-2.333,1.333l-40.208,23.208l-0,-134.083l0.333,-0.208c0.041,-0 0.041,-0.042 0.041,-0.042c0.626,-0.375 1,-1.042 1,-1.75l0,-0.417l3.792,-2.166l59.042,-34.125l0.833,-0.459l52.542,-30.375l-0.042,134.167Zm480.083,276.708l-116.416,-67.208l0.083,-134.417l116.333,67.209l0,134.416Zm-68.458,180.917l-1.208,0.708l-46.417,26.792l0,-134.125l15.042,-8.667l101.041,-58.333l0,133.625c0,0.167 0.084,0.25 0.125,0.375l-66.833,38.625l-1.75,1Zm-114.375,274.042l49.209,28.416l2.916,1.667l6.958,4.042l-115.791,66.791l-0.042,0.042l-0.333,0.208l-116.125,-67.083l14.667,-8.458l2.874,-1.667l98.667,-56.958c0.125,0.083 0.167,0.166 0.292,0.25l56.708,32.75Zm64.625,308.708l-116.083,-67.042l116.083,-67.041l116.208,67.083l-116.208,67Zm-477.958,-138l-0.084,-132.5l115.876,66.875l119.208,68.875l-0,132.458l-115.792,-66.833l-119.208,-68.875Zm-1.084,277.25l-119.25,-68.875l0,-137.625l-0.041,-119.375l-0,-14.417l115.792,66.875l119.25,68.875l-0,271.375l-18.125,-10.458l-1.625,-0.958l-0.042,-0l-0.917,-0.542l-95.042,-54.875Zm-239.583,144.333l116.125,67.042l0,17l0.042,117.167l-116.167,-67.084l0,-134.125Zm-120.917,201.209l0,-49.417l0.042,-84.75l116.125,-67.083l0,134.166l-116.167,67.084Zm-359.504,-619.542l119.213,-68.875l115.833,-66.875l-0.042,132.5l-119.208,68.875l-115.796,66.833l0,-132.458Zm-242.971,0.667l116.096,67.041l-116.145,67.042l-116.184,-67.042l116.233,-67.041Zm-2.137,-137.709l0.004,134.125l-116.121,67l0.004,-133.625c0,-0.166 -0.079,-0.291 -0.112,-0.416l110.033,-63.5l6.192,-3.584Zm120.312,67.5l0,133.625l-116.116,-67.041l0.004,-134.084l116.221,67.084c-0.029,0.125 -0.109,0.25 -0.109,0.416Zm123.509,-67.708l119.166,-68.833l114.792,66.25l-115.792,66.791l-119.291,68.875l-114.692,-66.208l115.817,-66.875Zm-177.717,-246.708c-0.025,-0 -0.041,-0.042 -0.067,-0.042l-58.329,-33.708l115.713,-66.875l0.383,-0.167l116.142,67.042l-33.75,19.5l-1.292,0.75l-81.187,46.833c-0.096,-0.083 -0.167,-0.167 -0.28,-0.25l-56.512,-32.583l-0.821,-0.5Zm-182.3,-103.625c0.008,-0.042 0.004,-0.084 0.008,-0.125c0.013,-0.125 0.075,-0.209 0.075,-0.292l-0.004,-133.625l66.029,38.083l1.705,1l48.387,27.917l-0.004,134.125l-73.333,-42.333l-42.863,-24.75Zm118.284,-204.792l116.191,67.125l-116.191,67l-46.609,-26.875l-1.779,-1.042l-0.004,0l-7.309,-4.208l-60.475,-34.917l116.176,-67.083Zm478.024,138.083l0.042,132.5l-115.833,-66.875l-119.213,-68.875l0,-132.458l115.796,66.833l119.208,68.875Zm124.542,-488.625l-0.042,-82.666l0,-51.5l116.167,67.083l0,134.167l-116.125,-67.084Zm237.042,-134.166l-0.042,117.166l0,17l-116.125,67.042l0,-134.125l116.167,-67.083Zm359.5,619.541l-119.208,68.875l-115.876,66.875l0.084,-132.5l119.208,-68.875l115.792,-66.833l-0,132.458Zm2.416,553.375l-119.291,-68.875l-115.833,-66.791l114.791,-66.25l119.208,68.833l115.792,66.875l-114.667,66.208Zm-243.041,280.75l-0,133.709l-115.75,-66.792l-0.375,-0.25l-0,-134.083l116.208,67.083c-0.041,0.125 -0.083,0.208 -0.083,0.333Zm-114.75,225.792l-0,-16.958l116.125,-67.084l0.041,25.792l0,108.375c-0.125,0.042 -0.291,0.042 -0.416,0.125l-115.709,66.833l-0.041,-117.083Zm-2.417,-154.458c0.084,-0.084 0.167,-0.209 0.25,-0.292l116.208,67.042l-89.166,51.541l-1,0.584l-25.959,15l-116.125,-67.084l115.792,-66.791Zm-240.833,133.875l-23.417,-13.542l-0.916,-0.5l-91.834,-53.042l116.25,-67.083c0.084,0.083 0.125,0.208 0.25,0.292l115.75,66.791l-116.083,67.084Zm-118.292,70.75l0.042,-37.709l-0,-96.5l116.125,67.084l-0,134.041l-115.75,-66.833c-0.125,-0.083 -0.25,-0.042 -0.417,-0.083Zm105.959,-336.709l0.958,-0.541l10.666,-6.167l0,134.125l-0.375,0.25l-115.75,66.792l0,-133.709c0,-0.125 -0.041,-0.208 -0.083,-0.333l104.584,-60.417Zm-109.042,58.167l-115.792,66.833l-0,-271.375l82.667,-47.75l0.958,-0.541l35.625,-20.542l38.708,-22.375l0.834,-0.5l76.25,-44l-0,271.375l-12.292,7.125l-0.167,0.083l-106.791,61.667Zm-240.25,-139.875l-116.467,-67.25l0,-134.5l116.467,67.25l-0,134.5Zm-0,138.833l-116.134,-67.041l0,-134.042l115.717,66.792c0.125,0.083 0.292,0.083 0.417,0.125l-0,134.166Zm-236.442,-134.083l116.142,-67.083l-0,134.083l-116.192,67.125l0.05,-134.125Zm477.442,-415.25l0.375,0.208c0.625,0.375 1.416,0.375 2.083,0l0.333,-0.208l115.042,66.417l-116.417,67.208c-0.333,-0 -0.708,0.083 -1.041,0.25l-0.417,0.25l-116.166,-67.042l116.208,-67.083Zm-239.25,-277l119.291,68.792l115.792,66.875l-114.75,66.25l-119.25,-68.834l-115.775,-66.875l114.692,-66.208Zm162.333,-322.167l76.167,44l57.291,33.084l1.084,0.625l60.875,35.166l-0,271.375l-31.5,-18.166l-0.875,-0.5l-4.75,-2.75l-78.667,-45.459l-82.792,-47.791l-1.041,-0.584l-35.417,-20.458l-0,-271.375l39.625,22.833Zm80.708,41.417l0,-133.708l115.75,66.791l0.375,0.25l0,134.125l-59.333,-34.25l-0.875,-0.541l-4.667,-2.667l-51.333,-29.667c0.042,-0.125 0.083,-0.208 0.083,-0.333Zm114.709,-342.917l-0,134.084l-116.125,67.041l-0,-98.083l-0.042,-36.083c0.167,-0.042 0.292,-0.042 0.417,-0.125l115.75,-66.834Zm2.458,271.584c-0.125,0.083 -0.166,0.208 -0.25,0.291l-116.25,-67.083l93.417,-53.958l0.042,-0l0.874,-0.542l21.834,-12.583l116.083,67.041l-115.75,66.834Zm240.833,-133.875l116.167,67.083l-116.25,67.083c-0.083,-0.083 -0.166,-0.208 -0.25,-0.291l-115.792,-66.834l116.125,-67.041Zm118.25,37.583l-0.041,25.833l-116.125,-67.041l-0,-16.959l0.041,-117.083l115.709,66.792c0.125,0.083 0.291,0.083 0.416,0.125l0,108.333Zm-117.541,235.042l-0,-134.084l0.375,-0.25l115.75,-66.791l-0,133.708c-0,0.125 0.042,0.208 0.083,0.333l-116.208,67.084Zm597.625,346.208l-116.167,-67.125c-0,-0.125 0.083,-0.208 0.083,-0.375l0,-133.625l116.084,67l-0,134.125Zm-119.542,69.875l-75.292,-43.458l-40.874,-23.584l116.125,-67.083l0.333,0.208l115.75,66.834l-58.334,33.708c-0.041,-0 -0.041,0.042 -0.083,0.083l-57.333,33.042c-0.125,0.083 -0.208,0.167 -0.292,0.25Zm-358.5,69.25c-0.667,-0.417 -1.5,-0.417 -2.167,-0l-0.333,0.167l-39.5,-22.792l-1.292,-0.75l-74.249,-42.875l116.458,-67.208c0.333,-0 0.708,-0.084 1,-0.25l0.375,-0.209l116.166,67.042l-116.166,67.083l-0.292,-0.208Zm0.292,139.125l-0.334,-0.208c-0.333,-0.209 -0.708,-0.292 -1.083,-0.292l-116.375,-67.208l87.584,-50.584l1.874,-1.083l25.542,-14.75l0.375,0.208c0.625,0.375 1.417,0.375 2.083,0l0.334,-0.208l55.291,31.917l60.917,35.166l-116.208,67.042Zm-362.459,68.708l-0.333,0.209c-0.667,0.375 -1.083,1.083 -1.083,1.833l-0,0.375l-79.167,45.75l-1,0.583l-36,20.792l0.042,-134.167l0.416,-0.25c0.292,-0.166 0.542,-0.416 0.709,-0.75l116.416,-67.208l0,132.833Zm-35.875,-432.833l34.459,19.917l-0,0.416c-0,0.75 0.416,1.417 1.041,1.792l0.375,0.208l0,132.792l-116.5,-67.25c-0.166,-0.25 -0.374,-0.5 -0.625,-0.667l-0.416,-0.208l-0.042,-134.167l80.708,46.584l1,0.583Zm639.376,-324.167l56.041,32.375l1.167,0.667l58.917,34.042l-0,134.041l-115.751,-66.833c-0.125,-0.042 -0.25,-0.042 -0.374,-0.083l-0,-134.209Zm236.5,-0.041l-0.084,134.166l-116.125,67.042l0,-134.125l2.125,-1.208l114.084,-65.875Zm-236.5,138.916l116.458,67.25l-0,134.5l-116.458,-67.25l-0,-134.5Zm-360.917,207.625l0.291,-0.166l0.042,-0.042c0.209,-0.125 0.333,-0.292 0.458,-0.458c0.084,-0.125 0.209,-0.167 0.292,-0.292c0.167,-0.292 0.292,-0.667 0.292,-1.042l-0,-0.416l78,-45.042l38.208,-22.083l-0.083,134.208l-0.375,0.208c-0.25,0.167 -0.458,0.417 -0.625,0.667l-116.5,67.25l-0,-132.792Zm-238.417,824.875l-0,-271.375l114.75,-66.291l-0.042,133.75l0,137.666l-114.708,66.25Zm-1.417,-275.375l0,-50.291l0.042,-83.875l0.333,-0.209l0.042,0l-0,-0.041l0.083,-0l0,-0.042c0.042,-0 0.084,-0.083 0.125,-0.125c0.084,-0.083 0.167,-0.167 0.292,-0.25c0.042,-0.083 0.083,-0.125 0.167,-0.208c-0,-0.042 0.041,-0.084 0.041,-0.125c0.042,-0.042 0.042,-0.084 0.084,-0.125c0.042,-0.084 0.042,-0.167 0.083,-0.209c0.042,-0.166 0.042,-0.291 0.084,-0.416l-0,-0.042c-0,-0.083 0.041,-0.167 0.041,-0.208l-0,-0.417l35.167,-20.292l1.416,-0.833l78.459,-45.25l-0,134.417c-0.167,0.333 -0.292,0.666 -0.292,1.041l0,0.417l-116.167,67.083Zm116.459,-619.916l-0,134.416l-115.042,-66.416l-0,-0.459c-0.041,-0.041 -0.041,-0.083 -0.041,-0.125c-0.042,-0.166 -0.042,-0.291 -0.084,-0.416c-0.041,-0.125 -0.083,-0.209 -0.125,-0.292c-0.042,-0.083 -0.083,-0.167 -0.125,-0.208c0,-0.042 0,-0.084 -0.042,-0.125c-0.041,-0 -0.083,-0.042 -0.083,-0.084c-0.125,-0.083 -0.208,-0.208 -0.333,-0.291c-0.042,-0 -0.042,-0.042 -0.084,-0.084c-0.041,0 -0.083,-0.083 -0.125,-0.125l-0.333,-0.166l-0.042,-81.75l0,-52.417l116.167,67.083l0,0.417c0,0.375 0.125,0.708 0.292,1.042Zm120.625,-68.542l-0.042,117.333l0,16.834l-0.333,0.166c-0.667,0.375 -1.042,1.084 -1.042,1.834l0,0.375l-102.917,59.416l-2.166,1.25l-9.958,5.75l-0,-134.416c0.166,-0.334 0.291,-0.667 0.291,-1.042l0,-0.417l116.167,-67.083Zm-116.458,207.792l14.208,-8.209l100.833,-58.208l0,132.833l-115.041,66.417l-0,-132.833Zm115.041,339.291l-71.25,-41.125l-43.791,-25.291l-0,-132.834l115.041,66.417l0,132.833Zm-119.208,-66.416l-81.959,47.291l-33.083,19.084l-0,-132.792l115.042,-66.417l-0,132.834Zm-115.042,-206.459l-0,-132.833l115.042,66.417l-0,132.833l-115.042,-66.417Zm-36,23.167l33.917,-19.583l115.042,66.416l-115.001,66.417l-115.041,-66.375l81.083,-46.875Zm271.667,391.083l-116.167,-67.083l0,-0.417c0,-0.375 -0.125,-0.708 -0.291,-1.041l-0,-134.417l41.708,24.083l73.333,42.292l0,0.417c0,0.75 0.375,1.416 1.042,1.791l0.333,0.209l0,16.833l0.042,117.333Zm78.25,-365.833l37.416,21.583l-25.333,14.667l-0.041,-0l-2.084,1.208l-87.583,50.542l-115,-66.417l115,-66.416l74.791,43.166l2.834,1.667Zm-194.417,-531.792l114.75,-66.208l0,271.375l-114.75,66.292l0,-271.459Zm-4.792,0l0,137.667l0.042,133.792l-114.75,-66.292l-0,-271.375l114.708,66.208Zm4.792,1106.75l0,-271.416l114.75,66.291l0,271.375l-114.75,-66.25Zm235.292,-413.75c0.208,0.334 0.458,0.584 0.75,0.75l0.375,0.25l0.083,134.167l-116.208,-67.125l-0,-0.375c-0,-0.75 -0.417,-1.458 -1.042,-1.833l-0.333,-0.167l-0,-132.875l116.375,67.208Zm241.666,-281.125l-119.208,68.834l-114.791,-66.25l115.833,-66.875l119.291,-68.792l114.667,66.208l-115.792,66.875Zm-479.374,-549.75l116.499,67.25l-116.499,67.209l-116.417,-67.209l116.417,-67.25Zm-598.634,480.125l0,-134.5l116.467,-67.25l-0,134.5l-116.467,67.25Zm-3.833,-139.458l-116.142,-67.042l-0.05,-134.166l116.192,67.125l-0,134.083Zm119.883,-66.875l-115.717,66.833l0,-134.041l75.675,-43.75l40.459,-23.334l-0,134.209c-0.125,0.041 -0.292,0.041 -0.417,0.083Zm192.792,387l-1.709,-1l-65.791,-38l116.125,-67.042l0.416,0.209c0.334,0.166 0.667,0.25 1,0.25l116.417,67.208l-31.833,18.375l-83.167,48.042l-0.333,-0.167c-0.667,-0.417 -1.458,-0.417 -2.125,-0.042l-0.375,0.25l-48,-27.708l-0.625,-0.375Zm289.792,721.75l-116.417,-67.25l116.417,-67.208l116.499,67.208l-116.499,67.25Zm598.708,-480.125l-0,134.5l-116.458,67.25l-0,-134.5l116.458,-67.25Zm3.833,273.5l0,-134.083l116.125,67.083l0.084,134.125l-116.209,-67.125Zm-119.917,-67.208l115.751,-66.792l-0,134.042l-116.125,67.041l-0,-134.166c0.124,-0.042 0.249,-0.042 0.374,-0.125Zm118.25,-1039.67l115.709,66.833l-114,65.834l-2.083,1.208l-116.125,-67.042l116.208,-67.083c0.083,0.083 0.166,0.208 0.291,0.25Zm-314.583,43.875l2.667,-1.542l68.792,-39.708l-0,271.375l-82.459,47.625l-34.583,19.958l-2.208,1.292l-39.876,23l-75.916,43.875l-0,-19.167l0.041,-114.583l0,-137.708l119.25,-68.834l44.292,-25.583Zm-886.896,-44.042c0.042,-0.041 0.092,-0.041 0.13,-0.083l116.183,67.083l-116.13,67.042l-116.091,-67.042l115.717,-66.833c0.07,-0.042 0.104,-0.083 0.171,-0.167l0.02,0Zm-118.308,480.667l-0.004,-134.167l116.116,-66.958l0,133.625c0,0.125 0.071,0.25 0.096,0.375l-116.208,67.125Zm1319.66,764c-0.041,0.042 -0.041,0.083 -0.083,0.083c-0.042,0.042 -0.125,0.084 -0.166,0.125l-116.125,-67.083l116.125,-67.083l116.083,67.041l-115.709,66.834c-0.041,-0 -0.083,0.083 -0.125,0.083Zm118.209,-480.542l-0,134.084l-116.084,67.041l0,-133.625c0,-0.166 -0.083,-0.291 -0.125,-0.458l116.209,-67.042Zm120.291,67.5l0,133.625l-116.083,-67l0,-134.125l116.208,67.042c-0.041,0.167 -0.125,0.292 -0.125,0.458Zm-123.75,-209.25l-20.5,11.834l-2,1.166l-93.291,53.834l-101.042,58.375l-0.166,0.083l-18.042,10.417l-49.459,-28.542l-2.166,-1.292l-0.042,0l-67.583,-39.041l-62.625,-36.125l-6.542,-3.75l-46.666,-26.959l115.833,-66.833l51.416,-29.667l1.376,-0.791l66.499,-38.375l41.542,24l0.042,-0l77.625,44.833l73.125,42.208l42.666,24.625Zm26.834,-291.708l-21.25,12.292l-116.167,-67.042l116.125,-67.125l116.208,67.125l-94.916,54.75Zm-1424.39,272.458l0.013,0l0.629,-0.375l81.763,-47.208l84.816,-49l1.292,-0.708l33.125,-19.125l47.5,27.416l1.167,0.667l70.583,40.75l68.666,39.625l0.625,0.375l46.542,26.875l-115.792,66.792l-119.291,68.875l-119.259,-68.875l-115.741,-66.792l33.362,-19.292Zm1641.72,-259.041l-116.208,67.166l-0,-135.291c-0,-0.042 0.041,-0.125 0.041,-0.209c0,-0.041 -0.041,-0.083 -0.041,-0.125c-0,-0.041 -0,-0.041 -0.042,-0.083l-0,-137.708l116.208,-67.084l-0.041,134.042l-0,138.917c-0,0.166 0.083,0.25 0.083,0.375Zm-597.375,-205l57.417,-33.167l0.042,-0l51.833,-29.917l6.5,-3.75l-0,134.125l-116.167,67l0,-134.166c0.125,-0.042 0.25,-0.042 0.375,-0.125Zm-362.25,-485.792l116.417,67.208l-116.417,67.25l-116.458,-67.25l116.458,-67.208Zm-243.042,136.208l0,0.417l0.042,38.792l0,94.916l-28.292,-16.291l-0.958,-0.542l-31.792,-18.375l-0.541,-0.292c-0.042,-0.041 -0.083,-0.041 -0.125,-0.083l-54.125,-31.25c-0.083,-0.042 -0.209,-0.083 -0.334,-0.125l0,-134.167l116.125,67Zm-716.554,554.209l0,-272.959l116.142,67.084l-0,137.958c-0,0.042 -0.029,0.083 -0.029,0.083c-0,0.042 0.029,0.084 0.029,0.125l-0,135.25l-116.246,-67.166c0.029,-0.125 0.104,-0.25 0.104,-0.375Zm0,830.25l0,-272.875c0,-0.167 -0.083,-0.292 -0.116,-0.459l116.258,-67.083l-0,135.25c-0,0.042 -0.029,0.042 -0.029,0.083c-0,0.042 0.029,0.084 0.029,0.125l-0,137.917l-116.142,67.042Zm959.596,417.541l-116.417,-67.25l116.417,-67.208l116.375,67.208l-116.375,67.25Zm359.167,-69.208l-116.125,-67l-0,-0.458l-0.042,-105.167l0,-4.417l-0.042,-24.125l57.334,33.084l0.458,0.25l0.917,0.541l2.875,1.667l1.375,0.792l52.833,30.541c0.125,0.084 0.292,0.084 0.417,0.125l-0,134.167Zm603.541,-342.917c0.042,0 0.042,-0.041 0.084,-0.083c0.083,-0.042 0.167,-0.083 0.208,-0.167c0.083,-0.041 0.167,-0.125 0.25,-0.208c0.042,-0.042 0.083,-0.125 0.125,-0.208c0.042,-0.042 0.084,-0.042 0.084,-0.084c0.041,-0.041 0.041,-0.083 0.041,-0.125c0.042,-0.083 0.083,-0.166 0.125,-0.25c0.042,-0.083 0.042,-0.166 0.083,-0.25c0,-0.125 0,-0.208 0.042,-0.291l0,-0.125l-0.042,-137.584l0,-137.708l119.292,-68.917l120.333,-69.458c0.625,-0.375 1.042,-1.083 1.042,-1.833c0,-0.709 -0.417,-1.417 -1.042,-1.792l-120.333,-69.458c-0.625,-0.375 -1.417,-0.375 -2.083,-0l-117.917,68.083c-0.083,-0.083 -0.167,-0.167 -0.292,-0.25l-120.291,-69.458l-115.792,-66.792l115.792,-66.917l120.291,-69.458c0.084,-0.042 0.167,-0.125 0.251,-0.208l117.958,68.083c0.666,0.375 1.458,0.375 2.083,0l120.333,-69.458c0.625,-0.375 1.042,-1.084 1.042,-1.834c0,-0.75 -0.417,-1.416 -1.042,-1.791l-120.333,-69.417l-119.292,-68.917l0,-137.708l0.042,-137.625l0,-0.125c-0.042,-0.125 -0.042,-0.208 -0.042,-0.292c-0.041,-0.083 -0.041,-0.166 -0.083,-0.25c-0.042,-0.125 -0.083,-0.208 -0.125,-0.291c0,-0 0,-0.042 -0.041,-0.084c-0,-0.041 -0.042,-0.083 -0.084,-0.125c-0.042,-0.041 -0.083,-0.125 -0.167,-0.208c-0.041,-0.083 -0.125,-0.125 -0.166,-0.208c-0.083,-0.042 -0.167,-0.084 -0.25,-0.167c-0.042,-0 -0.042,-0.042 -0.084,-0.083l-119.208,-68.792l-119.25,-68.833l-0.042,-137.75l0,-138.917c0,-0.75 -0.416,-1.417 -1.041,-1.792c-0.667,-0.375 -1.459,-0.375 -2.084,0l-120.333,69.459c-0.625,0.375 -1.042,1.041 -1.042,1.791l0,136.209c-0.083,0.041 -0.166,0.041 -0.291,0.083l-120.333,69.458l-115.792,66.875l0.041,-133.75l0,-138.916c0,-0.125 -0.041,-0.25 -0.083,-0.375l117.917,-68.084c0.625,-0.375 1.042,-1.041 1.042,-1.791l-0,-138.917c-0,-0.75 -0.417,-1.417 -1.042,-1.792c-0.667,-0.375 -1.458,-0.375 -2.083,0l-120.334,69.459l-119.291,68.875l-119.292,-68.875l-119.125,-68.792c-0.042,-0.042 -0.083,-0.042 -0.125,-0.042c-0.084,-0.041 -0.167,-0.083 -0.25,-0.125c-0.084,0 -0.167,-0.041 -0.292,-0.041c-0.083,-0.042 -0.167,-0.042 -0.25,-0.042c-0.042,0 -0.083,-0.042 -0.125,-0.042c-0.041,0 -0.083,0.042 -0.125,0.042c-0.083,0 -0.167,0 -0.25,0.042c-0.125,-0 -0.208,0.041 -0.291,0.041c-0.084,0.042 -0.167,0.084 -0.251,0.125c-0.041,0 -0.083,0 -0.124,0.042l-119.209,68.792l-119.25,68.875l-119.333,-68.875l-120.296,-69.459c-0.662,-0.375 -1.454,-0.375 -2.079,0c-0.667,0.375 -1.042,1.042 -1.042,1.792l0,138.917c0,0.75 0.375,1.416 1.042,1.791l117.916,68.125c0,0.125 -0.041,0.209 -0.041,0.334l-0,138.916l0.041,133.75l-115.837,-66.875l-120.312,-69.458c-0.109,-0.042 -0.23,-0.083 -0.346,-0.125l-0,-136.167c-0,-0.75 -0.396,-1.416 -1.038,-1.791l-120.308,-69.459c-0.646,-0.375 -1.442,-0.375 -2.088,0c-0.641,0.375 -1.037,1.042 -1.037,1.792l-0,276.667l-119.267,68.833l-119.196,68.792c-0.037,0.041 -0.054,0.083 -0.091,0.083c-0.08,0.083 -0.151,0.125 -0.221,0.167c-0.075,0.083 -0.138,0.125 -0.2,0.208c-0.059,0.083 -0.117,0.125 -0.167,0.208c-0.025,0.042 -0.063,0.084 -0.083,0.125c-0.025,0.042 -0.021,0.084 -0.042,0.125c-0.037,0.042 -0.071,0.125 -0.1,0.209c-0.033,0.125 -0.058,0.208 -0.079,0.291c-0.017,0.084 -0.029,0.167 -0.033,0.292c-0.004,0.042 -0.025,0.083 -0.025,0.125l-0,275.333l-119.263,68.917l-120.308,69.417c-0.646,0.375 -1.042,1.041 -1.042,1.791c0,0.75 0.396,1.459 1.042,1.834l120.308,69.458c0.642,0.375 1.438,0.375 2.084,0l117.941,-68.042c0.079,0.042 0.138,0.125 0.229,0.167l120.3,69.458l115.85,66.875l-115.846,66.834l-120.308,69.458c-0.104,0.083 -0.171,0.167 -0.258,0.25l-117.908,-68.083c-0.646,-0.375 -1.442,-0.375 -2.084,-0l-120.308,69.458c-0.646,0.375 -1.042,1.083 -1.042,1.792c0,0.75 0.396,1.458 1.042,1.833l120.308,69.458l119.263,68.917l-0,275.292c-0,0.041 0.021,0.083 0.025,0.125c0.004,0.083 0.016,0.166 0.033,0.291c0.021,0.084 0.046,0.167 0.075,0.25c0.033,0.084 0.067,0.167 0.104,0.25c0.021,0.042 0.021,0.084 0.042,0.125c0.02,0.042 0.058,0.084 0.083,0.084c0.05,0.083 0.104,0.166 0.167,0.208c0.062,0.083 0.129,0.167 0.204,0.208c0.071,0.084 0.137,0.125 0.212,0.167c0.038,0.042 0.059,0.083 0.096,0.083l119.2,68.792l119.259,68.875l0.004,137.792l-0,138.916c-0,0.75 0.396,1.417 1.041,1.792c0.642,0.375 1.438,0.375 2.08,-0l120.308,-69.458c0.646,-0.375 1.042,-1.042 1.042,-1.792l-0,-136.167c0.116,-0.041 0.237,-0.083 0.35,-0.125l120.308,-69.458l115.837,-66.875l-0.041,133.667l-0,138.958c-0,0.125 0.041,0.208 0.041,0.333l-117.916,68.084c-0.667,0.375 -1.042,1.083 -1.042,1.791l0,138.959c0,0.708 0.375,1.416 1.042,1.791c0.625,0.375 1.417,0.375 2.079,0l120.296,-69.458l119.333,-68.875l119.25,68.875l119.209,68.833c0.041,0.042 0.083,0.042 0.124,0.042c0.084,0.042 0.167,0.083 0.251,0.125c0.083,-0 0.166,0.042 0.291,0.042c0.083,0.041 0.167,0.041 0.25,0.041c0.042,0 0.084,0.042 0.125,0.042c0.042,-0 0.083,-0.042 0.125,-0.042c0.083,0 0.167,0 0.292,-0.041c0.083,-0 0.166,-0.042 0.25,-0.042c0.083,-0.042 0.166,-0.083 0.25,-0.125c0.042,-0 0.083,-0 0.125,-0.042l119.125,-68.833l119.292,-68.875l119.291,68.875l120.334,69.458c0.625,0.375 1.416,0.375 2.083,0c0.625,-0.375 1.042,-1.083 1.042,-1.791l-0,-138.959c-0,-0.708 -0.417,-1.416 -1.042,-1.791l-117.917,-68.084c0.042,-0.083 0.083,-0.208 0.083,-0.333l0,-138.917l-0.041,-133.708l115.792,66.875l120.333,69.458c0.125,0.042 0.208,0.042 0.291,0.084l0,136.208c0,0.75 0.417,1.417 1.042,1.792l120.333,69.458c0.625,0.375 1.417,0.375 2.084,-0c0.625,-0.375 1.041,-1.042 1.041,-1.792l0,-138.916l0.042,-137.792l119.25,-68.875l119.208,-68.792Z" style="fill:none;fill-rule:nonzero;stroke:#7be152;stroke-width:2.92px;"/><path d="M1445.31,5.948l116.208,67.042l-116.208,67.083l-116.125,-67.083l116.125,-67.042Zm-121.334,68.875l120.292,69.458c0.667,0.375 1.458,0.375 2.083,0l120.375,-69.458c0.625,-0.375 1.042,-1.083 1.042,-1.833c-0,-0.709 -0.417,-1.417 -1.042,-1.792l-120.375,-69.458c-0.625,-0.375 -1.416,-0.375 -2.083,-0l-120.292,69.458c-0.667,0.375 -1.041,1.083 -1.041,1.792c-0,0.75 0.374,1.458 1.041,1.833Z" style="fill:none;fill-rule:nonzero;stroke:#7be152;stroke-width:2.92px;"/><path d="M2166.56,422.365l0,134.083l-116.166,-67.042l-0,-134.166l116.166,67.125Zm-119.291,70.041l120.333,69.459c0.625,0.375 1.417,0.375 2.083,-0c0.626,-0.375 1.042,-1.042 1.042,-1.792l0,-138.917c0,-0.75 -0.416,-1.458 -1.042,-1.791l-120.333,-69.542c-0.667,-0.375 -1.458,-0.375 -2.083,-0c-0.667,0.375 -1.042,1.083 -1.042,1.833l0,138.959c0,0.75 0.417,1.416 1.042,1.791Z" style="fill:none;fill-rule:nonzero;stroke:#7be152;stroke-width:2.92px;"/><path d="M361.296,355.24l-0.029,134.166l-116.138,67.042l0,-134.083l116.167,-67.125Zm-119.288,206.625c0.642,0.375 1.438,0.375 2.084,-0l120.304,-69.459c0.642,-0.375 1.042,-1.041 1.042,-1.791l0.029,-138.959c-0,-0.75 -0.4,-1.458 -1.042,-1.833c-0.646,-0.375 -1.441,-0.375 -2.087,-0l-120.338,69.542c-0.646,0.375 -1.041,1.041 -1.041,1.791l0.004,138.917c-0,0.75 0.4,1.417 1.045,1.792Z" style="fill:none;fill-rule:nonzero;stroke:#7be152;stroke-width:2.92px;"/><path d="M966.35,5.948l116.167,67.042l-116.167,67.083l-116.167,-67.083l116.167,-67.042Zm-121.375,68.875l120.333,69.458c0.667,0.375 1.459,0.375 2.084,0l120.333,-69.458c0.625,-0.375 1.042,-1.083 1.042,-1.833c-0,-0.709 -0.417,-1.417 -1.042,-1.792l-120.333,-69.458c-0.625,-0.375 -1.417,-0.375 -2.084,-0l-120.333,69.458c-0.666,0.375 -1.042,1.083 -1.042,1.792c0,0.75 0.376,1.458 1.042,1.833Z" style="fill:none;fill-rule:nonzero;stroke:#7be152;stroke-width:2.92px;"/><path d="M121.792,1736.99l-116.138,-67.042l-0.029,-134.167l116.171,67.125l-0.004,134.084Zm3.129,-137.125l-120.338,-69.5c-0.645,-0.334 -1.437,-0.334 -2.083,-0c-0.646,0.375 -1.042,1.083 -1.042,1.833l0.03,138.958c-0,0.75 0.396,1.417 1.041,1.792l120.304,69.458c0.642,0.375 1.438,0.375 2.084,0c0.641,-0.375 1.041,-1.041 1.041,-1.791l0.005,-138.917c-0,-0.75 -0.4,-1.458 -1.042,-1.833Z" style="fill:none;fill-rule:nonzero;stroke:#7be152;stroke-width:2.92px;"/><path d="M5.654,837.156l116.138,-67.083l0.004,134.125l-116.171,67.083l0.029,-134.125Zm-1.071,139.542l120.338,-69.5c0.642,-0.375 1.042,-1.042 1.042,-1.792l-0.005,-138.916c0,-0.75 -0.4,-1.459 -1.041,-1.834c-0.646,-0.333 -1.442,-0.333 -2.084,0.042l-120.304,69.458c-0.645,0.334 -1.041,1.042 -1.041,1.792l-0.03,138.958c0,0.75 0.396,1.417 1.042,1.792c0.646,0.375 1.438,0.375 2.083,-0Z" style="fill:none;fill-rule:nonzero;stroke:#7be152;stroke-width:2.92px;"/><path d="M966.35,2501.16l-116.167,-67.083l116.167,-67.042l116.167,67.042l-116.167,67.083Zm1.042,-138.333c-0.625,-0.375 -1.417,-0.375 -2.084,-0l-120.333,69.458c-0.666,0.375 -1.042,1.042 -1.042,1.792c0,0.75 0.376,1.458 1.042,1.833l120.333,69.459c0.667,0.333 1.459,0.333 2.084,-0l120.333,-69.459c0.625,-0.375 1.042,-1.083 1.042,-1.833c-0,-0.75 -0.417,-1.417 -1.042,-1.792l-120.333,-69.458Z" style="fill:none;fill-rule:nonzero;stroke:#7be152;stroke-width:2.92px;"/><path d="M245.129,2084.74l0,-134.125l116.138,67.083l0.029,134.125l-116.167,-67.083Zm119.263,-70.084l-120.304,-69.416c-0.646,-0.375 -1.438,-0.375 -2.08,-0.042c-0.645,0.375 -1.041,1.083 -1.045,1.833l-0.004,138.917c-0,0.75 0.4,1.417 1.041,1.792l120.338,69.5c0.646,0.375 1.441,0.375 2.087,-0c0.642,-0.375 1.042,-1.042 1.042,-1.792l-0.029,-138.958c-0.005,-0.75 -0.4,-1.459 -1.046,-1.834Z" style="fill:none;fill-rule:nonzero;stroke:#7be152;stroke-width:2.92px;"/><path d="M2166.56,2084.74l-116.166,67.083l-0,-134.167l116.166,-67.041l0,134.125Zm1.042,-139.5l-120.333,69.416c-0.625,0.375 -1.042,1.084 -1.042,1.834l0,138.958c0,0.75 0.375,1.417 1.042,1.792c0.625,0.375 1.416,0.375 2.083,-0l120.333,-69.5c0.626,-0.375 1.042,-1.042 1.042,-1.792l0,-138.917c0,-0.75 -0.416,-1.458 -1.042,-1.791c-0.666,-0.375 -1.458,-0.375 -2.083,-0Z" style="fill:none;fill-rule:nonzero;stroke:#7be152;stroke-width:2.92px;"/><path d="M1445.31,2501.16l-116.125,-67.083l116.125,-67.042l116.208,67.042l-116.208,67.083Zm121.416,-68.875l-120.375,-69.458c-0.625,-0.375 -1.416,-0.375 -2.083,-0l-120.292,69.458c-0.667,0.375 -1.041,1.042 -1.041,1.792c-0,0.75 0.374,1.458 1.041,1.833l120.292,69.459c0.667,0.333 1.458,0.333 2.083,-0l120.375,-69.459c0.625,-0.375 1.042,-1.083 1.042,-1.833c-0,-0.75 -0.417,-1.417 -1.042,-1.792Z" style="fill:none;fill-rule:nonzero;stroke:#7be152;stroke-width:2.92px;"/><path d="M2289.89,770.073l116.125,67.083l0.041,134.125l-116.166,-67.083l-0,-134.125Zm117.208,206.625c0.625,0.375 1.417,0.375 2.083,-0c0.625,-0.375 1.042,-1.042 1.042,-1.792l-0.042,-138.958c0,-0.75 -0.375,-1.458 -1.041,-1.792l-120.292,-69.458c-0.667,-0.375 -1.458,-0.375 -2.083,-0.042c-0.667,0.375 -1.042,1.084 -1.042,1.834l-0,138.916c-0,0.75 0.375,1.417 1.042,1.792l120.333,69.5Z" style="fill:none;fill-rule:nonzero;stroke:#7be152;stroke-width:2.92px;"/><path d="M2406.02,1669.95l-116.125,67.042l-0,-134.084l116.166,-67.125l-0.041,134.167Zm3.166,-139.583c-0.666,-0.334 -1.458,-0.334 -2.083,-0l-120.333,69.5c-0.667,0.375 -1.042,1.083 -1.042,1.833l-0,138.917c-0,0.75 0.375,1.416 1.042,1.791c0.625,0.375 1.416,0.375 2.083,0l120.292,-69.458c0.666,-0.375 1.041,-1.042 1.041,-1.792l0.042,-138.958c0,-0.75 -0.417,-1.458 -1.042,-1.833Z" style="fill:none;fill-rule:nonzero;stroke:#7be152;stroke-width:2.92px;"/></svg>