<svg width="100%" height="100%" viewBox="0 0 676 769" version="1.1" xmlns="http://www.w3.org/2000/svg" xmlns:xlink="http://www.w3.org/1999/xlink" xml:space="preserve" xmlns:serif="http://www.serif.com/" style="fill-rule:evenodd;clip-rule:evenodd;stroke-linejoin:round;stroke-miterlimit:2;"><g id="_53" serif:id="53"><path id="Shape" d="M675.599,336.771c-0,17.253 -4.437,33.51 -12.551,47.638c8.114,14.129 12.551,30.385 12.551,47.638c-0,35.499 -18.652,66.865 -49.892,83.899l-114.004,62.162c-11.586,6.316 -21.059,15.762 -27.4,27.317l-62.351,113.655c-17.084,31.148 -48.544,49.742 -84.155,49.742c-35.605,0 -67.065,-18.594 -84.15,-49.742l-62.352,-113.656c-6.336,-11.553 -15.811,-20.997 -27.399,-27.316l-114.003,-62.162c-31.242,-17.034 -49.893,-48.4 -49.893,-83.899c-0,-17.253 4.438,-33.509 12.551,-47.638c-8.113,-14.128 -12.551,-30.385 -12.551,-47.638c-0,-35.499 18.651,-66.863 49.893,-83.897l114.003,-62.161c11.588,-6.319 21.065,-15.765 27.399,-27.314l62.352,-113.659c17.085,-31.147 48.545,-49.74 84.15,-49.74c35.611,0 67.071,18.593 84.155,49.741l62.351,113.655c6.341,11.554 15.814,21 27.4,27.317l114.004,62.161c31.24,17.034 49.892,48.398 49.892,83.897Zm-62.846,155.564c22.45,-12.242 35.851,-34.78 35.851,-60.288c-0,-8.581 -1.55,-16.812 -4.419,-24.443c-5.535,4.953 -11.69,9.366 -18.478,13.067l-98.263,53.58c-21.885,11.931 -39.78,29.77 -51.747,51.589c-28.001,51.037 -79.548,81.506 -137.896,81.506c-58.345,-0 -109.897,-30.474 -137.895,-81.505c-11.97,-21.82 -29.865,-39.659 -51.751,-51.59l-98.262,-53.58c-6.79,-3.701 -12.941,-8.114 -18.48,-13.067c-2.868,7.631 -4.418,15.862 -4.418,24.443c-0,25.508 13.403,48.046 35.851,60.288l114.003,62.161c16.126,8.792 29.312,21.938 38.131,38.014l62.349,113.656c12.278,22.382 34.881,35.743 60.468,35.743c25.59,-0 48.195,-13.361 60.472,-35.741l62.35,-113.659c8.824,-16.078 22.008,-29.224 38.13,-38.013l114.004,-62.161Zm-389.166,20.592c23.191,42.272 65.888,67.508 114.214,67.508c48.326,-0 91.021,-25.237 114.211,-67.509c14.449,-26.342 36.055,-47.88 62.477,-62.287l98.264,-53.58c6.322,-3.446 11.894,-7.733 16.684,-12.648c-4.79,-4.917 -10.362,-9.203 -16.684,-12.651l-98.264,-53.577c-26.422,-14.408 -48.028,-35.95 -62.477,-62.288c-23.19,-42.274 -65.885,-67.509 -114.211,-67.509c-48.326,-0 -91.022,25.235 -114.212,67.509c-14.454,26.341 -36.058,47.88 -62.48,62.288l-98.263,53.577c-6.321,3.448 -11.894,7.734 -16.682,12.651c4.788,4.915 10.361,9.202 16.682,12.648l98.263,53.58c26.422,14.407 48.03,35.944 62.478,62.288Zm31.211,-90.27l11.481,-39.081c0.366,-1.245 0.366,-2.553 0.003,-3.789l-11.484,-39.091c-3.47,-11.813 -0.199,-24.56 8.531,-33.266c8.733,-8.703 21.525,-11.962 33.365,-8.5l39.201,11.446c1.25,0.363 2.562,0.367 3.807,0l39.202,-11.446c11.858,-3.465 24.642,-0.2 33.367,8.503c8.733,8.706 11.999,21.452 8.526,33.266l-11.477,39.081c-0.367,1.24 -0.367,2.554 -0,3.797l11.481,39.08c3.469,11.813 0.203,24.56 -8.53,33.266c-6.423,6.406 -15.047,9.863 -23.873,9.863c-3.17,0 -6.364,-0.446 -9.494,-1.359l-39.2,-11.448c-1.244,-0.362 -2.565,-0.362 -3.809,-0l-39.201,11.448c-11.859,3.465 -24.635,0.199 -33.365,-8.501c-8.73,-8.705 -12.001,-21.453 -8.531,-33.269Zm37.389,-50.441c1.819,6.188 1.819,12.736 -0.003,18.931l-11.478,39.074c-1.019,3.469 0.857,5.823 1.712,6.674c0.854,0.851 3.208,2.718 6.69,1.704l39.2,-11.446c3.106,-0.908 6.301,-1.361 9.493,-1.361c3.195,0 6.386,0.453 9.492,1.361l39.198,11.446c3.476,1.018 5.838,-0.854 6.693,-1.705c0.854,-0.85 2.728,-3.204 1.711,-6.669l-11.483,-39.084c-1.816,-6.193 -1.816,-12.735 -0,-18.923l11.483,-39.086c1.017,-3.465 -0.857,-5.819 -1.711,-6.669c-0.855,-0.851 -3.2,-2.72 -6.693,-1.707l-39.2,11.448c-6.205,1.813 -12.772,1.813 -18.983,-0l-39.2,-11.448c-3.47,-1.019 -5.839,0.854 -6.69,1.706c-0.855,0.851 -2.731,3.205 -1.712,6.671l11.481,39.083Zm351.998,-11.001c2.869,-7.631 4.419,-15.86 4.419,-24.442c-0,-25.509 -13.401,-48.047 -35.851,-60.289l-114.004,-62.158c-16.122,-8.793 -29.309,-21.937 -38.13,-38.011l-62.35,-113.66c-12.277,-22.382 -34.882,-35.743 -60.472,-35.743c-25.587,0 -48.19,13.361 -60.468,35.741l-62.349,113.658c-8.819,16.074 -22.002,29.218 -38.131,38.015l-114.003,62.158c-22.448,12.242 -35.851,34.78 -35.851,60.289c-0,8.582 1.55,16.811 4.418,24.442c5.539,-4.949 11.69,-9.364 18.48,-13.065l98.262,-53.579c21.886,-11.934 39.781,-29.774 51.749,-51.59c27.997,-51.035 79.554,-81.507 137.899,-81.507c58.345,0 109.896,30.469 137.894,81.507c11.967,21.816 29.862,39.656 51.747,51.59l98.263,53.579c6.788,3.701 12.943,8.116 18.478,13.065Z" style="fill:#00ff70;"/></g></svg>