<svg width="100%" height="100%" viewBox="0 0 1063 193" version="1.1" xmlns="http://www.w3.org/2000/svg" xmlns:xlink="http://www.w3.org/1999/xlink" xml:space="preserve" xmlns:serif="http://www.serif.com/" style="fill-rule:evenodd;clip-rule:evenodd;stroke-linecap:square;stroke-miterlimit:2;">
    <g transform="matrix(1,0,0,1,-35,-238.423)">
        <g transform="matrix(0.027327,0,0,0.0273975,118.575,334.923)">
            <g transform="matrix(1,0,0,1,-3058.33,-3522.22)">
                <clipPath id="_clip1">
                    <rect x="0" y="0" width="6116.67" height="7044.44"/>
                </clipPath>
                <g clip-path="url(#_clip1)">
                    <g transform="matrix(5.55556,0,0,5.55556,0,0)">
                        <path d="M963.792,863.656L963.792,711.906C963.792,709.114 962.291,706.531 959.875,705.156L836.333,633.781L959.875,562.448C962.291,561.073 963.792,558.49 963.792,555.698L963.792,399.448C963.792,396.656 962.291,394.073 959.875,392.698L824.583,314.573C822.167,313.156 819.209,313.156 816.792,314.573L693.209,385.906L693.209,243.198C693.209,240.406 691.708,237.823 689.291,236.448L557.875,160.573L557.875,22.364L1083.5,325.823L1083.5,932.74L963.792,863.656ZM550.083,1249.74L24.459,946.281L144.167,877.156L275.541,953.031C276.75,953.74 278.083,954.073 279.459,954.073C280.791,954.073 282.167,953.74 283.375,953.031L406.958,881.698L406.958,1024.41C406.958,1027.2 408.458,1029.78 410.875,1031.16L546.125,1109.28L546.167,1109.28C547.375,1109.99 548.708,1110.32 550.083,1110.32C551.417,1110.32 552.75,1109.99 553.958,1109.28L689.291,1031.16C691.708,1029.78 693.209,1027.2 693.209,1024.41L693.209,881.698L816.792,953.031C818,953.74 819.333,954.073 820.667,954.073C822.042,954.073 823.375,953.74 824.583,953.031L956,877.156L1075.67,946.281L550.083,1249.74ZM16.667,325.823L542.25,22.364L542.25,160.573L410.875,236.448C408.458,237.823 406.958,240.406 406.958,243.198L406.958,385.906L283.375,314.573C280.958,313.156 277.958,313.156 275.541,314.573L140.25,392.698C137.834,394.073 136.333,396.656 136.333,399.448L136.333,555.698C136.333,558.49 137.834,561.073 140.25,562.448L263.834,633.781L140.25,705.156C137.834,706.531 136.333,709.114 136.333,711.906L136.333,863.656L16.667,932.74L16.667,325.823ZM550.083,312.323L430.417,243.198L550.083,174.115L669.75,243.198L550.083,312.323ZM557.875,464.031L557.875,325.823L677.584,256.739L677.584,394.948L557.875,464.031ZM685.375,546.656L565.708,477.573L820.667,330.365L940.375,399.448L685.375,546.656ZM693.209,698.41L693.209,560.198L948.167,412.989L948.167,551.156L693.209,698.41ZM693.209,725.448L812.875,794.531L812.875,932.74L693.209,863.656L693.209,725.448ZM550.083,781.031L430.417,711.906L550.083,642.823L669.75,711.906L550.083,781.031ZM557.875,794.531L677.584,725.448L677.584,1019.87L557.875,1088.99L557.875,794.531ZM422.583,1019.87L422.583,725.448L542.25,794.531L542.25,1088.99L422.583,1019.87ZM151.958,412.989L406.958,560.198L406.958,698.41L151.958,551.156L151.958,412.989ZM534.458,477.573L414.792,546.656L159.792,399.448L279.459,330.365L534.458,477.573ZM542.25,325.823L542.25,464.031L422.583,394.948L422.583,256.739L542.25,325.823ZM422.583,560.198L542.25,491.114L542.25,629.281L422.583,698.41L422.583,560.198ZM557.875,491.114L677.584,560.198L677.584,698.41L557.875,629.281L557.875,491.114ZM159.792,711.906L279.459,642.823L296.25,652.531L399.167,711.906L279.459,781.031L159.792,711.906ZM151.958,725.448L271.666,794.531L271.666,932.74L151.958,863.656L151.958,725.448ZM287.291,932.74L287.291,794.531L406.958,725.448L406.958,863.656L287.291,932.74ZM820.667,781.031L701,711.906L820.708,642.823L940.375,711.906L820.667,781.031ZM828.5,794.531L948.167,725.448L948.167,863.656L828.5,932.74L828.5,794.531ZM553.958,2.073C551.542,0.698 548.583,0.698 546.167,2.073L4.958,314.573C2.542,315.948 1.042,318.531 1.042,321.323L1.042,946.281C1.042,949.073 2.542,951.656 4.958,953.031L546.167,1265.53C547.375,1266.2 548.708,1266.57 550.083,1266.57C551.417,1266.57 552.75,1266.2 553.958,1265.53L1095.21,953.031C1097.62,951.656 1099.12,949.073 1099.12,946.281L1099.12,321.323C1099.12,318.531 1097.62,315.948 1095.21,314.573L553.958,2.073Z" style="fill:rgb(123,225,82);fill-rule:nonzero;stroke:rgb(123,225,82);stroke-width:16px;"/>
                    </g>
                </g>
            </g>
        </g>
        <g transform="matrix(0.552713,0,0,0.525136,29.6664,187.028)">
            <path d="M494.939,366.834L412.485,153.141L385.687,153.141L482.571,406L506.276,406L602.816,153.141L576.706,153.141L494.939,366.834Z" style="fill:white;fill-rule:nonzero;stroke:white;stroke-width:4.72px;stroke-linecap:butt;stroke-linejoin:round;"/>
            <path d="M671.871,410.123C721.687,410.123 753.982,374.049 754.669,318.393C753.982,264.11 721,228.037 671.871,228.037C622.742,228.037 589.761,264.11 589.074,318.393C589.761,374.049 622.055,410.123 671.871,410.123ZM671.871,387.104C636.828,387.104 613.466,359.963 613.466,319.08C613.466,278.196 636.828,251.055 671.871,251.055C706.914,251.055 730.276,278.196 730.276,319.08C730.276,359.963 706.914,387.104 671.871,387.104Z" style="fill:white;fill-rule:nonzero;stroke:white;stroke-width:4.72px;stroke-linecap:butt;stroke-linejoin:round;"/>
            <path d="M838.153,337.975L886.939,406L917.859,406L854.988,319.08L917.859,232.16L887.282,232.16L838.84,299.84L790.399,232.16L759.479,232.16L822.006,318.393L759.135,406L790.055,406L838.153,337.975Z" style="fill:white;fill-rule:nonzero;stroke:white;stroke-width:4.72px;stroke-linecap:butt;stroke-linejoin:round;"/>
            <path d="M1003.75,410.123C1041.88,410.123 1073.15,385.73 1080.36,349.313L1055.63,349.313C1049.44,371.988 1028.83,386.761 1003.75,387.104C970.767,387.104 948.092,362.368 946.374,323.89L1085.17,324.233L1085.17,318.393C1085.17,264.11 1052.88,228.037 1003.75,228.037C954.963,228.037 923.012,263.767 922.325,318.393C923.012,374.049 954.963,410.123 1003.75,410.123ZM948.092,301.902C953.245,270.638 974.89,251.055 1003.75,251.055C1032.95,251.055 1054.25,270.638 1059.4,302.245L948.092,301.902Z" style="fill:white;fill-rule:nonzero;stroke:white;stroke-width:4.72px;stroke-linecap:butt;stroke-linejoin:round;"/>
            <rect x="1119.87" y="153.141" width="24.736" height="252.859" style="fill:white;fill-rule:nonzero;stroke:white;stroke-width:4.72px;stroke-linecap:butt;stroke-linejoin:round;"/>
            <g transform="matrix(1,0,0,1,-41.6129,0)">
                <path d="M1454.84,381.951L1321.2,381.951L1321.2,153.141L1295.77,153.141L1295.77,406L1454.84,406L1454.84,381.951Z" style="fill:white;fill-rule:nonzero;stroke:white;stroke-width:4.72px;stroke-linecap:butt;stroke-linejoin:round;"/>
            </g>
            <g transform="matrix(1,0,0,1,-41.6129,0)">
                <path d="M1534.2,410.123C1558.6,410.123 1579.21,401.19 1592.61,385.387L1592.61,406L1617.34,406L1617.34,292.282C1617.34,251.742 1592.26,228.037 1549.32,228.037C1505.69,228.037 1477.17,253.117 1479.92,289.877L1504.66,289.877C1502.94,265.828 1519.09,251.399 1548.98,251.399C1577.49,251.399 1591.92,264.798 1592.61,291.595C1588.83,294.344 1581.96,296.405 1570.28,297.779L1540.04,301.215C1497.44,306.025 1474.08,325.951 1474.08,357.902C1474.08,389.509 1497.79,410.123 1534.2,410.123ZM1536.26,387.104C1512.21,387.104 1498.82,376.454 1498.82,357.558C1498.82,338.319 1513.59,326.294 1542.1,322.515C1557.56,321.141 1579.21,318.736 1592.61,315.301L1592.61,322.859C1592.61,362.712 1570.96,387.104 1536.26,387.104Z" style="fill:white;fill-rule:nonzero;stroke:white;stroke-width:4.72px;stroke-linecap:butt;stroke-linejoin:round;"/>
            </g>
            <g transform="matrix(1,0,0,1,-41.6129,0)">
                <path d="M1744.8,228.037C1719.04,228.037 1698.42,237.656 1685.37,255.865L1685.37,153.141L1660.63,153.141L1660.63,406L1684.68,406L1684.68,381.607C1698.42,400.16 1719.38,410.123 1744.8,410.123C1793.25,410.123 1825.2,373.706 1825.2,319.08C1825.2,264.454 1793.25,228.037 1744.8,228.037ZM1743.09,386.761C1708.04,386.761 1685.71,360.65 1685.71,319.08C1685.71,277.853 1708.39,251.399 1743.09,251.399C1778.13,251.399 1800.12,277.509 1800.12,319.08C1800.12,360.65 1778.13,386.761 1743.09,386.761Z" style="fill:white;fill-rule:nonzero;stroke:white;stroke-width:4.72px;stroke-linecap:butt;stroke-linejoin:round;"/>
            </g>
            <g transform="matrix(1,0,0,1,-41.6129,0)">
                <path d="M1906.62,410.123C1945.1,410.123 1971.21,389.509 1971.21,358.589C1971.21,333.166 1957.12,318.049 1926.55,310.147L1899.06,302.933C1881.2,298.81 1872.61,290.564 1872.61,278.196C1872.61,260.675 1884.98,251.399 1909.03,251.399C1933.07,251.399 1946.13,263.767 1945.44,285.067L1969.83,285.067C1970.52,250.025 1946.82,228.037 1909.03,228.037C1872.61,228.037 1847.87,248.307 1847.87,278.196C1847.87,301.558 1864.02,318.736 1892.53,325.951L1920.36,333.166C1939.94,338.319 1946.47,344.847 1946.47,358.589C1946.47,376.11 1931.7,386.761 1905.93,386.761C1880.85,386.761 1867.45,373.706 1869.17,352.405L1844.78,352.405C1843.06,387.448 1867.45,410.123 1906.62,410.123Z" style="fill:white;fill-rule:nonzero;stroke:white;stroke-width:4.72px;stroke-linecap:butt;stroke-linejoin:round;"/>
            </g>
        </g>
    </g>
</svg>
