<?xml version="1.0" encoding="UTF-8" standalone="no"?><!DOCTYPE svg PUBLIC "-//W3C//DTD SVG 1.1//EN" "http://www.w3.org/Graphics/SVG/1.1/DTD/svg11.dtd"><svg width="100%" height="100%" viewBox="0 0 1415 1951" version="1.1" xmlns="http://www.w3.org/2000/svg" xmlns:xlink="http://www.w3.org/1999/xlink" xml:space="preserve" xmlns:serif="http://www.serif.com/" style="fill-rule:evenodd;clip-rule:evenodd;stroke-linecap:round;stroke-linejoin:round;stroke-miterlimit:2;"><path d="M284.091,1451.38l22.417,12.37l5.186,7.401l-4.052,9.56l-13.18,8.103l-23.876,8.644l-28.9,7.94l-29.007,4.484l-26.903,-0.108l-23.93,-4.16l-21.337,-8.427l-3.781,-2.755l-12.586,-8.372l-3.727,-3.241l-2.863,-3.026m342.368,-456.941l-17.933,-9.131l-0.216,-2.701l-3.673,-2.052m174.21,856.086l-28.684,-10.21l-21.878,-15.395l-15.396,-9.777l-16.366,-14.747l-16.368,-16.855l-18.853,-16.474l-2.755,-13.236l3.565,-36.678l0.595,-35.274l-0.216,-0.27m-417.618,-769.548l-1.405,0.485l-1.62,-0.377l-1.782,-2.378l-4.106,-2.376l-2.809,-0.972l-2.538,-3.134l-2.863,-1.566l-4.16,0.432l-6.752,-10.1l-0.325,-0.433m64.823,405.247l0.917,0.539l0.757,0.92l1.026,3.564l-1.945,14.856l-4.158,13.18m256.642,-65.037l-42.675,-37.598l-32.79,-31.817l-29.169,-24.092l-27.118,-23.282l-27.388,-15.989l-28.574,-13.83l-28.468,-8.264l-26.74,-11.506l-21.931,-8.643l-18.367,-8.967l-11.181,-4.862l-3.025,-3.998l5.456,-10.912l0.647,-11.775l8.103,-31.061l11.02,-6.103l0.433,-1.351l0.647,-2.161l6.698,-24.038l0.433,-1.405l5.023,-17.069l3.781,-12.911l1.459,-7.184l-0.215,-8.535m217.531,62.714l4.376,5.781m-278.52,-112.52l4.917,7.941m445.653,804.66l0.701,1.943l3.729,16.26l16.799,72.871l0.703,3.188m-47.429,-779.596l3.565,2.539m-84.863,18.258l-2.053,-1.891l-7.4,-6.428l-5.348,-4.699l-7.455,-7.509l0.649,-8.696l0.324,-13.559l-0.541,-14.64l-0.755,-11.181l6.967,-3.458l6.105,2.809l1.729,-0.647l17.231,7.67l4.43,4.051l1.998,2.809m-369.648,-155.519l-4.755,1.729l-4.212,-2.809l1.188,-3.673l-0.378,-1.621m1249.99,136.613l-27.226,13.882l-16.42,18.69l-20.095,4.971l-11.669,10.263l-9.885,1.188l-5.996,-2.917l-18.906,-9.129l-1.837,-1.242l-15.936,-10.696l-3.133,-2.106l-3.889,-7.401l-0.864,-1.675l-0.81,-1.405l-9.292,-6.967l-2.862,-2.107l-6.483,-4.484l-0.217,-0.107m-1049.63,85.079l-8.102,16.366m36.138,-143.634l-6.212,-0.378l-0.649,-0.271l-0.54,-0.216l-5.456,-5.078l-0.594,-0.485l-4.969,-4.592l-7.185,-7.239l0.433,-8.48l0.108,-13.127l-0.595,-14.152l-0.054,-0.757l-1.08,-0.918l-7.023,-9.778l-0.595,-0.864m0.541,60.879l7.185,0.594m-41.379,-25.982l-0.054,0.108l-4.483,9.291m119.272,284.623l10.858,-30.574l10.589,-31.818l17.448,-37.867l18.419,-35.759l21.5,-26.308l22.148,-9.129l20.742,-5.834l12.046,-4.105l8.698,-3.349l8.912,-3.674l9.076,-2.701l6.807,-2.268l1.026,-0.756l-1.297,-6.537l0.486,-1.135l0.054,-0.054l0.054,-2.916l1.188,-3.782l1.405,-2.593l1.783,-2.647l0.432,-0.593l1.459,-2.162m-262.693,-54.072l-0.756,0.054l-0.649,-0.431l-2.322,-1.351l-8.913,-5.672m1078.91,365.813l14.207,-10.156m-1077.83,-346.69l-2.485,-0.864l-0.918,-0.649l-0.811,0.108l-1.134,-0.756l-0.539,-0.378l-0.433,-0.972l0.972,-2.324l0.379,-0.972m45.645,42.459l-3.943,-0.703l-14.639,-0.863l-14.1,-1.621l-12.585,-5.835l-10.048,-8.75l-6.969,-13.775l-2.43,-14.152m235.467,535.269l-8.211,6.158l-4.7,4.214l-30.52,-9.561l-30.844,-14.64l-28.576,-18.042l-24.471,-17.556l-20.203,-11.775l-17.394,-4.809l-0.216,-0.108m-61.041,-547.531l-13.234,-5.943l-1.783,-2.971l-4.862,-3.565m71.737,64.282l-20.635,-11.128l-1.351,-0.432l-1.242,-0.27l-0.756,0.108l-9.453,-2.863l-9.67,-3.727l-7.725,-3.404l-5.023,-3.186l-2.755,-8.211l0.378,-1.513l-1.999,-1.242l-0.54,-8.643l-2.592,-5.456l-7.456,-0.702l-1.188,-2.161l0.108,-5.186l-0.216,-1.08l0.054,-3.403l-0.594,-2.269m255.723,206.675l-12.262,-13.505l-5.725,-19.716l0.377,-16.747l3.566,-14.26l13.289,-6.914l15.394,-4.268l22.04,1.242l8.481,2.108m936.789,209.915l-20.635,-12.802l-9.939,-10.643l-16.097,-11.451l-12.1,-13.396l-5.726,-7.347l-23.121,-19.177l-19.393,-12.91l-29.602,8.967l-21.445,14.315l-9.237,6.32l-7.886,27.063l-2.593,4.592l-37.22,-7.617l-40.837,3.728l-43.917,1.728l-52.398,17.772l-54.505,27.172l-53.911,29.115l-52.83,27.063l-51.318,24.201l-51.694,20.581l-54.938,16.8l-60.176,1.836l-63.095,-9.129l-58.555,-24.146l-48.346,-31.277l-40.029,-31.492l-32.357,-28.305l-26.955,-25.875l-25.767,-21.986l-24.2,-20.852l-26.198,-17.178l-27.604,-14.746l-24.471,-7.887l-23.66,-9.778l-20.202,-8.373l-9.454,-4.861l-2.647,-2.322l-0.702,0.593l-0.756,7.077l-9.616,24.903l-5.023,11.019l-9.832,18.529l-6.968,13.234l-1.189,2.215l-2.971,1.783l-3.835,4.267m178.478,91.075l-17.827,3.728l-5.51,3.457l-2.16,20.419l-7.293,22.687l-13.343,19.717l-16.854,1.728l-2.647,-1.188m-111.277,-420.264l-2.378,-0.377l-6.59,-11.074m478.875,181.393l-18.313,-1.62l-10.587,-8.968l-11.992,-7.67l-7.131,-4.592l-25.335,-13.882l-22.04,-11.344l-7.021,-3.565l-19.663,-9.669l-7.131,-3.512l-1.512,-1.459l0,-0.702l-2.54,-0.27l-13.881,-5.131m-106.471,496.483l16.529,0.974m-273.603,-707.913l0.647,0.809l9.562,12.587l18.204,28.306l1.729,3.51m992.429,494.216l-4.376,-0.918l-2.863,-6.644m-911.401,-372.998l-8.211,-4.106l0,-0.162l-1.998,-2.647l1.458,-16.368l-3.457,-4.32l-1.242,-1.188m7.076,6.967l5.348,5.24l1.944,6.483l-0.918,9.722m2.431,557.635l0.378,0.539l6.428,8.752l8.103,9.399l11.507,7.129l7.724,4.809l20.85,8.858l12.533,13.559l22.418,8.968l12.101,21.553l10.154,29.332l8.967,34.463l9.994,37.544l15.935,33.221m-145.309,-212.725l0.27,0.54l7.184,14.316l7.509,20.363l13.505,11.507l19.391,11.451l0.379,28.684l0.433,35.329m-52.344,-650.707l-2.216,-0.541l-15.665,-2.322l-14.963,-1.729l-13.288,-5.671l-1.891,-3.026l-1.567,-2.917l-6.59,-3.997l-2.809,-4.052l-2.755,-5.185l-0.918,-1.675l-0.433,-0.81l-2.376,-4.051l-0.054,-0.108l-0.648,-2.054l-0.27,-0.918l-0.216,-0.917l-2.431,-7.996m327.622,73.898l11.506,5.348l3.998,0.108l3.619,3.402m-62.446,-0.863l-0.27,0.863l-3.457,3.89l-0.703,0.919m4.538,-4.971l0.054,0.649l0.216,1.513l-0.432,0.377l-2.593,1.081l-1.783,1.351m57.531,-32.251l-34.896,-7.67l-13.074,-19.177l-9.237,-23.226l0.866,-30.251l13.558,-36.679l22.147,-41.053l24.687,-41.973l29.548,-41.972l37.867,-46.241l50.183,-54.397l64.012,-63.201l77.408,-64.067l89.185,-60.013l91.184,-44.512l85.294,-24.362l88.051,-4.646l79.353,21.122l74.275,34.571l59.529,50.777l54.937,70.278l36.463,77.625l16.853,87.348l10.587,79.948l-60.068,63.526l6.915,38.515l12.316,12.532l2.593,2.647l18.853,28.738l1.944,2.917l0.108,0.379l5.023,13.827m-1240.54,402.169l1.08,-6.321l-0.701,-0.864l0.593,-5.131l2.593,-22.581m265.933,-346.096l-5.617,-1.404l-0.433,-0.162m54.019,28.738l10.263,5.617m-102.365,475.309l-1.188,0.054l-2.16,-1.459l-8.049,-1.134l-3.35,-0.162l-5.726,-0.323l-17.232,-0.271l-29.926,-6.482l-25.929,-9.291l-3.349,-1.135l-1.134,-0.431l-16.584,-8.319l-11.399,-5.727m136.397,-137.368l-28.305,-33.223l0.594,-25.226l-28.089,-24.741l-29.44,-23.551l-30.305,-15.45l-28.792,-11.127l-31.223,-7.996l-30.087,-5.456l-22.365,-8.426l-20.742,-8.427l-12.641,-7.994l-0.432,-3.35l3.403,-6.212l4.16,-7.347l4.483,-9.453l1.404,-27.819l5.997,-33.221l13.126,-6.105l7.832,-28.143l10.858,-24.146l5.889,-19.448l3.618,-9.345l-1.08,-7.994l0.109,-4.322l-0.217,-1.296m1018.2,47.861l1.729,-5.132l1.675,-6.969l1.459,-2.107l6.644,-7.292l13.126,-14.424m-1090.36,149.902l6.104,-12.856l0.487,-1.08m994.643,94.208l17.556,15.396m-701.053,532.459l10.804,-2.755m-72.168,-1571.18l-44.405,28.899l-12.964,8.482l-25.28,16.151m969.849,646.439l1.513,1.028l45.807,3.997l3.078,0.323l21.068,27.226l5.132,6.644m-886.012,123.487l2.539,0.27l39.109,5.672l0.108,0.324l-0.108,0.594l-4.16,30.682l-1.08,2.054m722.39,-92.318l27.388,-32.195l4.051,-2.593m-692.517,767.063l4.105,5.996l1.243,2.431l7.399,10.263l30.143,23.768l42.243,12.046l54.558,0.325l68.495,-5.186l75.357,-5.889l61.31,9.131l60.933,10.533l51.751,10.479l34.733,13.072l35.815,27.875l42.35,62.985m223.205,-896.546l2.322,10.912m-1195.86,36.787l-0.379,1.351l-5.78,20.634l-2.863,5.78m1101.76,-191.387l-19.231,7.724l-1.675,0.649m-1121.69,-354.038l0.539,-1.458l2.324,-6.482l4.699,-12.857m454.943,1219.79l0.325,0.594l27.442,52.237l25.064,71.52m-60.122,-133.912l6.428,15.126l0.918,2.7l10.533,23.876l17.179,20.69l26.414,18.149l20.528,68.766m-83.351,-152.44l1.297,2.7l0.593,4.701l11.453,88.265m-5.025,-76.219l10.912,25.388l3.728,11.399l23.119,71.034m145.85,-1815.46l-21.391,3.134m-640.551,805.417l5.24,2.538l7.4,3.511l6.968,2.647l1.567,0.811l3.943,2.701m-14.099,22.417l-0.107,1.08l6.482,12.587l0.162,0.487l0.054,0.917l0.323,0.648l2.324,17.502l6.32,12.37l1.891,2.378l-1.621,1.674l-0.324,7.725l0.594,2.431l-2.107,8.804l1.242,3.62l1.405,2.269l0.649,3.348l-0.541,8.806l-4.484,24.902l-11.938,34.464l-4.915,43.917l0.162,2.053l4.214,48.022m43.97,210.889l-3.133,-0.271l-3.349,-0.269m14.044,1.188l6.105,0.486l2.268,0.378l7.941,1.297m-98.259,-548.775l6.968,22.364l10.48,22.742l7.401,17.88l1.242,3.349l6.806,1.458l1.459,3.08l1.405,6.374l8.265,4.646l1.35,2.322l0.107,0.108l0.865,8.805l-3.079,9.184l-1.135,13.342l0.702,11.938l-0.107,1.513l1.026,0.324l3.457,10.101l-0.702,3.889l2.052,0.433l3.296,1.567l1.567,10.1l1.511,3.35l0.27,0.432l0.433,0.865l1.35,1.675l-1.891,8.156l0.271,4.753l1.945,4.755l0.108,10.964l-1.999,24.958l-11.343,31.439l-7.78,39.594l-0.054,0.325l-2.593,40.73l4.538,40.784l0.487,1.782l-0.054,0.054m-5.564,-255.129l1.781,13.073l0.271,2.376m3.566,239.626l3.456,-8.103m1148.16,460.185l-6.321,-19.231l-2.16,-8.157l-19.501,-89.347m-677.392,263.935l-0.541,32.52l-0.269,17.394m676.636,-304.666l-18.042,-94.748m-13.991,-225.203l-0.27,0.054l-6.158,-7.941m76.976,-34.517l-0.378,0.269l-40.406,30.197l-3.943,1.35l-0.918,0.216m-774.68,-171.671l-0.054,1.405l-1.404,7.131l0.864,6.103l3.241,8.373l2.269,18.312l-2.054,16.314l-5.995,10.534l-8.86,6.266l-8.103,-0.757l-2.268,-0.215l-0.972,-0.27l-4.646,-13.775l-0.485,-0.325l-7.995,-5.023l-3.945,-2.106l-2.214,-0.27l-1.188,-2.864l-5.456,-12.965l-0.27,0l-0.594,0.162l-7.293,2.216l-5.402,-5.726l-1.783,-5.835l-0.593,-4.753l1.242,-4.376l2.701,-4.105l1.242,-0.27l1.188,5.942l0.109,7.887l1.35,3.402l1.134,5.025l0,1.026l-0.755,0.162m-219.046,-93.885l-9.561,-4.645l-0.648,-1.999m-65.849,247.622l2.323,-4.376l1.458,-0.702m376.294,-86.7l-1.405,-9.345l1.296,-1.08m-87.078,-62.175l-1.511,0.917l-2.378,-0.486l-0.648,-0.162m20.203,39.65l1.351,-6.05l1.944,-1.404m-291.97,-113.601l0.107,-5.078l0.541,-0.541l1.513,-1.674m265.446,95.774l2.324,0l0.756,0.433l1.566,0.918l1.405,2.593m-250.539,376.456l1.945,1.673l2.539,3.026m-17.826,-486.438l-1.351,-14.314l0.865,-14.747l2.755,-13.937l0.648,-2.322m404.167,195.168l-4.484,-6.644l0.595,-2.431m-32.357,13.937l-2.108,-0.432l-36.57,-18.528l-0.377,-0.217l-0.055,-0.108l-2.161,-2.755l2.971,-15.989l-1.026,-20.473l-1.08,0.216l-5.348,-9.561l1.297,-2m863.054,730.386l-10.21,5.186l-2.918,1.08m-1110.13,-435.228l-2.7,5.726l0.648,15.45l6.699,17.556l-2.215,17.07l-8.373,16.476l-5.293,12.585l-2.864,13.721l-0.054,-0l-0.216,0.108l-14.639,-5.887l-10.533,-8.211l-7.347,-7.78l-5.943,-3.402l-2.97,0.809m254.265,-353.442l0.27,-0.864l0.162,-1.136l-0.432,-3.456l-1.027,-7.833l-1.296,-9.832l1.513,-2.538l0.054,-0.054m-179.882,656.379l-4.376,-5.023l0.487,-3.675m158.22,-160.164l-2.647,-1.729l-3.404,-2.16l-10.749,-3.511l-12.802,-4.214l-30.251,-11.668l-30.898,-16.368l-28.847,-19.825l-25.496,-19.447l-21.229,-13.665l-17.069,-5.133l-14.1,-5.132l-12.641,-8.696l-7.832,-8.049l-6.861,-2.809l-3.348,1.728m28.684,-416.806l-0.649,-0.271l-4.538,-4.376l-1.781,-1.619l-1.459,-3.674m15.286,46.078l3.999,0.648l12.154,3.944l18.312,8.858m1249.88,-507.882l1.567,69.198l10.372,117.815l-30.683,59.204l-10.804,94.857l-36.571,39.865l-39.432,39.271l-1.783,4.106m-889.038,158.653l-2.052,-1.891l-6.968,-6.482l-0,-0.163l-1.459,-3.997m-333.348,-188.363l4.591,-0.269l7.833,2.106l3.673,1.945m51.859,491.677l-5.781,-2.053l-7.778,-4.376l-10.048,1.729l-9.507,-8.482l-7.293,-4.753l-4.159,-1.891m298.614,-295.481l-7.833,0.864l-9.832,-2.16l-0.214,-0.271l0.162,-0.539l-2.809,-12.046l-1.243,-14.748l1.026,-15.341l2.918,-14.422l0.755,-2.755l1.513,-1.891l0.864,-5.673m-21.77,62.662l-5.725,-5.51l0.756,-1.134l-1.675,-2.863l-0.431,-1.837l-1.297,-4.753m146.822,21.067l-2.268,4.267m-400.007,297.21l1.674,-4.646m355.387,-276.358l0.216,-0.433l-0.054,-0.324l-37.056,-18.258l-2.323,-1.08l-0.648,-0.324l-3.458,-1.729l-12.801,-5.671l-10.804,-2.27l-10.371,-3.186l-8.373,-4.592l-1.351,-14.369l1.134,-14.801l2.809,-13.073l0.379,-2.917l0.323,-2.269m-60.555,62.014l6.59,-7.077l7.456,-4.753l6.806,-5.186l8.696,-1.783l4.376,-5.185l5.348,0.216m-25.172,463.694l-2.917,4.809l-12.641,5.618l-23.984,6.265l-30.035,5.727l-29.386,3.943l-27.819,0.539l-23.823,-3.727l-20.958,-8.156l-18.798,-12.047l-5.619,-5.995l-1.08,-5.294m-11.182,-172.157l5.456,0.324m-90.643,-510.475l4.105,3.943l13.505,10.696l12.316,22.417l7.67,13.883l-0.108,0.918l1.189,1.082l3.187,1.296l1.567,1.08l0.701,0.485l0.055,0.108l0.702,1.297l0.756,0.108l0.703,0.379l-0.108,4.213l-0.379,1.405l3.511,1.837l1.082,0.593m267.66,168.321l3.458,3.458l1.188,1.892l0.541,3.618l-5.996,6.158l-3.781,4.376l-0.595,6.752l-6.374,8.752l-7.185,19.986l-13.288,25.875l-13.181,28.521l-12.478,30.792l-10.533,30.952l-5.132,28.845l1.134,26.686l-2.593,25.173l24.525,25.604l22.525,31.493l30.035,36.084l28.791,40.082l23.661,38.083l10.263,38.029l-5.132,37.813l-14.801,37.489l-28.953,27.604l-39.109,14.26l-42.622,1.675l-37.813,-6.752l-33.599,-9.886l-28.576,-10.75l-19.987,-12.262l-10.048,-13.18l-7.724,-16.152m357.873,-488.003l-1.621,5.78l-10.263,6.482m-108.037,-2.214l-0.972,-0.433l-7.293,-3.294l-0.81,-0.649l-1.027,-0.81l-0.648,-2.647l-8.048,-11.938l-0.866,-1.675l-4.698,-13.775l-0.541,-2.106l-1.728,0.323l-6.105,0.433m956.615,22.85l-1.837,-5.889m-944.892,-57.313l-1.891,3.08l-1.404,2.376m-9.454,29.494l-3.456,-4.214l-0,-0.647l-0.649,-6.375m-246.001,387.314l2,2.268l2.16,2.485l3.566,4.538l6.644,8.642l3.781,4.7m-58.934,-564.169l3.024,3.619l-0.269,2.755m1245.78,181.447l-22.796,2.378l-16.368,10.858l-14.963,-1.891l-6.86,0.108m-725.253,0.54l-15.881,-2.431l-3.565,-2.81l-1.404,-1.08l-2.539,-1.944l-3.296,-1.62m641.038,151.522l-4.807,-5.079m-1073.57,-343.449l6.699,-1.621l5.888,1.189m918.423,240.869l-63.419,29.872l-57.151,27.819l-54.937,27.819l-52.019,24.579l-50.238,19.986l-50.237,18.259l-52.938,14.855l-57.26,5.024l-56.07,-3.619l-53.479,-17.556l-42.621,-21.986l-36.895,-26.685l-30.034,-24.092l-25.281,-23.931l-22.741,-21.876l-0.379,-0.325l-23.821,-19.878l-23.283,-22.904l-26.199,-18.205l-27.172,-17.502l-25.388,-7.995l-16.422,-4.375l-12.046,-8.319l-4.915,-5.024m-4.861,-66.497l-2.54,6.536l-1.458,5.079l1.026,6.32l-1.458,11.02l-3.781,19.554l-10.535,27.982l-13.396,3.727l-12.315,-2.322l-13.128,-5.781l-6.374,-14.045l9.021,-34.463l-4.861,-20.257l0.216,-24.038l4.052,-10.804m-21.986,-95.397l6.428,3.025l15.341,10.371l7.077,5.834m61.418,487.95l4.322,5.725m-72.763,-417.886l1.675,-6.699l0.486,-1.026l4.646,-1.027l0.378,-0.054l1.782,-0.431l1.945,1.566l5.024,4.267l2.053,7.671l1.026,4.052l7.886,5.023l0.055,0.054l8.804,1.945l7.347,-0.973m415.402,126.512l-2.322,7.13l-11.614,6.159l-17.88,8.048l-21.878,6.753l-24.308,3.673l-6.428,-5.186l-23.175,-1.296l-21.715,-5.564m745.185,108.686l-11.938,7.832l-0.162,0.054l-11.884,-18.69l-3.618,-6.592m-684.146,-156.545l-7.454,1.729l-2.161,0.486m703.969,77.139l6.536,-4.105l27.28,-2.918l18.907,7.454l14.584,7.023m-992.104,213.968l-1.728,7.508m-94.803,-362.68l1.027,-3.62l-0.054,-0.377l1.998,-7.077m-22.309,180.151l-4.376,6.321m268.905,616.891l7.886,1.189m-284.299,-888.659l2.647,8.806l-0.378,3.294m323.84,194.142l-1.35,8.59m781.648,-69.036l-8.157,-3.457m-751.884,69.036l0.108,9.021l4.916,6.968l6.59,7.995l6.806,12.964l5.672,32.032l1.567,44.297l1.297,51.047l0.378,51.047l-5.294,49.913l-16.638,30.791l-17.015,27.874l-19.988,19.392l-27.981,19.771l-29.332,18.853l-21.283,12.856l-27.982,-15.126l-29.872,-19.175l-29.279,-22.148l-29.223,-17.611l-23.823,-12.694l-16.529,-5.779l-2.43,-7.941l4.645,-12.316l-0.055,-0.271l-5.239,-2.268l-8.752,-4.754l-8.858,-3.727l-7.887,-7.725l-5.023,-8.805l-1.19,-2.107l-0.755,-0.108l-6.212,-0.865l-7.077,-0.215l-1.458,-1.783l-10.858,-2.053l-0.162,-0l-10.047,-3.078l-5.348,-3.35l-9.777,-6.05l-7.348,-4.538l-9.237,-8.102l-6.049,-12.749l-7.023,-14.693l3.511,-40.676l10.048,-28.198m1169.5,382.938l-1.999,-8.859l-19.339,-88.807m-1063.89,-487.03l-5.564,-0.162l-12.531,-0.757l-12.479,-0.918l-12.424,-1.134l-12.533,-8.806l-9.291,-14.044l6.806,-24.633l0.379,-9.237m362.896,703.051l-33.708,-22.417l-32.896,-22.742l-31.223,-22.581l-23.931,-24.577l-14.531,-20.311l-7.454,-13.991l-3.187,-9.4l-2.647,-11.182l-0.487,-9.561m83.406,-492.541l5.023,-0.162l8.482,2.324l9.614,5.077l7.888,5.51m-121.867,279.114l-19.339,-13.397l-16.151,-3.943l-19.5,-0l-24.2,-4.16l-25.228,-2.214l-26.901,-1.999l-27.063,-0.702l-26.739,-0.973l-24.957,-4.268l-19.879,-6.59l-9.615,-8.265l-2.485,-9.453m1202.67,-288.459l17.934,7.995l17.556,28.143l9.182,31.007l3.35,41.325l-6.644,49.859l-30.682,53.856l-44.026,31.763l-34.301,14.153l-30.737,15.557l-26.253,8.319l-8.427,-7.4l-1.296,-1.134l2.322,-20.365l8.481,-17.394l10.102,-12.425l12.424,-15.233l32.088,-15.018l38.676,-20.743l27.28,-37.92l6.32,-22.851l0.054,-1.89l-6.915,-8.535l-16.097,-10.317l-6.752,-4.322l-12.856,3.133l-13.074,26.415l-3.078,6.159l-13.127,2.809l-17.718,-8.914l-24.848,10.587l-38.246,-2.43l-33.058,-7.778l-37.058,-24.687l-26.414,-35.545l-28.738,-38.731l-30.791,-38.839l-34.356,-40.189l-43.377,-41.757l-52.019,-41.541l-60.232,-40.73l-68.657,-41.378l-75.247,-41.053l-74.114,-37.382l-70.278,-34.949l-65.417,-31.169l-58.717,-24.687l-50.508,-20.796l-43.107,-17.232l-39.109,-13.721l-31.925,-11.453l-27.928,-7.994l-22.796,-5.456l-17.285,-3.673l-9.562,2.647m-0.27,451.972l9.669,2.972l10.211,2.053l12.154,5.348l3.402,1.782l0.595,0.27l2.106,1.08m909.672,363.761l7.293,7.023m-1004.8,-637.148l4.43,9.074l13.775,28.306l17.177,33.762l0.163,51.425l1.998,41.919l4.538,24.794l-0.703,1.188l-1.351,6.051l-2.593,2.214l-5.347,7.509l-1.513,17.502l0.162,1.944l4.592,4.862l5.186,4.106l7.832,3.889l10.048,3.511l11.291,2.701l13.719,2.701l3.944,-0.217l1.999,1.082l0.27,0.539l-1.675,17.286l-0.108,0.216l-6.374,11.723l-6.428,4.861l-3.133,-0.216l-1.837,-0.216l-1.351,-1.944l-0.647,-0.811l-6.267,-12.424l-2.431,-11.506l-0.972,-13.775l0.487,-14.531l1.457,-9.237l-4.699,-6.482l-3.025,-4.267l-2.917,-4.052l-4.16,-2.215l-0.485,-0.378l-6.213,-1.729l-0.215,0.163l-5.564,7.778l-0.324,2.755l-1.783,14.045m32.032,136.451l-8.75,31.169l-12.91,5.131l-11.723,4.97l-0.162,0.054l-10.209,-1.783m303.205,-55.746l-2.16,-0.703l-0.756,-0.271l-5.618,-9.614m188.957,60.932l0.27,11.128m-389.312,254.698l-9.777,6.05m218.991,-262.531l-0.108,0.487l-2.214,11.236l-4.16,20.796l-11.02,30.63l-11.29,33.707l-10.804,32.736l-8.319,29.169l-6.212,29.494l32.141,33.491l40.406,39.759l40.784,39.865l43.215,52.505l27.388,59.26l1.296,58.231l-17.394,55.747l-39.866,45.7m734.598,-576.917l-5.186,-10.966l17.61,-35.707m-1057.74,-1.296l-10.966,5.51l-12.208,3.079m1121.75,-81.785l1.458,25.875l10.696,31.602l11.236,29.548l0.161,0.485l8.373,26.146l-1.458,6.752l-3.944,18.582l-0.593,2.917l-1.188,5.348l-16.045,39.055l-0.972,2.27l-0.162,0.431l-39.919,31.169l-4.646,0.216l-0.918,0.216l-31.331,2.485l-5.618,7.293l-9.454,12.317l-6.319,8.155l-5.619,-0.323l-0.162,-0l-20.365,-1.242l-11.02,-5.402m-718.338,563.358l-5.24,-3.889l-11.884,-15.881l-17.502,-24.741l-19.932,-29.494l-18.259,-32.411l-17.232,-31.979l-16.53,-28.306l-16.097,-24.2l-27.441,-5.131l-11.885,-16.206l-23.066,-6.321l-9.129,-9.075l-5.51,-11.074l-3.781,-18.96l4.106,-26.198l8.481,-9.022m968.768,-455.97l7.455,1.134l12.1,3.781m-32.357,-70.764l26.414,20.203l9.076,9.237m-1024.25,519.496l5.834,-25.28l9.83,-8.805m188.85,-442.034l-5.888,-9.669l-0.162,-0.271m-137.261,230.282l-22.419,-4.7l-12.262,-11.776l-34.247,-6.644l-29.494,-7.131l-24.903,-6.374l-19.878,-8.102l-11.453,-7.402m350.635,-183.23l-2.647,-2.214l-4.483,-14.695m775.813,38.949l10.318,-9.67l35.112,-36.841l23.012,3.296m-1095.87,473.742l-2.377,-4.538l-8.427,-16.367l-0.81,-22.634l0.054,-0.216m96.208,-434.849l14.206,-1.513l33.06,5.618l29.386,5.889l16.476,5.564l9.02,2.16l4.753,3.673l6.807,4.267l5.456,-1.134m949.808,103.662l-25.605,2.053l-19.177,-0.595l-12.693,-6.698m-1159.78,-222.34l-2.269,-3.133l-1.62,-0.486l-3.89,-3.241l0.379,-1.405l-1.242,-4.538l-0.595,-0.377l-0.648,-1.459l-1.188,-2.538l-5.564,-10.103l-0.973,-1.674l-7.833,-14.153l-1.729,-2.646l-8.858,-9.778l-11.29,-22.904l-4.916,-32.033l2.377,-39.055l-7.941,-12.857m346.745,354.2l-0.54,-0.487l-2.538,-3.943l-5.835,-9.291m192.576,16.043l5.294,15.126m-478.82,243.731l15.935,-2.485l10.102,-8.103l4.753,-1.781l1.675,-0.649l5.943,-1.08l11.181,0.809l14.801,1.675l13.666,-0.755l8.103,-1.892m-39.594,-345.664l-1.729,-0.379l-15.882,-0.701l-16.044,-2.539m261.342,110.899l-3.296,-2.377l-10.749,-7.832l-12.423,-7.832l-14.587,-8.86l-6.806,-10.533l-3.186,-14.153l2.917,-14.478l7.346,-11.451l8.86,-7.886l13.234,-5.079l16.205,-1.403m-174.858,334.158l10.804,9.507l9.399,21.013l0.162,0.432l-0,0.216l-3.294,28.522l-12.479,24.092l-7.347,12.91l-3.619,11.723l-2.647,19.662l5.51,16.422m-54.289,-506.369l-6.157,-0.379l-8.319,-0.972l-3.242,-2.106l-1.675,-0.216l-1.296,-0.163l-6.32,-0.972l-3.025,-0.162l-1.782,-1.512l-5.997,-5.348l-2.538,-1.243l-1.675,-2.755l-5.727,-8.643l-0.539,-0.972l-1.405,-4.105l-4.862,-11.561m93.128,541.213l-8.372,-19.664l1.026,-21.93l2.593,-13.613l4.753,-11.939l7.509,-18.258l2.593,-20.419l-3.457,-19.933l-6.267,-14.476l1.783,-3.566l10.209,-1.081l12.209,-19.23l9.13,-22.526l7.237,-19.339l8.698,-14.098m-66.173,147.147l-14.207,-0.649l-11.83,-11.992m69.791,-139.206l-7.778,15.071l-10.966,20.852l-11.235,23.173l-9.777,17.07l-5.564,2.539m930.415,17.827l-31.71,54.287l-49.913,92.967l-1.782,3.295l-61.203,91.021l-86.213,98.854l-110.306,42.296l-87.511,22.04l-64.065,7.077l-47.699,-10.696l-13.559,-10.372m713.532,-662.104l-17.394,0.755l-33.277,5.24l-21.391,-1.998l-14.098,-6.752l-2.161,-11.94l-2.809,-15.773l-2.539,-1.62m-589.558,72.277l12.478,-12.208m-175.615,-10.804l4.592,2.052l1.783,-0.81l2.107,-0.486l0.216,-0l2.809,3.079l0.972,1.567m-377.751,-328.811l10.749,14.477l16.098,31.871l7.022,28.468l1.944,4.376l1.729,2.646m296.076,215.209l4.753,6.267m-308.337,-58.232l0.918,18.745l0.054,4.213m1185.65,37.813l-16.8,-7.347m-1096.58,263.124l10.427,-1.08m253.887,-317.952l14.909,4.807l2.917,0.54l0.107,0.54l10.265,4.43l18.473,7.022l1.243,0.487l31.223,13.288l28.846,14.098l24.362,16.206l16.206,11.938l19.446,3.133m437.604,334.861l16.097,-11.667l13.505,-5.781l17.556,-4.646l26.955,3.026l31.656,8.913l22.633,4.699l19.987,3.512l18.042,3.132l9.346,0.109m-46.078,-294.672l17.285,-10.209l28.847,-1.783m-52.777,-0.593l0.054,0.162l6.591,12.423l9.399,17.827l0.486,1.026l-4.538,9.238l-0.269,0.539l-11.56,23.445l-3.89,5.185l-6.427,7.508l-15.883,18.584l-3.889,4.537l-4.969,5.834l-16.422,13.126m-38.947,62.77l-19.879,7.833m149.036,-368.623l-6.157,-20.635l-7.455,-43.215l-12.532,-44.728l-22.094,-45.915l-28.63,-50.076l-35.004,-49.48l-40.891,-53.91l-38.894,-48.617l-39.164,-47.807l-39.811,-52.991l-42.836,-52.993l-48.779,-53.586l-53.209,-53.533l-57.637,-50.452l-57.422,-42.73l-57.367,-32.95l-112.792,65.037l-99.177,84.756l-76.058,95.829l-47.375,90.589l-29.386,81.243l-25.226,79.029l-11.074,67.578l-10.587,59.636l-3.891,51.156l3.512,52.235l5.078,42.622l-0.487,29.548l3.35,30.249l25.605,11.831l42.188,20.959l38.353,-15.342l21.392,-0.485l14.585,1.458l9.992,0.054l8.86,-0.27l8.265,-1.567l7.833,-1.026l1.296,-2.376l0.108,-0.108l0.594,-1.028l-0.756,-0.864l-7.185,-2.106l-7.94,-1.296l-7.995,-1.513l-10.155,-2.378l-17.125,-3.727l-26.793,0.379l-36.192,-4.592l-33.87,-15.232l-34.41,-11.02l-17.717,-5.564l-14.153,-7.402l-0.379,-0.539l0.487,-5.456l1.35,-14.099l0,-0.379l-1.026,-16.205l-1.837,-11.289l-6.59,-22.58l-13.288,-53.263l0.809,-55.206l-1.026,-64.66l1.675,-73.304l6.698,-80.541l18.096,-85.728l33.978,-92.425l61.905,-94.749l83.999,-83.837l39.974,1.405l48.184,10.533l109.388,-66.227l56.936,22.257l115.761,-50.833l115.978,-45.375l114.196,-13.558l111.169,2.484l67.685,57.369l101.015,31.437l40.19,72.386l21.175,85.673l-3.781,85.349l-22.472,85.781l-37.705,82.919l-59.852,84.863l-52.345,60.554l-50.939,50.238l-48.292,44.565l-44.241,39.056l-41.271,35.977l-38.893,31.924l-34.248,25.875l-30.034,21.391l-27.928,22.85l-33.762,23.228l-37.596,23.066l-38.461,20.528l-35.436,12.693l-33.437,-27.063l-27.604,8.752l-36.517,-21.446l-16.422,7.941l-7.616,3.402l-7.455,5.294l-8.642,3.835l-2.108,0.649l-1.026,-0.432l-20.419,-0l-0.108,-0.324l-1.459,-10.588l-21.391,-11.452l-1.513,-4.213l2.27,-6.266l2.16,-4.7l-1.35,-1.405l-29.062,-9.723l-3.133,-1.62l-14.747,-4.267l-3.35,-1.028l-4.105,-1.188l-7.346,-2.106l-0.108,-0.162l-9.345,-12.317l-33.87,-3.025l-29.656,-0l-31.71,-11.181l-22.633,11.235l-40.46,-20.419l-3.079,-3.781l-3.511,-9.183l-13.559,-23.984l-3.997,-46.402l10.804,-49.589l19.662,-58.178l29.764,-65.363l41.594,-73.033l42.784,-72.871l58.879,-82.81l80.704,-86.105l102.689,-74.978l114.304,-54.666l115.599,-39.111l117.274,-23.551l111.657,-11.02l112.953,16.746l93.722,35.166l79.624,74.49l16.42,86.161l52.453,80.109l32.843,96.153l-26.469,76.221l-51.696,78.92l-76.382,84.863l-64.12,23.715l-9.832,52.343l-1.296,11.183l-14.153,5.672l-15.504,19.878l-18.095,23.12l-0.162,0.054l-7.995,3.295l-35.22,25.659l-28.252,46.024l-14.53,45.106l-10.75,45.591l-5.348,54.721l-3.89,45.321l-4.915,41.324l-0,30.575l4.807,21.391l-15.016,14.585l-30.63,39.001l-44.781,50.13l-54.72,50.885l-60.988,41.649l-63.201,32.141l-63.201,25.929l-63.256,21.876l-63.958,17.989l-56.99,10.533l-44.025,-3.889l-40.136,-12.316l-37.381,-14.747l-34.841,-15.341l-26.254,-18.852l-14.909,-17.341l-6.212,-10.966l-3.079,-7.021l-2.106,-7.887l1.35,-6.483l4.591,-1.026l4.213,-1.134l7.077,-1.513l17.232,-4.699l29.872,-8.86l32.736,-12.208l31.331,-13.18l25.226,-19.664l39.109,-33.976l-1.837,-75.087l-5.454,-57.637l-8.86,-60.284l-12.748,-47.861l-9.238,-34.465l-10.425,-15.07l-9.453,-8.697l-24.687,0.486l-21.175,-5.618l-2.593,-0.703l-1.026,-0.269l-2.539,-1.296l-14.153,-7.185l-2.539,-1.296l-13.937,-9.346l-1.836,-1.242l-12.478,-11.29l-9.94,-6.915l-10.209,-7.778l-5.564,-9.129l-1.892,-10.75l3.08,-12.154l7.293,-10.858l7.778,-8.697l9.454,-6.969l15.179,-0.539l0.323,0.054l5.294,1.35l9.13,2.323m163.622,88.806l-20.905,-5.618l-15.18,-3.781l-6.86,-6.104l-7.022,2.377l-2.486,1.134l-11.397,5.51l-1.459,2.971l3.781,7.4l11.129,4.7l16.745,5.078l19.771,17.772l26.631,34.194l29.332,52.182l25.389,66.172l15.395,66.335l9.183,62.5l7.401,62.282l3.242,62.879l-4.106,62.714l-12.695,55.424l-19.662,37.003l-25.282,24.524l-30.952,15.341l-0.216,0.054l-22.472,6.537m-204.19,-222.611l-1.188,0.054l-13.234,3.836l-24.525,2.97l-30.412,2.432l-29.98,1.134l-27.767,-0.865l-24.038,-3.997l-20.202,-8.103m285.218,-400.601l21.986,-3.35l19.499,-6.59l15.18,-6.806l13.829,3.458l19.879,7.022l24.632,11.776m622.239,-196.897l24.092,33.221l5.348,21.715m-1072.97,-35.112l0.539,5.348m-74.977,148.713l-0.27,-1.08l-2.054,-7.726l0.649,-46.563l-0.054,-4.213l-0.918,-18.745l5.186,-36.408l7.994,-22.419m1207.8,-53.045l15.935,-17.988m-1147.19,660.755l4.322,23.929l4.051,25.497l2.864,20.798l9.994,16.205l2.592,34.68l23.389,15.827l32.195,13.289l43.81,7.941l54.343,-0.865l60.176,-10.425l52.668,-24.741l41.918,23.66l76.437,-16.584l22.526,-59.42l12.91,-66.065l-2.809,-66.821l-11.29,-64.282l-10.749,-69.36l-12.479,-63.147l-17.988,-63.148l-18.204,-50.237l-19.231,-37.975l-13.775,-14.639l-13.288,-7.67l-8.75,-4.863l-2.972,-8.642l-0.649,-0.919l4.052,-31.007l0.27,-0.106l19.662,-0l2.162,0.16l4.969,1.838l8.59,5.023l3.727,2.161l12.046,-0.703l12.694,-1.35l13.505,-2.755l2.377,1.891l17.772,14.315l1.998,1.62l28.468,0.918l33.114,-3.781l21.769,27.821l16.421,33.383l25.767,41l25.929,59.527l18.852,62.068l11.938,63.958l8.536,61.797l8.535,59.42l6.536,54.776l2.647,48.508l-7.239,33.87l-16.422,24.417l-29.925,35.975l-92.967,36.409l-62.931,11.83l-30.412,-4.267l-2.809,0.648m-464.776,-427.017l24.255,0.054l25.064,-0.431l24.795,-2.486l26.253,2.647l27.333,1.567l26.037,4.321l22.904,4.807l4.267,1.351l9.778,3.133l13.342,13.992l17.665,25.983l22.741,31.384l26.092,33.923l23.389,33.114l18.906,30.52l6.267,27.713l-0.054,0.431l-3.943,29.386l-14.045,28.252l-25.335,20.364l-32.303,10.427l-34.735,-0.217l-31.437,-7.778l-27.01,-9.994l-25.39,-9.994l-3.997,-20.418l-20.095,-10.749l-10.641,-13.721l-6.752,-7.833l-1.351,-1.566l-5.402,-10.75l-7.724,-11.561l-3.404,-5.131m1042.67,-409.892l-14.639,19.932m-1009.44,359.979l-7.51,-2.268l-1.783,-1.459l-6.428,-5.293l-0.755,-0.649l-1.513,-2.539l-1.134,-1.836l-0.054,-0.108l-0.217,-0.27l-1.188,-2.054l-7.778,-10.587l-6.698,-8.427l-3.296,-4.591l-4.052,-3.673l-0.162,-1.404l-1.783,-21.932l0.162,-13.235l3.89,-13.775l7.293,-24.146m1129.31,-276.628l6.104,7.562l1.458,25.226m-63.634,81.298l4.052,-1.242l6.159,9.886l8.804,11.235l8.698,16.313l8.642,13.289l13.344,21.715m-1076.7,0.973l25.28,3.619l21.499,3.727l19.123,3.08m948.674,-240.978l-6.752,-12.909l-4.376,-10.48m-776.841,6.753l5.889,2.646m768.467,183.069l0.054,0.108l10.696,23.228l6.374,26.739l7.185,25.388l8.048,25.551m8.697,-451.702l-54.397,25.226l-40.621,30.736l-40.407,34.627l-35.489,39.109l-37.597,42.404l-42.459,42.189l-52.668,33.222l-55.369,30.412l-53.101,27.225l-51.695,23.12l-50.994,9.832l-51.318,13.018l-51.317,13.451l-49.859,8.048l-46.942,-0.755l-45.916,-8.319l-37.759,-16.584l-32.141,-17.232l-27.063,-21.607l-23.39,-18.745l-21.067,-20.689l-21.176,-21.283l-19.662,-20.798l-22.58,-18.852l-2.863,-36.787l3.188,-26.955m253.022,753.829l24.578,-11.452l19.987,-22.256l19.663,-39.272l73.789,-21.985l72.061,-26.739l69.738,-27.982l67.631,-36.408l49.805,-36.733l14.477,-10.695m511.502,-695.111l-24.039,38.948l-34.896,92.965l-18.906,19.502m-1092.42,533.108l-14.098,-3.997l-1.675,-6.644l4.16,-11.831l4.915,-8.049l11.506,-12.423l28.737,-29.55l30.251,-34.895l18.636,-28.9l10.209,-25.766m-218.234,-271.227l-6.482,19.932m1025.27,-29.872l-26.254,-8.967l-7.13,-14.315m-278.627,-28.631l-14.37,23.932m339.075,167.565l-10.912,-26.145l-3.998,-15.611m49.644,-70.278l28.144,3.673l24.254,8.535l12.585,10.425m-1212.28,143.689l-1.513,29.872l-1.998,10.804m1082.91,-291.43l17.285,-24.038m-94.856,373.107l-16.637,-16.855l-9.67,-28.143m200.787,-255.346l-22.526,-19.933l-11.29,-24.578m-164.865,981.138l-31.114,-5.24l-58.016,5.889l-46.294,-10.263l-51.156,-9.778l-52.668,-14.208l-41.702,-13.827l-42.189,-12.533l-29.71,-8.481l-27.224,-11.776l-15.937,-67.361l-15.07,-46.781l-17.772,-35.543l-24.741,-18.421m-281.977,-430.311l-11.992,28.63l-31.709,22.471l-29.602,6.752l-0.054,0l-29.44,1.459l-16.043,-0.648l-8.265,-0.973l-5.781,-2.755l-7.67,-4.268l-6.59,-6.103m1043.53,-236.656l8.859,-30.195m45.808,-190.201l1.513,1.028l20.904,34.679l-8.103,31.169m-643.361,177.72l-45.483,19.934l-38.731,9.993l-41.486,1.621l-34.735,-4.755l-32.627,-10.803l-28.035,-16.529l-23.714,-14.424l-21.122,-13.99l-19.175,-13.18l-17.827,-17.449l-16.043,-15.395l-6.375,-25.065l-5.024,-16.853l2.431,-17.502l11.831,-9.94l21.283,-5.672l23.497,7.293l14.316,4.753l5.24,0.27l4.698,5.456l6.376,4.484l1.026,1.998l-2.215,17.989l0.215,0.811l0.595,1.026l5.186,5.185l1.566,14.315l5.619,4.538l3.025,12.154l3.456,11.992l0.972,2.863l-1.943,7.995l-0.325,4.322l2.863,7.291l0.702,12.317l-1.134,22.418l-7.671,37.813l-8.319,36.192l-8.481,36.949l-7.886,32.681l-6.861,31.168l-4.43,24.958l34.951,39.487l33.654,43.053l35.004,44.295l15.881,47.699l-1.945,48.184l-17.556,45.375l-33.438,35.599l-46.023,19.554l-51.372,5.618l-46.078,-4.268l-40.135,-7.886l-30.574,-11.884m967.849,-535.702l-27.927,-18.259m208.943,51.967l-32.465,-9.453m-155.357,-73.845l13.558,-31.275m-14.098,-7.941l-29.98,-16.422l-2.809,-1.945m178.315,-23.876l-19.555,22.309l-16.854,21.824l-21.715,3.296l-23.282,25.172m-92.425,129.212l-1.298,3.943l-0.648,1.999m-703.807,578.917l0.108,-17.988l-10.75,-26.794l-20.581,-29.115l-27.063,-27.604l-25.982,-28.036l-24.417,-26.414l-20.473,-25.497l-14.531,-21.553l-7.509,-14.316l-4.322,-11.613l-3.024,-14.477l0.648,-15.45l1.08,-3.619l4.592,-8.048l4.969,-6.321l10.48,-9.616l25.335,-21.445l29.873,-28.252l22.579,-26.739l15.125,-22.363l9.885,-24.686l9.13,-33.329m672.152,20.742l-11.344,21.229l-18.528,34.789l-3.35,6.265l-30.952,51.805l-19.663,32.95l-65.902,80.651l-74.816,62.985l-4.322,3.673l-108.468,50.399l-8.157,3.781l-91.076,17.34l-16.961,5.51l-56.072,14.477l-0.216,0.054m570.706,-614.892l5.941,-1.188l17.34,6.319l13.829,14.207l10.319,24.686l16.582,31.061m-80.703,50.508l31.979,-14.855m-1075.56,84.376l5.942,-31.331l9.615,-29.278l13.883,-30.628l15.827,-32.303l17.125,-38.353l18.852,-41.865l15.395,-47.05l9.886,-34.248m1137.14,-87.888l-21.337,29.495m-1170.85,370.458l-5.402,-7.778l3.241,-19.608l8.319,-25.713l12.37,-26.416l13.829,-25.226l13.882,-31.926l13.344,-32.086l18.312,-44.349l19.824,-39.218l25.119,-26.955m892.386,97.125l-28.089,-24.092m51.803,-48.833l-1.566,-8.804m108.901,-107.714l-3.187,8.481l-8.697,24.957l9.399,25.01l9.616,27.873l3.402,33.493l-9.453,38.406l-23.605,41.055l-40.73,33.924l-35.923,2.052l-0.324,-0l-0.162,0.162l-22.526,24.795l2.701,13.936l0.973,29.818l4.374,26.632l1.513,38.028m-987.836,-71.898l-12.587,22.472l-10.587,22.525l-6.482,18.744l-0.974,5.402l-2.322,0.865l-0.972,2.755l-8.913,11.776l-13.073,-1.567l-15.125,-10.804l-1.998,-24.254l6.644,-27.117l10.749,-28.144l12.695,-29.656l13.289,-30.251l16.691,-38.136l20.581,-40.73l17.123,-48.833l10.103,-30.412l5.455,-31.06l3.511,-38.841m1079.62,-718.986l31.007,52.02l25.388,42.621l37.111,71.034l10.912,76.544l-21.176,84.864l27.55,87.51l6.158,100.798l-47.267,58.07l-0.108,76.652l-18.311,70.764l-28.306,27.765m-1163.67,-83.242l18.582,9.237l7.995,10.156l21.661,2.431l37.867,-4.538l58.772,-4.753l60.394,-3.025l57.042,6.644l59.961,15.773l67.74,21.607l65.74,26.254l53.479,29.223l45.213,30.359l35.274,30.899l29.007,32.411l28.468,39.163l25.497,47.914l20.743,55.369l15.342,58.611l14.531,57.529l13.072,52.668l12.641,48.617l10.371,38.462m317.845,-449.057l0.379,11.398l-8.211,15.072l-22.419,33.545m-53.153,-64.768l5.725,-17.881l2.432,-7.562l4.159,-13.072l4.591,-5.618l6.698,-15.989l5.348,-10.264l3.943,-7.671l31.385,-30.034l51.372,-18.853l54.181,3.511l4.484,5.133l22.687,25.659l2.107,2.376m-321.357,1018.74l25.551,-32.303l48.671,-38.731l61.203,-51.859l56.828,-50.668l44.619,-43.107l14.206,-6.806l2.918,-1.08l10.21,-5.186m-238.655,197.437l-41.432,-36.409l-35.544,-10.155l-37.219,-9.561l-52.397,-10.966l-55.856,-15.665l-52.776,-11.615l-54.774,-6.59l-49.805,-5.726l-41.758,-8.588l-33.275,-11.615l-24.038,-47.212l-23.228,-34.193m-488.868,-1097.82l-0.54,4.699l-4.537,44.943l-4.592,44.89l18.852,29.979l16.855,38.624l20.419,30.196l17.394,14.045l14.855,1.783l13.775,5.186l16.42,5.402l10.048,12.587l19.123,5.833l43.647,0.54l64.823,-4.862l66.118,1.729l63.31,9.291l65.686,18.421l72.871,24.631l67.847,28.198l55.478,31.277l48.021,31.655l39.975,30.035l35.597,29.656l32.682,38.623l27.333,47.32l19.717,54.073l16.097,54.613l13.775,51.695l13.072,47.212l13.451,42.135l10.264,31.871l8.588,19.23l6.429,8.806l6.536,6.049l16.476,6.861l32.789,8.967l40.568,6.753l33.168,3.565l34.841,2.971l30.737,5.077l26.469,-4.484m118.679,-442.735l41.54,-4.268m-2.431,-60.825l-37.057,19.501l-2.052,45.592l-5.618,44.186l-0.054,0.109l-6.753,11.344l-33.437,56.016l-51.425,36.625l-36.625,24.579l-36.138,18.636l-34.14,1.242l-5.781,-5.293l-31.006,-28.252l-34.032,-9.129l-35.435,8.049l-44.674,18.312l-50.724,29.603l-54.666,33.113l-53.964,29.872l-53.588,26.739l-53.045,20.96l-56.342,14.963l-58.61,8.696l-72.007,-3.402l-65.686,-49.32l-48.292,-42.403l5.24,-38.787l5.347,-41.756l3.565,-45.645l3.565,-38.516l-2.862,-29.332l-3.404,-13.234l-3.079,-2.377l-1.89,-3.835l-1.837,-5.942l-17.069,-8.157l-12.912,-10.642l-11.883,-11.29l-10.209,-8.265l-6.915,-7.238l-3.458,-7.617l-1.944,-7.346l2.215,-10.371l5.077,-8.481l6.752,-8.914l9.399,-5.186l13.992,-0.431l0.918,0.864l2.215,4.051l-1.188,3.781l-3.404,9.453l-1.35,13.775l5.834,4.484l8.481,4.213l10.75,3.728l11.992,2.917l14.531,2.916l5.185,0.703l1.243,0.27l-1.998,18.366l-0.109,0.216l-7.022,11.992l-8.265,5.835l-1.729,0.431l-1.62,-1.08l-4.808,-2.322l-5.943,-1.459l-1.026,-0.325l-1.188,-0.485l-0.972,-0.27l-1.026,-0.649l-6.752,-5.077l-0.703,-0.541l-2.269,-0.702l-8.968,-6.05l-0.971,-0.81l-9.724,-9.778l-7.778,-7.129l-5.673,-4.755l-3.078,-8.535l-2.755,-6.212l1.89,-7.508l4.917,-7.779l5.779,-6.645l8.535,-4.969l1.134,0l0.433,1.08l2.214,2l-0.431,1.458l3.24,8.696l5.618,3.458l8.373,3.673l10.372,4.052l10.803,3.294l12.803,-0.756l2.809,-0.648l1.458,-0.378l2.161,-0.486l7.4,-1.729l0.054,0.054l0.216,0.108l8.806,3.079l4.375,0.702l18.745,11.29l0.269,2.269l1.729,-0.54l6.698,-6.482l3.944,-5.51l3.025,-3.349l8.589,-11.56l11.992,-16.53l0.217,-0.216l14.962,-20.527l21.122,-24.363l30.682,-28.36l36.084,-31.654l33.761,-29.818l32.412,-29.818l35.869,-31.548l42.457,-35.328l49.913,-42.404l57.855,-49.049l60.447,-52.776l57.367,-53.586l44.242,-56.665l16.853,-66.335l-9.561,-59.799l-26.955,-67.955l-31.277,-63.309l-41.865,-59.961l-51.749,-59.367l-64.174,-49.859l-66.119,-27.82l-62.554,-7.995l-71.142,11.129l-67.361,29.493l-25.172,11.02l-81.893,40.947l-15.448,7.67l-39.813,12.587m341.02,1516.14l20.419,37.543l-10.751,59.799l-16.42,65.956l-18.692,73.304m-212.995,-237.574l-7.183,42.675l-11.345,21.553l-18.042,6.59m707.265,-740.269l3.349,-6.483m-952.618,463.533l3.567,-15.827l4.644,-9.832l11.074,-14.746l27.929,-38.084m867.915,-152.656l-6.914,22.741l-3.727,32.628l-12.695,46.673m-281.221,-317.413l-41.648,-26.146l-48.238,-33.761l-55.045,-33.87l-65.741,-31.925l-75.139,-27.712l-72.385,-21.067l-68.28,-12.963l-71.683,-2.81l-68.278,-1.891l-45.97,-1.242l-19.556,-9.453l-16.528,-10.534l-16.584,-6.968l-16.693,-5.402l-14.855,-4.051l-17.826,-11.291l-20.959,-29.169l1.081,-59.042l-0.217,-0.325l-18.69,-26.307l-8.265,-20.473l0.487,-5.456l0.593,-2.754m5.079,-38.732l6.049,11.506l14.477,18.474l19.717,15.935l19.123,9.67l20.851,6.644l22.256,9.562l26.037,10.965l29.062,11.237l34.787,12.423l50.454,13.559l66.82,14.747l0.595,0.162l72.871,17.071l75.68,23.174l78.705,28.305l73.357,34.572l63.471,37.705l54.127,38.353l43.215,38.893l27.874,38.353l8.318,48.616m437.281,-125.7l-19.772,-20.204m-190.145,186.905l3.242,-49.535l5.077,-12.965l11.56,-29.764l28.468,-28.468l1.404,-1.242l0.217,-0.378l1.242,-2.269l1.783,-3.241l0.108,-0.054l0.054,-0.054m-569.518,767.334l49.967,-0.649l25.875,23.174l8.265,42.945l2.27,55.044l1.403,70.549m-521.926,-396.82l-0.109,-0.217l-0.108,-0.162l-5.672,-9.884l-0.756,-1.405l-4.7,-11.29l-2.701,-17.881l5.187,-21.445l-3.35,-4.861l-2.43,-3.62l-8.211,-13.288l-0.972,-24.794l1.565,-13.559l5.997,-11.398l5.348,-18.636l2.322,-17.286l1.188,0.323l1.729,0.973l3.781,0.377l2.216,0.595l3.565,1.243l2.322,2.971l5.889,7.562l-0,14.045l6.05,3.998l15.665,3.997l28.793,6.86l44.673,3.619l37.597,-35.597l18.852,-29.009l4.429,-27.496l-26.361,-23.281l-32.086,-19.771l-33.385,-21.662l-35.058,-4.807l-20.796,23.228l-27.28,-4.646l-28.36,-2.701l-26.091,-5.402l-21.445,-8.21l-9.399,-7.184l-0.702,-7.834l13.397,-23.335l3.727,-5.888l7.616,-16.152l4.646,-9.777l-1.405,-3.026l2.755,-5.725l0.325,-0.757l-0.433,-2.052l-0.81,-34.95l4.16,-36.733l8.264,-32.573l11.452,-32.627l2.16,-20.257l0.595,-11.128l-2.107,-7.13l-13.072,-1.567l-7.508,-3.566l-2.054,-5.617l-0.972,-4.646l-4.051,-6.103l-3.242,-4.971l-0.216,-0.324l-0.593,-1.457l-2.431,-7.996l-0.919,-2.808l-0.486,-1.459l-0.108,-0.432l-1.296,-14.91l0.972,-4.754l-2.377,-17.879l-0.432,-3.404l0.486,-0.593l0.432,-0.487l0.919,-8.427l-0.216,-1.782l-3.457,-3.025l0,-6.374l-0.541,-4.376l-0.108,-1.08l-0.216,-1.891l-0.918,-1.783l-1.242,-3.349l-5.24,-2.538l-8.589,-18.367l-7.779,-22.634l-0.378,-1.026l-2.863,-18.421l-1.026,-3.24l-5.456,-33.114l5.185,-37.435l8.103,-41.107l8.967,-35.869l0.811,-4.592l0.593,-2.754l5.079,-38.732l13.505,-49.373l1.781,-0.811l11.615,6.051l17.826,10.696l21.337,8.481l26.523,6.211l25.875,12.533l35.274,9.939l33.492,15.936l46.725,13.72l52.021,21.014l65.038,24.308l69.954,27.009l75.301,29.224l78.706,33.87l71.737,37.65l63.147,39.434l52.776,40.352l43.269,40.838l32.087,40.784l26.793,42.675l31.439,44.565l39.866,53.263l55.315,10.371l55.099,2.863l21.012,-13.126l0.649,-2.755l5.294,-22.365l8.265,-32.032l10.047,-15.072l5.347,-15.718l3.89,-1.621l6.591,-5.564l5.402,-3.835l11.343,-10.858l-2.593,-14.046l1.945,-2.106l28.036,-16.043l4.051,-2.593l13.505,-3.35l15.233,-3.781l4.753,-1.188l16.368,0.702l24.579,1.135l9.345,13.18l11.992,16.799l4.861,22.635l0.487,2.214l-1.567,50.615l-3.835,50.184l-0.108,0.919l-1.459,11.938l-28.684,65.146l-52.722,39.271l-38.082,36.678l-38.949,19.88l-42.241,7.238l-36.463,-20.095l-35.544,-13.883l-26.254,7.077l-37.597,23.498l-48.292,35.76l-53.91,38.947l-56.72,33.438l-56.827,27.441l-55.586,21.122l-54.936,15.286l-54.721,10.696l-53.532,11.453l-41.486,14.099l-36.733,8.103l-36.949,3.51l-36.625,2.323l-0.377,-0l-27.766,-0.431l-14.044,-2.81l-6.753,-2.431l-4.105,-1.297l-2.755,-1.188l-1.026,-0.431l-1.675,-0.757l-6.267,-2.593l-6.374,-1.188l-17.664,-3.457l-4.483,4.266l-1.458,1.405l-0.974,-0.108l-28.522,-3.241l-1.511,-0.432l-12.803,-3.619l-14.747,-2.755l-2.917,-2.43l-20.203,-6.915l-1.134,-0.378l-17.286,-7.185l-5.51,-2.323l-11.615,-4.645l-4.105,-1.62l-13.126,-2.864l-5.941,-1.837l-4.052,3.026l-6.213,25.118l2,19.122l-0.595,0.866l1.404,4.428l0.217,0.487l0.486,1.08l7.13,14.262l16.313,12.154l4.701,19.716l-0.217,27.873l-0.863,33.168l21.283,14.423l4.698,36.084l13.775,32.465l31.71,14.801l46.455,7.185l21.662,25.28l54.18,-5.131l54.073,-8.751l56.072,-14.315l63.957,-19.987l73.79,-24.254l77.786,-26.901l13.937,-36.841l3.89,-50.561l-2.27,-56.828l-5.186,-62.175l-5.995,-61.959l-10.587,-64.337l-17.395,-64.39l-27.01,-64.768l-35.166,-58.665l1.136,-29.331l-11.723,-23.445l-27.927,-22.092l-22.688,3.348l-30.251,-16.853l-33.437,-14.045l-33.87,-10.75l-1.35,-1.405l1.999,-13.234l2.808,-19.339l5.997,-23.335l13.558,-26.74l25.551,-31.384l33.816,-34.735l34.41,-33.221l33.545,-33.275l37.489,-34.626l45.537,-39.056l56.018,-46.725l64.93,-53.479l69.684,-55.423l64.443,-48.617l42.027,-30.412m-684.685,1267.76l-28.089,-14.477l-32.682,-15.125l-25.01,-15.557l-21.068,-27.712l-12.208,-22.471l-11.019,-29.44l-1.404,-32.736l-2.054,-19.447m252.807,-1355.65l53.532,21.067l54.722,28.36l58.555,36.949l60.933,44.673l61.474,50.292l60.338,52.452l56.125,54.666l53.263,55.423l46.24,52.776l42.243,50.021l41.594,50.508l37.38,48.13l32.303,45.43l22.471,39.002l18.8,36.785l17.015,34.465l10.966,25.118l3.403,3.835l-0.648,2.432l-4.376,7.778l-15.881,25.01l-14.315,32.628l-9.885,3.349l-21.77,-3.349l-19.717,-25.984l-20.688,-31.546l-25.659,-33.329l-29.764,-37.327l-34.788,-40.676l-41.973,-43.215l-49.211,-43.646l-55.802,-43.594l-62.552,-45.699l-70.44,-48.401l-70.927,-46.51l-71.251,-42.782l-67.361,-37.436l-60.933,-30.196l-56.232,-25.767l-48.887,-20.04l-51.588,-14.154l-30.412,-13.829l-30.359,-7.021l-23.768,-1.729l-19.826,2.214l-7.67,10.319m148.605,-101.285l42.513,11.343l48.563,18.313l52.344,24.47l57.421,31.061l62.391,38.19l66.335,44.728l67.523,49.534l65.903,52.021l62.986,53.478l55.477,50.129l48.886,47.266l44.782,47.158l39.704,46.024l33.275,42.189l27.171,38.083l21.013,31.007l19.501,29.656l13.667,20.959l10.155,6.644l7.563,6.752l-7.185,46.943l-20.257,38.569l11.291,40.676l-19.61,48.13l-10.695,58.178l-3.403,46.078l-17.88,58.124m-301.586,-1157.78l55.585,48.509l50.724,56.234l42.945,58.555l35.651,57.531l26.2,54.451l13.18,45.483l41.379,21.554l42.512,47.59l43.269,50.453l37.111,50.075l34.355,54.992l23.661,58.447l7.292,62.608m91.021,34.896l-26.901,-58.611m-282.949,1157.45l15.233,-63.472l47.753,-65.307l61.527,-65.309l55.314,-58.772l50.022,-29.333l28.738,-19.068m-25.551,-73.357l-31.006,16.853l-65.093,5.781m-1061.52,-540.726l-2.162,-6.753l-0.323,-69.521m1320.27,-87.78l-2.106,3.835l-31.71,58.557m33.816,-62.392l-1.891,3.619l-31.222,60.717m-495.944,696.353l73.897,10.804l58.556,12.369l50.939,12.1l38.947,15.45l38.03,51.264l42.026,76.435m-687.061,-1734.53l43.431,-15.881l20.31,-7.401l11.506,-4.214m713.261,1668.26l-38.137,-70.765l-27.819,-75.572l-18.367,-100.852l-1.135,-100.313l9.183,-88.481l1.08,-10.373l5.241,-15.61m-677.285,104.526l29.765,79.137l5.564,66.767l-19.123,65.199l-41.973,65.471l-74.005,30.196l-60.825,10.804l-58.34,4.592m993.51,22.202l-36.733,-76.761l-18.907,-54.288l-6.321,-19.231l-0.647,-1.134l-3.619,-13.775l-18.961,-73.412l1.566,-9.183l-19.608,-85.565l-0.216,-0.972l0.917,-98.963m4.538,-15.124l-8.102,5.725l-4.699,11.453l-0.054,0.486l-16.909,78.867l-3.079,14.315l-11.56,98.368l-15.989,111.71l-50.454,106.632l-59.312,88.698l-47.482,83.027l-37.705,79.516m249.89,-564.71l-0.163,-88.59m-17.231,-9.237l-1.513,4.645l-7.508,22.741l-20.96,63.688l-26.414,98.909l-31.061,106.254l-39.488,99.609l-55.098,91.076l-49.968,86.538l-46.78,78.814m229.903,-634.287l-4.537,7.563l-30.846,51.912l-45.861,102.203l-51.587,97.072l-54.721,94.64l-58.287,94.533l-45.537,80.919l-42.351,81.459m365.544,-619.268l-35.544,77.355l-36.949,100.043l-44.295,103.283l-44.025,94.045l-55.91,92.697l-50.614,86.051l-45.539,80.002m378.833,-154.169l-43.54,-84.539l-42.89,-99.124l-49.913,-8.427l-46.402,-6.536l-47.86,-12.964l-42.405,-15.018l-21.175,-17.231l-4.268,-15.288l63.634,-71.412l26.901,-44.998l16.745,-27.927l0.92,-2.431l22.201,-56.827l8.373,-18.043l-2.701,-6.374l-4.214,-9.994l-7.886,-18.42m-885.904,-917.667l-16.692,24.362l-7.779,10.319m483.574,-342.316l25.118,-4.484l41.163,-7.292l10.642,-1.891l20.527,-3.619l79.028,-9.129l99.287,-0.27l79.353,5.887l70.062,34.41l103.284,36.355m-994.211,1399.19l0.162,0.594l0.216,0.486l5.941,20.852l8.806,13.881l3.24,26.2l-1.619,28.792l0.377,17.178l1.027,15.558l11.992,19.5l6.32,18.259l4.915,14.152l25.929,15.881l20.149,27.388l27.442,18.311l33.329,11.291l42.567,4.051l23.822,1.459l23.822,-0.595l25.983,-5.132l10.858,-5.401l45.591,-12.263l54.559,-17.771l19.987,-6.429l48.508,-15.557l15.018,-5.131l62.77,-21.393l25.28,-24.901l76.436,-30.953l8.86,-4.646l59.582,-31.331l6.32,-3.349l68.982,-53.208l58.609,-63.418l33.978,-52.452l0.865,-22.687l-8.914,-26.092l-12.424,-35.867l-10.588,-39.11l-11.343,-45.538l-12.316,-52.182l-17.071,-54.72l-29.115,-49.913l-35.707,-48.402l-52.506,-16.582l-35.435,27.117l-42.297,23.93l-43.701,20.419l-43.701,9.724l-43.16,-0.595l-34.897,-9.237l-24.47,-7.131l-12.64,7.563l-21.014,6.104l-25.335,9.345l-28.143,4.7l-27.55,-0.216l-1.188,-0.379l-22.85,-7.239l-2.377,-0.755l-3.079,-2.377l-18.258,-6.321l-3.241,-2.268l-14.207,-9.832l-0.216,-0.108l-0.972,-5.671l3.186,-4.376l3.35,-6.752l1.134,-5.456l0.054,-0.703l-0.703,-1.836l1.513,-3.727l-3.565,-10.426l-2.646,0.378l-1.892,-1.837l-2.214,-18.041l0.27,-1.891l2.053,-14.477l-0.864,-3.889l0.701,-1.567l10.696,0l3.35,-2.214l10.749,2.485l3.35,4.644l5.186,0.811l15.881,5.51l4.376,3.998l2.322,2.863l1.783,7.616l0.972,19.123l2.431,1.296l-0,0.108l0.594,0.109l38.461,5.779l0.162,-0.163l-1.404,-10.587l1.404,-1.08l22.634,12.1l12.478,7.023l3.296,1.62l2.539,1.944l1.404,1.135l-2.107,3.241l-10.696,5.132l-14.477,6.05l-16.097,4.807l-3.242,0.054l-19.77,3.134l-21.878,-0.972l-11.775,-2.971l-2.863,-3.242l-2.054,-0.972l-6.428,-12.911l-2.322,-11.83l-0.864,-14.206l0.648,-15.017l2.16,-13.397l2.432,-5.294l-2.809,-2.646l-2.377,1.835l-3.079,-0.863l-3.026,-0.864l-8.157,-4.106l-8.048,-3.997l-3.457,-5.51l-0.487,-0.216l-3.133,-1.026l-9.129,-2.054l-15.881,-8.535l-22.687,-15.449l-18.692,-19.878l-6.59,-31.277l7.834,-41.433l16.582,-42.134l22.257,-47.374l30.195,-50.994l0.216,-0.323l41.163,-55.694l49.859,-62.337l63.039,-71.034l81.136,-70.819l96.37,-62.931l102.743,-45.646l98.422,-28.307l96.747,-15.07l94.099,6.59l91.617,34.086l76.868,47.968l65.039,74.33l44.888,80.272l-40.999,79.082l-64.768,79.894l-66.173,53.424l-59.637,43.106l-46.889,38.679l-42.62,40.405l-40.135,36.787l-40.676,37.002l-45.16,36.355l-56.936,29.385l-52.344,40.191l-48.887,26.685l-49.21,22.201l-50.778,8.914l-60.717,-4.647l-46.239,-26.36l-25.875,12.1l-31.331,6.212l-31.493,5.131l-31.169,-2.322l-29.817,-8.103l-24.039,-9.615l-20.688,-12.802l-18.097,-13.18l-13.667,-9.94l-13.559,-8.427l-16.961,7.724l-18.529,14.532l-17.879,28.414l-15.504,30.033l-15.072,34.519l-10.371,29.115l-4.592,24.254l-0.377,11.669l15.935,13.721l11.83,23.876l-3.889,27.494l-18.961,17.017l-22.796,1.729l-10.102,-2.27l-3.889,-1.026l-9.291,-2.593l-6.049,-1.674l-0.325,-0.486l-1.188,-1.675l-10.804,-0.703l-8.21,0.595l-7.941,0.81l-2.053,4.105l-3.673,11.884l-0,0.487l-8.049,4.646l-17.881,0l-8.373,-0.811l-11.613,-2.863l-0,-0.054l-17.556,-12.694l-7.887,-24.903l-21.174,-6.266l-8.374,-8.697l1.998,-10.804l3.998,-20.419l8.265,-29.817l13.396,-30.738l0.919,-5.293l9.454,-21.824l-0.433,-1.782l-0.054,-0.108l-7.724,-33.168l3.24,-7.562l10.318,-9.021l11.073,-8.643l11.02,-8.265l7.455,-4.591l0.81,-1.621l3.296,-3.025l4.105,-5.348l9.129,-25.659l7.454,-20.851l5.025,-21.931l2.863,-12.425l-2.54,-7.832l-0.215,-8.535l-1.082,-0.325l-1.08,-7.994l0.271,-5.078l-0.433,-0.865l-15.125,0l-16.313,-1.08l-0.27,-0.054l-14.316,-4.375l-10.371,-5.51l-3.025,-4.159l-0.918,-1.675l-2.809,-4.861l-0.108,-0.162l-0.487,-2.378l1.945,-7.4l-3.51,-10.479l-1.028,-2.108l-0.593,-1.727l-1.351,-9.778l-0.054,-3.512l-1.999,-18.041l-0.431,-0.757l-0.649,-1.297l0.108,-1.296l0.972,-8.967l0.054,-0.27l1.188,-0.864l1.351,-1.35l2.863,-0.595l1.027,0.054l2.647,-0.379l4.106,-0.593l4.536,-0.27l0.271,0.054l0.486,-1.297l3.024,2.431l1.459,1.999l-1.728,1.459l-1.135,6.59l-2.647,12.639l-0.972,14.262l1.459,13.936l7.724,4.267l3.241,12.479l0.055,0.108l3.079,11.451l1.674,2l0.378,0.81l2.647,0.865l3.889,1.296l4.43,-0.757l7.239,-7.508l5.402,-10.371l1.673,-15.774l-0.647,-5.186l-1.837,-2.268l-10.588,-9.454l-1.35,-1.026l-1.026,-0.594l-5.943,-21.446l-2.701,-9.885l-0.539,-0.81l-0.595,-0.919l-20.635,-31.384l-23.984,-39.596l5.131,-40.947l-0.485,-46.563l-0.649,-51.912l3.943,-55.909l9.237,-61.69l5.781,-19.986l13.45,-46.996l1.837,-4.268l30.52,-70.871l7.779,-10.319l1.837,-3.565l3.727,-5.672l50.021,-73.466l9.399,-9.074l27.658,-26.793l37.813,-36.571l25.767,-16.314l33.167,-7.616l96.532,-63.796l46.995,-1.35l106.741,-52.29l58.88,9.561l61.095,25.01l59.042,38.893l121.11,-34.409l116.463,-13.45l112.413,9.886l47.483,68.657l24.849,75.68l9.399,82.54l-5.133,82.972l-30.033,83.783l-45.106,84.701l-50.238,61.149l-53.315,51.588l-50.616,46.671l-46.51,41.865l-42.675,37.435l-38.785,32.843l-34.194,27.82l-31.492,25.28l-31.493,24.093l-33.545,25.334l-34.788,24.362l-32.898,21.068l-29.223,15.449l-43.323,-25.334l-49.753,-21.392l-0.214,-0.27l-51.103,-16.53l-46.131,-12.37l-42.946,-6.645l-43.483,0.703l-38.679,4.268l-31.546,-18.583l-13.829,-32.087l1.783,-41.324l13.127,-48.887l23.983,-53.964l29.927,-57.26l43.161,-65.578l49.48,-69.198l61.095,-77.301l82.162,-78.111l101.231,-68.495l111.008,-48.887l108.686,-33.329l108.415,-19.824l101.122,0.431l106.472,21.014l90.048,45.159l74.869,74.978l-13.611,84.701l-32.574,81.729l-53.695,80.759l-64.444,71.737l-58.07,55.638l-47.266,45.592l-47.32,41.324l-42.728,37.543l-41.703,35.49l-41.162,32.519l-38.461,23.444l-29.818,8.102l-28.09,-25.064l-44.673,-35.004l-54.397,-36.841l-64.121,-34.679l-74.49,-31.115l-75.195,-23.93l-75.193,-18.852l-74.113,-8.211l-66.552,-8.481l-50.291,-5.456l-24.092,-9.237l-21.067,-12.208l-21.607,-8.373l-19.393,-8.428l-18.745,-4.644l-15.61,-9.346l-1.838,-73.628l4.484,-79.352l16.637,-82.703l33.006,-88.698l56.774,-90.589l5.347,-5.294l71.359,-70.332l2.538,-2.863l1.729,-1.351l11.235,-7.131l44.405,-28.899l17.394,-11.398l15.61,-10.209l23.553,-12.1l20.365,-10.481l43.161,-22.147l50.075,-16.476l56.395,-5.023l107.28,-46.619l16.314,-2.376l9.994,-3.781l11.397,0.647l67.631,-9.776l71.035,6.86l107.605,-1.243l99.664,33.815l73.682,36.95l65.416,52.451l84.269,70.927l35.545,75.949l24.254,37.49l33.707,52.236l42.188,103.499l5.564,57.801l3.079,31.978l4.214,43.863l-0.918,53.371l-17.448,115.113l-7.077,20.42l-22.202,64.335l-7.94,23.012l-21.716,24.146l-13.883,33.329l1.783,4.917l0.703,1.944l7.832,21.499l2.431,60.825l-16.314,70.873l-40.514,68.495l-60.013,48.184l-43.378,40.514l-12.1,8.644l-0.703,0.486l-4.538,15.124l-8.263,2.054l-9.508,-1.297l-0.54,0.379l-9.832,6.967l-7.238,2.053l-31.817,8.967l-17.394,4.863l-13.234,-2.701l-16.044,-3.35l-7.994,-1.675l-15.612,10.481l-38.353,48.238l-39.542,50.885l-3.889,5.024l-54.613,57.476l4.592,25.172l1.404,16.8l-70.44,53.532l-5.456,4.159l-73.087,36.193l-12.587,6.267l-66.82,24.631l-18.474,6.806l-35.707,21.878l-16.961,5.51l-34.897,14.208l-30.899,5.023l-11.992,1.998l-3.294,0.541l-3.296,0.972l-6.319,1.837l-27.496,7.995l-30.737,7.832l-18.042,6.59l-26.847,5.51l-42.027,5.294l-42.404,3.025l-23.66,-13.775l-46.996,-4.753l-21.121,-27.712l-13.29,-33.977l-6.319,-37.489l-2.431,-36.463l-3.565,-29.44l-7.509,-20.527l-21.878,-9.885l-11.505,-12.532l-9.616,-8.644l-5.131,-10.803l-3.025,-18.907l-17.773,-12.262l-11.02,-16.044l-1.781,-17.123l3.564,-9.075l0.054,-0.162l-2.43,-3.566l-4.322,-4.591l-2.16,-4.646l-1.729,-4.051l-4.915,-3.998l-3.675,-4.915l-3.727,-3.133l-1.945,-1.89l-2.97,-21.231l-0.216,-12.316l1.026,-5.563l0.756,-6.752l1.297,-5.079l5.24,-23.12l9.615,-4.969l16.745,-0l0.325,0.054l18.96,4.7l19.285,-1.729l23.39,-2.971l32.843,-5.672l1.08,0.108l5.24,20.257l11.777,39.109l30.087,30.682l26.47,27.28l23.93,23.715l18.366,20.527l8.103,18.853l-2.215,19.986l-14.045,19.231l-23.012,14.639l-28.845,9.507l-30.359,1.08l-13.072,-19.393l-7.616,-13.072l-4.701,-12.154l-3.618,-17.286l1.781,-21.986l1.243,-2.322l-0.702,1.134l-28.143,-3.187l-21.878,-4.699l-18.474,-7.185l-17.394,-12.1l-1.837,-2.377l-2.053,-3.079l-6.32,-12.1l-2.971,-5.402l-2.377,-4.322l-0.918,-23.443l3.673,-13.074l5.186,-8.102l5.996,-9.345l5.132,-12.802l-0.379,-14.478l-3.781,-6.915l-4.213,-2.43l-1.134,-0.81l-4.593,-0.811l-1.188,-0.323l-4.915,-2.647l-4.268,1.998l-1.026,10.21l-6.968,17.879l-4.322,11.831l-1.08,13.828l1.512,23.877l6.753,7.508l10.533,8.049l14.747,5.186l15.558,4.105l18.582,9.507l23.551,13.721l5.296,12.371l-4.43,6.374l-1.946,25.496l3.566,18.69l5.617,11.507l8.265,11.236l26.254,1.944l28.9,-3.24l28.845,-8.265l22.634,-11.669l13.829,-12.477l3.296,-12.209l-6.105,-3.943l-4.16,-0.703l-2.809,-0.918l-1.565,0.217l-0.703,0.864l1.567,5.564l3.618,4.536l6.861,6.592l15.125,10.587l26.254,9.831l35.597,6.104l40.136,6.861l39.974,1.944l45.754,-5.563l50.777,-11.399l55.154,-14.638l56.88,-15.99l58.935,-23.877l59.258,-29.71l58.826,-37.921l53.91,-44.403l45.808,-43.862l33.384,-31.277l-6.375,-31.331l-4.266,-40.352l-4.592,-51.642l-6.05,-66.82l29.007,-59.907l31.871,-46.403l34.302,-40.999l37.921,-29.818l31.061,-21.986l37.11,-16.098l18.746,3.134l19.77,-7.509l35.436,-71.683l-5.239,-92.317l-25.39,-76.76l-38.947,-68.118l-51.857,-49.913l-48.995,-40.838l-65.039,-38.839l-71.412,-0.702l-68.658,22.904l-77.895,46.185l-79.407,57.368l-72.384,58.556l-60.825,54.073l-48.996,46.239l-37.488,40.191l-30.035,37.65l-31.6,36.084l-27.117,37.381l-19.826,34.032l-8.103,29.223l2.378,24.255l5.024,20.202l38.299,11.507l41.81,13.829l41.27,17.664l20.798,-12.64l23.821,-17.881l28.144,-22.525l32.789,-26.416l33.978,-27.927l32.141,-27.064l31.762,-26.792l35.545,-29.819l39.542,-34.032l45.483,-39.54l50.939,-45.377l53.804,-50.021l54.018,-54.99l47.86,-57.692l39.38,-75.086l4.753,-77.516l-12.209,-82.487l-24.254,-69.468l-31.33,-71.412l-46.943,-61.797l-66.441,-49.967l-66.498,-30.683l-113.817,16.421l-110.954,48.185l-111.602,53.586l-54.019,-10.857l-103.553,66.551l-88.537,86.7l-35.436,-4.268l-28.899,2.431l-20.906,10.1l-38.893,58.341l-14.855,20.797l-1.946,3.565l-30.465,82.811l-17.178,75.68l-6.375,74.113l0.487,63.31l-0,0.757l21.068,25.496l-1.19,62.715l-0.377,52.452l3.348,44.836l3.781,3.133l23.553,19.339l9.453,-1.027l7.239,3.133l8.426,48.347l-2.97,27.496l2.755,26.955l-7.996,38.731l-19.175,43.052l-17.017,41.271l-19.5,38.893l-14.963,32.628l-15.45,30.52l-8.049,30.898l-7.237,31.655l13.935,26.847l15.126,4.322l18.366,-0.595l19.825,-5.077l21.554,-3.35l22.958,0.973l2.646,1.944l11.074,1.405l11.181,0.378l24.903,4.808l17.286,2.107l8.319,3.565l1.08,0.108l23.607,-16.206l5.995,-28.035l-10.154,-31.547l1.512,-30.466l7.454,-28.576l11.884,-29.656l15.125,-31.007l0.109,-0.162l15.125,-26.847l15.18,-18.366l12.693,-16.746l7.618,-6.644l3.078,-5.835l3.512,-5.726l7.454,-4.266l4.321,-3.512l0.217,-2.323l-0.487,-3.889l-0,-0.27l-0.108,-0.756l-0.108,-0.649l-1.351,-3.025l-1.727,-0.972l0.054,-6.807l-0.487,-5.564l0.27,-2.592l0.648,-1.026l-0.162,-1.297l-5.779,-2.107l-7.78,-1.998l-5.779,-3.89l-10.102,-2.971l-20.905,-6.536l-27.928,-2.863l-35.435,-14.045l-26.254,-21.932l-3.079,-3.781l-4.214,-1.405l-37.434,-1.727l-15.234,-3.512l-14.747,-10.101l-0.918,-41.379l-7.886,-50.453l0.809,-52.938l2.864,-64.067l3.781,-71.304l12.37,-80.974l19.501,-83.945l36.409,-93.398l66.982,-97.502m463.047,1625.96l31.277,-79.247l37.003,-78.435l45.7,-96.206l-14.1,-49.427l-1.026,-24.255l5.51,-21.283l0.108,-30.952l-7.077,-44.241l-10.479,-52.345l-10.966,-57.151l-11.775,-61.095l-14.208,-61.42l-19.932,-57.853l-25.173,-49.373l-25.983,-40.082l-23.498,-34.193l-30.034,-30.79l-39.65,-29.819l-48.725,-27.766l-58.718,-24.416l-60.176,-19.23l-54.506,-13.29l-49.805,-5.616l-52.938,4.051l-51.533,5.563l-30.899,9.238l-7.941,-5.025l-11.073,-11.02l-18.906,-18.69l-4.538,-4.483l-1.459,-49.804l10.371,-53.209l15.126,-57.962l19.069,-68.549l29.656,-74.33l39.001,-79.947l53.155,-87.781l79.515,-91.399l101.555,-80.866l115.437,-60.447l117.436,-44.89m-341.127,55.91l-94.208,87.51l-79.083,99.988l-34.896,91.022l-25.551,85.025l-15.989,78.003l-6.644,70.17l-5.564,61.041l-3.727,52.722l1.35,48.4" style="fill:none;stroke:#119956;stroke-width:8.33px;"/></svg>