<?xml version="1.0" encoding="UTF-8" standalone="no"?>
<!DOCTYPE svg PUBLIC "-//W3C//DTD SVG 1.1//EN" "http://www.w3.org/Graphics/SVG/1.1/DTD/svg11.dtd">
<svg width="100%" height="100%" viewBox="0 0 1077 193" version="1.1" xmlns="http://www.w3.org/2000/svg" xmlns:xlink="http://www.w3.org/1999/xlink" xml:space="preserve" xmlns:serif="http://www.serif.com/" style="fill-rule:evenodd;clip-rule:evenodd;stroke-linecap:square;stroke-miterlimit:2;">
    <g transform="matrix(1,0,0,1,-36,-238.423)">
        <g transform="matrix(0.027327,0,0,0.0273975,119.575,334.923)">
            <g transform="matrix(1,0,0,1,-3058.33,-3522.22)">
                <clipPath id="_clip1">
                    <rect x="0" y="0" width="6116.67" height="7044.44"/>
                </clipPath>
                <g clip-path="url(#_clip1)">
                    <g transform="matrix(5.55556,0,0,5.55556,0,0)">
                        <path d="M963.792,863.656L963.792,711.906C963.792,709.114 962.291,706.531 959.875,705.156L836.333,633.781L959.875,562.448C962.291,561.073 963.792,558.49 963.792,555.698L963.792,399.448C963.792,396.656 962.291,394.073 959.875,392.698L824.583,314.573C822.167,313.156 819.209,313.156 816.792,314.573L693.209,385.906L693.209,243.198C693.209,240.406 691.708,237.823 689.291,236.448L557.875,160.573L557.875,22.364L1083.5,325.823L1083.5,932.74L963.792,863.656ZM550.083,1249.74L24.459,946.281L144.167,877.156L275.541,953.031C276.75,953.74 278.083,954.073 279.459,954.073C280.791,954.073 282.167,953.74 283.375,953.031L406.958,881.698L406.958,1024.41C406.958,1027.2 408.458,1029.78 410.875,1031.16L546.125,1109.28L546.167,1109.28C547.375,1109.99 548.708,1110.32 550.083,1110.32C551.417,1110.32 552.75,1109.99 553.958,1109.28L689.291,1031.16C691.708,1029.78 693.209,1027.2 693.209,1024.41L693.209,881.698L816.792,953.031C818,953.74 819.333,954.073 820.667,954.073C822.042,954.073 823.375,953.74 824.583,953.031L956,877.156L1075.67,946.281L550.083,1249.74ZM16.667,325.823L542.25,22.364L542.25,160.573L410.875,236.448C408.458,237.823 406.958,240.406 406.958,243.198L406.958,385.906L283.375,314.573C280.958,313.156 277.958,313.156 275.541,314.573L140.25,392.698C137.834,394.073 136.333,396.656 136.333,399.448L136.333,555.698C136.333,558.49 137.834,561.073 140.25,562.448L263.834,633.781L140.25,705.156C137.834,706.531 136.333,709.114 136.333,711.906L136.333,863.656L16.667,932.74L16.667,325.823ZM550.083,312.323L430.417,243.198L550.083,174.115L669.75,243.198L550.083,312.323ZM557.875,464.031L557.875,325.823L677.584,256.739L677.584,394.948L557.875,464.031ZM685.375,546.656L565.708,477.573L820.667,330.365L940.375,399.448L685.375,546.656ZM693.209,698.41L693.209,560.198L948.167,412.989L948.167,551.156L693.209,698.41ZM693.209,725.448L812.875,794.531L812.875,932.74L693.209,863.656L693.209,725.448ZM550.083,781.031L430.417,711.906L550.083,642.823L669.75,711.906L550.083,781.031ZM557.875,794.531L677.584,725.448L677.584,1019.87L557.875,1088.99L557.875,794.531ZM422.583,1019.87L422.583,725.448L542.25,794.531L542.25,1088.99L422.583,1019.87ZM151.958,412.989L406.958,560.198L406.958,698.41L151.958,551.156L151.958,412.989ZM534.458,477.573L414.792,546.656L159.792,399.448L279.459,330.365L534.458,477.573ZM542.25,325.823L542.25,464.031L422.583,394.948L422.583,256.739L542.25,325.823ZM422.583,560.198L542.25,491.114L542.25,629.281L422.583,698.41L422.583,560.198ZM557.875,491.114L677.584,560.198L677.584,698.41L557.875,629.281L557.875,491.114ZM159.792,711.906L279.459,642.823L296.25,652.531L399.167,711.906L279.459,781.031L159.792,711.906ZM151.958,725.448L271.666,794.531L271.666,932.74L151.958,863.656L151.958,725.448ZM287.291,932.74L287.291,794.531L406.958,725.448L406.958,863.656L287.291,932.74ZM820.667,781.031L701,711.906L820.708,642.823L940.375,711.906L820.667,781.031ZM828.5,794.531L948.167,725.448L948.167,863.656L828.5,932.74L828.5,794.531ZM553.958,2.073C551.542,0.698 548.583,0.698 546.167,2.073L4.958,314.573C2.542,315.948 1.042,318.531 1.042,321.323L1.042,946.281C1.042,949.073 2.542,951.656 4.958,953.031L546.167,1265.53C547.375,1266.2 548.708,1266.57 550.083,1266.57C551.417,1266.57 552.75,1266.2 553.958,1265.53L1095.21,953.031C1097.62,951.656 1099.12,949.073 1099.12,946.281L1099.12,321.323C1099.12,318.531 1097.62,315.948 1095.21,314.573L553.958,2.073Z" style="fill:rgb(123,225,82);fill-rule:nonzero;stroke:rgb(123,225,82);stroke-width:16px;"/>
                    </g>
                </g>
            </g>
        </g>
        <g transform="matrix(1.14761,0,0,1.15606,-15.2638,-58.1785)">
            <g transform="matrix(1.05251,0,0,1,-11.8157,0)">
                <g transform="matrix(144.167,0,0,144.167,950.2,391)">
                </g>
                <text x="225px" y="391px" style="font-family:'Helixa-Regular', 'Helixa';font-size:144.167px;fill:white;">V<tspan x="305.364px 381.829px 430.277px 473.833px 548.024px 613.226px 654.775px 734.197px 807.846px 889.802px " y="391px 391px 391px 391px 391px 391px 391px 391px 391px 391px ">ertex Labs</tspan></text>
            </g>
        </g>
    </g>
</svg>
