<svg width="100%" height="100%" viewBox="0 0 835 835" version="1.1" xmlns="http://www.w3.org/2000/svg" xmlns:xlink="http://www.w3.org/1999/xlink" xml:space="preserve" xmlns:serif="http://www.serif.com/" style="fill-rule:evenodd;clip-rule:evenodd;stroke-linejoin:round;stroke-miterlimit:2;"><path id="Shape" d="M824.857,417.172c-0,64.921 -52.819,117.737 -117.739,117.737l-5.706,0l4.032,4.03c22.241,22.24 34.486,51.807 34.486,83.255c0,31.449 -12.245,61.017 -34.486,83.256c-22.237,22.236 -51.804,34.485 -83.252,34.485c-31.445,-0 -61.017,-12.249 -83.255,-34.485l-4.033,-4.032l0,5.7c0,64.922 -52.817,117.739 -117.738,117.739c-64.918,-0 -117.736,-52.817 -117.736,-117.739l0,-5.7l-4.032,4.032c-22.239,22.236 -51.805,34.485 -83.255,34.485c-31.448,-0 -61.013,-12.249 -83.253,-34.485c-45.904,-45.908 -45.904,-120.603 0,-166.511l4.032,-4.03l-5.7,0c-64.921,0 -117.739,-52.816 -117.739,-117.737c0,-64.922 52.818,-117.74 117.739,-117.74l5.7,-0l-4.032,-4.03c-45.904,-45.908 -45.904,-120.603 0,-166.508c22.24,-22.237 51.805,-34.487 83.253,-34.487c31.45,0 61.016,12.25 83.255,34.487l4.032,4.031l0,-5.702c0,-64.919 52.818,-117.74 117.736,-117.74c64.921,0 117.738,52.821 117.738,117.74l0,5.702l4.033,-4.031c22.238,-22.237 51.81,-34.487 83.255,-34.487c31.448,0 61.015,12.25 83.252,34.487c22.241,22.238 34.486,51.804 34.486,83.253c0,31.45 -12.25,61.016 -34.486,83.255l-4.032,4.03l5.706,-0c64.92,-0 117.739,52.818 117.739,117.74Zm-146.435,94.746l28.696,0c52.243,0 94.747,-42.503 94.747,-94.746c0,-52.244 -42.504,-94.748 -94.747,-94.748l-28.696,0l-94.747,94.748l94.747,94.746Zm-143.518,-111.002l0,32.509l16.256,-16.253l-16.256,-16.256Zm0,-78.492l0,45.977l32.514,32.513l78.489,-78.49l-111.003,0Zm0,143.518l0,45.976l111.003,0l-78.489,-78.489l-32.514,32.513Zm-22.991,-166.51l-0,-111.001l-78.489,78.49l32.511,32.511l45.978,-0Zm-212.483,68.969l0,-45.977l-111.003,0l78.491,78.49l32.512,-32.513Zm-172.208,143.517l28.69,0l94.748,-94.746l-94.748,-94.748l-28.69,0c-52.245,0 -94.747,42.504 -94.747,94.748c-0,52.243 42.502,94.746 94.747,94.746Zm384.691,-356.002l-0,-28.693c-0,-52.244 -42.502,-94.746 -94.747,-94.746c-52.24,0 -94.745,42.502 -94.745,94.746l-0,28.693l94.745,94.748l94.747,-94.748Zm-0,356.002l-0,-22.985l-22.987,22.985l22.987,0Zm-0,-166.509l-0,-22.985l-22.987,0l22.987,22.985Zm205.026,276.785c-0,-25.308 -9.858,-49.1 -27.753,-66.994l-20.288,-20.291l-133.994,0l0,133.995l20.289,20.287c17.894,17.896 41.689,27.753 66.999,27.753c25.308,0 49.1,-9.857 66.994,-27.753c17.895,-17.895 27.753,-41.688 27.753,-66.997Zm-205.026,-165.775l-0,-78.494l-55.5,-55.501l-78.492,0l-55.5,55.501l-0,78.494l55.5,55.499l78.492,0l55.5,-55.499Zm-110.999,78.49l16.252,16.257l16.255,-16.257l-32.507,0Zm-78.493,-346.478l-0,111.001l45.98,-0l32.511,-32.511l-78.491,-78.49Zm189.492,518.687l-0,-28.693l-94.747,-94.745l-94.745,94.745l-0,28.693c-0,52.245 42.505,94.749 94.745,94.749c52.245,-0 94.747,-42.504 94.747,-94.749Zm-212.483,-407.686l0,-133.992l-20.287,-20.289c-17.897,-17.896 -41.693,-27.751 -67,-27.751c-25.304,-0 -49.1,9.855 -66.994,27.751c-36.941,36.94 -36.941,97.051 0,133.992l20.287,20.289l133.994,-0Zm235.474,-133.992l0,133.992l133.994,-0l20.288,-20.289c17.895,-17.895 27.753,-41.688 27.753,-66.996c-0,-25.309 -9.858,-49.101 -27.753,-66.996c-17.894,-17.896 -41.686,-27.751 -66.994,-27.751c-25.31,-0 -49.105,9.855 -66.999,27.751l-20.289,20.289Zm-212.483,156.984l-0,22.985l22.988,-22.985l-22.988,0Zm-22.991,346.48l0,-133.995l-133.994,0l-20.287,20.291c-36.941,36.939 -36.941,97.05 0,133.991c17.894,17.896 41.69,27.753 66.994,27.753c25.307,0 49.103,-9.857 67,-27.753l20.287,-20.287Zm0,-235.479l0,-32.509l-16.257,16.256l16.257,16.253Zm101.484,-133.993l32.507,-0l-16.255,-16.255l-16.252,16.255Zm-101.484,212.486l0,-45.976l-32.512,-32.513l-78.491,78.489l111.003,0Zm212.483,133.992l-0,-111.001l-45.978,0l-32.511,32.513l78.489,78.488Zm-189.492,-156.977l-0,22.985l22.988,0l-22.988,-22.985Zm-0,45.976l-0,111.001l78.491,-78.488l-32.511,-32.513l-45.98,0Z" style="fill:#4be62f;stroke:#4be62f;stroke-width:18.97px;"/></svg>