<?xml version="1.0" encoding="UTF-8" standalone="no"?><!DOCTYPE svg PUBLIC "-//W3C//DTD SVG 1.1//EN" "http://www.w3.org/Graphics/SVG/1.1/DTD/svg11.dtd"><svg width="100%" height="100%" viewBox="0 0 1955 310" version="1.1" xmlns="http://www.w3.org/2000/svg" xmlns:xlink="http://www.w3.org/1999/xlink" xml:space="preserve" xmlns:serif="http://www.serif.com/" style="fill-rule:evenodd;clip-rule:evenodd;stroke-linejoin:round;stroke-miterlimit:2;"><g id="g10"><path id="path364" d="M0,21.253l134.948,-0l0,91.656l0.879,0l102.903,-91.656l151.287,-0l-124.123,112.411l143.609,154.25l-170.773,-0l-102.903,-109.153l-0.879,0l0,109.153l-134.948,-0l0,-266.661Z" style="fill:#fff;fill-rule:nonzero;"/><path id="path370" d="M604.477,241.66c60.021,-0 56.057,-66.958 56.057,-89.069c0,-22.111 0.666,-83.465 -56.057,-83.465c-56.747,-0 -56.069,61.354 -56.069,83.465c-0,22.111 -3.999,89.069 56.069,89.069m-0,-227.822c153.224,-0 194.904,32.129 194.904,141.549c0,109.431 -41.68,141.553 -194.904,141.553c-153.244,0 -194.912,-32.122 -194.912,-141.553c-0,-109.42 41.668,-141.549 194.912,-141.549" style="fill:#fff;fill-rule:nonzero;"/><path id="path376" d="M1090.4,187.775l-0,101.93l138.543,-0l-0,-266.638l-138.543,0l-0,91.645l-99.398,0l0,-91.645l-138.57,0l0,266.638l138.57,-0l0,-101.93l99.398,-0Z" style="fill:#fff;fill-rule:nonzero;"/><path id="path382" d="M1294.45,23.066l141.76,-0l-0,203.174c-0,0 113.147,0.326 128.179,0.326c15.056,-0 23.939,-13.493 23.939,-13.493l0,76.631l-293.878,-0l0,-266.638Z" style="fill:#fff;fill-rule:nonzero;"/><path id="path396" d="M1918.87,111.34c-29.329,-23.472 -54.463,-31.362 -81.492,-31.801c-26.416,-0.458 -50.544,8.728 -50.544,24.805c-0,12.693 18.037,17.951 81.137,31.099c51.839,10.849 86.368,37.325 86.368,86.618c0,55.641 -92.567,87.1 -175.361,87.1c-58.126,0 -102.745,-10.465 -142.676,-28.381l-0,-74.678c24.679,25.746 79.9,39.419 122.204,39.419c23.47,-0 34.985,-3.447 34.985,-22.115c-0,-11.556 -14.632,-22.092 -58.936,-30.205c-83.937,-15.379 -112.303,-39.407 -112.303,-80.489c-0,-59.002 73.366,-94.119 163.773,-94.119c48.733,-0 93.488,1.506 132.844,19.805l0,72.942Z" style="fill:#fff;fill-rule:nonzero;"/><path id="path402" d="M1509.42,131.841l9.709,-17.127c-29.218,-14.45 -37.836,-51.21 -22.996,-72.173c15.957,-22.558 60.268,-32.224 84.196,2.694c20.376,29.793 0.879,55.029 -7.971,62.26c-8.845,7.219 -62.938,24.346 -62.938,24.346" style="fill:#fff;fill-rule:nonzero;"/></g></svg>