<svg width="100%" height="100%" viewBox="0 0 1173 1173" version="1.1" xmlns="http://www.w3.org/2000/svg" xmlns:xlink="http://www.w3.org/1999/xlink" xml:space="preserve" xmlns:serif="http://www.serif.com/" style="fill-rule:evenodd;clip-rule:evenodd;stroke-linejoin:round;stroke-miterlimit:2;"><path id="Shape" d="M1153.96,637.346c15.131,-0.214 22.855,18.074 12.152,28.769l-106.692,106.638c-3.035,3.036 -7.113,4.797 -11.403,4.929l-96.351,10.806c-4.292,0.131 -8.371,1.893 -11.407,4.928l-144.547,144.547c-3.035,3.036 -4.797,7.116 -4.927,11.406l-10.808,96.352c-0.129,4.289 -1.892,8.369 -4.926,11.403l-106.638,106.693c-10.698,10.702 -28.985,2.979 -28.771,-12.152l3.854,-272.806l0.503,0.003l-0.253,-0.25l25.921,-13.511c5.338,-2.783 10.22,-6.365 14.477,-10.621l172.631,-172.632c4.258,-4.256 7.839,-9.141 10.622,-14.477l13.509,-25.921l0.254,0.252l-0.002,-0.502l272.802,-3.854Zm-647.857,-631.24c10.696,-10.703 28.985,-2.977 28.77,12.152l-3.855,272.803l-0.501,-0.002l0.253,0.254l-25.921,13.509c-5.339,2.782 -10.223,6.365 -14.479,10.621l-172.631,172.631c-4.256,4.257 -7.838,9.14 -10.62,14.477l-13.51,25.921l-0.253,-0.251l0.001,0.501l-272.802,3.856c-15.13,0.214 -22.856,-18.074 -12.153,-28.772l106.693,-106.637c3.035,-3.035 7.114,-4.796 11.404,-4.926l96.349,-10.809c4.293,-0.129 8.373,-1.892 11.408,-4.928l144.548,-144.548c3.033,-3.037 4.797,-7.115 4.927,-11.404l10.807,-96.352c0.129,-4.289 1.892,-8.368 4.926,-11.402l106.639,-106.694Zm20.986,876.184l0.501,0l3.853,272.805c0.216,15.128 -18.073,22.852 -28.769,12.15l-106.639,-106.692c-3.034,-3.035 -4.797,-7.114 -4.925,-11.404l-10.808,-96.352c-0.131,-4.29 -1.893,-8.368 -4.929,-11.404l-144.547,-144.548c-3.035,-3.036 -7.115,-4.798 -11.407,-4.929l-96.35,-10.806c-4.289,-0.13 -8.369,-1.892 -11.403,-4.926l-106.694,-106.639c-10.702,-10.697 -2.976,-28.985 12.154,-28.773l272.802,3.856l-0.001,0.503l0.253,-0.252l13.51,25.921c2.78,5.339 6.364,10.22 10.62,14.476l172.631,172.633c4.258,4.257 9.14,7.837 14.478,10.62l25.92,13.511l-0.25,0.25Zm118.04,-592.361l-0.502,0.002l-3.854,-272.806c-0.215,-15.128 18.073,-22.853 28.77,-12.149l106.639,106.692c3.035,3.035 4.796,7.114 4.925,11.402l10.808,96.353c0.131,4.29 1.893,8.37 4.928,11.406l144.548,144.545c3.036,3.037 7.116,4.799 11.407,4.928l96.351,10.809c4.288,0.129 8.367,1.891 11.402,4.925l106.691,106.639c10.704,10.696 2.979,28.986 -12.149,28.77l-272.805,-3.854l0.001,-0.5l-0.252,0.251l-13.51,-25.921c-2.781,-5.338 -6.364,-10.221 -10.621,-14.479l-172.63,-172.631c-4.256,-4.256 -9.139,-7.837 -14.478,-10.619l-25.92,-13.512l0.251,-0.251Z" style="fill:#4be62f;"/></svg>