<svg width="100%" height="100%" viewBox="0 0 1375 935" version="1.1" xmlns="http://www.w3.org/2000/svg" xmlns:xlink="http://www.w3.org/1999/xlink" xml:space="preserve" xmlns:serif="http://www.serif.com/" style="fill-rule:evenodd;clip-rule:evenodd;stroke-linejoin:round;stroke-miterlimit:2;"><g id="_22" serif:id="22"><path id="Shape" d="M0,934.248l0,-273.821l179.528,-0l0,273.821l-179.528,0Zm238.995,0l-0,-389.476l179.528,-0l-0,389.476l-179.528,0Zm238.994,0l-0,-778.954l179.53,-0l-0,778.954l-179.53,0Zm238.996,0l0,-547.643l179.529,-0l0,547.643l-179.529,0Zm238.993,0l0,-934.248l179.529,0l0,934.248l-179.529,0Zm238.995,-229.474l179.53,-0l-0,229.474l-179.53,0l-0,-229.474Z" style="fill:#4be62f;"/></g></svg>