<svg width="100%" height="100%" viewBox="0 0 1389 917" version="1.1" xmlns="http://www.w3.org/2000/svg" xmlns:xlink="http://www.w3.org/1999/xlink" xml:space="preserve" xmlns:serif="http://www.serif.com/" style="fill-rule:evenodd;clip-rule:evenodd;stroke-linejoin:round;stroke-miterlimit:2;"><path id="Shape" d="M1388.38,288.869c-0,38.86 -31.568,70.362 -70.512,70.362l-162.416,0c-80.375,0 -156.649,-35.402 -208.428,-96.743l-66.305,-78.551c-23.126,-27.399 -57.195,-43.21 -93.093,-43.21l-186.871,-0c-35.898,-0 -69.967,15.811 -93.093,43.21l-66.305,78.551c-51.779,61.341 -128.053,96.743 -208.428,96.743l-162.417,0c-38.943,0 -70.512,-31.502 -70.512,-70.362c-0,-38.861 31.569,-70.362 70.512,-70.362l156.64,-0c42.445,-0 82.725,-18.696 110.067,-51.091l61.138,-72.427c50.838,-60.229 125.727,-94.989 204.64,-94.989l182.387,0c78.911,0 153.801,34.76 204.641,94.989l61.136,72.427c27.343,32.395 67.624,51.091 110.067,51.091l156.64,-0c38.944,-0 70.512,31.501 70.512,70.362Zm-602.996,628.046l-182.387,0c-78.913,0 -153.802,-34.763 -204.64,-94.988l-61.138,-72.428c-27.342,-32.395 -67.622,-51.091 -110.067,-51.091l-156.64,0c-38.943,0 -70.512,-31.502 -70.512,-70.363c-0,-38.86 31.569,-70.364 70.512,-70.364l162.417,0c80.375,0 156.649,35.406 208.428,96.747l66.305,78.55c23.126,27.397 57.195,43.211 93.093,43.211l186.871,0c35.898,0 69.967,-15.814 93.093,-43.211l66.305,-78.55c51.779,-61.341 128.053,-96.747 208.428,-96.747l162.416,0c38.944,0 70.512,31.504 70.512,70.364c-0,38.861 -31.568,70.363 -70.512,70.363l-156.64,0c-42.443,0 -82.724,18.696 -110.067,51.091l-61.136,72.428c-50.84,60.225 -125.73,94.988 -204.641,94.988Zm4.283,-454.422c-0,52.619 -42.747,95.272 -95.476,95.272c-52.729,0 -95.475,-42.653 -95.475,-95.272c-0,-52.616 42.746,-95.273 95.475,-95.273c52.729,0 95.476,42.657 95.476,95.273Z" style="fill:#4be62f;"/></svg>