<?xml version="1.0" encoding="UTF-8" standalone="no"?><!DOCTYPE svg PUBLIC "-//W3C//DTD SVG 1.1//EN" "http://www.w3.org/Graphics/SVG/1.1/DTD/svg11.dtd"><svg width="100%" height="100%" viewBox="0 0 3184 596" version="1.1" xmlns="http://www.w3.org/2000/svg" xmlns:xlink="http://www.w3.org/1999/xlink" xml:space="preserve" xmlns:serif="http://www.serif.com/" style="fill-rule:evenodd;clip-rule:evenodd;stroke-linejoin:round;stroke-miterlimit:2;"><g id="g6"><g id="g8"><path id="polyline10" d="M376.521,301.996l167.633,-157.342l-165.254,0l-168.225,157.342l165.846,-0" style="fill:#fff;fill-rule:nonzero;"/></g><g id="g12"><path id="polyline14" d="M421.087,449.554l122.138,-115.054l-367.225,0l-122.971,115.054l368.059,0" style="fill:#fff;fill-rule:nonzero;"/></g><g id="g16"><g id="g18"><path id="path20" d="M3.108,0.958l592.117,0l0,592.105l-592.117,-0l0,-592.105Zm33.75,558.355l524.646,-0l0,-524.605l-524.646,0l0,524.605Z" style="fill:#fff;"/></g></g><g id="g22"><path id="polyline24" d="M1106.71,1.063l74.691,-0l0,111.983l232.667,-0l-0,-111.984l74.692,0.001l-0,294.825l-74.692,-0l-0,-111.771l-232.667,-0l0,111.771l-74.691,-0l-0,-294.825" style="fill:#fff;fill-rule:nonzero;"/></g><g id="g26"><path id="polyline28" d="M1918.31,1.063l-388.926,-0l0,294.825l388.925,-0l0,-70.859l-314.208,0l0,-40.912l296.621,-0l0,-71.071l-296.621,-0l0,-40.888l314.209,0l-0,-71.095" style="fill:#fff;fill-rule:nonzero;"/></g><g id="g30"><path id="polyline32" d="M2249.53,295.888l-224.679,-203.971l0,203.971l-74.692,-0l0,-294.584l87.863,0l223.437,202.779l0,-203.021l74.717,0l0,294.826l-86.646,-0" style="fill:#fff;fill-rule:nonzero;"/></g><g id="g34"><path id="path36" d="M2758.75,1.063l-0,219.154c-0,41.787 -34.542,75.671 -77.2,75.671l-235.475,-0c-42.613,-0 -77.175,-33.88 -77.175,-75.671l-0,-219.154l74.691,-0l0.001,199.554c-0.001,13.462 11.162,24.412 24.912,24.412l190.642,0c13.754,0 24.887,-10.95 24.887,-24.412l0,-199.555l74.717,0.001" style="fill:#fff;fill-rule:nonzero;"/></g><g id="g38"><path id="path40" d="M3087.4,295.888c51.546,-0 93.333,-40.759 93.333,-91.301c0,-50.57 -41.787,-91.537 -93.333,-91.537l-203.892,-0c-11.825,-0 -21.429,-9.388 -21.429,-21c0,-11.583 9.604,-19.888 21.429,-19.888l286.75,0l0,-71.1l-288.262,0c-51.575,0 -93.363,40.971 -93.363,91.538c0,50.542 41.788,91.512 93.363,91.512l203.866,0c11.821,0 21.4,9.388 21.4,21c0,11.584 -9.579,19.917 -21.4,19.917l-291.012,0l-0,70.854l292.55,0" style="fill:#fff;fill-rule:nonzero;"/></g><g id="g42"><g id="g44"><path id="path46" d="M766.321,113.046l-0,-40.888l215.712,0c11.534,0 20.896,9.15 20.896,20.446c0,11.296 -9.362,20.446 -20.896,20.446l-215.712,0m-0,71.246l-0,111.592l-74.742,-0l0,-294.825l292.6,-0c51.55,-0 93.338,40.97 93.338,91.537c-0,50.542 -41.788,91.696 -93.338,91.696l-22.983,-0l112.883,111.587l-104.846,0l-113.2,-111.587l-89.712,-0Z" style="fill:#fff;"/></g></g><g id="g48"><path id="path50" d="M2604,592.029c-18.834,0 -34.334,-15.629 -34.334,-35.254l0,-128.246c0,-19.6 15.505,-35.258 34.334,-35.258l223.25,-0l0.212,37.479l-199.291,0c-10.1,0 -18.063,8.329 -18.063,18.325l0,88.258c0,10 7.963,18.329 18.063,18.329l199.291,0l-0.212,36.367l-223.25,0" style="fill:#fff;fill-rule:nonzero;"/></g><g id="g52"><path id="path54" d="M2907.57,592.933l-0,-37.558l202.866,0c11.663,0 22.242,-8.492 22.242,-21.217c0,-12.27 -10.075,-21.95 -22.242,-21.95l-146.871,0c-33.508,0 -60.462,-26.687 -60.462,-59.325c0,-32.608 26.954,-59.27 60.463,-59.27l200.904,-0l-0,37.712l-199.792,0c-11.638,0 -22.217,8.463 -22.217,21.188c0,12.27 10.075,21.954 22.217,21.954l146.867,-0c33.537,-0 60.491,26.683 60.491,59.325c0,32.608 -26.925,59.137 -60.491,59.137l-203.975,0" style="fill:#fff;fill-rule:nonzero;"/></g><g id="g56"><path id="polyline58" d="M2365.35,431.092l-96.646,-0l0.029,161.841l-40.362,0l-0.025,-161.737l-96.567,-0.446l0,-37.479l233.571,-0l0,37.821" style="fill:#fff;fill-rule:nonzero;"/></g><g id="g60"><rect id="rect62" x="2441.02" y="393.271" width="40.308" height="199.662" style="fill:#fff;"/></g><g id="g64"><path id="path66" d="M1808.66,592.933l0,-37.558l202.863,0c11.637,0 22.216,-8.492 22.216,-21.217c0,-12.27 -10.079,-21.95 -22.216,-21.95l-146.871,0c-33.508,0 -60.488,-26.687 -60.488,-59.325c0,-32.608 26.98,-59.27 60.488,-59.27l200.879,-0l0,37.712l-199.791,0c-11.638,0 -22.217,8.463 -22.217,21.188c-0,12.27 10.104,21.954 22.217,21.954l146.895,-0c33.513,-0 60.463,26.683 60.463,59.325c-0,32.608 -26.925,59.137 -60.488,59.137l-203.95,0" style="fill:#fff;fill-rule:nonzero;"/></g><g id="g68"><rect id="rect70" x="1684.01" y="393.271" width="40.308" height="199.662" style="fill:#fff;"/></g><g id="g72"><path id="polyline74" d="M689.913,393.508l40.358,0l0.025,161.788l214.025,0.421l-0,37.45l-254.013,-0l-0.395,-199.659" style="fill:#fff;fill-rule:nonzero;"/></g><g id="g76"><g id="g78"><path id="path80" d="M1075.61,592.029l-46.762,0c-18.858,0 -34.358,-15.629 -34.358,-35.254l-0,-128.246c-0,-19.6 15.5,-35.258 34.358,-35.258l189.108,-0c18.859,-0 34.329,15.658 34.329,35.258l0,128.246c0,19.625 -15.47,35.254 -34.329,35.254l-142.346,0m118.175,-161.279l-140.787,0c-10.104,0 -18.063,8.329 -18.063,18.325l0,88.258c0,10 7.963,18.329 18.063,18.329l140.787,0c10.105,0 18.092,-8.329 18.092,-18.329l0,-88.258c0,-9.996 -7.987,-18.325 -18.092,-18.325Z" style="fill:#fff;fill-rule:nonzero;"/></g></g><g id="g82"><path id="path84" d="M1418.23,555.662l110.396,0c10.104,0 18.091,-8.329 18.091,-18.329l0,-9.783c0,-10 -7.987,-18.329 -18.091,-18.329l-98.388,-0l0.213,-37.45l122.35,-0c18.833,-0 34.329,15.658 34.329,35.258l0,49.746c0,19.625 -15.5,35.254 -34.329,35.254l-190.509,0c-18.804,0 -34.358,-15.629 -34.358,-35.254l0,-128.246c0,-19.6 15.55,-35.258 34.358,-35.258l224.151,0.241l-0,37.242l-199.95,0c-10.105,0 -18.092,8.329 -18.092,18.325l-0,88.258c-0,10 7.987,18.33 18.092,18.33l31.737,-0" style="fill:#fff;fill-rule:nonzero;"/></g></g></svg>